G04*
G04 #@! TF.GenerationSoftware,Altium Limited,Altium Designer,19.1.5 (86)*
G04*
G04 Layer_Color=8421504*
%FSLAX25Y25*%
%MOIN*%
G70*
G01*
G75*
%ADD23R,0.03543X0.07874*%
%ADD24R,0.07874X0.03543*%
%ADD25R,0.19685X0.19685*%
%ADD26R,0.01968X0.01181*%
%ADD27R,0.02165X0.02165*%
%ADD28R,0.05118X0.05512*%
%ADD29R,0.08661X0.04134*%
%ADD30R,0.04134X0.03937*%
%ADD31R,0.03543X0.11811*%
%ADD32R,0.04724X0.01575*%
%ADD33R,0.07874X0.02362*%
%ADD34R,0.02362X0.07874*%
%ADD35R,0.05906X0.03150*%
%ADD36R,0.07874X0.05709*%
%ADD37R,0.03937X0.02756*%
%ADD38R,0.32992X0.41968*%
%ADD39R,0.12008X0.04000*%
%ADD40R,0.02520X0.02520*%
%ADD41R,0.09252X0.06102*%
%ADD42R,0.08189X0.14410*%
%ADD43R,0.02165X0.02165*%
%ADD44R,0.03937X0.04331*%
%ADD45R,0.02520X0.02520*%
%ADD46R,0.08189X0.15000*%
%ADD47R,0.45000X0.35000*%
%ADD48R,0.04331X0.03937*%
%ADD49R,0.21260X0.11417*%
%ADD50R,0.03150X0.03150*%
%ADD51R,0.03740X0.03347*%
%ADD52R,0.03347X0.03740*%
%ADD53R,0.06102X0.09252*%
%ADD54R,0.04528X0.05709*%
%ADD55R,0.03150X0.03150*%
%ADD56R,0.10630X0.04331*%
%ADD57R,0.05709X0.04528*%
%ADD58R,0.14410X0.08189*%
%ADD59R,0.06299X0.12598*%
%ADD60R,0.03543X0.03150*%
%ADD61R,0.02362X0.01968*%
%ADD62R,0.13189X0.13189*%
%ADD63O,0.01181X0.03740*%
%ADD64O,0.03740X0.01181*%
%ADD65R,0.04331X0.02362*%
G04:AMPARAMS|DCode=66|XSize=11.81mil|YSize=19.29mil|CornerRadius=1.95mil|HoleSize=0mil|Usage=FLASHONLY|Rotation=90.000|XOffset=0mil|YOffset=0mil|HoleType=Round|Shape=RoundedRectangle|*
%AMROUNDEDRECTD66*
21,1,0.01181,0.01539,0,0,90.0*
21,1,0.00791,0.01929,0,0,90.0*
1,1,0.00390,0.00770,0.00396*
1,1,0.00390,0.00770,-0.00396*
1,1,0.00390,-0.00770,-0.00396*
1,1,0.00390,-0.00770,0.00396*
%
%ADD66ROUNDEDRECTD66*%
G04:AMPARAMS|DCode=67|XSize=11.81mil|YSize=20.47mil|CornerRadius=1.95mil|HoleSize=0mil|Usage=FLASHONLY|Rotation=90.000|XOffset=0mil|YOffset=0mil|HoleType=Round|Shape=RoundedRectangle|*
%AMROUNDEDRECTD67*
21,1,0.01181,0.01658,0,0,90.0*
21,1,0.00791,0.02047,0,0,90.0*
1,1,0.00390,0.00829,0.00396*
1,1,0.00390,0.00829,-0.00396*
1,1,0.00390,-0.00829,-0.00396*
1,1,0.00390,-0.00829,0.00396*
%
%ADD67ROUNDEDRECTD67*%
%ADD68R,0.02165X0.03150*%
%ADD69R,0.03543X0.05906*%
%ADD70R,0.03937X0.03150*%
%ADD71R,0.05906X0.03543*%
%ADD72R,0.07480X0.12598*%
%ADD73R,0.07480X0.03543*%
%ADD74R,0.02362X0.01378*%
%ADD75R,0.04331X0.07480*%
%ADD76R,0.01968X0.01575*%
G04:AMPARAMS|DCode=77|XSize=49.21mil|YSize=29.53mil|CornerRadius=0mil|HoleSize=0mil|Usage=FLASHONLY|Rotation=270.000|XOffset=0mil|YOffset=0mil|HoleType=Round|Shape=Octagon|*
%AMOCTAGOND77*
4,1,8,-0.00738,-0.02461,0.00738,-0.02461,0.01476,-0.01722,0.01476,0.01722,0.00738,0.02461,-0.00738,0.02461,-0.01476,0.01722,-0.01476,-0.01722,-0.00738,-0.02461,0.0*
%
%ADD77OCTAGOND77*%

%ADD78O,0.02953X0.04921*%
%ADD79R,0.01968X0.02362*%
%ADD80R,0.03543X0.03740*%
%ADD81R,0.07835X0.07835*%
D23*
X169816Y384769D02*
D03*
X174816D02*
D03*
X179816D02*
D03*
X184816D02*
D03*
X189816D02*
D03*
X194816D02*
D03*
X199816D02*
D03*
X204816D02*
D03*
X209816D02*
D03*
X214816D02*
D03*
X219816D02*
D03*
X224816D02*
D03*
X229816D02*
D03*
X234816D02*
D03*
X169816Y317840D02*
D03*
X174816D02*
D03*
X179816D02*
D03*
X184816D02*
D03*
X189816D02*
D03*
X194816D02*
D03*
X199816D02*
D03*
X204816D02*
D03*
X209816D02*
D03*
X214816D02*
D03*
X219816D02*
D03*
X224816D02*
D03*
X229816D02*
D03*
X234816D02*
D03*
D24*
X165879Y348805D02*
D03*
Y343805D02*
D03*
Y338805D02*
D03*
Y333805D02*
D03*
Y328805D02*
D03*
Y353805D02*
D03*
Y358805D02*
D03*
Y363805D02*
D03*
Y368805D02*
D03*
Y373805D02*
D03*
D25*
X205367Y355084D02*
D03*
D26*
X130769Y270500D02*
D03*
X126831D02*
D03*
X126932Y265300D02*
D03*
X130868D02*
D03*
X130769Y256800D02*
D03*
X126831D02*
D03*
X126858Y291800D02*
D03*
X130795D02*
D03*
X130895Y275300D02*
D03*
X126958D02*
D03*
D27*
X130498Y283500D02*
D03*
X126955D02*
D03*
X296772Y231731D02*
D03*
X293228D02*
D03*
Y227400D02*
D03*
X296772D02*
D03*
X46372Y420800D02*
D03*
X42828D02*
D03*
X169872Y392800D02*
D03*
X166328D02*
D03*
X127028Y261100D02*
D03*
X130572D02*
D03*
X149960Y268983D02*
D03*
X146417D02*
D03*
X130470Y287600D02*
D03*
X126927D02*
D03*
X247328Y318600D02*
D03*
X250872D02*
D03*
X126987Y279400D02*
D03*
X130530D02*
D03*
X126928Y252500D02*
D03*
X130472D02*
D03*
X79385Y321904D02*
D03*
X82928D02*
D03*
X247328Y314500D02*
D03*
X250872D02*
D03*
X196061Y492530D02*
D03*
X192517D02*
D03*
X230439Y462909D02*
D03*
X233982D02*
D03*
X137607Y384123D02*
D03*
X134064D02*
D03*
X137372Y423717D02*
D03*
X133828D02*
D03*
X101557Y427700D02*
D03*
X105100D02*
D03*
X101853Y384115D02*
D03*
X105396D02*
D03*
X138472Y313443D02*
D03*
X134929D02*
D03*
X138137Y356919D02*
D03*
X134594D02*
D03*
X102728Y357200D02*
D03*
X106272D02*
D03*
X102642Y312850D02*
D03*
X106186D02*
D03*
D28*
X162524Y435271D02*
D03*
X151107D02*
D03*
D29*
X145350Y473279D02*
D03*
Y461665D02*
D03*
D30*
X152338Y467472D02*
D03*
D31*
X299185Y334508D02*
D03*
D32*
X293083Y329390D02*
D03*
Y331949D02*
D03*
Y334508D02*
D03*
Y337067D02*
D03*
Y339626D02*
D03*
D33*
X173620Y472355D02*
D03*
Y467631D02*
D03*
Y462906D02*
D03*
Y458182D02*
D03*
Y453457D02*
D03*
Y448733D02*
D03*
X222832D02*
D03*
Y453457D02*
D03*
Y458182D02*
D03*
Y462906D02*
D03*
Y467631D02*
D03*
Y472355D02*
D03*
D34*
X212399Y435938D02*
D03*
X207675D02*
D03*
X202950D02*
D03*
X193502D02*
D03*
X188777D02*
D03*
X184053D02*
D03*
X183069Y485150D02*
D03*
X187793D02*
D03*
X192517D02*
D03*
X201966D02*
D03*
X206691D02*
D03*
X211415D02*
D03*
D35*
X85928Y266073D02*
D03*
Y261742D02*
D03*
Y270404D02*
D03*
Y274734D02*
D03*
Y257411D02*
D03*
Y253081D02*
D03*
Y279065D02*
D03*
Y283396D02*
D03*
D36*
X108369Y238632D02*
D03*
Y292766D02*
D03*
X75692Y238632D02*
D03*
Y292766D02*
D03*
D37*
X300343Y301576D02*
D03*
X282627D02*
D03*
X300343Y310040D02*
D03*
X282627D02*
D03*
Y294640D02*
D03*
X300343D02*
D03*
X282627Y286176D02*
D03*
X300343D02*
D03*
D38*
X227948Y185805D02*
D03*
D39*
X268354Y199206D02*
D03*
Y172403D02*
D03*
Y179104D02*
D03*
Y185805D02*
D03*
Y192506D02*
D03*
D40*
X25111Y327100D02*
D03*
X21489D02*
D03*
X25111Y300400D02*
D03*
X21489D02*
D03*
X25111Y247000D02*
D03*
X21489D02*
D03*
X25111Y273600D02*
D03*
X21489D02*
D03*
X266900Y406600D02*
D03*
X270522D02*
D03*
X78511Y344300D02*
D03*
X74889D02*
D03*
X29211Y172800D02*
D03*
X25589D02*
D03*
X264948Y162183D02*
D03*
X268570D02*
D03*
X283236Y192498D02*
D03*
X279613D02*
D03*
X27978Y112170D02*
D03*
X31600D02*
D03*
X69085Y321408D02*
D03*
X65463D02*
D03*
X229817Y397239D02*
D03*
X233439D02*
D03*
X180499Y424309D02*
D03*
X184121D02*
D03*
X267021Y441300D02*
D03*
X270642D02*
D03*
X251696Y462363D02*
D03*
X255318D02*
D03*
X180499Y428609D02*
D03*
X184121D02*
D03*
X245923Y265524D02*
D03*
X242301D02*
D03*
X245896Y269886D02*
D03*
X242274D02*
D03*
X134554Y352819D02*
D03*
X138176D02*
D03*
X106339Y353106D02*
D03*
X102717D02*
D03*
X106225Y317225D02*
D03*
X102603D02*
D03*
X134024Y388515D02*
D03*
X137646D02*
D03*
X133789Y428117D02*
D03*
X137411D02*
D03*
X105139Y423647D02*
D03*
X101517D02*
D03*
X105401Y388232D02*
D03*
X101779D02*
D03*
X229789Y392900D02*
D03*
X233411D02*
D03*
X146477Y273383D02*
D03*
X150099D02*
D03*
X134818Y317768D02*
D03*
X138440D02*
D03*
X251787Y466689D02*
D03*
X255410D02*
D03*
X52089Y437800D02*
D03*
X55711D02*
D03*
D41*
X271287Y145647D02*
D03*
X288216D02*
D03*
X224043Y146041D02*
D03*
X240972D02*
D03*
X180539Y145647D02*
D03*
X197468D02*
D03*
X43565Y128800D02*
D03*
X26635D02*
D03*
D42*
X224554Y96789D02*
D03*
X235736D02*
D03*
X224554Y129939D02*
D03*
X235736D02*
D03*
X271405Y96789D02*
D03*
X282586D02*
D03*
X271405Y129939D02*
D03*
X282586D02*
D03*
X180854Y96789D02*
D03*
X192035D02*
D03*
X180854Y129939D02*
D03*
X192035D02*
D03*
D43*
X141385Y345580D02*
D03*
Y342036D02*
D03*
X199600Y396672D02*
D03*
Y393128D02*
D03*
X195500Y396672D02*
D03*
Y393128D02*
D03*
X191500Y396672D02*
D03*
Y393128D02*
D03*
X214700Y396572D02*
D03*
Y393028D02*
D03*
X115501Y311300D02*
D03*
Y314843D02*
D03*
X219400Y392928D02*
D03*
Y396472D02*
D03*
X204800Y393000D02*
D03*
Y396543D02*
D03*
X224828Y396110D02*
D03*
Y392567D02*
D03*
X209800Y393028D02*
D03*
Y396572D02*
D03*
X263685Y352579D02*
D03*
Y349036D02*
D03*
X157152Y412439D02*
D03*
Y408895D02*
D03*
X152977Y412494D02*
D03*
Y408950D02*
D03*
X161917Y412472D02*
D03*
Y408928D02*
D03*
X270185Y260314D02*
D03*
Y263858D02*
D03*
X274285Y263886D02*
D03*
Y260343D02*
D03*
X155414Y251476D02*
D03*
Y255019D02*
D03*
X259485Y305436D02*
D03*
Y308980D02*
D03*
X259285Y296851D02*
D03*
Y293308D02*
D03*
X166417Y412472D02*
D03*
Y408928D02*
D03*
X114724Y385787D02*
D03*
Y382244D02*
D03*
X266085Y260314D02*
D03*
Y263858D02*
D03*
X125286Y353080D02*
D03*
Y356623D02*
D03*
X110384Y352993D02*
D03*
Y356536D02*
D03*
X115400Y353028D02*
D03*
Y356572D02*
D03*
X110448Y317442D02*
D03*
Y313898D02*
D03*
X129724Y388687D02*
D03*
Y385144D02*
D03*
X124724Y385587D02*
D03*
Y382044D02*
D03*
X129700Y423646D02*
D03*
Y427189D02*
D03*
X124717Y423628D02*
D03*
Y427172D02*
D03*
X109600Y423628D02*
D03*
Y427172D02*
D03*
X114800Y423628D02*
D03*
Y427172D02*
D03*
X109724Y388387D02*
D03*
Y384844D02*
D03*
X130501Y317815D02*
D03*
Y314272D02*
D03*
X125501Y314543D02*
D03*
Y311000D02*
D03*
X130365Y353047D02*
D03*
Y356591D02*
D03*
D44*
X270502Y399700D02*
D03*
X258298D02*
D03*
X270602Y389700D02*
D03*
X258398D02*
D03*
X25598Y179900D02*
D03*
X37802D02*
D03*
X283114Y82826D02*
D03*
X270910D02*
D03*
X180110D02*
D03*
X192314D02*
D03*
X224110D02*
D03*
X236314D02*
D03*
X42798Y427800D02*
D03*
X55002D02*
D03*
X270602Y413400D02*
D03*
X258398D02*
D03*
X270602Y423500D02*
D03*
X258398D02*
D03*
X270634Y433700D02*
D03*
X258429D02*
D03*
X151113Y444471D02*
D03*
X163318D02*
D03*
D45*
X42900Y385222D02*
D03*
Y381600D02*
D03*
X91400Y402822D02*
D03*
Y399200D02*
D03*
X42700Y339222D02*
D03*
Y335600D02*
D03*
X21200Y113948D02*
D03*
Y117570D02*
D03*
X119700Y423789D02*
D03*
Y427411D02*
D03*
X120400Y353200D02*
D03*
Y356822D02*
D03*
X63200Y309189D02*
D03*
Y312811D02*
D03*
X306485Y290997D02*
D03*
Y294619D02*
D03*
X277485Y301686D02*
D03*
Y305308D02*
D03*
X279585Y346826D02*
D03*
Y343204D02*
D03*
X281085Y323197D02*
D03*
Y326819D02*
D03*
X165625Y473928D02*
D03*
Y477550D02*
D03*
X188854Y424479D02*
D03*
Y428102D02*
D03*
X245885Y255419D02*
D03*
Y251797D02*
D03*
X250547Y255419D02*
D03*
Y251797D02*
D03*
D46*
X135329Y173165D02*
D03*
X115329D02*
D03*
D47*
X125821Y128333D02*
D03*
D48*
X44500Y200698D02*
D03*
Y212902D02*
D03*
Y255298D02*
D03*
Y267502D02*
D03*
X93900Y362998D02*
D03*
Y375202D02*
D03*
X44500Y228898D02*
D03*
Y241102D02*
D03*
X161800Y177902D02*
D03*
Y165698D02*
D03*
X44400Y437698D02*
D03*
Y449902D02*
D03*
X44500Y391498D02*
D03*
Y403702D02*
D03*
Y282098D02*
D03*
Y294302D02*
D03*
X93800Y409398D02*
D03*
Y421602D02*
D03*
X44500Y309098D02*
D03*
Y321302D02*
D03*
Y345698D02*
D03*
Y357902D02*
D03*
D49*
X75829Y127376D02*
D03*
Y166353D02*
D03*
D50*
X162200Y98750D02*
D03*
Y92450D02*
D03*
X155400Y92426D02*
D03*
Y98725D02*
D03*
X240300Y480576D02*
D03*
Y486875D02*
D03*
X247300Y486924D02*
D03*
Y480625D02*
D03*
D51*
X294600Y185059D02*
D03*
Y179941D02*
D03*
X142429Y185705D02*
D03*
Y190824D02*
D03*
D52*
X289541Y191300D02*
D03*
X294659D02*
D03*
X135329Y185465D02*
D03*
X130211D02*
D03*
X26341Y117570D02*
D03*
X31459D02*
D03*
D53*
X267940Y214151D02*
D03*
Y231080D02*
D03*
D54*
X279948Y183443D02*
D03*
X286838D02*
D03*
X279456Y206277D02*
D03*
X286346D02*
D03*
X279554Y214545D02*
D03*
X286444D02*
D03*
X279554Y222813D02*
D03*
X286444D02*
D03*
X245861Y276450D02*
D03*
X238971D02*
D03*
X246103Y284870D02*
D03*
X239213D02*
D03*
D55*
X279358Y168482D02*
D03*
X285657D02*
D03*
X279358Y175568D02*
D03*
X285657D02*
D03*
X281720Y157065D02*
D03*
X288019D02*
D03*
X190775D02*
D03*
X197074D02*
D03*
X234476D02*
D03*
X240775D02*
D03*
X285755Y198403D02*
D03*
X279456D02*
D03*
X79385Y223481D02*
D03*
X73086D02*
D03*
X92185D02*
D03*
X85886D02*
D03*
X73086Y207694D02*
D03*
X79385D02*
D03*
X73086Y215587D02*
D03*
X79385D02*
D03*
X73086Y199800D02*
D03*
X79385D02*
D03*
X73086Y191906D02*
D03*
X79385D02*
D03*
X92185Y215606D02*
D03*
X85886D02*
D03*
X85835Y199806D02*
D03*
X92135D02*
D03*
X85886Y191906D02*
D03*
X92185D02*
D03*
Y207706D02*
D03*
X85886D02*
D03*
D56*
X290001Y253965D02*
D03*
Y241760D02*
D03*
X276615D02*
D03*
Y253965D02*
D03*
D57*
X265591Y253669D02*
D03*
Y246780D02*
D03*
X257120Y253669D02*
D03*
Y246780D02*
D03*
X253780Y276307D02*
D03*
Y283197D02*
D03*
D58*
X252075Y214910D02*
D03*
Y226091D02*
D03*
X218925Y214910D02*
D03*
Y226091D02*
D03*
D59*
X34600Y143658D02*
D03*
Y163342D02*
D03*
D60*
X272422Y289476D02*
D03*
X264548Y285736D02*
D03*
Y293216D02*
D03*
Y309048D02*
D03*
Y301568D02*
D03*
X272422Y305308D02*
D03*
D61*
X92985Y305715D02*
D03*
Y309101D02*
D03*
X281585Y355701D02*
D03*
Y352315D02*
D03*
X275268Y355701D02*
D03*
Y352315D02*
D03*
X268968Y352801D02*
D03*
Y349415D02*
D03*
X284485Y346701D02*
D03*
Y343315D02*
D03*
X86685Y305722D02*
D03*
Y309108D02*
D03*
X285885Y323415D02*
D03*
Y326801D02*
D03*
X178898Y271425D02*
D03*
Y274811D02*
D03*
X217913Y280450D02*
D03*
Y283835D02*
D03*
X230898Y272932D02*
D03*
Y276318D02*
D03*
X179069Y241996D02*
D03*
Y245382D02*
D03*
X217300Y251114D02*
D03*
Y254500D02*
D03*
X230853Y243572D02*
D03*
Y246957D02*
D03*
X248700Y402700D02*
D03*
Y399314D02*
D03*
D62*
X265014Y334229D02*
D03*
D63*
X270920Y324781D02*
D03*
X268951D02*
D03*
X266983D02*
D03*
X265014D02*
D03*
X263046D02*
D03*
X261077D02*
D03*
X259109D02*
D03*
Y343679D02*
D03*
X261077D02*
D03*
X263046D02*
D03*
X265014D02*
D03*
X266983D02*
D03*
X268951D02*
D03*
X270920D02*
D03*
D64*
X255564Y328324D02*
D03*
Y330292D02*
D03*
Y332261D02*
D03*
Y334229D02*
D03*
Y336198D02*
D03*
Y338166D02*
D03*
Y340135D02*
D03*
X274461D02*
D03*
Y338166D02*
D03*
Y336198D02*
D03*
Y334229D02*
D03*
Y332261D02*
D03*
Y330292D02*
D03*
Y328324D02*
D03*
D65*
X69067Y309068D02*
D03*
Y312808D02*
D03*
Y316548D02*
D03*
X79303D02*
D03*
Y312808D02*
D03*
Y309068D02*
D03*
D66*
X281869Y336176D02*
D03*
Y332239D02*
D03*
Y334208D02*
D03*
X284901D02*
D03*
Y336176D02*
D03*
D67*
X284842Y332239D02*
D03*
D68*
X192350Y401388D02*
D03*
X195500D02*
D03*
X192350Y412412D02*
D03*
X195500D02*
D03*
X198650D02*
D03*
Y401388D02*
D03*
D69*
X176970Y418409D02*
D03*
X184450D02*
D03*
D70*
X159720Y467865D02*
D03*
Y474165D02*
D03*
D71*
X224153Y254605D02*
D03*
Y247124D02*
D03*
X224213Y283794D02*
D03*
Y276313D02*
D03*
D72*
X186556Y245500D02*
D03*
X187001Y274853D02*
D03*
D73*
X209981Y254555D02*
D03*
Y245500D02*
D03*
Y236445D02*
D03*
X210426Y265798D02*
D03*
Y274853D02*
D03*
Y283909D02*
D03*
D74*
X263925Y450481D02*
D03*
Y453040D02*
D03*
Y455599D02*
D03*
Y458158D02*
D03*
X255461Y450481D02*
D03*
Y453040D02*
D03*
Y455599D02*
D03*
Y458158D02*
D03*
D75*
X255019Y265147D02*
D03*
D76*
X250885Y268986D02*
D03*
Y266427D02*
D03*
Y263868D02*
D03*
Y261309D02*
D03*
X259153Y268986D02*
D03*
Y266427D02*
D03*
Y263868D02*
D03*
Y261309D02*
D03*
D77*
X135401Y346840D02*
D03*
X134724Y417815D02*
D03*
D78*
X120401Y322840D02*
D03*
X125401D02*
D03*
X130401D02*
D03*
X135401D02*
D03*
X120401Y346840D02*
D03*
X125401D02*
D03*
X130401D02*
D03*
X105401D02*
D03*
X110401D02*
D03*
X115401D02*
D03*
X105401Y322840D02*
D03*
X110401D02*
D03*
X115401D02*
D03*
X119724Y393815D02*
D03*
X124724D02*
D03*
X129724D02*
D03*
X134724D02*
D03*
X119724Y417815D02*
D03*
X124724D02*
D03*
X129724D02*
D03*
X104724D02*
D03*
X109724D02*
D03*
X114724D02*
D03*
X104724Y393815D02*
D03*
X109724D02*
D03*
X114724D02*
D03*
D79*
X244107Y392000D02*
D03*
X247493D02*
D03*
D80*
X270835Y272786D02*
D03*
X264535D02*
D03*
D81*
X97835Y469183D02*
D03*
M02*
