G04*
G04 #@! TF.GenerationSoftware,Altium Limited,Altium Designer,19.1.5 (86)*
G04*
G04 Layer_Color=16711935*
%FSLAX25Y25*%
%MOIN*%
G70*
G01*
G75*
%ADD144O,0.05512X0.04921*%
%ADD145O,0.08661X0.05512*%
%ADD146C,0.09449*%
%ADD148C,0.07756*%
%ADD149R,0.07756X0.07756*%
%ADD150C,0.07480*%
%ADD151R,0.07480X0.07480*%
%ADD153C,0.10630*%
D144*
X291508Y343268D02*
D03*
Y325748D02*
D03*
D145*
X299185Y320728D02*
D03*
Y348287D02*
D03*
D146*
X172193Y176356D02*
D03*
X192193D02*
D03*
Y216356D02*
D03*
X172193D02*
D03*
X176812Y65926D02*
D03*
X196812D02*
D03*
Y25926D02*
D03*
X176812D02*
D03*
X221662D02*
D03*
X241662D02*
D03*
Y65926D02*
D03*
X221662D02*
D03*
X266512D02*
D03*
X286512D02*
D03*
Y25926D02*
D03*
X266512D02*
D03*
D148*
X25500Y210600D02*
D03*
Y200600D02*
D03*
X288400Y433500D02*
D03*
Y423500D02*
D03*
Y413500D02*
D03*
X288300Y379800D02*
D03*
Y389800D02*
D03*
X74900Y429300D02*
D03*
Y419300D02*
D03*
Y409300D02*
D03*
X25500Y411500D02*
D03*
Y401500D02*
D03*
Y391500D02*
D03*
Y365600D02*
D03*
Y355600D02*
D03*
Y345600D02*
D03*
X74800Y382900D02*
D03*
Y372900D02*
D03*
Y362900D02*
D03*
X25106Y292098D02*
D03*
Y319145D02*
D03*
Y265292D02*
D03*
X25500Y447757D02*
D03*
Y437757D02*
D03*
X25106Y238800D02*
D03*
D149*
X25500Y190600D02*
D03*
X288400Y443500D02*
D03*
X288300Y399800D02*
D03*
X74900Y399300D02*
D03*
X25500Y381500D02*
D03*
Y335600D02*
D03*
X74800Y352900D02*
D03*
X25106Y282098D02*
D03*
Y309145D02*
D03*
Y255292D02*
D03*
X25500Y427757D02*
D03*
X25106Y228800D02*
D03*
D150*
X302000Y265300D02*
D03*
D151*
Y275300D02*
D03*
D153*
X71831Y469183D02*
D03*
X123839D02*
D03*
M02*
