G04*
G04 #@! TF.GenerationSoftware,Altium Limited,Altium Designer,19.1.5 (86)*
G04*
G04 Layer_Physical_Order=4*
G04 Layer_Color=16711680*
%FSLAX25Y25*%
%MOIN*%
G70*
G01*
G75*
%ADD10C,0.01000*%
%ADD14C,0.00800*%
%ADD15C,0.01500*%
%ADD157C,0.02500*%
%ADD162C,0.06000*%
%ADD167C,0.01575*%
%ADD168O,0.04724X0.04134*%
%ADD169O,0.07874X0.04724*%
%ADD170C,0.08661*%
%ADD171C,0.02000*%
%ADD172C,0.06969*%
%ADD173R,0.06969X0.06969*%
%ADD174C,0.06693*%
%ADD175R,0.06693X0.06693*%
%ADD176C,0.01968*%
%ADD177C,0.09843*%
%ADD178C,0.03500*%
G36*
X299032Y500274D02*
X300768Y499809D01*
X302428Y499122D01*
X303985Y498223D01*
X305410Y497129D01*
X306681Y495858D01*
X307775Y494433D01*
X308674Y492876D01*
X309361Y491216D01*
X309826Y489480D01*
X310061Y487699D01*
Y486800D01*
Y15800D01*
Y14901D01*
X309826Y13120D01*
X309361Y11384D01*
X308674Y9724D01*
X307775Y8167D01*
X306681Y6742D01*
X305410Y5471D01*
X303985Y4377D01*
X302428Y3478D01*
X300768Y2791D01*
X299032Y2326D01*
X297251Y2091D01*
X296352D01*
X296091Y2039D01*
X14602D01*
X12820Y2274D01*
X11084Y2739D01*
X9424Y3427D01*
X7867Y4325D01*
X6442Y5419D01*
X5171Y6690D01*
X4077Y8115D01*
X3179Y9672D01*
X2491Y11332D01*
X2026Y13068D01*
X1791Y14850D01*
Y15748D01*
X1839Y486800D01*
X1839Y486800D01*
X1839Y486800D01*
Y487699D01*
X2074Y489480D01*
X2539Y491216D01*
X3227Y492876D01*
X4125Y494433D01*
X5219Y495858D01*
X6490Y497129D01*
X7915Y498223D01*
X9472Y499122D01*
X11132Y499809D01*
X12868Y500274D01*
X14649Y500509D01*
X297251D01*
X299032Y500274D01*
D02*
G37*
%LPC*%
G36*
X196089Y491861D02*
X195465Y491737D01*
X194935Y491384D01*
X194582Y490854D01*
X194458Y490230D01*
X194582Y489606D01*
X194935Y489076D01*
X195465Y488723D01*
X196089Y488599D01*
X196713Y488723D01*
X197242Y489076D01*
X197596Y489606D01*
X197720Y490230D01*
X197596Y490854D01*
X197242Y491384D01*
X196713Y491737D01*
X196089Y491861D01*
D02*
G37*
G36*
X159720Y478446D02*
X159095Y478322D01*
X158566Y477969D01*
X158212Y477439D01*
X158088Y476815D01*
X158212Y476191D01*
X158566Y475661D01*
X159095Y475308D01*
X159720Y475184D01*
X160344Y475308D01*
X160873Y475661D01*
X161227Y476191D01*
X161351Y476815D01*
X161227Y477439D01*
X160873Y477969D01*
X160344Y478322D01*
X159720Y478446D01*
D02*
G37*
G36*
X123839Y474752D02*
X122397Y474563D01*
X121054Y474006D01*
X119901Y473121D01*
X119665Y472815D01*
X76004D01*
X75769Y473121D01*
X74615Y474006D01*
X73272Y474563D01*
X71831Y474752D01*
X70389Y474563D01*
X69046Y474006D01*
X67893Y473121D01*
X67008Y471968D01*
X66452Y470625D01*
X66262Y469183D01*
X66452Y467742D01*
X67008Y466399D01*
X67893Y465246D01*
X69046Y464361D01*
X70389Y463804D01*
X71831Y463615D01*
X73272Y463804D01*
X74615Y464361D01*
X75769Y465246D01*
X76004Y465552D01*
X119665D01*
X119901Y465246D01*
X121054Y464361D01*
X122397Y463804D01*
X123839Y463615D01*
X125280Y463804D01*
X126623Y464361D01*
X127776Y465246D01*
X128661Y466399D01*
X129218Y467742D01*
X129408Y469183D01*
X129218Y470625D01*
X128661Y471968D01*
X127776Y473121D01*
X126623Y474006D01*
X125280Y474563D01*
X123839Y474752D01*
D02*
G37*
G36*
X292279Y490129D02*
X290921D01*
X290724Y490090D01*
X290524D01*
X289193Y489825D01*
X289007Y489748D01*
X288810Y489709D01*
X287556Y489190D01*
X287389Y489078D01*
X287204Y489001D01*
X286075Y488247D01*
X285933Y488105D01*
X285766Y487993D01*
X284806Y487034D01*
X284695Y486867D01*
X284553Y486725D01*
X283799Y485596D01*
X283722Y485411D01*
X283610Y485244D01*
X283091Y483990D01*
X283052Y483793D01*
X282975Y483607D01*
X282710Y482276D01*
Y482076D01*
X282671Y481879D01*
Y480521D01*
X282710Y480324D01*
Y480124D01*
X282975Y478792D01*
X283052Y478607D01*
X283091Y478410D01*
X283610Y477156D01*
X283722Y476989D01*
X283799Y476804D01*
X284553Y475675D01*
X284695Y475533D01*
X284806Y475366D01*
X285766Y474406D01*
X285933Y474295D01*
X286075Y474153D01*
X287204Y473399D01*
X287389Y473322D01*
X287556Y473210D01*
X288810Y472691D01*
X289007Y472652D01*
X289193Y472575D01*
X290524Y472310D01*
X290724D01*
X290921Y472271D01*
X292279D01*
X292476Y472310D01*
X292676D01*
X294007Y472575D01*
X294193Y472652D01*
X294390Y472691D01*
X295644Y473210D01*
X295811Y473322D01*
X295996Y473399D01*
X297125Y474153D01*
X297267Y474295D01*
X297434Y474406D01*
X298394Y475366D01*
X298505Y475533D01*
X298647Y475675D01*
X299401Y476804D01*
X299478Y476989D01*
X299590Y477156D01*
X300109Y478410D01*
X300148Y478607D01*
X300225Y478792D01*
X300490Y480124D01*
Y480324D01*
X300529Y480521D01*
Y481879D01*
X300490Y482076D01*
Y482276D01*
X300225Y483607D01*
X300148Y483793D01*
X300109Y483990D01*
X299590Y485244D01*
X299478Y485411D01*
X299401Y485596D01*
X298647Y486725D01*
X298505Y486867D01*
X298394Y487034D01*
X297434Y487993D01*
X297267Y488105D01*
X297125Y488247D01*
X295996Y489001D01*
X295811Y489078D01*
X295644Y489190D01*
X294390Y489709D01*
X294193Y489748D01*
X294007Y489825D01*
X292676Y490090D01*
X292476D01*
X292279Y490129D01*
D02*
G37*
G36*
X23179D02*
X21821D01*
X21624Y490090D01*
X21424D01*
X20092Y489825D01*
X19907Y489748D01*
X19710Y489709D01*
X18456Y489190D01*
X18289Y489078D01*
X18104Y489001D01*
X16975Y488247D01*
X16833Y488105D01*
X16666Y487993D01*
X15707Y487034D01*
X15595Y486867D01*
X15453Y486725D01*
X14699Y485596D01*
X14622Y485411D01*
X14510Y485244D01*
X13991Y483990D01*
X13952Y483793D01*
X13875Y483607D01*
X13610Y482276D01*
Y482076D01*
X13571Y481879D01*
Y480521D01*
X13610Y480324D01*
Y480124D01*
X13875Y478792D01*
X13952Y478607D01*
X13991Y478410D01*
X14510Y477156D01*
X14622Y476989D01*
X14699Y476804D01*
X15453Y475675D01*
X15595Y475533D01*
X15707Y475366D01*
X16666Y474406D01*
X16833Y474295D01*
X16975Y474153D01*
X18104Y473399D01*
X18289Y473322D01*
X18456Y473210D01*
X19710Y472691D01*
X19907Y472652D01*
X20092Y472575D01*
X21424Y472310D01*
X21624D01*
X21821Y472271D01*
X23179D01*
X23376Y472310D01*
X23576D01*
X24907Y472575D01*
X25093Y472652D01*
X25290Y472691D01*
X26544Y473210D01*
X26711Y473322D01*
X26896Y473399D01*
X28025Y474153D01*
X28167Y474295D01*
X28334Y474406D01*
X29294Y475366D01*
X29405Y475533D01*
X29547Y475675D01*
X30301Y476804D01*
X30378Y476989D01*
X30490Y477156D01*
X31009Y478410D01*
X31048Y478607D01*
X31125Y478792D01*
X31390Y480124D01*
Y480324D01*
X31429Y480521D01*
Y481879D01*
X31390Y482076D01*
Y482276D01*
X31125Y483607D01*
X31048Y483793D01*
X31009Y483990D01*
X30490Y485244D01*
X30378Y485411D01*
X30301Y485596D01*
X29547Y486725D01*
X29405Y486867D01*
X29294Y487034D01*
X28334Y487993D01*
X28167Y488105D01*
X28025Y488247D01*
X26896Y489001D01*
X26711Y489078D01*
X26544Y489190D01*
X25290Y489709D01*
X25093Y489748D01*
X24907Y489825D01*
X23576Y490090D01*
X23376D01*
X23179Y490129D01*
D02*
G37*
G36*
X165498Y473140D02*
X164873Y473016D01*
X164344Y472662D01*
X163990Y472133D01*
X163866Y471509D01*
X163990Y470884D01*
X164344Y470355D01*
X164873Y470002D01*
X165498Y469877D01*
X166122Y470002D01*
X166651Y470355D01*
X167005Y470884D01*
X167129Y471509D01*
X167005Y472133D01*
X166651Y472662D01*
X166122Y473016D01*
X165498Y473140D01*
D02*
G37*
G36*
X260197Y457230D02*
X259573Y457106D01*
X259043Y456752D01*
X258690Y456223D01*
X258565Y455599D01*
X258690Y454975D01*
X259043Y454445D01*
X259573Y454092D01*
X260197Y453968D01*
X260821Y454092D01*
X261350Y454445D01*
X261704Y454975D01*
X261828Y455599D01*
X261704Y456223D01*
X261350Y456752D01*
X260821Y457106D01*
X260197Y457230D01*
D02*
G37*
G36*
X270632Y445431D02*
X270007Y445307D01*
X269478Y444953D01*
X269124Y444424D01*
X269000Y443800D01*
X269124Y443176D01*
X269478Y442647D01*
X270007Y442293D01*
X270632Y442169D01*
X271256Y442293D01*
X271785Y442647D01*
X272139Y443176D01*
X272263Y443800D01*
X272139Y444424D01*
X271785Y444953D01*
X271256Y445307D01*
X270632Y445431D01*
D02*
G37*
G36*
X188800Y444796D02*
X187883Y444614D01*
X187106Y444094D01*
X186586Y443317D01*
X186404Y442400D01*
X186478Y442025D01*
X181030Y436577D01*
X169307D01*
X169094Y436894D01*
X168317Y437414D01*
X167400Y437596D01*
X166483Y437414D01*
X165706Y436894D01*
X165186Y436117D01*
X165004Y435200D01*
X165186Y434283D01*
X165706Y433506D01*
X166483Y432986D01*
X167400Y432804D01*
X168317Y432986D01*
X169094Y433506D01*
X169307Y433823D01*
X181600D01*
X182127Y433928D01*
X182573Y434227D01*
X188425Y440078D01*
X188800Y440004D01*
X189717Y440186D01*
X190494Y440706D01*
X191014Y441483D01*
X191196Y442400D01*
X191014Y443317D01*
X190494Y444094D01*
X189717Y444614D01*
X188800Y444796D01*
D02*
G37*
G36*
X292484Y447584D02*
X284316D01*
Y439416D01*
X292484D01*
Y447584D01*
D02*
G37*
G36*
X25500Y441876D02*
X24434Y441736D01*
X23440Y441324D01*
X22587Y440670D01*
X21932Y439817D01*
X21521Y438823D01*
X21381Y437757D01*
X21521Y436691D01*
X21932Y435697D01*
X22587Y434844D01*
X23440Y434189D01*
X24434Y433778D01*
X25500Y433637D01*
X26566Y433778D01*
X27560Y434189D01*
X28413Y434844D01*
X29068Y435697D01*
X29479Y436691D01*
X29620Y437757D01*
X29479Y438823D01*
X29068Y439817D01*
X28413Y440670D01*
X27560Y441324D01*
X26566Y441736D01*
X25500Y441876D01*
D02*
G37*
G36*
X274000Y435331D02*
X273376Y435207D01*
X272847Y434854D01*
X272493Y434324D01*
X272369Y433700D01*
X272493Y433076D01*
X272847Y432547D01*
X273376Y432193D01*
X274000Y432069D01*
X274624Y432193D01*
X275153Y432547D01*
X275507Y433076D01*
X275631Y433700D01*
X275507Y434324D01*
X275153Y434854D01*
X274624Y435207D01*
X274000Y435331D01*
D02*
G37*
G36*
X29584Y431841D02*
X21416D01*
Y423672D01*
X29584D01*
Y431841D01*
D02*
G37*
G36*
X266469Y425131D02*
X265844Y425007D01*
X265315Y424653D01*
X265226Y424520D01*
X260600D01*
X260210Y424442D01*
X259879Y424221D01*
X243329Y407671D01*
X243108Y407340D01*
X243030Y406950D01*
Y397843D01*
X242897Y397754D01*
X242543Y397224D01*
X242419Y396600D01*
X242543Y395976D01*
X242897Y395446D01*
X243426Y395093D01*
X244050Y394969D01*
X244674Y395093D01*
X245203Y395446D01*
X245557Y395976D01*
X245681Y396600D01*
X245557Y397224D01*
X245203Y397754D01*
X245070Y397843D01*
Y406528D01*
X261022Y422480D01*
X265226D01*
X265315Y422346D01*
X265844Y421993D01*
X266469Y421869D01*
X267093Y421993D01*
X267622Y422346D01*
X267976Y422876D01*
X268100Y423500D01*
X267976Y424124D01*
X267622Y424653D01*
X267093Y425007D01*
X266469Y425131D01*
D02*
G37*
G36*
X122400Y438631D02*
X121776Y438507D01*
X121247Y438154D01*
X120893Y437624D01*
X120769Y437000D01*
X120893Y436376D01*
X121247Y435847D01*
X121380Y435757D01*
Y423800D01*
X121458Y423410D01*
X121679Y423079D01*
X123100Y421658D01*
X123069Y421500D01*
X123193Y420876D01*
X123547Y420346D01*
X124076Y419993D01*
X124700Y419869D01*
X125324Y419993D01*
X125854Y420346D01*
X126207Y420876D01*
X126331Y421500D01*
X126207Y422124D01*
X125854Y422653D01*
X125324Y423007D01*
X124700Y423131D01*
X124542Y423100D01*
X123420Y424222D01*
Y435757D01*
X123554Y435847D01*
X123907Y436376D01*
X124031Y437000D01*
X123907Y437624D01*
X123554Y438154D01*
X123024Y438507D01*
X122400Y438631D01*
D02*
G37*
G36*
X112300Y438831D02*
X111676Y438707D01*
X111146Y438353D01*
X110793Y437824D01*
X110669Y437200D01*
X110793Y436576D01*
X111146Y436047D01*
X111280Y435957D01*
Y423900D01*
X111358Y423510D01*
X111579Y423179D01*
X113200Y421558D01*
X113169Y421400D01*
X113293Y420776D01*
X113646Y420247D01*
X114176Y419893D01*
X114800Y419769D01*
X115424Y419893D01*
X115954Y420247D01*
X116307Y420776D01*
X116431Y421400D01*
X116307Y422024D01*
X115954Y422553D01*
X115424Y422907D01*
X114800Y423031D01*
X114642Y423000D01*
X113320Y424322D01*
Y435957D01*
X113453Y436047D01*
X113807Y436576D01*
X113931Y437200D01*
X113807Y437824D01*
X113453Y438353D01*
X112924Y438707D01*
X112300Y438831D01*
D02*
G37*
G36*
X119700Y422931D02*
X119076Y422807D01*
X118546Y422453D01*
X118193Y421924D01*
X118069Y421300D01*
X118193Y420676D01*
X118546Y420147D01*
X119076Y419793D01*
X119700Y419669D01*
X120324Y419793D01*
X120853Y420147D01*
X121207Y420676D01*
X121331Y421300D01*
X121207Y421924D01*
X120853Y422453D01*
X120324Y422807D01*
X119700Y422931D01*
D02*
G37*
G36*
X288400Y427620D02*
X287334Y427479D01*
X286340Y427068D01*
X285487Y426413D01*
X284832Y425560D01*
X284421Y424566D01*
X284280Y423500D01*
X284421Y422434D01*
X284832Y421440D01*
X285487Y420587D01*
X286340Y419932D01*
X287334Y419521D01*
X288400Y419381D01*
X289466Y419521D01*
X290460Y419932D01*
X291313Y420587D01*
X291968Y421440D01*
X292379Y422434D01*
X292519Y423500D01*
X292379Y424566D01*
X291968Y425560D01*
X291313Y426413D01*
X290460Y427068D01*
X289466Y427479D01*
X288400Y427620D01*
D02*
G37*
G36*
X48528Y422431D02*
X47904Y422307D01*
X47375Y421953D01*
X47021Y421424D01*
X46897Y420800D01*
X47021Y420176D01*
X47375Y419647D01*
X47904Y419293D01*
X48528Y419169D01*
X49153Y419293D01*
X49682Y419647D01*
X50036Y420176D01*
X50160Y420800D01*
X50036Y421424D01*
X49682Y421953D01*
X49153Y422307D01*
X48528Y422431D01*
D02*
G37*
G36*
X172800Y422131D02*
X172176Y422007D01*
X171646Y421654D01*
X171293Y421124D01*
X171169Y420500D01*
X171293Y419876D01*
X171646Y419347D01*
X171791Y419250D01*
Y418750D01*
X171646Y418653D01*
X171293Y418124D01*
X171169Y417500D01*
X171293Y416876D01*
X171646Y416347D01*
X171790Y416251D01*
Y415649D01*
X171646Y415554D01*
X171293Y415024D01*
X171182Y414468D01*
X170957Y414337D01*
X170687Y414256D01*
X166422Y418521D01*
X166092Y418742D01*
X165702Y418820D01*
X150343D01*
X150253Y418954D01*
X149724Y419307D01*
X149100Y419431D01*
X148476Y419307D01*
X147947Y418954D01*
X147593Y418424D01*
X147469Y417800D01*
X147593Y417176D01*
X147947Y416646D01*
X148476Y416293D01*
X149100Y416169D01*
X149724Y416293D01*
X150253Y416646D01*
X150343Y416780D01*
X152595D01*
X152644Y416280D01*
X152276Y416207D01*
X151746Y415854D01*
X151393Y415324D01*
X151269Y414700D01*
X151393Y414076D01*
X151746Y413547D01*
X152276Y413193D01*
X152900Y413069D01*
X153524Y413193D01*
X154053Y413547D01*
X154407Y414076D01*
X154531Y414700D01*
X154407Y415324D01*
X154053Y415854D01*
X153524Y416207D01*
X153156Y416280D01*
X153205Y416780D01*
X161695D01*
X161744Y416280D01*
X161376Y416207D01*
X160846Y415854D01*
X160493Y415324D01*
X160369Y414700D01*
X160493Y414076D01*
X160846Y413547D01*
X161376Y413193D01*
X162000Y413069D01*
X162624Y413193D01*
X163154Y413547D01*
X163507Y414076D01*
X163631Y414700D01*
X163507Y415324D01*
X163154Y415854D01*
X162624Y416207D01*
X162256Y416280D01*
X162305Y416780D01*
X165279D01*
X173181Y408879D01*
X173511Y408658D01*
X173902Y408580D01*
X209778D01*
X217833Y400525D01*
X217769Y400200D01*
X217893Y399576D01*
X218247Y399046D01*
X218776Y398693D01*
X219400Y398569D01*
X220024Y398693D01*
X220553Y399046D01*
X220907Y399576D01*
X221031Y400200D01*
X220907Y400824D01*
X220553Y401354D01*
X220024Y401707D01*
X219413Y401829D01*
X210921Y410321D01*
X210590Y410542D01*
X210200Y410620D01*
X174324D01*
X172656Y412288D01*
X172737Y412557D01*
X172868Y412782D01*
X173424Y412893D01*
X173953Y413246D01*
X174307Y413776D01*
X174431Y414400D01*
X174307Y415024D01*
X173953Y415554D01*
X173810Y415649D01*
Y416251D01*
X173953Y416347D01*
X174307Y416876D01*
X174431Y417500D01*
X174307Y418124D01*
X173953Y418653D01*
X173809Y418750D01*
Y419250D01*
X173953Y419347D01*
X174307Y419876D01*
X174431Y420500D01*
X174307Y421124D01*
X173953Y421654D01*
X173424Y422007D01*
X172800Y422131D01*
D02*
G37*
G36*
X266469Y415031D02*
X265844Y414907D01*
X265315Y414553D01*
X264961Y414024D01*
X264837Y413400D01*
X264961Y412776D01*
X265315Y412247D01*
X265844Y411893D01*
X266469Y411769D01*
X267093Y411893D01*
X267622Y412247D01*
X267976Y412776D01*
X268100Y413400D01*
X267976Y414024D01*
X267622Y414553D01*
X267093Y414907D01*
X266469Y415031D01*
D02*
G37*
G36*
X176700Y414731D02*
X176076Y414607D01*
X175547Y414254D01*
X175193Y413724D01*
X175069Y413100D01*
X175193Y412476D01*
X175547Y411946D01*
X176076Y411593D01*
X176700Y411469D01*
X177324Y411593D01*
X177854Y411946D01*
X178207Y412476D01*
X178331Y413100D01*
X178207Y413724D01*
X177854Y414254D01*
X177324Y414607D01*
X176700Y414731D01*
D02*
G37*
G36*
X288400Y417620D02*
X287334Y417479D01*
X286340Y417068D01*
X285487Y416413D01*
X284832Y415560D01*
X284421Y414566D01*
X284280Y413500D01*
X284421Y412434D01*
X284832Y411440D01*
X285487Y410587D01*
X286340Y409932D01*
X287334Y409521D01*
X288400Y409380D01*
X289466Y409521D01*
X290460Y409932D01*
X291313Y410587D01*
X291968Y411440D01*
X292379Y412434D01*
X292519Y413500D01*
X292379Y414566D01*
X291968Y415560D01*
X291313Y416413D01*
X290460Y417068D01*
X289466Y417479D01*
X288400Y417620D01*
D02*
G37*
G36*
X74900Y413419D02*
X73834Y413279D01*
X72840Y412868D01*
X71987Y412213D01*
X71332Y411360D01*
X70921Y410366D01*
X70780Y409300D01*
X70921Y408234D01*
X71332Y407240D01*
X71987Y406387D01*
X72840Y405732D01*
X73282Y405549D01*
X73182Y405049D01*
X28988Y405050D01*
X28888Y405008D01*
X28779Y405015D01*
X28667Y404916D01*
X28529Y404859D01*
X28487Y404759D01*
X28406Y404687D01*
X28184Y404239D01*
X28177Y404130D01*
X28123Y404036D01*
X28162Y403892D01*
X28152Y403743D01*
X28224Y403661D01*
X28252Y403556D01*
X28500Y403232D01*
X28846Y402397D01*
X28964Y401500D01*
X28846Y400603D01*
X28500Y399768D01*
X27950Y399050D01*
X27232Y398500D01*
X26397Y398154D01*
X25500Y398036D01*
X24603Y398154D01*
X23768Y398500D01*
X23050Y399050D01*
X22500Y399768D01*
X22154Y400603D01*
X22036Y401500D01*
X22154Y402397D01*
X22500Y403232D01*
X22748Y403556D01*
X22776Y403661D01*
X22848Y403743D01*
X22838Y403892D01*
X22877Y404036D01*
X22823Y404131D01*
X22816Y404239D01*
X22594Y404687D01*
X22513Y404759D01*
X22471Y404859D01*
X22333Y404916D01*
X22221Y405015D01*
X22112Y405008D01*
X22012Y405050D01*
X14907D01*
X14681Y404956D01*
X14453Y404864D01*
X14451Y404861D01*
X14448Y404859D01*
X14354Y404633D01*
X14258Y404407D01*
X14234Y402290D01*
X14306Y402112D01*
X14343Y401924D01*
X14381Y401898D01*
X14415Y401725D01*
X14408Y401523D01*
X14369Y401324D01*
X14305Y401116D01*
X14219Y400916D01*
X12799Y271885D01*
X12825Y271820D01*
X12811Y271751D01*
X12849Y271560D01*
X12804Y271332D01*
X12816Y271270D01*
X12792Y271212D01*
X12585Y252421D01*
X12657Y252242D01*
X12694Y252053D01*
X12776Y251931D01*
X12849Y251560D01*
X12776Y251189D01*
X12675Y251038D01*
X12639Y250856D01*
X12566Y250685D01*
X12384Y234163D01*
X12385Y234161D01*
X12384Y234160D01*
X12477Y233931D01*
X12569Y233702D01*
X12571Y233701D01*
X12572Y233699D01*
X12923Y233344D01*
X12925Y233343D01*
X12926Y233341D01*
X13154Y233247D01*
X13381Y233151D01*
X13383Y233152D01*
X13385Y233151D01*
X20632Y233151D01*
X21022Y232884D01*
X21022Y232651D01*
Y224716D01*
X29190D01*
Y232651D01*
X29580Y233151D01*
X36954Y233151D01*
X42125Y227979D01*
X42456Y227758D01*
X42846Y227680D01*
X90957D01*
X91047Y227547D01*
X91576Y227193D01*
X92200Y227069D01*
X92824Y227193D01*
X93353Y227547D01*
X93421Y227648D01*
X93921Y227496D01*
Y216849D01*
X93787Y216760D01*
X93434Y216231D01*
X93310Y215606D01*
X93434Y214982D01*
X93787Y214453D01*
X94317Y214099D01*
X94941Y213975D01*
X95565Y214099D01*
X96095Y214453D01*
X96448Y214982D01*
X96572Y215606D01*
X96448Y216231D01*
X96095Y216760D01*
X95960Y216849D01*
Y230159D01*
X95883Y230549D01*
X95662Y230880D01*
X93121Y233421D01*
X92790Y233642D01*
X92400Y233720D01*
X64643D01*
X64553Y233854D01*
X64024Y234207D01*
X63400Y234331D01*
X62776Y234207D01*
X62247Y233854D01*
X61893Y233324D01*
X61769Y232700D01*
X61893Y232076D01*
X62247Y231546D01*
X62776Y231193D01*
X63400Y231069D01*
X64024Y231193D01*
X64553Y231546D01*
X64643Y231680D01*
X91978D01*
X93019Y230640D01*
X92973Y230538D01*
X92724Y230227D01*
X92200Y230331D01*
X91576Y230207D01*
X91047Y229854D01*
X90957Y229720D01*
X43269D01*
X38749Y234239D01*
Y239849D01*
X38712Y239940D01*
X38721Y240038D01*
X38620Y240161D01*
X38559Y240308D01*
X38469Y240346D01*
X38406Y240422D01*
X37906Y240689D01*
X37808Y240699D01*
X37727Y240753D01*
X37570Y240722D01*
X37411Y240738D01*
X37345Y240683D01*
X36880Y240591D01*
X36509Y240664D01*
X36195Y240875D01*
X35985Y241189D01*
X35911Y241560D01*
X35985Y241931D01*
X36195Y242245D01*
X36509Y242455D01*
X36880Y242529D01*
X37345Y242437D01*
X37411Y242382D01*
X37570Y242397D01*
X37727Y242366D01*
X37808Y242421D01*
X37906Y242430D01*
X38406Y242698D01*
X38469Y242774D01*
X38559Y242811D01*
X38620Y242959D01*
X38721Y243082D01*
X38712Y243180D01*
X38749Y243270D01*
Y259849D01*
X38712Y259940D01*
X38721Y260038D01*
X38620Y260161D01*
X38559Y260308D01*
X38469Y260346D01*
X38406Y260422D01*
X37906Y260689D01*
X37808Y260699D01*
X37727Y260753D01*
X37570Y260722D01*
X37411Y260738D01*
X37345Y260683D01*
X36880Y260591D01*
X36509Y260664D01*
X36195Y260875D01*
X35985Y261189D01*
X35911Y261560D01*
X35985Y261931D01*
X36195Y262245D01*
X36509Y262455D01*
X36880Y262529D01*
X37345Y262437D01*
X37411Y262382D01*
X37570Y262397D01*
X37727Y262366D01*
X37808Y262421D01*
X37906Y262431D01*
X38406Y262698D01*
X38469Y262774D01*
X38559Y262811D01*
X38620Y262959D01*
X38721Y263082D01*
X38712Y263180D01*
X38749Y263270D01*
X38750Y296900D01*
X38749Y298597D01*
X39103Y298951D01*
X46102D01*
X46240Y299008D01*
X46389Y299017D01*
X46461Y299099D01*
X46561Y299141D01*
X46589Y299208D01*
X46764Y299279D01*
X46996D01*
X47171Y299208D01*
X47199Y299141D01*
X47300Y299099D01*
X47372Y299017D01*
X47521Y299008D01*
X47659Y298951D01*
X73700Y298951D01*
X74159Y299141D01*
X74349Y299600D01*
Y305088D01*
X74431Y305500D01*
X74349Y305912D01*
Y316880D01*
X110300D01*
X110690Y316958D01*
X111021Y317179D01*
X114422Y320580D01*
X121678D01*
X123801Y318458D01*
X123769Y318300D01*
X123894Y317676D01*
X124247Y317146D01*
X124776Y316793D01*
X125401Y316669D01*
X126025Y316793D01*
X126554Y317146D01*
X126908Y317676D01*
X127032Y318300D01*
X126908Y318924D01*
X126554Y319454D01*
X126025Y319807D01*
X125401Y319931D01*
X125243Y319900D01*
X122822Y322321D01*
X122571Y322488D01*
X122603Y322847D01*
X122654Y322988D01*
X129608D01*
X129998Y323066D01*
X130329Y323287D01*
X145342Y338300D01*
X145500Y338269D01*
X146124Y338393D01*
X146653Y338747D01*
X147007Y339276D01*
X147131Y339900D01*
X147007Y340524D01*
X146653Y341054D01*
X146124Y341407D01*
X145500Y341531D01*
X144876Y341407D01*
X144346Y341054D01*
X143993Y340524D01*
X143869Y339900D01*
X143900Y339742D01*
X129185Y325027D01*
X102043D01*
X101953Y325161D01*
X101424Y325515D01*
X100800Y325639D01*
X100176Y325515D01*
X99647Y325161D01*
X99293Y324632D01*
X99169Y324008D01*
X99293Y323384D01*
X99647Y322854D01*
X100176Y322501D01*
X100800Y322376D01*
X101424Y322501D01*
X101953Y322854D01*
X102043Y322988D01*
X113446D01*
X113498Y322847D01*
X113530Y322488D01*
X113279Y322321D01*
X109878Y318920D01*
X74349D01*
X74349Y338751D01*
X82700D01*
X83159Y338941D01*
X83349Y339400D01*
Y349628D01*
X83329Y349677D01*
X83342Y349728D01*
X83236Y349901D01*
X83159Y350087D01*
X83110Y350107D01*
X83082Y350152D01*
X82582Y350517D01*
X82569Y350520D01*
X82561Y350532D01*
X82329Y350578D01*
X82099Y350634D01*
X82087Y350626D01*
X82073Y350629D01*
X81880Y350591D01*
X81509Y350664D01*
X81195Y350874D01*
X80985Y351189D01*
X80911Y351560D01*
X80985Y351931D01*
X81195Y352245D01*
X81509Y352455D01*
X81880Y352529D01*
X82073Y352491D01*
X82087Y352493D01*
X82099Y352486D01*
X82329Y352541D01*
X82561Y352588D01*
X82569Y352599D01*
X82582Y352603D01*
X83082Y352967D01*
X83110Y353012D01*
X83159Y353033D01*
X83236Y353219D01*
X83342Y353391D01*
X83329Y353443D01*
X83349Y353492D01*
Y369628D01*
X83329Y369677D01*
X83342Y369728D01*
X83236Y369900D01*
X83159Y370087D01*
X83110Y370107D01*
X83082Y370152D01*
X82582Y370517D01*
X82569Y370520D01*
X82561Y370532D01*
X82329Y370578D01*
X82099Y370634D01*
X82087Y370626D01*
X82073Y370629D01*
X81880Y370591D01*
X81509Y370664D01*
X81195Y370875D01*
X80985Y371189D01*
X80911Y371560D01*
X80985Y371931D01*
X81195Y372245D01*
X81509Y372455D01*
X81880Y372529D01*
X82073Y372491D01*
X82087Y372493D01*
X82099Y372486D01*
X82329Y372541D01*
X82561Y372588D01*
X82569Y372599D01*
X82582Y372603D01*
X83082Y372967D01*
X83110Y373012D01*
X83159Y373033D01*
X83236Y373219D01*
X83342Y373391D01*
X83329Y373443D01*
X83349Y373492D01*
Y404400D01*
X83159Y404859D01*
X82700Y405049D01*
X76617D01*
X76518Y405549D01*
X76960Y405732D01*
X77813Y406387D01*
X78468Y407240D01*
X78879Y408234D01*
X79019Y409300D01*
X78879Y410366D01*
X78468Y411360D01*
X77813Y412213D01*
X76960Y412868D01*
X75966Y413279D01*
X74900Y413419D01*
D02*
G37*
G36*
X113809Y404231D02*
X113185Y404107D01*
X112655Y403754D01*
X112302Y403224D01*
X112178Y402600D01*
X112209Y402442D01*
X107387Y397620D01*
X101943D01*
X101854Y397754D01*
X101324Y398107D01*
X100700Y398231D01*
X100076Y398107D01*
X99546Y397754D01*
X99193Y397224D01*
X99069Y396600D01*
X99193Y395976D01*
X99431Y395620D01*
X99204Y395120D01*
X91343D01*
X91254Y395253D01*
X90724Y395607D01*
X90100Y395731D01*
X89476Y395607D01*
X88946Y395253D01*
X88593Y394724D01*
X88469Y394100D01*
X88593Y393476D01*
X88946Y392947D01*
X89476Y392593D01*
X90100Y392469D01*
X90724Y392593D01*
X91254Y392947D01*
X91343Y393080D01*
X114878D01*
X128379Y379579D01*
X128710Y379358D01*
X129100Y379280D01*
X139924D01*
X139979Y379200D01*
X139848Y378521D01*
X139746Y378453D01*
X139657Y378320D01*
X107434D01*
X107392Y378532D01*
X107039Y379061D01*
X106509Y379415D01*
X105885Y379539D01*
X105261Y379415D01*
X104732Y379061D01*
X104378Y378532D01*
X104254Y377908D01*
X104378Y377284D01*
X104732Y376754D01*
X105261Y376401D01*
X105885Y376276D01*
X106199Y376339D01*
X106493Y376280D01*
X139657D01*
X139746Y376147D01*
X140276Y375793D01*
X140900Y375669D01*
X141524Y375793D01*
X142053Y376147D01*
X142407Y376676D01*
X142531Y377300D01*
X142407Y377924D01*
X142053Y378453D01*
X141953Y378521D01*
X141822Y379200D01*
X141876Y379280D01*
X154757D01*
X154847Y379147D01*
X155376Y378793D01*
X156000Y378669D01*
X156624Y378793D01*
X157153Y379147D01*
X157507Y379676D01*
X157631Y380300D01*
X157507Y380924D01*
X157153Y381453D01*
X156624Y381807D01*
X156000Y381931D01*
X155376Y381807D01*
X154847Y381453D01*
X154757Y381320D01*
X129522D01*
X116021Y394821D01*
X115690Y395042D01*
X115300Y395120D01*
X108055D01*
X108006Y395620D01*
X108199Y395658D01*
X108530Y395879D01*
X113651Y401000D01*
X113809Y400969D01*
X114433Y401093D01*
X114962Y401446D01*
X115316Y401976D01*
X115440Y402600D01*
X115316Y403224D01*
X114962Y403754D01*
X114433Y404107D01*
X113809Y404231D01*
D02*
G37*
G36*
X104724Y414947D02*
X104100Y414823D01*
X103571Y414469D01*
X103217Y413940D01*
X103093Y413315D01*
X103217Y412691D01*
X103571Y412162D01*
X104100Y411808D01*
X104724Y411684D01*
X104882Y411716D01*
X107419Y409179D01*
X107749Y408958D01*
X108140Y408880D01*
X167278D01*
X169879Y406279D01*
X170210Y406058D01*
X170600Y405980D01*
X207878D01*
X213100Y400758D01*
X213069Y400600D01*
X213193Y399976D01*
X213546Y399447D01*
X214076Y399093D01*
X214700Y398969D01*
X215324Y399093D01*
X215854Y399447D01*
X216207Y399976D01*
X216331Y400600D01*
X216207Y401224D01*
X215854Y401754D01*
X215324Y402107D01*
X214700Y402231D01*
X214542Y402200D01*
X209021Y407721D01*
X208690Y407942D01*
X208300Y408020D01*
X171022D01*
X168421Y410621D01*
X168090Y410842D01*
X167700Y410920D01*
X108562D01*
X106324Y413157D01*
X106356Y413315D01*
X106231Y413940D01*
X105878Y414469D01*
X105349Y414823D01*
X104724Y414947D01*
D02*
G37*
G36*
X205900Y404620D02*
X169100D01*
X168710Y404542D01*
X168379Y404321D01*
X164358Y400300D01*
X164200Y400331D01*
X163576Y400207D01*
X163047Y399853D01*
X162693Y399324D01*
X162569Y398700D01*
X162693Y398076D01*
X163047Y397547D01*
X163576Y397193D01*
X164200Y397069D01*
X164824Y397193D01*
X165354Y397547D01*
X165707Y398076D01*
X165831Y398700D01*
X165800Y398858D01*
X169522Y402580D01*
X205478D01*
X208100Y399958D01*
X208069Y399800D01*
X208193Y399176D01*
X208546Y398646D01*
X209076Y398293D01*
X209700Y398169D01*
X210324Y398293D01*
X210854Y398646D01*
X211207Y399176D01*
X211331Y399800D01*
X211207Y400424D01*
X210854Y400953D01*
X210324Y401307D01*
X209700Y401431D01*
X209542Y401400D01*
X206621Y404321D01*
X206290Y404542D01*
X205900Y404620D01*
D02*
G37*
G36*
X229800Y402896D02*
X228883Y402714D01*
X228106Y402194D01*
X227586Y401417D01*
X227404Y400500D01*
X227586Y399583D01*
X228106Y398806D01*
X228883Y398286D01*
X229800Y398104D01*
X230717Y398286D01*
X231494Y398806D01*
X232014Y399583D01*
X232196Y400500D01*
X232014Y401417D01*
X231494Y402194D01*
X230717Y402714D01*
X229800Y402896D01*
D02*
G37*
G36*
X248708Y399005D02*
X248084Y398881D01*
X247555Y398527D01*
X247201Y397998D01*
X247077Y397374D01*
X247201Y396749D01*
X247555Y396220D01*
X248084Y395866D01*
X248708Y395742D01*
X249332Y395866D01*
X249862Y396220D01*
X250215Y396749D01*
X250340Y397374D01*
X250215Y397998D01*
X249862Y398527D01*
X249332Y398881D01*
X248708Y399005D01*
D02*
G37*
G36*
X222700Y397731D02*
X222076Y397607D01*
X221547Y397253D01*
X221193Y396724D01*
X221069Y396100D01*
X221193Y395476D01*
X221547Y394947D01*
X222048Y394611D01*
X222076Y394398D01*
Y394302D01*
X222048Y394089D01*
X221547Y393754D01*
X221193Y393224D01*
X221069Y392600D01*
X221193Y391976D01*
X221547Y391446D01*
X222076Y391093D01*
X222700Y390969D01*
X223324Y391093D01*
X223853Y391446D01*
X224207Y391976D01*
X224331Y392600D01*
X224207Y393224D01*
X223853Y393754D01*
X223352Y394089D01*
X223324Y394302D01*
Y394398D01*
X223352Y394611D01*
X223853Y394947D01*
X224207Y395476D01*
X224331Y396100D01*
X224207Y396724D01*
X223853Y397253D01*
X223324Y397607D01*
X222700Y397731D01*
D02*
G37*
G36*
X247400Y391331D02*
X246776Y391207D01*
X246247Y390854D01*
X245893Y390324D01*
X245769Y389700D01*
X245893Y389076D01*
X246247Y388546D01*
X246776Y388193D01*
X247400Y388069D01*
X248024Y388193D01*
X248553Y388546D01*
X248907Y389076D01*
X249031Y389700D01*
X248907Y390324D01*
X248553Y390854D01*
X248024Y391207D01*
X247400Y391331D01*
D02*
G37*
G36*
X288300Y393919D02*
X287234Y393779D01*
X286240Y393368D01*
X285387Y392713D01*
X284732Y391860D01*
X284321Y390866D01*
X284180Y389800D01*
X284321Y388734D01*
X284732Y387740D01*
X285387Y386887D01*
X286240Y386232D01*
X287234Y385821D01*
X288300Y385681D01*
X289366Y385821D01*
X290360Y386232D01*
X291213Y386887D01*
X291868Y387740D01*
X292279Y388734D01*
X292420Y389800D01*
X292279Y390866D01*
X291868Y391860D01*
X291213Y392713D01*
X290360Y393368D01*
X289366Y393779D01*
X288300Y393919D01*
D02*
G37*
G36*
X229800Y381196D02*
X228883Y381014D01*
X228106Y380494D01*
X227586Y379717D01*
X227404Y378800D01*
X227586Y377883D01*
X228106Y377106D01*
X228708Y376703D01*
X228603Y376172D01*
X228276Y376107D01*
X227747Y375753D01*
X227393Y375224D01*
X227269Y374600D01*
X227393Y373976D01*
X227747Y373446D01*
X228276Y373093D01*
X228900Y372969D01*
X229524Y373093D01*
X230053Y373446D01*
X230075Y373479D01*
X246225D01*
X246247Y373446D01*
X246776Y373093D01*
X247400Y372969D01*
X248024Y373093D01*
X248553Y373446D01*
X248907Y373976D01*
X249031Y374600D01*
X248907Y375224D01*
X248553Y375753D01*
X248024Y376107D01*
X247400Y376231D01*
X246776Y376107D01*
X246247Y375753D01*
X246225Y375722D01*
X230201D01*
X230166Y375743D01*
X229988Y375951D01*
X230165Y376477D01*
X230717Y376586D01*
X231494Y377106D01*
X232014Y377883D01*
X232196Y378800D01*
X232014Y379717D01*
X231494Y380494D01*
X230717Y381014D01*
X229800Y381196D01*
D02*
G37*
G36*
X174900Y392631D02*
X174276Y392507D01*
X173747Y392154D01*
X173393Y391624D01*
X173269Y391000D01*
X173393Y390376D01*
X173747Y389846D01*
X173828Y389792D01*
Y375727D01*
X173493Y375224D01*
X173369Y374600D01*
X173493Y373976D01*
X173846Y373446D01*
X174376Y373093D01*
X175000Y372969D01*
X175624Y373093D01*
X176154Y373446D01*
X176507Y373976D01*
X176631Y374600D01*
X176507Y375224D01*
X176154Y375753D01*
X176072Y375808D01*
Y389873D01*
X176407Y390376D01*
X176531Y391000D01*
X176407Y391624D01*
X176054Y392154D01*
X175524Y392507D01*
X174900Y392631D01*
D02*
G37*
G36*
X268985Y356639D02*
X268361Y356515D01*
X267831Y356161D01*
X267478Y355632D01*
X267354Y355008D01*
X267478Y354384D01*
X267831Y353854D01*
X268361Y353501D01*
X268985Y353377D01*
X269609Y353501D01*
X270139Y353854D01*
X270492Y354384D01*
X270616Y355008D01*
X270492Y355632D01*
X270139Y356161D01*
X269609Y356515D01*
X268985Y356639D01*
D02*
G37*
G36*
X120400Y352031D02*
X119776Y351907D01*
X119246Y351554D01*
X118893Y351024D01*
X118769Y350400D01*
X118893Y349776D01*
X119246Y349247D01*
X119776Y348893D01*
X120400Y348769D01*
X121024Y348893D01*
X121554Y349247D01*
X121907Y349776D01*
X122031Y350400D01*
X121907Y351024D01*
X121554Y351554D01*
X121024Y351907D01*
X120400Y352031D01*
D02*
G37*
G36*
X300760Y351275D02*
X297610D01*
X296837Y351173D01*
X296116Y350875D01*
X295498Y350400D01*
X295023Y349781D01*
X294724Y349061D01*
X294622Y348287D01*
X294724Y347514D01*
X295023Y346794D01*
X295498Y346175D01*
X296116Y345700D01*
X296837Y345402D01*
X297610Y345300D01*
X300760D01*
X301533Y345402D01*
X302254Y345700D01*
X302872Y346175D01*
X303347Y346794D01*
X303646Y347514D01*
X303748Y348287D01*
X303646Y349061D01*
X303347Y349781D01*
X302872Y350400D01*
X302254Y350875D01*
X301533Y351173D01*
X300760Y351275D01*
D02*
G37*
G36*
X291803Y345958D02*
X291213D01*
X290516Y345866D01*
X289868Y345597D01*
X289311Y345170D01*
X288883Y344613D01*
X288633Y344010D01*
X288596Y343996D01*
X288449Y343964D01*
X288110Y343963D01*
X287839Y344369D01*
X287309Y344722D01*
X286685Y344846D01*
X286061Y344722D01*
X285531Y344369D01*
X285178Y343839D01*
X285054Y343215D01*
X285178Y342591D01*
X285531Y342061D01*
X286061Y341708D01*
X286685Y341584D01*
X287309Y341708D01*
X287839Y342061D01*
X288127Y342492D01*
X288303Y342521D01*
X288486Y342509D01*
X288661Y342460D01*
X288883Y341923D01*
X289311Y341366D01*
X289868Y340938D01*
X290516Y340669D01*
X291213Y340578D01*
X291803D01*
X292499Y340669D01*
X293148Y340938D01*
X293705Y341366D01*
X294133Y341923D01*
X294401Y342571D01*
X294493Y343268D01*
X294401Y343964D01*
X294133Y344613D01*
X293705Y345170D01*
X293148Y345597D01*
X292499Y345866D01*
X291803Y345958D01*
D02*
G37*
G36*
X204800Y400331D02*
X204176Y400207D01*
X203646Y399853D01*
X203293Y399324D01*
X203169Y398700D01*
X203293Y398076D01*
X203646Y397547D01*
X203780Y397457D01*
Y382622D01*
X187579Y366421D01*
X187358Y366090D01*
X187280Y365700D01*
Y337343D01*
X187146Y337253D01*
X186793Y336724D01*
X186669Y336100D01*
X186793Y335476D01*
X187146Y334946D01*
X187676Y334593D01*
X188300Y334469D01*
X188924Y334593D01*
X189453Y334946D01*
X189807Y335476D01*
X189931Y336100D01*
X189807Y336724D01*
X189453Y337253D01*
X189320Y337343D01*
Y365278D01*
X205521Y381479D01*
X205742Y381810D01*
X205820Y382200D01*
Y397457D01*
X205954Y397547D01*
X206307Y398076D01*
X206431Y398700D01*
X206307Y399324D01*
X205954Y399853D01*
X205424Y400207D01*
X204800Y400331D01*
D02*
G37*
G36*
X278985Y338639D02*
X278361Y338515D01*
X277832Y338161D01*
X277478Y337632D01*
X277354Y337008D01*
X277478Y336384D01*
X277723Y336017D01*
X277747Y335692D01*
X277600Y335408D01*
X277232Y335161D01*
X276878Y334632D01*
X276754Y334008D01*
X276878Y333384D01*
X277232Y332854D01*
X277761Y332501D01*
X278385Y332377D01*
X279009Y332501D01*
X279539Y332854D01*
X279892Y333384D01*
X279893Y333386D01*
X286410D01*
X286432Y333354D01*
X286961Y333001D01*
X287585Y332876D01*
X287725Y332904D01*
X287903Y332716D01*
X288064Y332462D01*
X287954Y331908D01*
X288078Y331284D01*
X288432Y330754D01*
X288961Y330401D01*
X289585Y330276D01*
X290209Y330401D01*
X290739Y330754D01*
X291092Y331284D01*
X291216Y331908D01*
X291092Y332532D01*
X290807Y332960D01*
Y335608D01*
X290807Y335608D01*
X290721Y336037D01*
X290478Y336401D01*
X290478Y336401D01*
X289078Y337801D01*
X288714Y338044D01*
X288285Y338129D01*
X288285Y338129D01*
X280160D01*
X280139Y338161D01*
X279609Y338515D01*
X278985Y338639D01*
D02*
G37*
G36*
X275285Y359539D02*
X274661Y359415D01*
X274131Y359061D01*
X273778Y358532D01*
X273654Y357908D01*
X273778Y357284D01*
X274131Y356754D01*
X274164Y356733D01*
Y344073D01*
X274049Y343902D01*
X273963Y343473D01*
X273963Y343473D01*
Y332408D01*
X273963Y332408D01*
X274049Y331979D01*
X274292Y331615D01*
X276240Y329667D01*
X276604Y329424D01*
X277033Y329339D01*
X277033Y329339D01*
X278235D01*
X278379Y329123D01*
X278908Y328770D01*
X279533Y328645D01*
X280157Y328770D01*
X280686Y329123D01*
X281040Y329653D01*
X281164Y330277D01*
X281040Y330901D01*
X280686Y331430D01*
X280157Y331784D01*
X279533Y331908D01*
X278908Y331784D01*
X278606Y331582D01*
X277497D01*
X276207Y332872D01*
Y343072D01*
X276321Y343243D01*
X276407Y343673D01*
Y356733D01*
X276439Y356754D01*
X276792Y357284D01*
X276916Y357908D01*
X276792Y358532D01*
X276439Y359061D01*
X275909Y359415D01*
X275285Y359539D01*
D02*
G37*
G36*
X291803Y328438D02*
X291213D01*
X290516Y328346D01*
X289868Y328078D01*
X289311Y327650D01*
X288883Y327093D01*
X288614Y326444D01*
X288523Y325748D01*
X288614Y325052D01*
X288883Y324403D01*
X289311Y323846D01*
X289868Y323418D01*
X290516Y323150D01*
X291213Y323058D01*
X291803D01*
X292499Y323150D01*
X293148Y323418D01*
X293705Y323846D01*
X294133Y324403D01*
X294401Y325052D01*
X294493Y325748D01*
X294401Y326444D01*
X294133Y327093D01*
X293705Y327650D01*
X293148Y328078D01*
X292499Y328346D01*
X291803Y328438D01*
D02*
G37*
G36*
X157200Y407731D02*
X156576Y407607D01*
X156046Y407254D01*
X155693Y406724D01*
X155569Y406100D01*
X155693Y405476D01*
X156046Y404947D01*
X156180Y404857D01*
Y386200D01*
X156258Y385810D01*
X156479Y385479D01*
X175980Y365978D01*
Y329443D01*
X175847Y329353D01*
X175493Y328824D01*
X175369Y328200D01*
X175493Y327576D01*
X175847Y327046D01*
X176376Y326693D01*
X177000Y326569D01*
X177624Y326693D01*
X178154Y327046D01*
X178280Y327236D01*
X178780Y327085D01*
Y324743D01*
X178647Y324654D01*
X178293Y324124D01*
X178169Y323500D01*
X178293Y322876D01*
X178647Y322346D01*
X179176Y321993D01*
X179800Y321869D01*
X180424Y321993D01*
X180954Y322346D01*
X181307Y322876D01*
X181431Y323500D01*
X181307Y324124D01*
X180954Y324654D01*
X180820Y324743D01*
Y391657D01*
X180954Y391746D01*
X181307Y392276D01*
X181431Y392900D01*
X181307Y393524D01*
X180954Y394054D01*
X180424Y394407D01*
X179800Y394531D01*
X179176Y394407D01*
X178647Y394054D01*
X178293Y393524D01*
X178169Y392900D01*
X178293Y392276D01*
X178647Y391746D01*
X178780Y391657D01*
Y329519D01*
X178280Y329326D01*
X178020Y329547D01*
Y366400D01*
X177942Y366790D01*
X177721Y367121D01*
X158220Y386622D01*
Y404857D01*
X158353Y404947D01*
X158707Y405476D01*
X158831Y406100D01*
X158707Y406724D01*
X158353Y407254D01*
X157824Y407607D01*
X157200Y407731D01*
D02*
G37*
G36*
X300760Y323716D02*
X297610D01*
X296837Y323614D01*
X296116Y323316D01*
X295498Y322841D01*
X295023Y322222D01*
X294724Y321502D01*
X294622Y320728D01*
X294724Y319955D01*
X295023Y319234D01*
X295498Y318616D01*
X296116Y318141D01*
X296837Y317842D01*
X297610Y317741D01*
X300760D01*
X301533Y317842D01*
X302254Y318141D01*
X302872Y318616D01*
X303347Y319234D01*
X303646Y319955D01*
X303748Y320728D01*
X303646Y321502D01*
X303347Y322222D01*
X302872Y322841D01*
X302254Y323316D01*
X301533Y323614D01*
X300760Y323716D01*
D02*
G37*
G36*
X115401Y319931D02*
X114777Y319807D01*
X114247Y319454D01*
X113894Y318924D01*
X113769Y318300D01*
X113894Y317676D01*
X114247Y317146D01*
X114777Y316793D01*
X115401Y316669D01*
X116025Y316793D01*
X116554Y317146D01*
X116908Y317676D01*
X117032Y318300D01*
X116908Y318924D01*
X116554Y319454D01*
X116025Y319807D01*
X115401Y319931D01*
D02*
G37*
G36*
X214800Y325431D02*
X214176Y325307D01*
X213647Y324954D01*
X213293Y324424D01*
X213169Y323800D01*
X213293Y323176D01*
X213647Y322646D01*
X214176Y322293D01*
X214800Y322169D01*
X215424Y322293D01*
X215953Y322646D01*
X216043Y322780D01*
X234378D01*
X245700Y311458D01*
X245669Y311300D01*
X245793Y310676D01*
X246146Y310146D01*
X246676Y309793D01*
X247300Y309669D01*
X247924Y309793D01*
X248453Y310146D01*
X248807Y310676D01*
X248931Y311300D01*
X248807Y311924D01*
X248453Y312454D01*
X247924Y312807D01*
X247300Y312931D01*
X247142Y312900D01*
X235521Y324521D01*
X235190Y324742D01*
X234800Y324820D01*
X216043D01*
X215953Y324954D01*
X215424Y325307D01*
X214800Y325431D01*
D02*
G37*
G36*
X188700Y302431D02*
X188076Y302307D01*
X187547Y301954D01*
X187457Y301820D01*
X174543D01*
X174453Y301954D01*
X173924Y302307D01*
X173300Y302431D01*
X172676Y302307D01*
X172146Y301954D01*
X171793Y301424D01*
X171669Y300800D01*
X171793Y300176D01*
X172146Y299646D01*
X172676Y299293D01*
X173300Y299169D01*
X173924Y299293D01*
X174453Y299646D01*
X174543Y299780D01*
X187457D01*
X187547Y299646D01*
X188076Y299293D01*
X188700Y299169D01*
X189324Y299293D01*
X189854Y299646D01*
X190207Y300176D01*
X190331Y300800D01*
X190207Y301424D01*
X189854Y301954D01*
X189324Y302307D01*
X188700Y302431D01*
D02*
G37*
G36*
X292384Y403884D02*
X284216D01*
Y395716D01*
X289717D01*
X305299Y380134D01*
Y318566D01*
X283219Y296486D01*
X273981D01*
X273714Y296986D01*
X273907Y297276D01*
X274031Y297900D01*
X273907Y298524D01*
X273553Y299054D01*
X273024Y299407D01*
X272760Y299460D01*
X272605Y299491D01*
Y300000D01*
X272773Y300034D01*
X273109Y300101D01*
X273639Y300454D01*
X273992Y300984D01*
X274116Y301608D01*
X273992Y302232D01*
X273639Y302761D01*
X273109Y303115D01*
X272485Y303239D01*
X271861Y303115D01*
X271332Y302761D01*
X271242Y302627D01*
X265700D01*
X265549Y303128D01*
X265739Y303254D01*
X266092Y303784D01*
X266216Y304408D01*
X266092Y305032D01*
X265739Y305561D01*
X265605Y305651D01*
Y318315D01*
X265527Y318705D01*
X265306Y319036D01*
X263600Y320742D01*
X263631Y320900D01*
X263507Y321524D01*
X263154Y322054D01*
X262624Y322407D01*
X262000Y322531D01*
X261376Y322407D01*
X260846Y322054D01*
X260493Y321524D01*
X260369Y320900D01*
X260493Y320276D01*
X260846Y319746D01*
X261376Y319393D01*
X262000Y319269D01*
X262158Y319300D01*
X263565Y317893D01*
Y305651D01*
X263432Y305561D01*
X263078Y305032D01*
X262954Y304408D01*
X263078Y303784D01*
X263432Y303254D01*
X263621Y303128D01*
X263470Y302627D01*
X255207D01*
X254389Y303445D01*
X254636Y303906D01*
X254785Y303876D01*
X255409Y304001D01*
X255939Y304354D01*
X256292Y304884D01*
X256416Y305508D01*
X256292Y306132D01*
X255939Y306661D01*
X255409Y307015D01*
X254785Y307139D01*
X254161Y307015D01*
X253631Y306661D01*
X253278Y306132D01*
X253154Y305508D01*
X253183Y305359D01*
X252723Y305112D01*
X251920Y305915D01*
Y315700D01*
X251842Y316090D01*
X251621Y316421D01*
X225820Y342222D01*
Y377357D01*
X225954Y377447D01*
X226307Y377976D01*
X226431Y378600D01*
X226307Y379224D01*
X225954Y379753D01*
X225424Y380107D01*
X224800Y380231D01*
X224176Y380107D01*
X223646Y379753D01*
X223293Y379224D01*
X223169Y378600D01*
X223293Y377976D01*
X223646Y377447D01*
X223780Y377357D01*
Y341800D01*
X223858Y341410D01*
X224079Y341079D01*
X249880Y315278D01*
Y305493D01*
X249958Y305103D01*
X250179Y304772D01*
X254064Y300887D01*
X254395Y300666D01*
X254785Y300588D01*
X271242D01*
X271332Y300454D01*
X271861Y300101D01*
X272125Y300048D01*
X272280Y300017D01*
Y299507D01*
X272112Y299474D01*
X271776Y299407D01*
X271247Y299054D01*
X271157Y298920D01*
X254322D01*
X246621Y306621D01*
X246290Y306842D01*
X245900Y306920D01*
X236566D01*
X236414Y307420D01*
X236754Y307646D01*
X237107Y308176D01*
X237231Y308800D01*
X237107Y309424D01*
X236754Y309953D01*
X236224Y310307D01*
X235600Y310431D01*
X234976Y310307D01*
X234447Y309953D01*
X234357Y309820D01*
X225343D01*
X225254Y309953D01*
X224724Y310307D01*
X224100Y310431D01*
X223476Y310307D01*
X222947Y309953D01*
X222593Y309424D01*
X222469Y308800D01*
X222593Y308176D01*
X222947Y307646D01*
X223286Y307420D01*
X223134Y306920D01*
X221022D01*
X215021Y312921D01*
X214690Y313142D01*
X214300Y313220D01*
X171043D01*
X170954Y313353D01*
X170424Y313707D01*
X169800Y313831D01*
X169456Y313763D01*
X169210Y314224D01*
X170465Y315478D01*
X180800D01*
X180800Y315478D01*
X181229Y315564D01*
X181593Y315807D01*
X185593Y319807D01*
X185593Y319807D01*
X185836Y320171D01*
X185922Y320600D01*
Y380125D01*
X185953Y380147D01*
X186307Y380676D01*
X186431Y381300D01*
X186307Y381924D01*
X185953Y382453D01*
X185424Y382807D01*
X184800Y382931D01*
X184176Y382807D01*
X183647Y382453D01*
X183293Y381924D01*
X183169Y381300D01*
X183293Y380676D01*
X183647Y380147D01*
X183678Y380125D01*
Y321065D01*
X180335Y317722D01*
X170000D01*
X169571Y317636D01*
X169207Y317393D01*
X169207Y317393D01*
X165207Y313393D01*
X164964Y313029D01*
X164878Y312600D01*
X164878Y312600D01*
Y308800D01*
X164878Y308800D01*
X164964Y308371D01*
X165207Y308007D01*
X167178Y306035D01*
Y276875D01*
X167147Y276853D01*
X166793Y276324D01*
X166669Y275700D01*
X166793Y275076D01*
X167147Y274547D01*
X167676Y274193D01*
X168300Y274069D01*
X168924Y274193D01*
X169454Y274547D01*
X169807Y275076D01*
X169931Y275700D01*
X169807Y276324D01*
X169454Y276853D01*
X169422Y276875D01*
Y306500D01*
X169422Y306500D01*
X169336Y306929D01*
X169093Y307293D01*
X169093Y307293D01*
X167122Y309265D01*
Y312135D01*
X167776Y312790D01*
X168237Y312544D01*
X168169Y312200D01*
X168293Y311576D01*
X168647Y311047D01*
X169176Y310693D01*
X169800Y310569D01*
X170424Y310693D01*
X170954Y311047D01*
X171043Y311180D01*
X213878D01*
X219879Y305179D01*
X220210Y304958D01*
X220600Y304880D01*
X245478D01*
X253179Y297179D01*
X253205Y296568D01*
X253149Y296486D01*
X240700D01*
X239978Y296343D01*
X239366Y295934D01*
X229566Y286134D01*
X229157Y285522D01*
X229014Y284800D01*
Y279900D01*
X229157Y279178D01*
X229566Y278566D01*
X230178Y278157D01*
X230900Y278014D01*
X231622Y278157D01*
X232234Y278566D01*
X232643Y279178D01*
X232786Y279900D01*
Y284019D01*
X241481Y292714D01*
X242375D01*
X242419Y292683D01*
X242731Y292341D01*
X242762Y292184D01*
X242746Y292025D01*
X242760Y292008D01*
X242849Y291560D01*
X242776Y291189D01*
X242566Y290875D01*
X242144Y290593D01*
X242125Y290564D01*
X241956Y290494D01*
X241931Y290433D01*
X241876Y290396D01*
X241839Y290210D01*
X241766Y290035D01*
Y284900D01*
X235134Y279099D01*
X235112Y279054D01*
X235067Y279031D01*
X235004Y278836D01*
X234969Y278766D01*
X234968Y278765D01*
Y278764D01*
X234913Y278653D01*
X234930Y278606D01*
X234914Y278558D01*
X234922Y278466D01*
X234969Y278373D01*
X234969Y278268D01*
X235142Y277854D01*
X235189Y277807D01*
X235202Y277742D01*
X235360Y277637D01*
X235494Y277503D01*
X235560Y277503D01*
X235615Y277466D01*
X235971Y277395D01*
X236285Y277185D01*
X236495Y276871D01*
X236569Y276500D01*
X236495Y276129D01*
X236285Y275815D01*
X235971Y275605D01*
X235600Y275531D01*
X235229Y275605D01*
X234915Y275815D01*
X234705Y276129D01*
X234606Y276627D01*
X234597Y276640D01*
X234609Y276731D01*
X234542Y276818D01*
X234521Y276924D01*
X234397Y277007D01*
X234306Y277126D01*
X233849Y277390D01*
X233701Y277410D01*
X233567Y277476D01*
X233464Y277441D01*
X233356Y277455D01*
X233238Y277364D01*
X233097Y277317D01*
X217630Y263789D01*
X217621Y263769D01*
X217597Y263759D01*
X217536Y263612D01*
X217435Y263489D01*
X217283Y262988D01*
X217299Y262830D01*
X217267Y262673D01*
X217322Y262592D01*
X217332Y262494D01*
X217455Y262393D01*
X217544Y262260D01*
X217566Y262245D01*
X217776Y261931D01*
X217849Y261560D01*
X217776Y261189D01*
X217566Y260875D01*
X217251Y260664D01*
X216880Y260591D01*
X216509Y260664D01*
X216195Y260875D01*
X215985Y261189D01*
X215911Y261560D01*
X215985Y261931D01*
X216195Y262245D01*
X216217Y262260D01*
X216306Y262393D01*
X216429Y262494D01*
X216439Y262592D01*
X216493Y262673D01*
X216462Y262830D01*
X216478Y262988D01*
X216326Y263489D01*
X216225Y263612D01*
X216164Y263759D01*
X216073Y263797D01*
X216011Y263873D01*
X215852Y263888D01*
X215705Y263949D01*
X208056D01*
X207909Y263888D01*
X207750Y263873D01*
X207687Y263797D01*
X207597Y263759D01*
X207536Y263612D01*
X207435Y263489D01*
X207283Y262988D01*
X207298Y262830D01*
X207267Y262673D01*
X207322Y262592D01*
X207331Y262494D01*
X207455Y262393D01*
X207543Y262260D01*
X207566Y262245D01*
X207776Y261931D01*
X207850Y261560D01*
X207776Y261189D01*
X207566Y260875D01*
X207251Y260664D01*
X206880Y260591D01*
X206509Y260664D01*
X206195Y260875D01*
X205985Y261189D01*
X205911Y261560D01*
X205985Y261931D01*
X206195Y262245D01*
X206217Y262260D01*
X206306Y262393D01*
X206429Y262494D01*
X206439Y262592D01*
X206493Y262673D01*
X206462Y262830D01*
X206478Y262988D01*
X206326Y263489D01*
X206225Y263612D01*
X206164Y263759D01*
X206073Y263797D01*
X206011Y263873D01*
X205852Y263888D01*
X205705Y263949D01*
X198056D01*
X197909Y263888D01*
X197750Y263873D01*
X197687Y263797D01*
X197597Y263759D01*
X197536Y263612D01*
X197434Y263489D01*
X197283Y262988D01*
X197299Y262830D01*
X197267Y262673D01*
X197322Y262592D01*
X197332Y262494D01*
X197455Y262393D01*
X197544Y262260D01*
X197566Y262245D01*
X197776Y261931D01*
X197850Y261560D01*
X197776Y261189D01*
X197566Y260875D01*
X197251Y260664D01*
X196880Y260591D01*
X196509Y260664D01*
X196195Y260875D01*
X195985Y261189D01*
X195911Y261560D01*
X195985Y261931D01*
X196195Y262245D01*
X196217Y262260D01*
X196306Y262393D01*
X196429Y262494D01*
X196439Y262592D01*
X196493Y262673D01*
X196462Y262830D01*
X196478Y262988D01*
X196326Y263489D01*
X196225Y263612D01*
X196164Y263759D01*
X196073Y263797D01*
X196011Y263873D01*
X195852Y263888D01*
X195705Y263949D01*
X188662D01*
X188510Y264449D01*
X188594Y264506D01*
X189114Y265283D01*
X189296Y266200D01*
X189114Y267117D01*
X188594Y267894D01*
X187817Y268414D01*
X186900Y268596D01*
X185983Y268414D01*
X185206Y267894D01*
X184686Y267117D01*
X184504Y266200D01*
X184686Y265283D01*
X185206Y264506D01*
X185290Y264449D01*
X185138Y263949D01*
X178056D01*
X177909Y263888D01*
X177750Y263873D01*
X177688Y263797D01*
X177597Y263759D01*
X177536Y263612D01*
X177435Y263489D01*
X177283Y262988D01*
X177298Y262830D01*
X177267Y262673D01*
X177322Y262592D01*
X177331Y262494D01*
X177455Y262393D01*
X177543Y262260D01*
X177566Y262245D01*
X177776Y261931D01*
X177849Y261560D01*
X177776Y261189D01*
X177566Y260875D01*
X177251Y260664D01*
X176880Y260591D01*
X176509Y260664D01*
X176195Y260875D01*
X175985Y261189D01*
X175911Y261560D01*
X175985Y261931D01*
X176195Y262245D01*
X176217Y262260D01*
X176306Y262393D01*
X176429Y262494D01*
X176439Y262592D01*
X176493Y262673D01*
X176462Y262830D01*
X176478Y262988D01*
X176326Y263489D01*
X176225Y263612D01*
X176164Y263759D01*
X176073Y263797D01*
X176011Y263873D01*
X175852Y263888D01*
X175705Y263949D01*
X158056D01*
X157908Y263888D01*
X157750Y263873D01*
X157687Y263797D01*
X157597Y263759D01*
X157536Y263612D01*
X157434Y263489D01*
X157283Y262988D01*
X157298Y262830D01*
X157267Y262673D01*
X157322Y262592D01*
X157332Y262494D01*
X157455Y262393D01*
X157544Y262260D01*
X157566Y262245D01*
X157776Y261931D01*
X157850Y261560D01*
X157776Y261189D01*
X157566Y260875D01*
X157251Y260664D01*
X156880Y260591D01*
X156509Y260664D01*
X156195Y260875D01*
X155985Y261189D01*
X155911Y261560D01*
X155985Y261931D01*
X156195Y262245D01*
X156217Y262260D01*
X156306Y262393D01*
X156429Y262494D01*
X156439Y262592D01*
X156493Y262673D01*
X156462Y262830D01*
X156478Y262988D01*
X156326Y263489D01*
X156225Y263612D01*
X156164Y263759D01*
X156073Y263797D01*
X156011Y263873D01*
X155852Y263888D01*
X155705Y263949D01*
X155224D01*
X149178Y267519D01*
X149178Y295508D01*
X149164Y295543D01*
X149174Y295578D01*
X149070Y295768D01*
X148988Y295968D01*
X148953Y295982D01*
X148936Y296014D01*
X129790Y311426D01*
X129761Y311434D01*
X129744Y311460D01*
X129733Y311467D01*
X129728Y311476D01*
X125386Y314971D01*
X125177Y315032D01*
X124976Y315115D01*
X84287Y314932D01*
X84180Y314887D01*
X84065Y314892D01*
X83960Y314795D01*
X83828Y314740D01*
X83785Y314633D01*
X83700Y314554D01*
X83469Y314053D01*
X83466Y313974D01*
X83422Y313908D01*
X83457Y313734D01*
X83450Y313556D01*
X83503Y313498D01*
X83519Y313421D01*
X83680Y313179D01*
X83754Y312808D01*
X83680Y312437D01*
X83470Y312123D01*
X83156Y311912D01*
X82785Y311839D01*
X82414Y311912D01*
X82100Y312123D01*
X81890Y312437D01*
X81816Y312808D01*
X81890Y313179D01*
X82043Y313409D01*
X82060Y313494D01*
X82118Y313559D01*
X82107Y313729D01*
X82140Y313897D01*
X82092Y313968D01*
X82087Y314055D01*
X81844Y314554D01*
X81760Y314627D01*
X81717Y314730D01*
X81581Y314786D01*
X81472Y314883D01*
X81360Y314876D01*
X81257Y314918D01*
X76797Y314898D01*
X76569Y314803D01*
X76341Y314708D01*
X76340Y314707D01*
X76339Y314706D01*
X76245Y314477D01*
X76151Y314249D01*
X76151Y298168D01*
X76223Y297993D01*
X76260Y297808D01*
X76595Y297305D01*
X76631Y297282D01*
X76689Y297141D01*
X76751Y297115D01*
X76788Y297060D01*
X76974Y297023D01*
X77149Y296951D01*
X107181Y296951D01*
X107356Y297023D01*
X107542Y297060D01*
X107957Y297337D01*
X108328Y297411D01*
X108699Y297337D01*
X109115Y297060D01*
X109300Y297023D01*
X109475Y296951D01*
X115950D01*
X121751Y292619D01*
X121892Y292583D01*
X122013Y292503D01*
X122251Y292455D01*
X122566Y292245D01*
X122816Y291871D01*
X122909Y291808D01*
X122967Y291711D01*
X127051Y288663D01*
X127050Y257757D01*
X127077Y257693D01*
X127064Y257626D01*
X127169Y257471D01*
X127241Y257298D01*
X127304Y257271D01*
X127343Y257214D01*
X130974Y254826D01*
X131079Y254806D01*
X131221Y254765D01*
X131333Y254719D01*
X131599Y254548D01*
X131734Y254414D01*
X131841Y254256D01*
X149313Y242763D01*
X149497Y242728D01*
X149670Y242656D01*
X223151Y242662D01*
X223343Y242200D01*
X212665Y231522D01*
X136775D01*
X136753Y231554D01*
X136224Y231907D01*
X135600Y232031D01*
X134976Y231907D01*
X134447Y231554D01*
X134093Y231024D01*
X133969Y230400D01*
X134093Y229776D01*
X134447Y229246D01*
X134976Y228893D01*
X135600Y228769D01*
X136224Y228893D01*
X136753Y229246D01*
X136775Y229278D01*
X213129D01*
X213129Y229278D01*
X213558Y229364D01*
X213922Y229607D01*
X227309Y242994D01*
X227821Y242852D01*
X227940Y242803D01*
X228031Y242711D01*
X228161D01*
X228280Y242662D01*
X230429Y242662D01*
X230491Y242688D01*
X230556Y242675D01*
X230853Y242734D01*
X231149Y242675D01*
X231215Y242688D01*
X231276Y242662D01*
X241287Y242663D01*
X252551Y233071D01*
X252551Y192465D01*
X252623Y192290D01*
X252660Y192104D01*
X252776Y191931D01*
X252850Y191560D01*
X252776Y191189D01*
X252660Y191016D01*
X252623Y190830D01*
X252551Y190655D01*
Y190000D01*
X252646Y189770D01*
X252740Y189541D01*
X252741Y189541D01*
X252741Y189541D01*
X252969Y189446D01*
X253014Y189428D01*
Y181881D01*
X237019Y165886D01*
X82500D01*
X81778Y165743D01*
X81166Y165334D01*
X35786Y119954D01*
X35083Y119814D01*
X34306Y119294D01*
X33786Y118517D01*
X33604Y117600D01*
X33786Y116683D01*
X34306Y115906D01*
X35083Y115386D01*
X36000Y115204D01*
X36917Y115386D01*
X37694Y115906D01*
X38214Y116683D01*
X38304Y117136D01*
X83281Y162114D01*
X237800D01*
X238522Y162257D01*
X239134Y162666D01*
X256234Y179766D01*
X256643Y180378D01*
X256786Y181100D01*
Y188992D01*
X257140Y189345D01*
X266210Y189332D01*
X266436Y189426D01*
X266665Y189517D01*
X266666Y189521D01*
X266669Y189522D01*
X266763Y189748D01*
X266860Y189974D01*
X266988Y200931D01*
X267402Y201202D01*
X267492Y201190D01*
X268100Y201069D01*
X268724Y201193D01*
X268920Y201324D01*
X276685D01*
X287682Y190327D01*
X287682Y190327D01*
X288128Y190028D01*
X288655Y189924D01*
X296580D01*
X296776Y189793D01*
X297400Y189669D01*
X297993Y189787D01*
X298024Y189765D01*
X298202Y189288D01*
X297035Y188122D01*
X287900D01*
X287471Y188036D01*
X287107Y187793D01*
X287107Y187793D01*
X281007Y181693D01*
X280764Y181329D01*
X280678Y180900D01*
X280679Y180900D01*
Y177265D01*
X271938Y168524D01*
X271900Y168531D01*
X271276Y168407D01*
X270746Y168053D01*
X270393Y167524D01*
X270269Y166900D01*
X270393Y166276D01*
X270746Y165746D01*
X271276Y165393D01*
X271900Y165269D01*
X272524Y165393D01*
X273054Y165746D01*
X273407Y166276D01*
X273531Y166900D01*
X273524Y166938D01*
X282593Y176007D01*
X282593Y176007D01*
X282836Y176371D01*
X282922Y176800D01*
Y180435D01*
X288365Y185878D01*
X297500D01*
X297500Y185878D01*
X297929Y185964D01*
X298293Y186207D01*
X300493Y188407D01*
X300736Y188771D01*
X300822Y189200D01*
X300821Y189200D01*
Y200200D01*
X300736Y200629D01*
X300493Y200993D01*
X300493Y200993D01*
X298124Y203362D01*
X298131Y203400D01*
X298007Y204024D01*
X297654Y204554D01*
X297124Y204907D01*
X296500Y205031D01*
X295876Y204907D01*
X295346Y204554D01*
X294993Y204024D01*
X294869Y203400D01*
X294993Y202776D01*
X295346Y202246D01*
X295876Y201893D01*
X296500Y201769D01*
X296538Y201776D01*
X298579Y199735D01*
Y193038D01*
X298078Y192771D01*
X298024Y192807D01*
X297400Y192931D01*
X296776Y192807D01*
X296580Y192676D01*
X289225D01*
X279061Y202840D01*
X279252Y203303D01*
X288696Y203329D01*
X288843Y203391D01*
X289001Y203406D01*
X289064Y203483D01*
X289155Y203521D01*
X289215Y203668D01*
X289316Y203791D01*
X289467Y204292D01*
X289452Y204450D01*
X289483Y204606D01*
X289428Y204688D01*
X289418Y204786D01*
X289351Y204841D01*
X289346Y204867D01*
X288898Y205537D01*
X288766Y206200D01*
X288898Y206863D01*
X289274Y207426D01*
X289837Y207802D01*
X290500Y207934D01*
X290798Y207875D01*
X290831Y207881D01*
X290860Y207865D01*
X291070Y207929D01*
X291285Y207972D01*
X291304Y207999D01*
X291336Y208009D01*
X291837Y208419D01*
X291853Y208449D01*
X291884Y208462D01*
X291968Y208664D01*
X292072Y208858D01*
X292062Y208890D01*
X292075Y208921D01*
X292080Y211854D01*
X292067Y211885D01*
X292077Y211918D01*
X291974Y212111D01*
X291890Y212313D01*
X291859Y212326D01*
X291843Y212356D01*
X291457Y212674D01*
X291424Y212684D01*
X291405Y212712D01*
X291190Y212755D01*
X290981Y212819D01*
X290951Y212803D01*
X290917Y212809D01*
X290700Y212766D01*
X290037Y212898D01*
X289474Y213274D01*
X289098Y213837D01*
X288966Y214500D01*
X289098Y215163D01*
X289474Y215726D01*
X290037Y216102D01*
X290700Y216234D01*
X290926Y216189D01*
X290959Y216196D01*
X290988Y216180D01*
X291198Y216243D01*
X291413Y216286D01*
X291432Y216314D01*
X291464Y216323D01*
X291851Y216640D01*
X291867Y216670D01*
X291898Y216683D01*
X291982Y216885D01*
X292086Y217079D01*
X292076Y217111D01*
X292089Y217142D01*
X292094Y220417D01*
X292081Y220448D01*
X292091Y220481D01*
X291988Y220674D01*
X291905Y220876D01*
X291873Y220889D01*
X291857Y220920D01*
X291471Y221237D01*
X291438Y221247D01*
X291419Y221275D01*
X291205Y221318D01*
X290996Y221382D01*
X290965Y221366D01*
X290932Y221373D01*
X290900Y221366D01*
X290236Y221498D01*
X289674Y221874D01*
X289298Y222436D01*
X289166Y223100D01*
X289298Y223763D01*
X289674Y224326D01*
X290236Y224702D01*
X290900Y224834D01*
X290940Y224826D01*
X290973Y224832D01*
X291003Y224816D01*
X291213Y224880D01*
X291428Y224923D01*
X291447Y224951D01*
X291479Y224960D01*
X291865Y225277D01*
X291881Y225307D01*
X291912Y225320D01*
X291997Y225522D01*
X292100Y225715D01*
X292091Y225748D01*
X292103Y225779D01*
X292106Y227399D01*
X292105Y227401D01*
X292106Y227403D01*
X292034Y243647D01*
X291940Y243871D01*
X291851Y244097D01*
X291845Y244099D01*
X291842Y244106D01*
X291617Y244198D01*
X291394Y244294D01*
X290457Y244307D01*
X290391Y244281D01*
X290321Y244295D01*
X290000Y244231D01*
X289610Y244308D01*
X289549Y244296D01*
X289492Y244321D01*
X277561Y244491D01*
X277381Y244420D01*
X277191Y244382D01*
X276986Y244245D01*
X276615Y244171D01*
X276244Y244245D01*
X275998Y244409D01*
X275816Y244446D01*
X275646Y244519D01*
X273727Y244546D01*
X263386Y252617D01*
Y262284D01*
X263428Y262363D01*
X263509Y262379D01*
X264039Y262732D01*
X264392Y263262D01*
X264516Y263886D01*
X264485Y264044D01*
X266207Y265766D01*
X268942D01*
X269032Y265632D01*
X269561Y265279D01*
X270185Y265155D01*
X270809Y265279D01*
X271339Y265632D01*
X271692Y266161D01*
X271816Y266786D01*
X271692Y267410D01*
X271339Y267939D01*
X270809Y268293D01*
X270185Y268417D01*
X269561Y268293D01*
X269032Y267939D01*
X268942Y267805D01*
X265785D01*
X265395Y267728D01*
X265064Y267507D01*
X263848Y266291D01*
X263386Y266482D01*
Y292714D01*
X284000D01*
X284722Y292857D01*
X285334Y293266D01*
X308519Y316451D01*
X308928Y317063D01*
X309071Y317785D01*
Y380915D01*
X308928Y381637D01*
X308519Y382249D01*
X292384Y398383D01*
Y403884D01*
D02*
G37*
G36*
X192000Y286131D02*
X191376Y286007D01*
X190847Y285653D01*
X190493Y285124D01*
X190369Y284500D01*
X190493Y283876D01*
X190847Y283347D01*
X191376Y282993D01*
X192000Y282869D01*
X192624Y282993D01*
X193154Y283347D01*
X193507Y283876D01*
X193631Y284500D01*
X193507Y285124D01*
X193154Y285653D01*
X192624Y286007D01*
X192000Y286131D01*
D02*
G37*
G36*
X186800Y286796D02*
X185883Y286614D01*
X185106Y286094D01*
X184586Y285317D01*
X184404Y284400D01*
X184586Y283483D01*
X185106Y282706D01*
X185883Y282186D01*
X186800Y282004D01*
X187717Y282186D01*
X188494Y282706D01*
X189014Y283483D01*
X189196Y284400D01*
X189014Y285317D01*
X188494Y286094D01*
X187717Y286614D01*
X186800Y286796D01*
D02*
G37*
G36*
X197300Y284031D02*
X196676Y283907D01*
X196147Y283554D01*
X195793Y283024D01*
X195669Y282400D01*
X195793Y281776D01*
X196147Y281246D01*
X196676Y280893D01*
X197300Y280769D01*
X197924Y280893D01*
X198453Y281246D01*
X198807Y281776D01*
X198931Y282400D01*
X198807Y283024D01*
X198453Y283554D01*
X197924Y283907D01*
X197300Y284031D01*
D02*
G37*
G36*
X52900Y292031D02*
X52276Y291907D01*
X51746Y291553D01*
X51393Y291024D01*
X51269Y290400D01*
X51393Y289776D01*
X51746Y289247D01*
X51880Y289157D01*
Y281043D01*
X51746Y280954D01*
X51393Y280424D01*
X51269Y279800D01*
X51393Y279176D01*
X51746Y278646D01*
X52276Y278293D01*
X52900Y278169D01*
X53524Y278293D01*
X54053Y278646D01*
X54407Y279176D01*
X54531Y279800D01*
X54407Y280424D01*
X54053Y280954D01*
X53920Y281043D01*
Y289157D01*
X54053Y289247D01*
X54407Y289776D01*
X54531Y290400D01*
X54407Y291024D01*
X54053Y291553D01*
X53524Y291907D01*
X52900Y292031D01*
D02*
G37*
G36*
X202700Y279631D02*
X202076Y279507D01*
X201547Y279153D01*
X201193Y278624D01*
X201069Y278000D01*
X201104Y277821D01*
X201022Y277699D01*
X200671Y277438D01*
X200200Y277531D01*
X199576Y277407D01*
X199047Y277053D01*
X198693Y276524D01*
X198569Y275900D01*
X198604Y275721D01*
X198154Y275420D01*
X198024Y275507D01*
X197400Y275631D01*
X196776Y275507D01*
X196247Y275153D01*
X195893Y274624D01*
X195769Y274000D01*
X195864Y273520D01*
X195431Y273235D01*
X195024Y273507D01*
X194400Y273631D01*
X193776Y273507D01*
X193246Y273153D01*
X192893Y272624D01*
X192769Y272000D01*
X192893Y271376D01*
X193246Y270847D01*
X193776Y270493D01*
X194400Y270369D01*
X195024Y270493D01*
X195554Y270847D01*
X195907Y271376D01*
X196031Y272000D01*
X195936Y272480D01*
X196369Y272765D01*
X196776Y272493D01*
X197400Y272369D01*
X198024Y272493D01*
X198200Y272610D01*
X198650Y272310D01*
X198569Y271900D01*
X198673Y271375D01*
X198428Y271132D01*
X198268Y271044D01*
X198024Y271207D01*
X197400Y271331D01*
X196776Y271207D01*
X196247Y270853D01*
X195893Y270324D01*
X195769Y269700D01*
X195861Y269237D01*
X195602Y269057D01*
X195400Y268989D01*
X194924Y269307D01*
X194300Y269431D01*
X193676Y269307D01*
X193147Y268953D01*
X192793Y268424D01*
X192669Y267800D01*
X192793Y267176D01*
X193147Y266647D01*
X193676Y266293D01*
X194300Y266169D01*
X194924Y266293D01*
X195454Y266647D01*
X195807Y267176D01*
X195931Y267800D01*
X195839Y268263D01*
X196098Y268443D01*
X196300Y268511D01*
X196776Y268193D01*
X197400Y268069D01*
X198024Y268193D01*
X198554Y268547D01*
X198907Y269076D01*
X199031Y269700D01*
X198927Y270225D01*
X199172Y270468D01*
X199332Y270556D01*
X199576Y270393D01*
X200200Y270269D01*
X200629Y270354D01*
X201068Y270001D01*
X201069Y270000D01*
X201193Y269376D01*
X201547Y268847D01*
X202076Y268493D01*
X202700Y268369D01*
X203324Y268493D01*
X203854Y268847D01*
X204207Y269376D01*
X204331Y270000D01*
X204207Y270624D01*
X203854Y271153D01*
X203324Y271507D01*
X202700Y271631D01*
X202435Y271579D01*
X202018Y271932D01*
X202024Y272044D01*
X202496Y272409D01*
X202700Y272369D01*
X203324Y272493D01*
X203854Y272847D01*
X204207Y273376D01*
X204331Y274000D01*
X204207Y274624D01*
X203854Y275153D01*
X203324Y275507D01*
X202700Y275631D01*
X202435Y275579D01*
X202018Y275932D01*
X202024Y276044D01*
X202496Y276409D01*
X202700Y276369D01*
X203324Y276493D01*
X203854Y276847D01*
X204207Y277376D01*
X204331Y278000D01*
X204207Y278624D01*
X203854Y279153D01*
X203324Y279507D01*
X202700Y279631D01*
D02*
G37*
G36*
X194300Y281631D02*
X193676Y281507D01*
X193147Y281153D01*
X192793Y280624D01*
X192669Y280000D01*
X192793Y279376D01*
X193147Y278847D01*
X193676Y278493D01*
X194300Y278369D01*
X194924Y278493D01*
X195216Y278688D01*
X195669Y278400D01*
X195793Y277776D01*
X196147Y277246D01*
X196676Y276893D01*
X197300Y276769D01*
X197924Y276893D01*
X198453Y277246D01*
X198807Y277776D01*
X198931Y278400D01*
X198807Y279024D01*
X198453Y279554D01*
X197924Y279907D01*
X197300Y280031D01*
X196676Y279907D01*
X196384Y279712D01*
X195931Y280000D01*
X195807Y280624D01*
X195454Y281153D01*
X194924Y281507D01*
X194300Y281631D01*
D02*
G37*
G36*
X180398Y279749D02*
X179773Y279625D01*
X179244Y279272D01*
X178891Y278742D01*
X178766Y278118D01*
X178891Y277494D01*
X179244Y276965D01*
X179773Y276611D01*
X180398Y276487D01*
X181022Y276611D01*
X181551Y276965D01*
X181905Y277494D01*
X182029Y278118D01*
X181905Y278742D01*
X181551Y279272D01*
X181022Y279625D01*
X180398Y279749D01*
D02*
G37*
G36*
X210600Y280896D02*
X209683Y280714D01*
X208906Y280194D01*
X208386Y279417D01*
X208204Y278500D01*
X208386Y277583D01*
X208906Y276806D01*
X209683Y276286D01*
X210600Y276104D01*
X211517Y276286D01*
X212294Y276806D01*
X212814Y277583D01*
X212996Y278500D01*
X212814Y279417D01*
X212294Y280194D01*
X211517Y280714D01*
X210600Y280896D01*
D02*
G37*
G36*
X194300Y277831D02*
X193676Y277707D01*
X193147Y277354D01*
X192793Y276824D01*
X192669Y276200D01*
X192793Y275576D01*
X193147Y275046D01*
X193676Y274693D01*
X194300Y274569D01*
X194924Y274693D01*
X195454Y275046D01*
X195807Y275576D01*
X195931Y276200D01*
X195807Y276824D01*
X195454Y277354D01*
X194924Y277707D01*
X194300Y277831D01*
D02*
G37*
G36*
X164400Y289431D02*
X163776Y289307D01*
X163247Y288953D01*
X162893Y288424D01*
X162769Y287800D01*
X162893Y287176D01*
X163247Y286647D01*
X163480Y286490D01*
Y276943D01*
X163347Y276853D01*
X162993Y276324D01*
X162869Y275700D01*
X162993Y275076D01*
X163347Y274547D01*
X163876Y274193D01*
X164500Y274069D01*
X165124Y274193D01*
X165654Y274547D01*
X166007Y275076D01*
X166131Y275700D01*
X166007Y276324D01*
X165654Y276853D01*
X165520Y276943D01*
Y286624D01*
X165553Y286647D01*
X165907Y287176D01*
X166031Y287800D01*
X165907Y288424D01*
X165553Y288953D01*
X165024Y289307D01*
X164400Y289431D01*
D02*
G37*
G36*
X305946Y279246D02*
X298054D01*
Y271354D01*
X305946D01*
Y279246D01*
D02*
G37*
G36*
X210600Y273596D02*
X209683Y273414D01*
X208906Y272894D01*
X208386Y272117D01*
X208204Y271200D01*
X208386Y270283D01*
X208906Y269506D01*
X209683Y268986D01*
X210600Y268804D01*
X211517Y268986D01*
X212294Y269506D01*
X212814Y270283D01*
X212996Y271200D01*
X212814Y272117D01*
X212294Y272894D01*
X211517Y273414D01*
X210600Y273596D01*
D02*
G37*
G36*
X152288Y270615D02*
X151664Y270491D01*
X151135Y270137D01*
X150781Y269608D01*
X150657Y268983D01*
X150781Y268359D01*
X151135Y267830D01*
X151664Y267476D01*
X152288Y267352D01*
X152913Y267476D01*
X153442Y267830D01*
X153796Y268359D01*
X153920Y268983D01*
X153796Y269608D01*
X153442Y270137D01*
X152913Y270491D01*
X152288Y270615D01*
D02*
G37*
G36*
X302000Y269281D02*
X300970Y269145D01*
X300010Y268747D01*
X299185Y268115D01*
X298553Y267290D01*
X298155Y266330D01*
X298020Y265300D01*
X298155Y264270D01*
X298553Y263310D01*
X299185Y262485D01*
X300010Y261853D01*
X300970Y261455D01*
X302000Y261319D01*
X303030Y261455D01*
X303990Y261853D01*
X304815Y262485D01*
X305447Y263310D01*
X305845Y264270D01*
X305980Y265300D01*
X305845Y266330D01*
X305447Y267290D01*
X304815Y268115D01*
X303990Y268747D01*
X303030Y269145D01*
X302000Y269281D01*
D02*
G37*
G36*
X186300Y238131D02*
X185676Y238007D01*
X185146Y237653D01*
X184992Y237421D01*
X144275D01*
X144254Y237454D01*
X143724Y237807D01*
X143100Y237931D01*
X142476Y237807D01*
X141946Y237454D01*
X141593Y236924D01*
X141469Y236300D01*
X141593Y235676D01*
X141946Y235146D01*
X142476Y234793D01*
X143100Y234669D01*
X143724Y234793D01*
X144254Y235146D01*
X144275Y235178D01*
X185398D01*
X185676Y234993D01*
X186300Y234869D01*
X186924Y234993D01*
X187453Y235347D01*
X187807Y235876D01*
X187931Y236500D01*
X187807Y237124D01*
X187453Y237653D01*
X186924Y238007D01*
X186300Y238131D01*
D02*
G37*
G36*
X192193Y221329D02*
X190906Y221160D01*
X189706Y220663D01*
X188676Y219873D01*
X187886Y218843D01*
X187389Y217643D01*
X187220Y216356D01*
X187389Y215069D01*
X187886Y213869D01*
X188676Y212839D01*
X189706Y212049D01*
X190906Y211552D01*
X192193Y211383D01*
X193480Y211552D01*
X194680Y212049D01*
X195710Y212839D01*
X196500Y213869D01*
X196997Y215069D01*
X197166Y216356D01*
X196997Y217643D01*
X196500Y218843D01*
X195710Y219873D01*
X194680Y220663D01*
X193480Y221160D01*
X192193Y221329D01*
D02*
G37*
G36*
X172193D02*
X170906Y221160D01*
X169706Y220663D01*
X168676Y219873D01*
X167886Y218843D01*
X167389Y217643D01*
X167220Y216356D01*
X167389Y215069D01*
X167886Y213869D01*
X168676Y212839D01*
X169706Y212049D01*
X170906Y211552D01*
X172193Y211383D01*
X173480Y211552D01*
X174680Y212049D01*
X175710Y212839D01*
X176500Y213869D01*
X176997Y215069D01*
X177166Y216356D01*
X176997Y217643D01*
X176500Y218843D01*
X175710Y219873D01*
X174680Y220663D01*
X173480Y221160D01*
X172193Y221329D01*
D02*
G37*
G36*
X25500Y204719D02*
X24434Y204579D01*
X23440Y204168D01*
X22587Y203513D01*
X21932Y202660D01*
X21521Y201666D01*
X21381Y200600D01*
X21521Y199534D01*
X21932Y198540D01*
X22587Y197687D01*
X23440Y197032D01*
X24434Y196621D01*
X25500Y196481D01*
X26566Y196621D01*
X27560Y197032D01*
X28413Y197687D01*
X29068Y198540D01*
X29479Y199534D01*
X29620Y200600D01*
X29479Y201666D01*
X29068Y202660D01*
X28413Y203513D01*
X27560Y204168D01*
X26566Y204579D01*
X25500Y204719D01*
D02*
G37*
G36*
X104435Y193638D02*
X103811Y193514D01*
X103282Y193160D01*
X102928Y192631D01*
X102804Y192006D01*
X102928Y191382D01*
X103282Y190853D01*
X103811Y190499D01*
X104435Y190375D01*
X105060Y190499D01*
X105589Y190853D01*
X105943Y191382D01*
X106067Y192006D01*
X105943Y192631D01*
X105589Y193160D01*
X105060Y193514D01*
X104435Y193638D01*
D02*
G37*
G36*
X29584Y194684D02*
X21416D01*
Y186516D01*
X29584D01*
Y194684D01*
D02*
G37*
G36*
X192193Y181329D02*
X190906Y181160D01*
X189706Y180663D01*
X188676Y179873D01*
X187886Y178843D01*
X187389Y177643D01*
X187220Y176356D01*
X187389Y175069D01*
X187886Y173869D01*
X188676Y172839D01*
X189706Y172049D01*
X190906Y171552D01*
X192193Y171383D01*
X193480Y171552D01*
X194680Y172049D01*
X195710Y172839D01*
X196500Y173869D01*
X196997Y175069D01*
X197166Y176356D01*
X196997Y177643D01*
X196500Y178843D01*
X195710Y179873D01*
X194680Y180663D01*
X193480Y181160D01*
X192193Y181329D01*
D02*
G37*
G36*
X172193D02*
X170906Y181160D01*
X169706Y180663D01*
X168676Y179873D01*
X167886Y178843D01*
X167389Y177643D01*
X167220Y176356D01*
X167389Y175069D01*
X167886Y173869D01*
X168676Y172839D01*
X169706Y172049D01*
X170906Y171552D01*
X172193Y171383D01*
X173480Y171552D01*
X174680Y172049D01*
X175710Y172839D01*
X176500Y173869D01*
X176997Y175069D01*
X177166Y176356D01*
X176997Y177643D01*
X176500Y178843D01*
X175710Y179873D01*
X174680Y180663D01*
X173480Y181160D01*
X172193Y181329D01*
D02*
G37*
G36*
X209600Y143531D02*
X208976Y143407D01*
X208447Y143053D01*
X208093Y142524D01*
X207969Y141900D01*
X208093Y141276D01*
X208447Y140746D01*
X208976Y140393D01*
X209600Y140269D01*
X210224Y140393D01*
X210753Y140746D01*
X211107Y141276D01*
X211231Y141900D01*
X211107Y142524D01*
X210753Y143053D01*
X210224Y143407D01*
X209600Y143531D01*
D02*
G37*
G36*
X286512Y70899D02*
X285225Y70730D01*
X284025Y70233D01*
X282995Y69443D01*
X282205Y68413D01*
X281708Y67213D01*
X281539Y65926D01*
X281708Y64639D01*
X282205Y63439D01*
X282881Y62559D01*
Y29294D01*
X282205Y28413D01*
X281708Y27213D01*
X281539Y25926D01*
X281708Y24639D01*
X282205Y23439D01*
X282995Y22409D01*
X284025Y21619D01*
X285225Y21122D01*
X286512Y20953D01*
X287799Y21122D01*
X288999Y21619D01*
X290029Y22409D01*
X290819Y23439D01*
X291316Y24639D01*
X291485Y25926D01*
X291316Y27213D01*
X290819Y28413D01*
X290143Y29294D01*
Y62559D01*
X290819Y63439D01*
X291316Y64639D01*
X291485Y65926D01*
X291316Y67213D01*
X290819Y68413D01*
X290029Y69443D01*
X288999Y70233D01*
X287799Y70730D01*
X286512Y70899D01*
D02*
G37*
G36*
X266512D02*
X265225Y70730D01*
X264025Y70233D01*
X262995Y69443D01*
X262205Y68413D01*
X261708Y67213D01*
X261539Y65926D01*
X261708Y64639D01*
X262205Y63439D01*
X262881Y62559D01*
Y29294D01*
X262205Y28413D01*
X261708Y27213D01*
X261539Y25926D01*
X261708Y24639D01*
X262205Y23439D01*
X262995Y22409D01*
X264025Y21619D01*
X265225Y21122D01*
X266512Y20953D01*
X267799Y21122D01*
X268999Y21619D01*
X270028Y22409D01*
X270819Y23439D01*
X271316Y24639D01*
X271485Y25926D01*
X271316Y27213D01*
X270819Y28413D01*
X270143Y29294D01*
Y62559D01*
X270819Y63439D01*
X271316Y64639D01*
X271485Y65926D01*
X271316Y67213D01*
X270819Y68413D01*
X270028Y69443D01*
X268999Y70233D01*
X267799Y70730D01*
X266512Y70899D01*
D02*
G37*
G36*
X241662D02*
X240375Y70730D01*
X239175Y70233D01*
X238145Y69443D01*
X237355Y68413D01*
X236858Y67213D01*
X236689Y65926D01*
X236858Y64639D01*
X237355Y63439D01*
X238031Y62559D01*
Y29294D01*
X237355Y28413D01*
X236858Y27213D01*
X236689Y25926D01*
X236858Y24639D01*
X237355Y23439D01*
X238145Y22409D01*
X239175Y21619D01*
X240375Y21122D01*
X241662Y20953D01*
X242949Y21122D01*
X244148Y21619D01*
X245179Y22409D01*
X245969Y23439D01*
X246466Y24639D01*
X246635Y25926D01*
X246466Y27213D01*
X245969Y28413D01*
X245293Y29294D01*
Y62559D01*
X245969Y63439D01*
X246466Y64639D01*
X246635Y65926D01*
X246466Y67213D01*
X245969Y68413D01*
X245179Y69443D01*
X244148Y70233D01*
X242949Y70730D01*
X241662Y70899D01*
D02*
G37*
G36*
X221662D02*
X220375Y70730D01*
X219175Y70233D01*
X218145Y69443D01*
X217355Y68413D01*
X216858Y67213D01*
X216689Y65926D01*
X216858Y64639D01*
X217355Y63439D01*
X218031Y62559D01*
Y29294D01*
X217355Y28413D01*
X216858Y27213D01*
X216689Y25926D01*
X216858Y24639D01*
X217355Y23439D01*
X218145Y22409D01*
X219175Y21619D01*
X220375Y21122D01*
X221662Y20953D01*
X222949Y21122D01*
X224149Y21619D01*
X225179Y22409D01*
X225969Y23439D01*
X226466Y24639D01*
X226635Y25926D01*
X226466Y27213D01*
X225969Y28413D01*
X225293Y29294D01*
Y62559D01*
X225969Y63439D01*
X226466Y64639D01*
X226635Y65926D01*
X226466Y67213D01*
X225969Y68413D01*
X225179Y69443D01*
X224149Y70233D01*
X222949Y70730D01*
X221662Y70899D01*
D02*
G37*
G36*
X196812D02*
X195525Y70730D01*
X194325Y70233D01*
X193295Y69443D01*
X192505Y68413D01*
X192008Y67213D01*
X191839Y65926D01*
X192008Y64639D01*
X192505Y63439D01*
X193181Y62559D01*
Y29294D01*
X192505Y28413D01*
X192008Y27213D01*
X191839Y25926D01*
X192008Y24639D01*
X192505Y23439D01*
X193295Y22409D01*
X194325Y21619D01*
X195525Y21122D01*
X196812Y20953D01*
X198099Y21122D01*
X199299Y21619D01*
X200328Y22409D01*
X201119Y23439D01*
X201616Y24639D01*
X201785Y25926D01*
X201616Y27213D01*
X201119Y28413D01*
X200443Y29294D01*
Y62559D01*
X201119Y63439D01*
X201616Y64639D01*
X201785Y65926D01*
X201616Y67213D01*
X201119Y68413D01*
X200328Y69443D01*
X199299Y70233D01*
X198099Y70730D01*
X196812Y70899D01*
D02*
G37*
G36*
X176812D02*
X175525Y70730D01*
X174325Y70233D01*
X173295Y69443D01*
X172505Y68413D01*
X172008Y67213D01*
X171839Y65926D01*
X172008Y64639D01*
X172505Y63439D01*
X173181Y62559D01*
Y29294D01*
X172505Y28413D01*
X172008Y27213D01*
X171839Y25926D01*
X172008Y24639D01*
X172505Y23439D01*
X173295Y22409D01*
X174325Y21619D01*
X175525Y21122D01*
X176812Y20953D01*
X178099Y21122D01*
X179298Y21619D01*
X180329Y22409D01*
X181119Y23439D01*
X181616Y24639D01*
X181785Y25926D01*
X181616Y27213D01*
X181119Y28413D01*
X180443Y29294D01*
Y62559D01*
X181119Y63439D01*
X181616Y64639D01*
X181785Y65926D01*
X181616Y67213D01*
X181119Y68413D01*
X180329Y69443D01*
X179298Y70233D01*
X178099Y70730D01*
X176812Y70899D01*
D02*
G37*
G36*
X23179Y33529D02*
X21821D01*
X21624Y33490D01*
X21424D01*
X20092Y33225D01*
X19907Y33148D01*
X19710Y33109D01*
X18456Y32590D01*
X18289Y32478D01*
X18104Y32401D01*
X16975Y31647D01*
X16833Y31505D01*
X16666Y31394D01*
X15707Y30434D01*
X15595Y30267D01*
X15453Y30125D01*
X14699Y28996D01*
X14622Y28811D01*
X14510Y28644D01*
X13991Y27390D01*
X13952Y27193D01*
X13875Y27007D01*
X13610Y25676D01*
Y25476D01*
X13571Y25279D01*
Y23921D01*
X13610Y23724D01*
Y23524D01*
X13875Y22193D01*
X13952Y22007D01*
X13991Y21810D01*
X14510Y20556D01*
X14622Y20389D01*
X14699Y20204D01*
X15453Y19075D01*
X15595Y18933D01*
X15707Y18766D01*
X16666Y17807D01*
X16833Y17695D01*
X16975Y17553D01*
X18104Y16799D01*
X18289Y16722D01*
X18456Y16610D01*
X19710Y16091D01*
X19907Y16052D01*
X20092Y15975D01*
X21424Y15710D01*
X21624D01*
X21821Y15671D01*
X23179D01*
X23376Y15710D01*
X23576D01*
X24907Y15975D01*
X25093Y16052D01*
X25290Y16091D01*
X26544Y16610D01*
X26711Y16722D01*
X26896Y16799D01*
X28025Y17553D01*
X28167Y17695D01*
X28334Y17807D01*
X29294Y18766D01*
X29405Y18933D01*
X29547Y19075D01*
X30301Y20204D01*
X30378Y20389D01*
X30490Y20556D01*
X31009Y21810D01*
X31048Y22007D01*
X31125Y22193D01*
X31390Y23524D01*
Y23724D01*
X31429Y23921D01*
Y25279D01*
X31390Y25476D01*
Y25676D01*
X31125Y27007D01*
X31048Y27193D01*
X31009Y27390D01*
X30490Y28644D01*
X30378Y28811D01*
X30301Y28996D01*
X29547Y30125D01*
X29405Y30267D01*
X29294Y30434D01*
X28334Y31394D01*
X28167Y31505D01*
X28025Y31647D01*
X26896Y32401D01*
X26711Y32478D01*
X26544Y32590D01*
X25290Y33109D01*
X25093Y33148D01*
X24907Y33225D01*
X23576Y33490D01*
X23376D01*
X23179Y33529D01*
D02*
G37*
%LPD*%
G36*
X22012Y404400D02*
X22233Y403952D01*
X21932Y403560D01*
X21521Y402566D01*
X21381Y401500D01*
X21521Y400434D01*
X21932Y399440D01*
X22587Y398587D01*
X23440Y397932D01*
X24434Y397521D01*
X25500Y397380D01*
X26566Y397521D01*
X27560Y397932D01*
X28413Y398587D01*
X29068Y399440D01*
X29479Y400434D01*
X29620Y401500D01*
X29479Y402566D01*
X29068Y403560D01*
X28767Y403952D01*
X28988Y404400D01*
X82700Y404400D01*
Y373492D01*
X82200Y373128D01*
X81880Y373191D01*
X81256Y373067D01*
X80727Y372713D01*
X80373Y372184D01*
X80249Y371560D01*
X80373Y370936D01*
X80727Y370406D01*
X81256Y370053D01*
X81880Y369929D01*
X82200Y369992D01*
X82700Y369628D01*
Y353492D01*
X82200Y353128D01*
X81880Y353191D01*
X81256Y353067D01*
X80727Y352713D01*
X80373Y352184D01*
X80249Y351560D01*
X80373Y350936D01*
X80727Y350406D01*
X81256Y350053D01*
X81880Y349928D01*
X82200Y349992D01*
X82700Y349628D01*
Y339400D01*
X73700D01*
X73700Y318920D01*
X62343D01*
X62253Y319054D01*
X61724Y319407D01*
X61100Y319531D01*
X60476Y319407D01*
X59947Y319054D01*
X59593Y318524D01*
X59469Y317900D01*
X59593Y317276D01*
X59947Y316746D01*
X60476Y316393D01*
X61100Y316269D01*
X61587Y316366D01*
X61899Y316000D01*
X61917Y315960D01*
X61693Y315624D01*
X61569Y315000D01*
X61693Y314376D01*
X62046Y313846D01*
X62576Y313493D01*
X63200Y313369D01*
X63824Y313493D01*
X64354Y313846D01*
X64707Y314376D01*
X64831Y315000D01*
X64707Y315624D01*
X64354Y316154D01*
X64014Y316380D01*
X64166Y316880D01*
X73700D01*
Y299600D01*
X47659Y299600D01*
X47588Y299808D01*
X47575Y300100D01*
X48034Y300406D01*
X48388Y300936D01*
X48512Y301560D01*
X48388Y302184D01*
X48034Y302713D01*
X47505Y303067D01*
X46880Y303191D01*
X46256Y303067D01*
X45727Y302713D01*
X45373Y302184D01*
X45249Y301560D01*
X45373Y300936D01*
X45727Y300406D01*
X46185Y300100D01*
X46173Y299808D01*
X46102Y299600D01*
X38100D01*
X38100Y296900D01*
X38100Y263270D01*
X37600Y263003D01*
X37505Y263067D01*
X36880Y263191D01*
X36256Y263067D01*
X35727Y262713D01*
X35373Y262184D01*
X35249Y261560D01*
X35373Y260936D01*
X35727Y260406D01*
X36256Y260053D01*
X36880Y259928D01*
X37505Y260053D01*
X37600Y260116D01*
X38100Y259849D01*
Y243270D01*
X37600Y243003D01*
X37505Y243067D01*
X36880Y243191D01*
X36256Y243067D01*
X35727Y242713D01*
X35373Y242184D01*
X35249Y241560D01*
X35373Y240936D01*
X35727Y240406D01*
X36256Y240053D01*
X36880Y239929D01*
X37505Y240053D01*
X37600Y240116D01*
X38100Y239849D01*
Y234154D01*
X37746Y233800D01*
X13385Y233801D01*
X13033Y234156D01*
X13215Y250678D01*
X13387Y250936D01*
X13512Y251560D01*
X13387Y252184D01*
X13234Y252414D01*
X13441Y271205D01*
X13512Y271560D01*
X13449Y271878D01*
X14869Y400909D01*
X15369Y400956D01*
X15373Y400936D01*
X15727Y400406D01*
X16256Y400053D01*
X16880Y399928D01*
X17505Y400053D01*
X18034Y400406D01*
X18387Y400936D01*
X18512Y401560D01*
X18387Y402184D01*
X18034Y402713D01*
X17505Y403067D01*
X16880Y403191D01*
X16256Y403067D01*
X15727Y402713D01*
X15373Y402184D01*
X14884Y402283D01*
X14907Y404400D01*
X22012D01*
D02*
G37*
%LPC*%
G36*
X66880Y403191D02*
X66256Y403067D01*
X65727Y402713D01*
X65373Y402184D01*
X65249Y401560D01*
X65373Y400936D01*
X65727Y400406D01*
X66256Y400053D01*
X66880Y399928D01*
X67505Y400053D01*
X68034Y400406D01*
X68388Y400936D01*
X68512Y401560D01*
X68388Y402184D01*
X68034Y402713D01*
X67505Y403067D01*
X66880Y403191D01*
D02*
G37*
G36*
X36880D02*
X36256Y403067D01*
X35727Y402713D01*
X35373Y402184D01*
X35249Y401560D01*
X35373Y400936D01*
X35727Y400406D01*
X36256Y400053D01*
X36880Y399928D01*
X37505Y400053D01*
X38034Y400406D01*
X38388Y400936D01*
X38512Y401560D01*
X38388Y402184D01*
X38034Y402713D01*
X37505Y403067D01*
X36880Y403191D01*
D02*
G37*
G36*
X25500Y395620D02*
X24434Y395479D01*
X23440Y395068D01*
X22587Y394413D01*
X21932Y393560D01*
X21521Y392566D01*
X21381Y391500D01*
X21521Y390434D01*
X21932Y389440D01*
X22587Y388587D01*
X23440Y387932D01*
X24434Y387521D01*
X25500Y387381D01*
X26566Y387521D01*
X27560Y387932D01*
X28413Y388587D01*
X29068Y389440D01*
X29479Y390434D01*
X29620Y391500D01*
X29479Y392566D01*
X29068Y393560D01*
X28413Y394413D01*
X27560Y395068D01*
X26566Y395479D01*
X25500Y395620D01*
D02*
G37*
G36*
X45300Y386831D02*
X44676Y386707D01*
X44146Y386353D01*
X43793Y385824D01*
X43669Y385200D01*
X43793Y384576D01*
X44146Y384047D01*
X44676Y383693D01*
X45300Y383569D01*
X45924Y383693D01*
X46453Y384047D01*
X46807Y384576D01*
X46931Y385200D01*
X46807Y385824D01*
X46453Y386353D01*
X45924Y386707D01*
X45300Y386831D01*
D02*
G37*
G36*
X66880Y383191D02*
X66256Y383067D01*
X65727Y382713D01*
X65373Y382184D01*
X65249Y381560D01*
X65373Y380936D01*
X65727Y380406D01*
X66256Y380053D01*
X66880Y379928D01*
X67505Y380053D01*
X68034Y380406D01*
X68388Y380936D01*
X68512Y381560D01*
X68388Y382184D01*
X68034Y382713D01*
X67505Y383067D01*
X66880Y383191D01*
D02*
G37*
G36*
X56880D02*
X56256Y383067D01*
X55727Y382713D01*
X55373Y382184D01*
X55249Y381560D01*
X55373Y380936D01*
X55727Y380406D01*
X56256Y380053D01*
X56880Y379928D01*
X57505Y380053D01*
X58034Y380406D01*
X58388Y380936D01*
X58512Y381560D01*
X58388Y382184D01*
X58034Y382713D01*
X57505Y383067D01*
X56880Y383191D01*
D02*
G37*
G36*
X46880D02*
X46256Y383067D01*
X45727Y382713D01*
X45373Y382184D01*
X45249Y381560D01*
X45373Y380936D01*
X45727Y380406D01*
X46256Y380053D01*
X46880Y379928D01*
X47505Y380053D01*
X48034Y380406D01*
X48388Y380936D01*
X48512Y381560D01*
X48388Y382184D01*
X48034Y382713D01*
X47505Y383067D01*
X46880Y383191D01*
D02*
G37*
G36*
X16880D02*
X16256Y383067D01*
X15727Y382713D01*
X15373Y382184D01*
X15249Y381560D01*
X15373Y380936D01*
X15727Y380406D01*
X16256Y380053D01*
X16880Y379928D01*
X17505Y380053D01*
X18034Y380406D01*
X18387Y380936D01*
X18512Y381560D01*
X18387Y382184D01*
X18034Y382713D01*
X17505Y383067D01*
X16880Y383191D01*
D02*
G37*
G36*
X74800Y387019D02*
X73734Y386879D01*
X72740Y386468D01*
X71887Y385813D01*
X71232Y384960D01*
X70821Y383966D01*
X70680Y382900D01*
X70821Y381834D01*
X71232Y380840D01*
X71887Y379987D01*
X72740Y379332D01*
X73734Y378921D01*
X74800Y378781D01*
X75866Y378921D01*
X76860Y379332D01*
X77713Y379987D01*
X78368Y380840D01*
X78779Y381834D01*
X78920Y382900D01*
X78779Y383966D01*
X78368Y384960D01*
X77713Y385813D01*
X76860Y386468D01*
X75866Y386879D01*
X74800Y387019D01*
D02*
G37*
G36*
X51880Y373191D02*
X51256Y373067D01*
X50727Y372713D01*
X50373Y372184D01*
X50249Y371560D01*
X50373Y370936D01*
X50727Y370406D01*
X51256Y370053D01*
X51880Y369929D01*
X52505Y370053D01*
X53034Y370406D01*
X53387Y370936D01*
X53512Y371560D01*
X53387Y372184D01*
X53034Y372713D01*
X52505Y373067D01*
X51880Y373191D01*
D02*
G37*
G36*
X41880D02*
X41256Y373067D01*
X40727Y372713D01*
X40373Y372184D01*
X40249Y371560D01*
X40373Y370936D01*
X40727Y370406D01*
X41256Y370053D01*
X41880Y369929D01*
X42505Y370053D01*
X43034Y370406D01*
X43387Y370936D01*
X43512Y371560D01*
X43387Y372184D01*
X43034Y372713D01*
X42505Y373067D01*
X41880Y373191D01*
D02*
G37*
G36*
X31880D02*
X31256Y373067D01*
X30727Y372713D01*
X30373Y372184D01*
X30249Y371560D01*
X30373Y370936D01*
X30727Y370406D01*
X31256Y370053D01*
X31880Y369929D01*
X32505Y370053D01*
X33034Y370406D01*
X33388Y370936D01*
X33512Y371560D01*
X33388Y372184D01*
X33034Y372713D01*
X32505Y373067D01*
X31880Y373191D01*
D02*
G37*
G36*
X21880D02*
X21256Y373067D01*
X20727Y372713D01*
X20373Y372184D01*
X20249Y371560D01*
X20373Y370936D01*
X20727Y370406D01*
X21256Y370053D01*
X21880Y369929D01*
X22505Y370053D01*
X23034Y370406D01*
X23388Y370936D01*
X23512Y371560D01*
X23388Y372184D01*
X23034Y372713D01*
X22505Y373067D01*
X21880Y373191D01*
D02*
G37*
G36*
X74800Y377020D02*
X73734Y376879D01*
X72740Y376468D01*
X71887Y375813D01*
X71232Y374960D01*
X70821Y373966D01*
X70680Y372900D01*
X70821Y371834D01*
X71232Y370840D01*
X71887Y369987D01*
X72740Y369332D01*
X73734Y368921D01*
X74800Y368780D01*
X75866Y368921D01*
X76860Y369332D01*
X77713Y369987D01*
X78368Y370840D01*
X78779Y371834D01*
X78920Y372900D01*
X78779Y373966D01*
X78368Y374960D01*
X77713Y375813D01*
X76860Y376468D01*
X75866Y376879D01*
X74800Y377020D01*
D02*
G37*
G36*
X25500Y369720D02*
X24434Y369579D01*
X23440Y369168D01*
X22587Y368513D01*
X21932Y367660D01*
X21521Y366666D01*
X21381Y365600D01*
X21521Y364534D01*
X21932Y363540D01*
X22587Y362687D01*
X23440Y362032D01*
X24434Y361621D01*
X25500Y361480D01*
X26566Y361621D01*
X27560Y362032D01*
X28413Y362687D01*
X29068Y363540D01*
X29479Y364534D01*
X29620Y365600D01*
X29479Y366666D01*
X29068Y367660D01*
X28413Y368513D01*
X27560Y369168D01*
X26566Y369579D01*
X25500Y369720D01*
D02*
G37*
G36*
X66880Y363191D02*
X66256Y363067D01*
X65727Y362713D01*
X65373Y362184D01*
X65249Y361560D01*
X65373Y360936D01*
X65727Y360406D01*
X66256Y360053D01*
X66880Y359928D01*
X67505Y360053D01*
X68034Y360406D01*
X68388Y360936D01*
X68512Y361560D01*
X68388Y362184D01*
X68034Y362713D01*
X67505Y363067D01*
X66880Y363191D01*
D02*
G37*
G36*
X56880D02*
X56256Y363067D01*
X55727Y362713D01*
X55373Y362184D01*
X55249Y361560D01*
X55373Y360936D01*
X55727Y360406D01*
X56256Y360053D01*
X56880Y359928D01*
X57505Y360053D01*
X58034Y360406D01*
X58388Y360936D01*
X58512Y361560D01*
X58388Y362184D01*
X58034Y362713D01*
X57505Y363067D01*
X56880Y363191D01*
D02*
G37*
G36*
X36880D02*
X36256Y363067D01*
X35727Y362713D01*
X35373Y362184D01*
X35249Y361560D01*
X35373Y360936D01*
X35727Y360406D01*
X36256Y360053D01*
X36880Y359928D01*
X37505Y360053D01*
X38034Y360406D01*
X38388Y360936D01*
X38512Y361560D01*
X38388Y362184D01*
X38034Y362713D01*
X37505Y363067D01*
X36880Y363191D01*
D02*
G37*
G36*
X16880D02*
X16256Y363067D01*
X15727Y362713D01*
X15373Y362184D01*
X15249Y361560D01*
X15373Y360936D01*
X15727Y360406D01*
X16256Y360053D01*
X16880Y359928D01*
X17505Y360053D01*
X18034Y360406D01*
X18387Y360936D01*
X18512Y361560D01*
X18387Y362184D01*
X18034Y362713D01*
X17505Y363067D01*
X16880Y363191D01*
D02*
G37*
G36*
X44500Y362731D02*
X43876Y362607D01*
X43347Y362253D01*
X42993Y361724D01*
X42869Y361100D01*
X42993Y360476D01*
X43347Y359946D01*
X43876Y359593D01*
X44500Y359469D01*
X45124Y359593D01*
X45654Y359946D01*
X46007Y360476D01*
X46131Y361100D01*
X46007Y361724D01*
X45654Y362253D01*
X45124Y362607D01*
X44500Y362731D01*
D02*
G37*
G36*
X74800Y367020D02*
X73734Y366879D01*
X72740Y366468D01*
X71887Y365813D01*
X71232Y364960D01*
X70821Y363966D01*
X70680Y362900D01*
X70821Y361834D01*
X71232Y360840D01*
X71887Y359987D01*
X72740Y359332D01*
X73734Y358921D01*
X74800Y358781D01*
X75866Y358921D01*
X76860Y359332D01*
X77713Y359987D01*
X78368Y360840D01*
X78779Y361834D01*
X78920Y362900D01*
X78779Y363966D01*
X78368Y364960D01*
X77713Y365813D01*
X76860Y366468D01*
X75866Y366879D01*
X74800Y367020D01*
D02*
G37*
G36*
X25500Y359719D02*
X24434Y359579D01*
X23440Y359168D01*
X22587Y358513D01*
X21932Y357660D01*
X21521Y356666D01*
X21381Y355600D01*
X21521Y354534D01*
X21882Y353662D01*
X21882Y353661D01*
X21723Y353278D01*
X21611Y353138D01*
X21256Y353067D01*
X20727Y352713D01*
X20373Y352184D01*
X20249Y351560D01*
X20373Y350936D01*
X20727Y350406D01*
X21256Y350053D01*
X21880Y349928D01*
X22505Y350053D01*
X23034Y350406D01*
X23388Y350936D01*
X23494Y351469D01*
X23783Y351709D01*
X23971Y351813D01*
X24434Y351621D01*
X25500Y351481D01*
X26566Y351621D01*
X27560Y352032D01*
X28413Y352687D01*
X29068Y353540D01*
X29479Y354534D01*
X29620Y355600D01*
X29479Y356666D01*
X29068Y357660D01*
X28413Y358513D01*
X27560Y359168D01*
X26566Y359579D01*
X25500Y359719D01*
D02*
G37*
G36*
X61880Y353191D02*
X61256Y353067D01*
X60727Y352713D01*
X60373Y352184D01*
X60249Y351560D01*
X60373Y350936D01*
X60727Y350406D01*
X61256Y350053D01*
X61880Y349928D01*
X62505Y350053D01*
X63034Y350406D01*
X63388Y350936D01*
X63512Y351560D01*
X63388Y352184D01*
X63034Y352713D01*
X62505Y353067D01*
X61880Y353191D01*
D02*
G37*
G36*
X51880D02*
X51256Y353067D01*
X50727Y352713D01*
X50373Y352184D01*
X50249Y351560D01*
X50373Y350936D01*
X50727Y350406D01*
X51256Y350053D01*
X51880Y349928D01*
X52505Y350053D01*
X53034Y350406D01*
X53387Y350936D01*
X53512Y351560D01*
X53387Y352184D01*
X53034Y352713D01*
X52505Y353067D01*
X51880Y353191D01*
D02*
G37*
G36*
X41880D02*
X41256Y353067D01*
X40727Y352713D01*
X40373Y352184D01*
X40249Y351560D01*
X40373Y350936D01*
X40727Y350406D01*
X41256Y350053D01*
X41880Y349928D01*
X42505Y350053D01*
X43034Y350406D01*
X43387Y350936D01*
X43512Y351560D01*
X43387Y352184D01*
X43034Y352713D01*
X42505Y353067D01*
X41880Y353191D01*
D02*
G37*
G36*
X31880D02*
X31256Y353067D01*
X30727Y352713D01*
X30373Y352184D01*
X30249Y351560D01*
X30373Y350936D01*
X30727Y350406D01*
X31256Y350053D01*
X31880Y349928D01*
X32505Y350053D01*
X33034Y350406D01*
X33388Y350936D01*
X33512Y351560D01*
X33388Y352184D01*
X33034Y352713D01*
X32505Y353067D01*
X31880Y353191D01*
D02*
G37*
G36*
X25500Y349720D02*
X24434Y349579D01*
X23440Y349168D01*
X22587Y348513D01*
X21932Y347660D01*
X21521Y346666D01*
X21381Y345600D01*
X21521Y344534D01*
X21932Y343540D01*
X22587Y342687D01*
X23440Y342032D01*
X24434Y341621D01*
X25500Y341480D01*
X26566Y341621D01*
X27560Y342032D01*
X28413Y342687D01*
X29068Y343540D01*
X29479Y344534D01*
X29620Y345600D01*
X29479Y346666D01*
X29068Y347660D01*
X28413Y348513D01*
X27560Y349168D01*
X26566Y349579D01*
X25500Y349720D01*
D02*
G37*
G36*
X78489Y343331D02*
X77865Y343207D01*
X77335Y342853D01*
X76982Y342324D01*
X76858Y341700D01*
X76982Y341076D01*
X77335Y340546D01*
X77865Y340193D01*
X78489Y340069D01*
X79113Y340193D01*
X79642Y340546D01*
X79996Y341076D01*
X80120Y341700D01*
X79996Y342324D01*
X79642Y342853D01*
X79113Y343207D01*
X78489Y343331D01*
D02*
G37*
G36*
X66880Y343191D02*
X66256Y343067D01*
X65727Y342713D01*
X65373Y342184D01*
X65249Y341560D01*
X65373Y340936D01*
X65727Y340406D01*
X66256Y340053D01*
X66880Y339929D01*
X67505Y340053D01*
X68034Y340406D01*
X68388Y340936D01*
X68512Y341560D01*
X68388Y342184D01*
X68034Y342713D01*
X67505Y343067D01*
X66880Y343191D01*
D02*
G37*
G36*
X56880D02*
X56256Y343067D01*
X55727Y342713D01*
X55373Y342184D01*
X55249Y341560D01*
X55373Y340936D01*
X55727Y340406D01*
X56256Y340053D01*
X56880Y339929D01*
X57505Y340053D01*
X58034Y340406D01*
X58388Y340936D01*
X58512Y341560D01*
X58388Y342184D01*
X58034Y342713D01*
X57505Y343067D01*
X56880Y343191D01*
D02*
G37*
G36*
X36880D02*
X36256Y343067D01*
X35727Y342713D01*
X35373Y342184D01*
X35249Y341560D01*
X35373Y340936D01*
X35727Y340406D01*
X36256Y340053D01*
X36880Y339929D01*
X37505Y340053D01*
X38034Y340406D01*
X38388Y340936D01*
X38512Y341560D01*
X38388Y342184D01*
X38034Y342713D01*
X37505Y343067D01*
X36880Y343191D01*
D02*
G37*
G36*
X16880D02*
X16256Y343067D01*
X15727Y342713D01*
X15373Y342184D01*
X15249Y341560D01*
X15373Y340936D01*
X15727Y340406D01*
X16256Y340053D01*
X16880Y339929D01*
X17505Y340053D01*
X18034Y340406D01*
X18387Y340936D01*
X18512Y341560D01*
X18387Y342184D01*
X18034Y342713D01*
X17505Y343067D01*
X16880Y343191D01*
D02*
G37*
G36*
X46880D02*
X46256Y343067D01*
X45727Y342713D01*
X45373Y342184D01*
X45249Y341560D01*
X45277Y341418D01*
X45200Y340931D01*
X44914Y340875D01*
X44576Y340807D01*
X44047Y340454D01*
X43693Y339924D01*
X43569Y339300D01*
X43693Y338676D01*
X44047Y338146D01*
X44576Y337793D01*
X45200Y337669D01*
X45824Y337793D01*
X46354Y338146D01*
X46707Y338676D01*
X46831Y339300D01*
X46803Y339442D01*
X46880Y339929D01*
X47166Y339985D01*
X47505Y340053D01*
X48034Y340406D01*
X48388Y340936D01*
X48512Y341560D01*
X48388Y342184D01*
X48034Y342713D01*
X47505Y343067D01*
X46880Y343191D01*
D02*
G37*
G36*
X51880Y333191D02*
X51256Y333067D01*
X50727Y332713D01*
X50373Y332184D01*
X50249Y331560D01*
X50373Y330936D01*
X50727Y330406D01*
X51256Y330053D01*
X51880Y329928D01*
X52505Y330053D01*
X53034Y330406D01*
X53387Y330936D01*
X53512Y331560D01*
X53387Y332184D01*
X53034Y332713D01*
X52505Y333067D01*
X51880Y333191D01*
D02*
G37*
G36*
X41880D02*
X41256Y333067D01*
X40727Y332713D01*
X40373Y332184D01*
X40249Y331560D01*
X40373Y330936D01*
X40727Y330406D01*
X41256Y330053D01*
X41880Y329928D01*
X42505Y330053D01*
X43034Y330406D01*
X43387Y330936D01*
X43512Y331560D01*
X43387Y332184D01*
X43034Y332713D01*
X42505Y333067D01*
X41880Y333191D01*
D02*
G37*
G36*
X31880D02*
X31256Y333067D01*
X30727Y332713D01*
X30373Y332184D01*
X30249Y331560D01*
X30373Y330936D01*
X30727Y330406D01*
X31256Y330053D01*
X31880Y329928D01*
X32505Y330053D01*
X33034Y330406D01*
X33388Y330936D01*
X33512Y331560D01*
X33388Y332184D01*
X33034Y332713D01*
X32505Y333067D01*
X31880Y333191D01*
D02*
G37*
G36*
X19100Y328731D02*
X18476Y328607D01*
X17946Y328254D01*
X17593Y327724D01*
X17469Y327100D01*
X17593Y326476D01*
X17946Y325946D01*
X18476Y325593D01*
X19100Y325469D01*
X19724Y325593D01*
X20254Y325946D01*
X20607Y326476D01*
X20731Y327100D01*
X20607Y327724D01*
X20254Y328254D01*
X19724Y328607D01*
X19100Y328731D01*
D02*
G37*
G36*
X44500Y326031D02*
X43876Y325907D01*
X43347Y325553D01*
X42993Y325024D01*
X42869Y324400D01*
X42993Y323776D01*
X43347Y323247D01*
X43876Y322893D01*
X44500Y322769D01*
X45124Y322893D01*
X45654Y323247D01*
X46007Y323776D01*
X46131Y324400D01*
X46007Y325024D01*
X45654Y325553D01*
X45124Y325907D01*
X44500Y326031D01*
D02*
G37*
G36*
X65485Y325439D02*
X64861Y325315D01*
X64332Y324961D01*
X63978Y324432D01*
X63854Y323808D01*
X63978Y323184D01*
X64332Y322654D01*
X64861Y322301D01*
X65485Y322177D01*
X66109Y322301D01*
X66639Y322654D01*
X66992Y323184D01*
X67116Y323808D01*
X66992Y324432D01*
X66639Y324961D01*
X66109Y325315D01*
X65485Y325439D01*
D02*
G37*
G36*
X36880Y323191D02*
X36256Y323067D01*
X35727Y322713D01*
X35373Y322184D01*
X35249Y321560D01*
X35373Y320936D01*
X35727Y320406D01*
X36256Y320053D01*
X36880Y319929D01*
X37505Y320053D01*
X38034Y320406D01*
X38388Y320936D01*
X38512Y321560D01*
X38388Y322184D01*
X38034Y322713D01*
X37505Y323067D01*
X36880Y323191D01*
D02*
G37*
G36*
X16880D02*
X16256Y323067D01*
X15727Y322713D01*
X15373Y322184D01*
X15249Y321560D01*
X15373Y320936D01*
X15727Y320406D01*
X16256Y320053D01*
X16880Y319929D01*
X17505Y320053D01*
X18034Y320406D01*
X18387Y320936D01*
X18512Y321560D01*
X18387Y322184D01*
X18034Y322713D01*
X17505Y323067D01*
X16880Y323191D01*
D02*
G37*
G36*
X31880Y313191D02*
X31256Y313067D01*
X30727Y312713D01*
X30373Y312184D01*
X30249Y311560D01*
X30373Y310936D01*
X30727Y310406D01*
X31256Y310053D01*
X31880Y309928D01*
X32505Y310053D01*
X33034Y310406D01*
X33388Y310936D01*
X33512Y311560D01*
X33388Y312184D01*
X33034Y312713D01*
X32505Y313067D01*
X31880Y313191D01*
D02*
G37*
G36*
X29190Y313229D02*
X21022D01*
Y305061D01*
X29190D01*
Y313229D01*
D02*
G37*
G36*
X36880Y303191D02*
X36256Y303067D01*
X35727Y302713D01*
X35373Y302184D01*
X35249Y301560D01*
X35373Y300936D01*
X35727Y300406D01*
X36256Y300053D01*
X36880Y299928D01*
X37505Y300053D01*
X38034Y300406D01*
X38388Y300936D01*
X38512Y301560D01*
X38388Y302184D01*
X38034Y302713D01*
X37505Y303067D01*
X36880Y303191D01*
D02*
G37*
G36*
X19100Y302031D02*
X18476Y301907D01*
X17946Y301554D01*
X17593Y301024D01*
X17469Y300400D01*
X17593Y299776D01*
X17946Y299247D01*
X18476Y298893D01*
X19100Y298769D01*
X19724Y298893D01*
X20254Y299247D01*
X20607Y299776D01*
X20731Y300400D01*
X20607Y301024D01*
X20254Y301554D01*
X19724Y301907D01*
X19100Y302031D01*
D02*
G37*
G36*
X31880Y293191D02*
X31256Y293067D01*
X30727Y292713D01*
X30373Y292184D01*
X30249Y291560D01*
X30373Y290936D01*
X30727Y290406D01*
X31256Y290053D01*
X31880Y289929D01*
X32505Y290053D01*
X33034Y290406D01*
X33388Y290936D01*
X33512Y291560D01*
X33388Y292184D01*
X33034Y292713D01*
X32505Y293067D01*
X31880Y293191D01*
D02*
G37*
G36*
X16880Y283191D02*
X16256Y283067D01*
X15727Y282713D01*
X15373Y282184D01*
X15249Y281560D01*
X15373Y280936D01*
X15727Y280406D01*
X16256Y280053D01*
X16880Y279928D01*
X17505Y280053D01*
X18034Y280406D01*
X18387Y280936D01*
X18512Y281560D01*
X18387Y282184D01*
X18034Y282713D01*
X17505Y283067D01*
X16880Y283191D01*
D02*
G37*
G36*
X29190Y286182D02*
X21022D01*
Y278013D01*
X29190D01*
Y286182D01*
D02*
G37*
G36*
X19100Y275231D02*
X18476Y275107D01*
X17946Y274753D01*
X17593Y274224D01*
X17469Y273600D01*
X17593Y272976D01*
X17946Y272446D01*
X18476Y272093D01*
X19100Y271969D01*
X19724Y272093D01*
X20254Y272446D01*
X20607Y272976D01*
X20731Y273600D01*
X20607Y274224D01*
X20254Y274753D01*
X19724Y275107D01*
X19100Y275231D01*
D02*
G37*
G36*
X31880Y273191D02*
X31256Y273067D01*
X30727Y272713D01*
X30373Y272184D01*
X30249Y271560D01*
X30373Y270936D01*
X30727Y270406D01*
X31256Y270053D01*
X31880Y269929D01*
X32505Y270053D01*
X33034Y270406D01*
X33388Y270936D01*
X33512Y271560D01*
X33388Y272184D01*
X33034Y272713D01*
X32505Y273067D01*
X31880Y273191D01*
D02*
G37*
G36*
X16880Y263191D02*
X16256Y263067D01*
X15727Y262713D01*
X15373Y262184D01*
X15249Y261560D01*
X15373Y260936D01*
X15727Y260406D01*
X16256Y260053D01*
X16880Y259928D01*
X17505Y260053D01*
X18034Y260406D01*
X18387Y260936D01*
X18512Y261560D01*
X18387Y262184D01*
X18034Y262713D01*
X17505Y263067D01*
X16880Y263191D01*
D02*
G37*
G36*
X29190Y259376D02*
X21022D01*
Y251208D01*
X29190D01*
Y259376D01*
D02*
G37*
G36*
X31880Y253191D02*
X31256Y253067D01*
X30727Y252713D01*
X30373Y252184D01*
X30249Y251560D01*
X30373Y250936D01*
X30727Y250406D01*
X31256Y250053D01*
X31880Y249928D01*
X32505Y250053D01*
X33034Y250406D01*
X33388Y250936D01*
X33512Y251560D01*
X33388Y252184D01*
X33034Y252713D01*
X32505Y253067D01*
X31880Y253191D01*
D02*
G37*
G36*
X19100Y248631D02*
X18476Y248507D01*
X17946Y248153D01*
X17593Y247624D01*
X17469Y247000D01*
X17593Y246376D01*
X17946Y245847D01*
X18476Y245493D01*
X19100Y245369D01*
X19724Y245493D01*
X20254Y245847D01*
X20607Y246376D01*
X20731Y247000D01*
X20607Y247624D01*
X20254Y248153D01*
X19724Y248507D01*
X19100Y248631D01*
D02*
G37*
G36*
X16880Y243191D02*
X16256Y243067D01*
X15727Y242713D01*
X15373Y242184D01*
X15249Y241560D01*
X15373Y240936D01*
X15727Y240406D01*
X16256Y240053D01*
X16880Y239929D01*
X17505Y240053D01*
X18034Y240406D01*
X18387Y240936D01*
X18512Y241560D01*
X18387Y242184D01*
X18034Y242713D01*
X17505Y243067D01*
X16880Y243191D01*
D02*
G37*
%LPD*%
G36*
X75697Y386246D02*
X76532Y385900D01*
X77250Y385350D01*
X77800Y384632D01*
X78146Y383797D01*
X78264Y382900D01*
X78146Y382003D01*
X77800Y381168D01*
X77250Y380450D01*
X76532Y379900D01*
X75697Y379554D01*
X74800Y379436D01*
X73903Y379554D01*
X73068Y379900D01*
X72350Y380450D01*
X71800Y381168D01*
X71454Y382003D01*
X71336Y382900D01*
X71454Y383797D01*
X71800Y384632D01*
X72350Y385350D01*
X73068Y385900D01*
X73903Y386246D01*
X74800Y386364D01*
X75697Y386246D01*
D02*
G37*
G36*
Y376246D02*
X76532Y375900D01*
X77250Y375350D01*
X77800Y374632D01*
X78146Y373797D01*
X78264Y372900D01*
X78146Y372003D01*
X77800Y371168D01*
X77250Y370450D01*
X76532Y369900D01*
X75697Y369554D01*
X74800Y369436D01*
X73903Y369554D01*
X73068Y369900D01*
X72350Y370450D01*
X71800Y371168D01*
X71454Y372003D01*
X71336Y372900D01*
X71454Y373797D01*
X71800Y374632D01*
X72350Y375350D01*
X73068Y375900D01*
X73903Y376246D01*
X74800Y376364D01*
X75697Y376246D01*
D02*
G37*
G36*
X26397Y368946D02*
X27232Y368600D01*
X27950Y368050D01*
X28500Y367332D01*
X28846Y366497D01*
X28964Y365600D01*
X28846Y364703D01*
X28500Y363868D01*
X27950Y363150D01*
X27232Y362600D01*
X26397Y362254D01*
X25500Y362136D01*
X24603Y362254D01*
X23768Y362600D01*
X23050Y363150D01*
X22500Y363868D01*
X22154Y364703D01*
X22036Y365600D01*
X22154Y366497D01*
X22500Y367332D01*
X23050Y368050D01*
X23768Y368600D01*
X24603Y368946D01*
X25500Y369064D01*
X26397Y368946D01*
D02*
G37*
G36*
Y358946D02*
X27232Y358600D01*
X27950Y358050D01*
X28500Y357332D01*
X28846Y356497D01*
X28964Y355600D01*
X28846Y354703D01*
X28500Y353868D01*
X27950Y353150D01*
X27232Y352600D01*
X26397Y352254D01*
X25500Y352136D01*
X24603Y352254D01*
X24220Y352413D01*
X24182D01*
X24152Y352436D01*
X23938Y352413D01*
X23723D01*
X23696Y352386D01*
X23658Y352382D01*
X23470Y352278D01*
X23430Y352228D01*
X23368Y352209D01*
X23079Y351969D01*
X22977Y351777D01*
X22857Y351596D01*
X22776Y351189D01*
X22566Y350874D01*
X22251Y350664D01*
X21880Y350591D01*
X21509Y350664D01*
X21195Y350874D01*
X20985Y351189D01*
X20911Y351560D01*
X20985Y351931D01*
X21195Y352245D01*
X21509Y352455D01*
X21738Y352501D01*
X21923Y352625D01*
X22119Y352733D01*
X22231Y352873D01*
X22257Y352964D01*
X22323Y353030D01*
X22482Y353413D01*
X22482Y353539D01*
X22531Y353656D01*
X22531Y353658D01*
X22482Y353779D01*
Y353911D01*
X22154Y354703D01*
X22036Y355600D01*
X22154Y356497D01*
X22500Y357332D01*
X23050Y358050D01*
X23768Y358600D01*
X24603Y358946D01*
X25500Y359064D01*
X26397Y358946D01*
D02*
G37*
G36*
X129321Y310970D02*
X129332Y310954D01*
X129383Y310920D01*
X148528Y295508D01*
X148528Y267149D01*
X155047Y263300D01*
X155705D01*
X155856Y262800D01*
X155727Y262713D01*
X155373Y262184D01*
X155249Y261560D01*
X155373Y260936D01*
X155727Y260406D01*
X156256Y260053D01*
X156880Y259928D01*
X157505Y260053D01*
X158034Y260406D01*
X158387Y260936D01*
X158512Y261560D01*
X158387Y262184D01*
X158034Y262713D01*
X157904Y262800D01*
X158056Y263300D01*
X175705D01*
X175856Y262800D01*
X175727Y262713D01*
X175373Y262184D01*
X175249Y261560D01*
X175373Y260936D01*
X175727Y260406D01*
X176256Y260053D01*
X176880Y259928D01*
X177505Y260053D01*
X178034Y260406D01*
X178387Y260936D01*
X178512Y261560D01*
X178387Y262184D01*
X178034Y262713D01*
X177904Y262800D01*
X178056Y263300D01*
X195705Y263300D01*
X195856Y262800D01*
X195727Y262713D01*
X195373Y262184D01*
X195249Y261560D01*
X195373Y260936D01*
X195727Y260406D01*
X196256Y260053D01*
X196880Y259928D01*
X197505Y260053D01*
X198034Y260406D01*
X198388Y260936D01*
X198512Y261560D01*
X198388Y262184D01*
X198034Y262713D01*
X197904Y262800D01*
X198056Y263300D01*
X205705D01*
X205856Y262800D01*
X205727Y262713D01*
X205373Y262184D01*
X205249Y261560D01*
X205373Y260936D01*
X205727Y260406D01*
X206256Y260053D01*
X206880Y259928D01*
X207505Y260053D01*
X208034Y260406D01*
X208387Y260936D01*
X208512Y261560D01*
X208387Y262184D01*
X208034Y262713D01*
X207904Y262800D01*
X208056Y263300D01*
X215705D01*
X215856Y262800D01*
X215727Y262713D01*
X215373Y262184D01*
X215249Y261560D01*
X215373Y260936D01*
X215727Y260406D01*
X216256Y260053D01*
X216880Y259928D01*
X217505Y260053D01*
X218034Y260406D01*
X218388Y260936D01*
X218512Y261560D01*
X218388Y262184D01*
X218034Y262713D01*
X217904Y262800D01*
X218056Y263300D01*
X218058D01*
X233524Y276828D01*
X233981Y276564D01*
X233969Y276500D01*
X234093Y275876D01*
X234447Y275346D01*
X234976Y274993D01*
X235600Y274869D01*
X236224Y274993D01*
X236754Y275346D01*
X237107Y275876D01*
X237231Y276500D01*
X237107Y277124D01*
X236754Y277654D01*
X236224Y278007D01*
X235742Y278103D01*
X235569Y278518D01*
X235561Y278610D01*
X242416Y284605D01*
Y290035D01*
X242505Y290053D01*
X243034Y290406D01*
X243388Y290936D01*
X243512Y291560D01*
X243388Y292184D01*
X243368Y292214D01*
X243635Y292714D01*
X250126D01*
X250393Y292214D01*
X250373Y292184D01*
X250249Y291560D01*
X250373Y290936D01*
X250727Y290406D01*
X251256Y290053D01*
X251880Y289929D01*
X252505Y290053D01*
X253034Y290406D01*
X253387Y290936D01*
X253512Y291560D01*
X253387Y292184D01*
X253368Y292214D01*
X253635Y292714D01*
X262737D01*
Y265488D01*
X262261Y265393D01*
X261732Y265039D01*
X261378Y264510D01*
X261254Y263886D01*
X261378Y263262D01*
X261732Y262732D01*
X262261Y262379D01*
X262737Y262284D01*
Y252300D01*
X273500Y243900D01*
X275637Y243869D01*
X275991Y243633D01*
X276615Y243509D01*
X277239Y243633D01*
X277552Y243842D01*
X289483Y243671D01*
X290000Y243569D01*
X290448Y243658D01*
X291385Y243644D01*
X291457Y227400D01*
X291454Y225780D01*
X291067Y225463D01*
X290900Y225496D01*
X289983Y225314D01*
X289206Y224794D01*
X288686Y224017D01*
X288504Y223100D01*
X288686Y222183D01*
X289206Y221406D01*
X289983Y220886D01*
X290900Y220704D01*
X291059Y220736D01*
X291445Y220418D01*
X291439Y217143D01*
X291053Y216826D01*
X290700Y216896D01*
X289783Y216714D01*
X289006Y216194D01*
X288486Y215417D01*
X288304Y214500D01*
X288486Y213583D01*
X289006Y212806D01*
X289783Y212286D01*
X290700Y212104D01*
X291044Y212172D01*
X291430Y211855D01*
X291425Y208922D01*
X290925Y208512D01*
X290500Y208596D01*
X289583Y208414D01*
X288806Y207894D01*
X288286Y207117D01*
X288104Y206200D01*
X288286Y205283D01*
X288806Y204506D01*
X288846Y204479D01*
X288695Y203979D01*
X277817Y203948D01*
X277782Y203972D01*
X277255Y204076D01*
X268920D01*
X268724Y204207D01*
X268100Y204331D01*
X267476Y204207D01*
X267042Y203918D01*
X266374Y203916D01*
X266211Y189982D01*
X253200Y190000D01*
Y190655D01*
X253387Y190936D01*
X253512Y191560D01*
X253387Y192184D01*
X253200Y192465D01*
X253200Y233371D01*
X241527Y243312D01*
X231276Y243312D01*
X230853Y243396D01*
X230429Y243312D01*
X228280Y243312D01*
X228089Y243773D01*
X230235Y245919D01*
X233615D01*
X233692Y245804D01*
X234221Y245450D01*
X234846Y245326D01*
X235470Y245450D01*
X235999Y245804D01*
X236353Y246333D01*
X236477Y246957D01*
X236353Y247582D01*
X235999Y248111D01*
X235470Y248465D01*
X234846Y248589D01*
X234221Y248465D01*
X233769Y248163D01*
X229770D01*
X229770Y248163D01*
X229341Y248077D01*
X228977Y247834D01*
X228977Y247834D01*
X224454Y243311D01*
X149670Y243306D01*
X132198Y254799D01*
X132391Y255270D01*
X132900Y255169D01*
X133524Y255293D01*
X134054Y255646D01*
X134407Y256176D01*
X134531Y256800D01*
X134407Y257424D01*
X134054Y257954D01*
X133524Y258307D01*
X132900Y258431D01*
X132276Y258307D01*
X131746Y257954D01*
X131393Y257424D01*
X131269Y256800D01*
X131393Y256176D01*
X131690Y255731D01*
X131331Y255369D01*
X127700Y257757D01*
X127700Y288988D01*
X123356Y292232D01*
X123034Y292713D01*
X122505Y293067D01*
X122140Y293140D01*
X116165Y297600D01*
X109475D01*
X108953Y297949D01*
X108328Y298073D01*
X107704Y297949D01*
X107181Y297600D01*
X77149Y297600D01*
X77135Y297666D01*
X76800Y298168D01*
X76800Y314249D01*
X81260Y314269D01*
X81503Y313770D01*
X81278Y313432D01*
X81154Y312808D01*
X81278Y312184D01*
X81631Y311654D01*
X82161Y311301D01*
X82785Y311176D01*
X83409Y311301D01*
X83939Y311654D01*
X84292Y312184D01*
X84416Y312808D01*
X84292Y313432D01*
X84059Y313781D01*
X84290Y314282D01*
X124979Y314465D01*
X129321Y310970D01*
D02*
G37*
%LPC*%
G36*
X110385Y313339D02*
X109761Y313215D01*
X109231Y312861D01*
X108878Y312332D01*
X108754Y311708D01*
X108878Y311084D01*
X109231Y310554D01*
X109761Y310201D01*
X110385Y310076D01*
X111009Y310201D01*
X111539Y310554D01*
X111892Y311084D01*
X112016Y311708D01*
X111892Y312332D01*
X111539Y312861D01*
X111009Y313215D01*
X110385Y313339D01*
D02*
G37*
G36*
X115485Y310539D02*
X114861Y310415D01*
X114331Y310061D01*
X113978Y309532D01*
X113854Y308908D01*
X113978Y308284D01*
X114331Y307754D01*
X114861Y307401D01*
X115485Y307277D01*
X116109Y307401D01*
X116639Y307754D01*
X116992Y308284D01*
X117116Y308908D01*
X116992Y309532D01*
X116639Y310061D01*
X116109Y310415D01*
X115485Y310539D01*
D02*
G37*
G36*
X125485Y310439D02*
X124861Y310315D01*
X124331Y309961D01*
X123978Y309432D01*
X123854Y308808D01*
X123978Y308184D01*
X124331Y307654D01*
X124861Y307301D01*
X125485Y307176D01*
X126109Y307301D01*
X126639Y307654D01*
X126992Y308184D01*
X127116Y308808D01*
X126992Y309432D01*
X126639Y309961D01*
X126109Y310315D01*
X125485Y310439D01*
D02*
G37*
G36*
X86685Y305239D02*
X86061Y305115D01*
X85532Y304761D01*
X85178Y304232D01*
X85054Y303608D01*
X85178Y302984D01*
X85532Y302454D01*
X86061Y302101D01*
X86685Y301976D01*
X87309Y302101D01*
X87839Y302454D01*
X88192Y302984D01*
X88316Y303608D01*
X88192Y304232D01*
X87839Y304761D01*
X87309Y305115D01*
X86685Y305239D01*
D02*
G37*
G36*
X92985Y305039D02*
X92361Y304915D01*
X91831Y304561D01*
X91478Y304032D01*
X91354Y303408D01*
X91478Y302784D01*
X91831Y302254D01*
X92361Y301901D01*
X92985Y301777D01*
X93609Y301901D01*
X94139Y302254D01*
X94492Y302784D01*
X94616Y303408D01*
X94492Y304032D01*
X94139Y304561D01*
X93609Y304915D01*
X92985Y305039D01*
D02*
G37*
G36*
X136880Y303191D02*
X136256Y303067D01*
X135727Y302713D01*
X135373Y302184D01*
X135249Y301560D01*
X135373Y300936D01*
X135727Y300406D01*
X136256Y300053D01*
X136880Y299928D01*
X137505Y300053D01*
X138034Y300406D01*
X138388Y300936D01*
X138512Y301560D01*
X138388Y302184D01*
X138034Y302713D01*
X137505Y303067D01*
X136880Y303191D01*
D02*
G37*
G36*
X126880D02*
X126256Y303067D01*
X125727Y302713D01*
X125373Y302184D01*
X125249Y301560D01*
X125373Y300936D01*
X125727Y300406D01*
X126256Y300053D01*
X126880Y299928D01*
X127505Y300053D01*
X128034Y300406D01*
X128387Y300936D01*
X128512Y301560D01*
X128387Y302184D01*
X128034Y302713D01*
X127505Y303067D01*
X126880Y303191D01*
D02*
G37*
G36*
X116880D02*
X116256Y303067D01*
X115727Y302713D01*
X115373Y302184D01*
X115249Y301560D01*
X115373Y300936D01*
X115727Y300406D01*
X116256Y300053D01*
X116880Y299928D01*
X117505Y300053D01*
X118034Y300406D01*
X118387Y300936D01*
X118512Y301560D01*
X118387Y302184D01*
X118034Y302713D01*
X117505Y303067D01*
X116880Y303191D01*
D02*
G37*
G36*
X106880D02*
X106256Y303067D01*
X105727Y302713D01*
X105373Y302184D01*
X105249Y301560D01*
X105373Y300936D01*
X105727Y300406D01*
X106256Y300053D01*
X106880Y299928D01*
X107505Y300053D01*
X108034Y300406D01*
X108387Y300936D01*
X108512Y301560D01*
X108387Y302184D01*
X108034Y302713D01*
X107505Y303067D01*
X106880Y303191D01*
D02*
G37*
G36*
X132927Y293431D02*
X132302Y293307D01*
X131773Y292953D01*
X131420Y292424D01*
X131295Y291800D01*
X131420Y291176D01*
X131773Y290647D01*
X132302Y290293D01*
X132927Y290169D01*
X133551Y290293D01*
X134080Y290647D01*
X134434Y291176D01*
X134558Y291800D01*
X134434Y292424D01*
X134080Y292953D01*
X133551Y293307D01*
X132927Y293431D01*
D02*
G37*
G36*
X141880Y293191D02*
X141256Y293067D01*
X140727Y292713D01*
X140373Y292184D01*
X140249Y291560D01*
X140373Y290936D01*
X140727Y290406D01*
X141256Y290053D01*
X141880Y289929D01*
X142505Y290053D01*
X143034Y290406D01*
X143387Y290936D01*
X143512Y291560D01*
X143387Y292184D01*
X143034Y292713D01*
X142505Y293067D01*
X141880Y293191D01*
D02*
G37*
G36*
X253800Y288331D02*
X253176Y288207D01*
X252646Y287854D01*
X252293Y287324D01*
X252169Y286700D01*
X252293Y286076D01*
X252646Y285546D01*
X253176Y285193D01*
X253800Y285069D01*
X254424Y285193D01*
X254954Y285546D01*
X255307Y286076D01*
X255431Y286700D01*
X255307Y287324D01*
X254954Y287854D01*
X254424Y288207D01*
X253800Y288331D01*
D02*
G37*
G36*
X132827Y285131D02*
X132202Y285007D01*
X131673Y284653D01*
X131320Y284124D01*
X131195Y283500D01*
X131320Y282876D01*
X131673Y282347D01*
X132202Y281993D01*
X132827Y281869D01*
X133451Y281993D01*
X133980Y282347D01*
X134334Y282876D01*
X134458Y283500D01*
X134334Y284124D01*
X133980Y284653D01*
X133451Y285007D01*
X132827Y285131D01*
D02*
G37*
G36*
X136880Y283191D02*
X136256Y283067D01*
X135727Y282713D01*
X135373Y282184D01*
X135249Y281560D01*
X135373Y280936D01*
X135727Y280406D01*
X136256Y280053D01*
X136880Y279928D01*
X137505Y280053D01*
X138034Y280406D01*
X138388Y280936D01*
X138512Y281560D01*
X138388Y282184D01*
X138034Y282713D01*
X137505Y283067D01*
X136880Y283191D01*
D02*
G37*
G36*
X133227Y276931D02*
X132603Y276807D01*
X132073Y276453D01*
X131720Y275924D01*
X131595Y275300D01*
X131720Y274676D01*
X132073Y274147D01*
X132603Y273793D01*
X133227Y273669D01*
X133851Y273793D01*
X134380Y274147D01*
X134734Y274676D01*
X134858Y275300D01*
X134734Y275924D01*
X134380Y276453D01*
X133851Y276807D01*
X133227Y276931D01*
D02*
G37*
G36*
X141880Y273191D02*
X141256Y273067D01*
X140727Y272713D01*
X140373Y272184D01*
X140249Y271560D01*
X140373Y270936D01*
X140727Y270406D01*
X141256Y270053D01*
X141880Y269929D01*
X142505Y270053D01*
X143034Y270406D01*
X143387Y270936D01*
X143512Y271560D01*
X143387Y272184D01*
X143034Y272713D01*
X142505Y273067D01*
X141880Y273191D01*
D02*
G37*
G36*
X230900Y272431D02*
X230276Y272307D01*
X229747Y271954D01*
X229393Y271424D01*
X229269Y270800D01*
X229393Y270176D01*
X229747Y269647D01*
X230276Y269293D01*
X230900Y269169D01*
X231524Y269293D01*
X232053Y269647D01*
X232407Y270176D01*
X232531Y270800D01*
X232407Y271424D01*
X232053Y271954D01*
X231524Y272307D01*
X230900Y272431D01*
D02*
G37*
G36*
X239685Y271517D02*
X239061Y271393D01*
X238531Y271039D01*
X238178Y270510D01*
X238054Y269886D01*
X238178Y269262D01*
X238531Y268732D01*
X239061Y268379D01*
X239685Y268254D01*
X240309Y268379D01*
X240839Y268732D01*
X241192Y269262D01*
X241316Y269886D01*
X241192Y270510D01*
X240839Y271039D01*
X240309Y271393D01*
X239685Y271517D01*
D02*
G37*
G36*
X239485Y267117D02*
X238861Y266993D01*
X238332Y266639D01*
X237978Y266110D01*
X237854Y265486D01*
X237978Y264861D01*
X238332Y264332D01*
X238861Y263979D01*
X239485Y263855D01*
X240109Y263979D01*
X240639Y264332D01*
X240992Y264861D01*
X241116Y265486D01*
X240992Y266110D01*
X240639Y266639D01*
X240109Y266993D01*
X239485Y267117D01*
D02*
G37*
G36*
X133100Y266931D02*
X132476Y266807D01*
X131947Y266454D01*
X131593Y265924D01*
X131469Y265300D01*
X131593Y264676D01*
X131947Y264146D01*
X132476Y263793D01*
X133100Y263669D01*
X133724Y263793D01*
X134254Y264146D01*
X134607Y264676D01*
X134731Y265300D01*
X134607Y265924D01*
X134254Y266454D01*
X133724Y266807D01*
X133100Y266931D01*
D02*
G37*
G36*
X255019Y269715D02*
X254401Y269592D01*
X253877Y269242D01*
X253527Y268718D01*
X253404Y268100D01*
X253527Y267482D01*
X253877Y266958D01*
X254003Y266874D01*
Y266374D01*
X253877Y266289D01*
X253527Y265765D01*
X253404Y265147D01*
X253527Y264529D01*
X253877Y264005D01*
X254003Y263921D01*
Y263421D01*
X253877Y263337D01*
X253527Y262813D01*
X253404Y262194D01*
X253527Y261576D01*
X253877Y261052D01*
X254401Y260702D01*
X255019Y260579D01*
X255637Y260702D01*
X256161Y261052D01*
X256511Y261576D01*
X256634Y262194D01*
X256511Y262813D01*
X256161Y263337D01*
X256035Y263421D01*
Y263921D01*
X256161Y264005D01*
X256511Y264529D01*
X256634Y265147D01*
X256511Y265765D01*
X256161Y266289D01*
X256035Y266374D01*
Y266874D01*
X256161Y266958D01*
X256511Y267482D01*
X256634Y268100D01*
X256511Y268718D01*
X256161Y269242D01*
X255637Y269592D01*
X255019Y269715D01*
D02*
G37*
G36*
X236880Y263191D02*
X236256Y263067D01*
X235727Y262713D01*
X235373Y262184D01*
X235249Y261560D01*
X235373Y260936D01*
X235727Y260406D01*
X236256Y260053D01*
X236880Y259928D01*
X237505Y260053D01*
X238034Y260406D01*
X238387Y260936D01*
X238512Y261560D01*
X238387Y262184D01*
X238034Y262713D01*
X237505Y263067D01*
X236880Y263191D01*
D02*
G37*
G36*
X171880Y253191D02*
X171256Y253067D01*
X170727Y252713D01*
X170373Y252184D01*
X170249Y251560D01*
X170373Y250936D01*
X170727Y250406D01*
X171256Y250053D01*
X171880Y249928D01*
X172505Y250053D01*
X173034Y250406D01*
X173388Y250936D01*
X173512Y251560D01*
X173388Y252184D01*
X173034Y252713D01*
X172505Y253067D01*
X171880Y253191D01*
D02*
G37*
G36*
X141880D02*
X141256Y253067D01*
X140727Y252713D01*
X140373Y252184D01*
X140249Y251560D01*
X140373Y250936D01*
X140727Y250406D01*
X141256Y250053D01*
X141880Y249928D01*
X142505Y250053D01*
X143034Y250406D01*
X143387Y250936D01*
X143512Y251560D01*
X143387Y252184D01*
X143034Y252713D01*
X142505Y253067D01*
X141880Y253191D01*
D02*
G37*
G36*
X153197Y253046D02*
X152573Y252922D01*
X152043Y252568D01*
X151690Y252039D01*
X151566Y251414D01*
X151690Y250790D01*
X152043Y250261D01*
X152573Y249907D01*
X153197Y249783D01*
X153821Y249907D01*
X154350Y250261D01*
X154704Y250790D01*
X154828Y251414D01*
X154704Y252039D01*
X154350Y252568D01*
X153821Y252922D01*
X153197Y253046D01*
D02*
G37*
G36*
X250585Y250817D02*
X249961Y250693D01*
X249431Y250339D01*
X249078Y249810D01*
X248954Y249186D01*
X249078Y248562D01*
X249431Y248032D01*
X249961Y247679D01*
X250585Y247554D01*
X251209Y247679D01*
X251739Y248032D01*
X252092Y248562D01*
X252216Y249186D01*
X252092Y249810D01*
X251739Y250339D01*
X251209Y250693D01*
X250585Y250817D01*
D02*
G37*
G36*
X245885D02*
X245261Y250693D01*
X244731Y250339D01*
X244378Y249810D01*
X244254Y249186D01*
X244378Y248562D01*
X244731Y248032D01*
X245261Y247679D01*
X245885Y247554D01*
X246509Y247679D01*
X247039Y248032D01*
X247392Y248562D01*
X247516Y249186D01*
X247392Y249810D01*
X247039Y250339D01*
X246509Y250693D01*
X245885Y250817D01*
D02*
G37*
G36*
X217300Y250731D02*
X216676Y250607D01*
X216146Y250254D01*
X215793Y249724D01*
X215669Y249100D01*
X215793Y248476D01*
X216146Y247947D01*
X216676Y247593D01*
X217300Y247469D01*
X217924Y247593D01*
X218454Y247947D01*
X218807Y248476D01*
X218931Y249100D01*
X218807Y249724D01*
X218454Y250254D01*
X217924Y250607D01*
X217300Y250731D01*
D02*
G37*
G36*
X265600Y245031D02*
X264976Y244907D01*
X264446Y244553D01*
X264093Y244024D01*
X263969Y243400D01*
X264093Y242776D01*
X264446Y242247D01*
X264976Y241893D01*
X265600Y241769D01*
X266224Y241893D01*
X266754Y242247D01*
X267107Y242776D01*
X267231Y243400D01*
X267107Y244024D01*
X266754Y244553D01*
X266224Y244907D01*
X265600Y245031D01*
D02*
G37*
G36*
X257100D02*
X256476Y244907D01*
X255946Y244553D01*
X255593Y244024D01*
X255469Y243400D01*
X255593Y242776D01*
X255946Y242247D01*
X256476Y241893D01*
X257100Y241769D01*
X257724Y241893D01*
X258254Y242247D01*
X258607Y242776D01*
X258731Y243400D01*
X258607Y244024D01*
X258254Y244553D01*
X257724Y244907D01*
X257100Y245031D01*
D02*
G37*
G36*
X246880Y243191D02*
X246256Y243067D01*
X245727Y242713D01*
X245373Y242184D01*
X245249Y241560D01*
X245373Y240936D01*
X245727Y240406D01*
X246256Y240053D01*
X246880Y239929D01*
X247505Y240053D01*
X248034Y240406D01*
X248388Y240936D01*
X248512Y241560D01*
X248388Y242184D01*
X248034Y242713D01*
X247505Y243067D01*
X246880Y243191D01*
D02*
G37*
%LPD*%
D10*
X168300Y275700D02*
Y306500D01*
X228900Y374600D02*
X247400D01*
X275285Y343673D02*
Y357650D01*
X289685Y332008D02*
Y335608D01*
X288285Y337008D02*
X289685Y335608D01*
X278985Y337008D02*
X288285D01*
X279156Y334508D02*
X287585D01*
X278385Y334008D02*
X278656D01*
X279349Y330460D02*
X279533Y330277D01*
X143100Y236300D02*
X186100D01*
X186300Y236500D01*
X229770Y247041D02*
X234762D01*
X234846Y246957D01*
X213129Y230400D02*
X229770Y247041D01*
X135600Y230400D02*
X213129D01*
X170000Y316600D02*
X180800D01*
X166000Y312600D02*
X170000Y316600D01*
X166000Y308800D02*
Y312600D01*
Y308800D02*
X168300Y306500D01*
X296500Y203400D02*
X299700Y200200D01*
Y189200D02*
Y200200D01*
X297500Y187000D02*
X299700Y189200D01*
X287900Y187000D02*
X297500D01*
X281800Y180900D02*
X287900Y187000D01*
X281800Y176800D02*
Y180900D01*
X271900Y166900D02*
X281800Y176800D01*
X174950Y374650D02*
X175000Y374600D01*
X174950Y374650D02*
Y390950D01*
X174900Y391000D02*
X174950Y390950D01*
X180800Y316600D02*
X184800Y320600D01*
Y381300D01*
X275085Y332408D02*
Y343473D01*
X275285Y343673D01*
X275085Y332408D02*
X277033Y330460D01*
X279349D01*
X289585Y331908D02*
X289685Y332008D01*
X278656Y334008D02*
X279156Y334508D01*
D14*
X210200Y409600D02*
X219400Y400400D01*
X173902Y409600D02*
X210200D01*
X165702Y417800D02*
X173902Y409600D01*
X234800Y323800D02*
X247300Y311300D01*
X214800Y323800D02*
X234800D01*
X179800Y323500D02*
Y392900D01*
X224800Y341800D02*
Y378600D01*
X106493Y377300D02*
X140900D01*
X105885Y377908D02*
X106493Y377300D01*
X129100Y380300D02*
X156000D01*
X173300Y300800D02*
X188700D01*
X164500Y275700D02*
Y287700D01*
X164400Y287800D02*
X164500Y287700D01*
X244050Y396600D02*
Y406950D01*
X63400Y232700D02*
X92400D01*
X94941Y230159D01*
Y215606D02*
Y230159D01*
X254785Y301608D02*
X272485D01*
X250900Y305493D02*
X254785Y301608D01*
X253900Y297900D02*
X272400D01*
X245900Y305900D02*
X253900Y297900D01*
X264585Y304408D02*
Y318315D01*
X262000Y320900D02*
X264585Y318315D01*
X250900Y305493D02*
Y315700D01*
X36800Y234747D02*
Y235600D01*
Y234747D02*
X42846Y228700D01*
X92200D01*
X149100Y417800D02*
X165702D01*
X112300Y423900D02*
Y437200D01*
Y423900D02*
X114800Y421400D01*
X122400Y423800D02*
Y437000D01*
Y423800D02*
X124700Y421500D01*
X177000Y328200D02*
Y366400D01*
X157200Y386200D02*
X177000Y366400D01*
X157200Y386200D02*
Y406100D01*
X188300Y365700D02*
X204800Y382200D01*
X188300Y336100D02*
Y365700D01*
X205900Y403600D02*
X209700Y399800D01*
X169100Y403600D02*
X205900D01*
X164200Y398700D02*
X169100Y403600D01*
X208300Y407000D02*
X214700Y400600D01*
X170600Y407000D02*
X208300D01*
X167700Y409900D02*
X170600Y407000D01*
X108140Y409900D02*
X167700D01*
X104724Y413315D02*
X108140Y409900D01*
X219400Y400200D02*
Y400400D01*
X110300Y317900D02*
X114000Y321600D01*
X61100Y317900D02*
X110300D01*
X114000Y321600D02*
X122101D01*
X125401Y318300D01*
X129608Y324008D02*
X145500Y339900D01*
X100800Y324008D02*
X129608D01*
X52900Y279800D02*
Y290400D01*
X107809Y396600D02*
X113809Y402600D01*
X100700Y396600D02*
X107809D01*
X90100Y394100D02*
X115300D01*
X129100Y380300D01*
X224100Y308800D02*
X235600D01*
X220600Y305900D02*
X245900D01*
X214300Y312200D02*
X220600Y305900D01*
X169800Y312200D02*
X214300D01*
X204800Y382200D02*
Y398700D01*
X260600Y423500D02*
X266469D01*
X244050Y406950D02*
X260600Y423500D01*
X224800Y341800D02*
X250900Y315700D01*
X262885Y263886D02*
X265785Y266786D01*
X270185D01*
D15*
X167400Y435200D02*
X181600D01*
X166600D02*
X167400D01*
X181600D02*
X188800Y442400D01*
X288655Y191300D02*
X297400D01*
X277255Y202700D02*
X288655Y191300D01*
X268100Y202700D02*
X277255D01*
D157*
X36050Y117550D02*
X82500Y164000D01*
X254900Y181100D02*
Y195800D01*
X237800Y164000D02*
X254900Y181100D01*
X82500Y164000D02*
X237800D01*
X307185Y317785D02*
Y380915D01*
X284000Y294600D02*
X307185Y317785D01*
X240700Y294600D02*
X284000D01*
X230900Y284800D02*
X240700Y294600D01*
X230900Y279900D02*
Y284800D01*
X288300Y399800D02*
X307185Y380915D01*
D162*
X286512Y25926D02*
Y65926D01*
X266512Y25926D02*
Y65926D01*
X241662Y25926D02*
Y65926D01*
X221662Y25926D02*
Y65926D01*
X196812Y25926D02*
Y65926D01*
X176812Y25926D02*
Y65926D01*
X71831Y469183D02*
X123839D01*
D167*
X205347Y355242D02*
D03*
Y359179D02*
D03*
X209284D02*
D03*
Y355242D02*
D03*
Y351305D02*
D03*
X205347D02*
D03*
X201410D02*
D03*
Y355242D02*
D03*
Y359179D02*
D03*
X207316Y357210D02*
D03*
Y353273D02*
D03*
X203379D02*
D03*
Y357210D02*
D03*
X199442D02*
D03*
Y353273D02*
D03*
X211253Y357210D02*
D03*
Y353273D02*
D03*
X207316Y361147D02*
D03*
X203379D02*
D03*
X211253D02*
D03*
Y349336D02*
D03*
X207316D02*
D03*
X203379D02*
D03*
X199442D02*
D03*
Y361147D02*
D03*
D168*
X291508Y343268D02*
D03*
Y325748D02*
D03*
D169*
X299185Y320728D02*
D03*
Y348287D02*
D03*
D170*
X172193Y176356D02*
D03*
X192193D02*
D03*
Y216356D02*
D03*
X172193D02*
D03*
X176812Y65926D02*
D03*
X196812D02*
D03*
Y25926D02*
D03*
X176812D02*
D03*
X221662D02*
D03*
X241662D02*
D03*
Y65926D02*
D03*
X221662D02*
D03*
X266512D02*
D03*
X286512D02*
D03*
Y25926D02*
D03*
X266512D02*
D03*
D171*
X240854Y175805D02*
D03*
Y180805D02*
D03*
Y185805D02*
D03*
Y190805D02*
D03*
Y195805D02*
D03*
X215854D02*
D03*
Y190805D02*
D03*
Y185805D02*
D03*
Y180805D02*
D03*
Y175805D02*
D03*
X235854D02*
D03*
X230854D02*
D03*
X225854D02*
D03*
X220854D02*
D03*
Y180805D02*
D03*
X225854D02*
D03*
X230854D02*
D03*
X235854D02*
D03*
Y190805D02*
D03*
Y195805D02*
D03*
X230854D02*
D03*
Y190805D02*
D03*
X225854D02*
D03*
Y195805D02*
D03*
X220854D02*
D03*
Y190805D02*
D03*
Y185805D02*
D03*
X225854D02*
D03*
X230854D02*
D03*
X235854D02*
D03*
X58500Y233000D02*
D03*
X60100Y251400D02*
D03*
Y265700D02*
D03*
X60000Y280300D02*
D03*
X123900Y272900D02*
D03*
X112900Y268200D02*
D03*
X97400D02*
D03*
X301880Y491560D02*
D03*
X306880Y481560D02*
D03*
X301880Y471560D02*
D03*
X306880Y461560D02*
D03*
X301880Y451560D02*
D03*
X306880Y441560D02*
D03*
X301880Y431560D02*
D03*
X306880Y421560D02*
D03*
X301880Y411560D02*
D03*
X306880Y401560D02*
D03*
X301880Y391560D02*
D03*
Y371560D02*
D03*
X306880Y301560D02*
D03*
Y281560D02*
D03*
Y261560D02*
D03*
Y241560D02*
D03*
X301880Y231560D02*
D03*
X306880Y221560D02*
D03*
X301880Y211560D02*
D03*
X306880Y201560D02*
D03*
X301880Y191560D02*
D03*
X306880Y181560D02*
D03*
X301880Y171560D02*
D03*
X306880Y161560D02*
D03*
X301880Y151560D02*
D03*
X306880Y141560D02*
D03*
X301880Y131560D02*
D03*
X306880Y121560D02*
D03*
X301880Y111560D02*
D03*
X306880Y101560D02*
D03*
X301880Y91560D02*
D03*
X306880Y81560D02*
D03*
X301880Y71560D02*
D03*
X306880Y61560D02*
D03*
X301880Y51560D02*
D03*
X306880Y41560D02*
D03*
X301880Y31560D02*
D03*
X306880Y21560D02*
D03*
X301880Y11560D02*
D03*
X291880Y491560D02*
D03*
X296880Y461560D02*
D03*
X291880Y451560D02*
D03*
X296880Y441560D02*
D03*
Y421560D02*
D03*
Y401560D02*
D03*
Y381560D02*
D03*
X291880Y371560D02*
D03*
X296880Y361560D02*
D03*
X291880Y351560D02*
D03*
Y311560D02*
D03*
Y291560D02*
D03*
X296880Y281560D02*
D03*
X291880Y271560D02*
D03*
X296880Y261560D02*
D03*
X291880Y171560D02*
D03*
X296880Y161560D02*
D03*
X291880Y151560D02*
D03*
X296880Y141560D02*
D03*
Y121560D02*
D03*
X291880Y111560D02*
D03*
X296880Y101560D02*
D03*
X291880Y91560D02*
D03*
X296880Y81560D02*
D03*
X291880Y71560D02*
D03*
X296880Y61560D02*
D03*
X291880Y51560D02*
D03*
X296880Y41560D02*
D03*
X291880Y31560D02*
D03*
X296880Y21560D02*
D03*
X291880Y11560D02*
D03*
X281880Y491560D02*
D03*
Y471560D02*
D03*
X286880Y461560D02*
D03*
X281880Y451560D02*
D03*
Y431560D02*
D03*
Y371560D02*
D03*
X286880Y361560D02*
D03*
X281880Y291560D02*
D03*
X286880Y281560D02*
D03*
X281880Y271560D02*
D03*
X286880Y261560D02*
D03*
Y161560D02*
D03*
X281880Y151560D02*
D03*
Y111560D02*
D03*
X286880Y81560D02*
D03*
X281880Y11560D02*
D03*
X271880Y491560D02*
D03*
X276880Y481560D02*
D03*
X271880Y471560D02*
D03*
X276880Y461560D02*
D03*
X271880Y451560D02*
D03*
X276880Y441560D02*
D03*
Y381560D02*
D03*
X271880Y371560D02*
D03*
X276880Y361560D02*
D03*
X271880Y351560D02*
D03*
X276880Y321560D02*
D03*
X271880Y311560D02*
D03*
X276880Y161560D02*
D03*
X271880Y151560D02*
D03*
Y111560D02*
D03*
X276880Y81560D02*
D03*
Y61560D02*
D03*
X271880Y51560D02*
D03*
X276880Y41560D02*
D03*
X271880Y31560D02*
D03*
X276880Y21560D02*
D03*
X271880Y11560D02*
D03*
X261880Y491560D02*
D03*
Y471560D02*
D03*
X266880Y461560D02*
D03*
Y401560D02*
D03*
X261880Y371560D02*
D03*
X266880Y361560D02*
D03*
Y281560D02*
D03*
X261880Y151560D02*
D03*
Y131560D02*
D03*
Y111560D02*
D03*
Y91560D02*
D03*
X266880Y81560D02*
D03*
X261880Y71560D02*
D03*
Y11560D02*
D03*
X251880Y491560D02*
D03*
X256880Y481560D02*
D03*
X251880Y451560D02*
D03*
X256880Y441560D02*
D03*
X251880Y431560D02*
D03*
Y411560D02*
D03*
Y391560D02*
D03*
X256880Y381560D02*
D03*
X251880Y371560D02*
D03*
X256880Y361560D02*
D03*
X251880Y351560D02*
D03*
Y331560D02*
D03*
X256880Y321560D02*
D03*
X251880Y291560D02*
D03*
Y191560D02*
D03*
Y171560D02*
D03*
X256880Y161560D02*
D03*
X251880Y151560D02*
D03*
X256880Y141560D02*
D03*
X251880Y131560D02*
D03*
X256880Y121560D02*
D03*
X251880Y111560D02*
D03*
X256880Y101560D02*
D03*
X251880Y91560D02*
D03*
X256880Y81560D02*
D03*
X251880Y71560D02*
D03*
X256880Y61560D02*
D03*
X251880Y51560D02*
D03*
X256880Y41560D02*
D03*
X251880Y31560D02*
D03*
X256880Y21560D02*
D03*
X251880Y11560D02*
D03*
X241880Y491560D02*
D03*
Y471560D02*
D03*
X246880Y461560D02*
D03*
X241880Y451560D02*
D03*
X246880Y441560D02*
D03*
X241880Y431560D02*
D03*
X246880Y421560D02*
D03*
X241880Y411560D02*
D03*
X246880Y361560D02*
D03*
X241880Y351560D02*
D03*
X246880Y341560D02*
D03*
X241880Y331560D02*
D03*
Y311560D02*
D03*
X246880Y301560D02*
D03*
X241880Y291560D02*
D03*
X246880Y241560D02*
D03*
X241880Y231560D02*
D03*
Y211560D02*
D03*
X246880Y201560D02*
D03*
Y181560D02*
D03*
Y161560D02*
D03*
X241880Y151560D02*
D03*
X246880Y141560D02*
D03*
Y121560D02*
D03*
X241880Y111560D02*
D03*
X246880Y101560D02*
D03*
X241880Y91560D02*
D03*
X246880Y81560D02*
D03*
Y61560D02*
D03*
Y41560D02*
D03*
Y21560D02*
D03*
X241880Y11560D02*
D03*
X231880Y491560D02*
D03*
X236880Y481560D02*
D03*
X231880Y471560D02*
D03*
X236880Y441560D02*
D03*
X231880Y431560D02*
D03*
X236880Y421560D02*
D03*
X231880Y411560D02*
D03*
X236880Y401560D02*
D03*
X231880Y371560D02*
D03*
Y351560D02*
D03*
X236880Y341560D02*
D03*
X231880Y331560D02*
D03*
Y311560D02*
D03*
X236880Y301560D02*
D03*
X231880Y291560D02*
D03*
X236880Y261560D02*
D03*
Y241560D02*
D03*
X231880Y231560D02*
D03*
X236880Y221560D02*
D03*
X231880Y211560D02*
D03*
Y151560D02*
D03*
Y111560D02*
D03*
Y71560D02*
D03*
X236880Y61560D02*
D03*
X231880Y51560D02*
D03*
X236880Y41560D02*
D03*
X231880Y31560D02*
D03*
X236880Y21560D02*
D03*
X231880Y11560D02*
D03*
X226880Y481560D02*
D03*
Y441560D02*
D03*
X221880Y431560D02*
D03*
X226880Y421560D02*
D03*
X221880Y371560D02*
D03*
X226880Y301560D02*
D03*
X221880Y271560D02*
D03*
Y151560D02*
D03*
Y111560D02*
D03*
X226880Y61560D02*
D03*
Y41560D02*
D03*
Y21560D02*
D03*
X221880Y11560D02*
D03*
X216880Y481560D02*
D03*
Y461560D02*
D03*
X211880Y451560D02*
D03*
X216880Y441560D02*
D03*
Y421560D02*
D03*
X211880Y371560D02*
D03*
X216880Y361560D02*
D03*
X211880Y331560D02*
D03*
X216880Y301560D02*
D03*
X211880Y291560D02*
D03*
X216880Y261560D02*
D03*
Y241560D02*
D03*
X211880Y151560D02*
D03*
X216880Y141560D02*
D03*
X211880Y131560D02*
D03*
X216880Y121560D02*
D03*
X211880Y111560D02*
D03*
X216880Y101560D02*
D03*
X211880Y91560D02*
D03*
X216880Y81560D02*
D03*
X211880Y71560D02*
D03*
X216880Y61560D02*
D03*
X211880Y51560D02*
D03*
X216880Y41560D02*
D03*
X211880Y31560D02*
D03*
X216880Y21560D02*
D03*
X211880Y11560D02*
D03*
X201880Y471560D02*
D03*
X206880Y461560D02*
D03*
X201880Y451560D02*
D03*
X206880Y441560D02*
D03*
Y421560D02*
D03*
X201880Y371560D02*
D03*
X206880Y341560D02*
D03*
X201880Y331560D02*
D03*
X206880Y301560D02*
D03*
X201880Y291560D02*
D03*
X206880Y261560D02*
D03*
Y241560D02*
D03*
Y221560D02*
D03*
X201880Y211560D02*
D03*
X206880Y201560D02*
D03*
X201880Y191560D02*
D03*
X206880Y181560D02*
D03*
X201880Y171560D02*
D03*
Y151560D02*
D03*
X206880Y141560D02*
D03*
X201880Y131560D02*
D03*
X206880Y121560D02*
D03*
X201880Y111560D02*
D03*
X206880Y101560D02*
D03*
X201880Y91560D02*
D03*
X206880Y81560D02*
D03*
X201880Y71560D02*
D03*
X206880Y61560D02*
D03*
X201880Y51560D02*
D03*
X206880Y41560D02*
D03*
X201880Y31560D02*
D03*
X206880Y21560D02*
D03*
X201880Y11560D02*
D03*
X196880Y481560D02*
D03*
X191880Y471560D02*
D03*
X196880Y441560D02*
D03*
Y421560D02*
D03*
X191880Y351560D02*
D03*
X196880Y341560D02*
D03*
X191880Y331560D02*
D03*
Y291560D02*
D03*
X196880Y261560D02*
D03*
Y241560D02*
D03*
Y221560D02*
D03*
Y201560D02*
D03*
Y181560D02*
D03*
X191880Y151560D02*
D03*
Y111560D02*
D03*
X196880Y81560D02*
D03*
X191880Y71560D02*
D03*
Y51560D02*
D03*
Y31560D02*
D03*
Y11560D02*
D03*
X181880Y471560D02*
D03*
X186880Y461560D02*
D03*
X181880Y451560D02*
D03*
X186880Y401560D02*
D03*
X181880Y371560D02*
D03*
Y351560D02*
D03*
Y331560D02*
D03*
Y291560D02*
D03*
X186880Y221560D02*
D03*
X181880Y211560D02*
D03*
X186880Y201560D02*
D03*
X181880Y191560D02*
D03*
X186880Y181560D02*
D03*
X181880Y171560D02*
D03*
Y151560D02*
D03*
X186880Y141560D02*
D03*
X181880Y111560D02*
D03*
X186880Y81560D02*
D03*
Y61560D02*
D03*
X181880Y51560D02*
D03*
X186880Y41560D02*
D03*
X181880Y31560D02*
D03*
X186880Y21560D02*
D03*
X181880Y11560D02*
D03*
X171880Y491560D02*
D03*
X176880Y481560D02*
D03*
Y401560D02*
D03*
X171880Y351560D02*
D03*
Y331560D02*
D03*
Y271560D02*
D03*
X176880Y261560D02*
D03*
X171880Y251560D02*
D03*
X176880Y201560D02*
D03*
Y181560D02*
D03*
X171880Y151560D02*
D03*
Y131560D02*
D03*
Y111560D02*
D03*
Y91560D02*
D03*
Y71560D02*
D03*
Y51560D02*
D03*
Y31560D02*
D03*
Y11560D02*
D03*
X161880Y491560D02*
D03*
X166880Y481560D02*
D03*
Y461560D02*
D03*
X161880Y451560D02*
D03*
X166880Y441560D02*
D03*
Y241560D02*
D03*
Y221560D02*
D03*
X161880Y211560D02*
D03*
X166880Y201560D02*
D03*
X161880Y191560D02*
D03*
X166880Y181560D02*
D03*
X161880Y171560D02*
D03*
Y151560D02*
D03*
X166880Y141560D02*
D03*
X161880Y131560D02*
D03*
X166880Y121560D02*
D03*
X161880Y111560D02*
D03*
X166880Y101560D02*
D03*
Y81560D02*
D03*
X161880Y71560D02*
D03*
X166880Y61560D02*
D03*
X161880Y51560D02*
D03*
X166880Y41560D02*
D03*
X161880Y31560D02*
D03*
X166880Y21560D02*
D03*
X161880Y11560D02*
D03*
X151880Y491560D02*
D03*
X156880Y481560D02*
D03*
X151880Y471560D02*
D03*
Y451560D02*
D03*
X156880Y441560D02*
D03*
Y421560D02*
D03*
X151880Y371560D02*
D03*
X156880Y361560D02*
D03*
X151880Y351560D02*
D03*
X156880Y341560D02*
D03*
Y321560D02*
D03*
Y261560D02*
D03*
Y221560D02*
D03*
X151880Y211560D02*
D03*
X156880Y201560D02*
D03*
Y181560D02*
D03*
X151880Y171560D02*
D03*
Y151560D02*
D03*
X156880Y141560D02*
D03*
X151880Y131560D02*
D03*
X156880Y121560D02*
D03*
X151880Y111560D02*
D03*
Y91560D02*
D03*
X156880Y81560D02*
D03*
X151880Y71560D02*
D03*
X156880Y61560D02*
D03*
X151880Y51560D02*
D03*
X156880Y41560D02*
D03*
X151880Y31560D02*
D03*
X156880Y21560D02*
D03*
X151880Y11560D02*
D03*
X141880Y491560D02*
D03*
X146880Y481560D02*
D03*
X141880Y451560D02*
D03*
X146880Y441560D02*
D03*
X141880Y431560D02*
D03*
X146880Y421560D02*
D03*
Y401560D02*
D03*
X141880Y371560D02*
D03*
X146880Y361560D02*
D03*
X141880Y351560D02*
D03*
Y331560D02*
D03*
X146880Y321560D02*
D03*
Y301560D02*
D03*
X141880Y291560D02*
D03*
Y271560D02*
D03*
Y251560D02*
D03*
X146880Y241560D02*
D03*
Y221560D02*
D03*
Y201560D02*
D03*
Y181560D02*
D03*
X141880Y171560D02*
D03*
Y151560D02*
D03*
X146880Y101560D02*
D03*
X141880Y91560D02*
D03*
X146880Y81560D02*
D03*
X141880Y71560D02*
D03*
X146880Y61560D02*
D03*
X141880Y51560D02*
D03*
X146880Y41560D02*
D03*
X141880Y31560D02*
D03*
X146880Y21560D02*
D03*
X141880Y11560D02*
D03*
X131880Y491560D02*
D03*
X136880Y481560D02*
D03*
X131880Y471560D02*
D03*
X136880Y441560D02*
D03*
X131880Y431560D02*
D03*
X136880Y401560D02*
D03*
X131880Y371560D02*
D03*
X136880Y341560D02*
D03*
X131880Y331560D02*
D03*
X136880Y301560D02*
D03*
Y281560D02*
D03*
Y241560D02*
D03*
X131880Y231560D02*
D03*
X136880Y201560D02*
D03*
X131880Y191560D02*
D03*
Y151560D02*
D03*
X136880Y101560D02*
D03*
X131880Y91560D02*
D03*
X136880Y81560D02*
D03*
X131880Y71560D02*
D03*
X136880Y61560D02*
D03*
X131880Y51560D02*
D03*
X136880Y41560D02*
D03*
X131880Y31560D02*
D03*
X136880Y21560D02*
D03*
X131880Y11560D02*
D03*
X121880Y491560D02*
D03*
X126880Y481560D02*
D03*
Y461560D02*
D03*
X121880Y451560D02*
D03*
X126880Y441560D02*
D03*
Y401560D02*
D03*
X121880Y371560D02*
D03*
X126880Y361560D02*
D03*
X121880Y331560D02*
D03*
X126880Y301560D02*
D03*
X121880Y291560D02*
D03*
X126880Y241560D02*
D03*
X121880Y231560D02*
D03*
Y211560D02*
D03*
X126880Y201560D02*
D03*
X121880Y191560D02*
D03*
X126880Y181560D02*
D03*
X121880Y171560D02*
D03*
Y151560D02*
D03*
X126880Y101560D02*
D03*
X121880Y91560D02*
D03*
X126880Y81560D02*
D03*
X121880Y71560D02*
D03*
X126880Y61560D02*
D03*
X121880Y51560D02*
D03*
X126880Y41560D02*
D03*
X121880Y31560D02*
D03*
X126880Y21560D02*
D03*
X121880Y11560D02*
D03*
X111880Y491560D02*
D03*
X116880Y481560D02*
D03*
Y461560D02*
D03*
X111880Y451560D02*
D03*
X116880Y441560D02*
D03*
Y401560D02*
D03*
Y361560D02*
D03*
X111880Y331560D02*
D03*
X116880Y301560D02*
D03*
X111880Y251560D02*
D03*
X116880Y241560D02*
D03*
X111880Y231560D02*
D03*
X116880Y221560D02*
D03*
X111880Y211560D02*
D03*
Y191560D02*
D03*
Y151560D02*
D03*
X116880Y101560D02*
D03*
X111880Y91560D02*
D03*
X116880Y81560D02*
D03*
X111880Y71560D02*
D03*
X116880Y61560D02*
D03*
X111880Y51560D02*
D03*
X116880Y41560D02*
D03*
X111880Y31560D02*
D03*
X116880Y21560D02*
D03*
X111880Y11560D02*
D03*
X101880Y491560D02*
D03*
X106880Y481560D02*
D03*
Y461560D02*
D03*
X101880Y451560D02*
D03*
X106880Y441560D02*
D03*
X101880Y431560D02*
D03*
Y411560D02*
D03*
Y371560D02*
D03*
Y331560D02*
D03*
X106880Y301560D02*
D03*
X101880Y291560D02*
D03*
X106880Y281560D02*
D03*
X101880Y251560D02*
D03*
Y231560D02*
D03*
X106880Y221560D02*
D03*
X101880Y211560D02*
D03*
X106880Y181560D02*
D03*
X101880Y171560D02*
D03*
Y151560D02*
D03*
X106880Y101560D02*
D03*
X101880Y91560D02*
D03*
X106880Y81560D02*
D03*
X101880Y71560D02*
D03*
X106880Y61560D02*
D03*
X101880Y51560D02*
D03*
X106880Y41560D02*
D03*
X101880Y31560D02*
D03*
X106880Y21560D02*
D03*
X101880Y11560D02*
D03*
X91880Y491560D02*
D03*
X96880Y481560D02*
D03*
Y461560D02*
D03*
X91880Y451560D02*
D03*
X96880Y441560D02*
D03*
X91880Y431560D02*
D03*
X96880Y401560D02*
D03*
Y381560D02*
D03*
X91880Y371560D02*
D03*
Y351560D02*
D03*
Y291560D02*
D03*
X96880Y281560D02*
D03*
X91880Y251560D02*
D03*
X96880Y241560D02*
D03*
X91880Y211560D02*
D03*
X96880Y181560D02*
D03*
X91880Y171560D02*
D03*
Y151560D02*
D03*
X96880Y141560D02*
D03*
X91880Y131560D02*
D03*
X96880Y121560D02*
D03*
X91880Y111560D02*
D03*
X96880Y101560D02*
D03*
X91880Y91560D02*
D03*
X96880Y81560D02*
D03*
X91880Y71560D02*
D03*
X96880Y61560D02*
D03*
X91880Y51560D02*
D03*
X96880Y41560D02*
D03*
X91880Y31560D02*
D03*
X96880Y21560D02*
D03*
X91880Y11560D02*
D03*
X81880Y491560D02*
D03*
X86880Y481560D02*
D03*
Y461560D02*
D03*
X81880Y451560D02*
D03*
X86880Y441560D02*
D03*
X81880Y431560D02*
D03*
X86880Y421560D02*
D03*
X81880Y411560D02*
D03*
X86880Y401560D02*
D03*
Y381560D02*
D03*
X81880Y371560D02*
D03*
Y351560D02*
D03*
X86880Y341560D02*
D03*
X81880Y291560D02*
D03*
X86880Y241560D02*
D03*
X81880Y211560D02*
D03*
X86880Y181560D02*
D03*
X81880Y151560D02*
D03*
X86880Y141560D02*
D03*
X81880Y111560D02*
D03*
X86880Y101560D02*
D03*
X81880Y91560D02*
D03*
X86880Y81560D02*
D03*
X81880Y71560D02*
D03*
X86880Y61560D02*
D03*
X81880Y51560D02*
D03*
X86880Y41560D02*
D03*
X81880Y31560D02*
D03*
X86880Y21560D02*
D03*
X81880Y11560D02*
D03*
X71880Y491560D02*
D03*
X76880Y481560D02*
D03*
Y461560D02*
D03*
X71880Y451560D02*
D03*
X76880Y441560D02*
D03*
Y281560D02*
D03*
X71880Y271560D02*
D03*
X76880Y261560D02*
D03*
X71880Y251560D02*
D03*
Y211560D02*
D03*
X76880Y181560D02*
D03*
Y141560D02*
D03*
X71880Y111560D02*
D03*
X76880Y101560D02*
D03*
X71880Y91560D02*
D03*
X76880Y81560D02*
D03*
X71880Y71560D02*
D03*
X76880Y61560D02*
D03*
X71880Y51560D02*
D03*
X76880Y41560D02*
D03*
X71880Y31560D02*
D03*
X76880Y21560D02*
D03*
X71880Y11560D02*
D03*
X61880Y491560D02*
D03*
X66880Y481560D02*
D03*
X61880Y471560D02*
D03*
X66880Y461560D02*
D03*
X61880Y451560D02*
D03*
X66880Y441560D02*
D03*
X61880Y431560D02*
D03*
X66880Y421560D02*
D03*
X61880Y411560D02*
D03*
X66880Y401560D02*
D03*
Y381560D02*
D03*
Y361560D02*
D03*
X61880Y351560D02*
D03*
X66880Y341560D02*
D03*
Y281560D02*
D03*
Y261560D02*
D03*
Y241560D02*
D03*
Y221560D02*
D03*
X61880Y211560D02*
D03*
X66880Y201560D02*
D03*
X61880Y191560D02*
D03*
X66880Y181560D02*
D03*
X61880Y171560D02*
D03*
Y151560D02*
D03*
X66880Y141560D02*
D03*
X61880Y131560D02*
D03*
Y111560D02*
D03*
X66880Y101560D02*
D03*
X61880Y91560D02*
D03*
Y71560D02*
D03*
X66880Y61560D02*
D03*
X61880Y51560D02*
D03*
X66880Y41560D02*
D03*
X61880Y31560D02*
D03*
X66880Y21560D02*
D03*
X61880Y11560D02*
D03*
X51880Y491560D02*
D03*
X56880Y481560D02*
D03*
X51880Y471560D02*
D03*
X56880Y461560D02*
D03*
X51880Y451560D02*
D03*
X56880Y441560D02*
D03*
X51880Y431560D02*
D03*
X56880Y421560D02*
D03*
X51880Y411560D02*
D03*
X56880Y381560D02*
D03*
X51880Y371560D02*
D03*
X56880Y361560D02*
D03*
X51880Y351560D02*
D03*
X56880Y341560D02*
D03*
X51880Y331560D02*
D03*
Y251560D02*
D03*
X56880Y221560D02*
D03*
X51880Y211560D02*
D03*
X56880Y201560D02*
D03*
X51880Y191560D02*
D03*
X56880Y181560D02*
D03*
X51880Y171560D02*
D03*
X56880Y161560D02*
D03*
X51880Y151560D02*
D03*
X56880Y121560D02*
D03*
X51880Y111560D02*
D03*
X56880Y101560D02*
D03*
X51880Y91560D02*
D03*
X56880Y81560D02*
D03*
X51880Y71560D02*
D03*
X56880Y61560D02*
D03*
X51880Y51560D02*
D03*
X56880Y41560D02*
D03*
X51880Y31560D02*
D03*
X56880Y21560D02*
D03*
X51880Y11560D02*
D03*
X41880Y491560D02*
D03*
X46880Y481560D02*
D03*
X41880Y471560D02*
D03*
X46880Y461560D02*
D03*
Y441560D02*
D03*
X41880Y411560D02*
D03*
X46880Y381560D02*
D03*
X41880Y371560D02*
D03*
Y351560D02*
D03*
X46880Y341560D02*
D03*
X41880Y331560D02*
D03*
X46880Y301560D02*
D03*
X41880Y271560D02*
D03*
X46880Y261560D02*
D03*
X41880Y251560D02*
D03*
X46880Y221560D02*
D03*
X41880Y191560D02*
D03*
Y171560D02*
D03*
X46880Y161560D02*
D03*
X41880Y151560D02*
D03*
X46880Y141560D02*
D03*
Y121560D02*
D03*
X41880Y111560D02*
D03*
X46880Y101560D02*
D03*
X41880Y91560D02*
D03*
X46880Y81560D02*
D03*
X41880Y71560D02*
D03*
X46880Y61560D02*
D03*
X41880Y51560D02*
D03*
X46880Y41560D02*
D03*
X41880Y31560D02*
D03*
X46880Y21560D02*
D03*
X41880Y11560D02*
D03*
X31880Y491560D02*
D03*
X36880Y481560D02*
D03*
X31880Y471560D02*
D03*
X36880Y461560D02*
D03*
X31880Y451560D02*
D03*
X36880Y441560D02*
D03*
X31880Y431560D02*
D03*
X36880Y421560D02*
D03*
X31880Y411560D02*
D03*
X36880Y401560D02*
D03*
X31880Y371560D02*
D03*
X36880Y361560D02*
D03*
X31880Y351560D02*
D03*
X36880Y341560D02*
D03*
X31880Y331560D02*
D03*
X36880Y321560D02*
D03*
X31880Y311560D02*
D03*
X36880Y301560D02*
D03*
X31880Y291560D02*
D03*
Y271560D02*
D03*
X36880Y261560D02*
D03*
X31880Y251560D02*
D03*
X36880Y241560D02*
D03*
X31880Y231560D02*
D03*
X36880Y221560D02*
D03*
X31880Y211560D02*
D03*
Y191560D02*
D03*
X36880Y101560D02*
D03*
X31880Y91560D02*
D03*
X36880Y81560D02*
D03*
X31880Y71560D02*
D03*
X36880Y61560D02*
D03*
X31880Y51560D02*
D03*
X36880Y41560D02*
D03*
X31880Y31560D02*
D03*
X36880Y21560D02*
D03*
X31880Y11560D02*
D03*
X21880Y491560D02*
D03*
X26880Y461560D02*
D03*
X21880Y451560D02*
D03*
X26880Y421560D02*
D03*
X21880Y371560D02*
D03*
Y351560D02*
D03*
X26880Y221560D02*
D03*
X21880Y171560D02*
D03*
Y151560D02*
D03*
X26880Y141560D02*
D03*
Y101560D02*
D03*
X21880Y91560D02*
D03*
X26880Y81560D02*
D03*
X21880Y71560D02*
D03*
X26880Y61560D02*
D03*
X21880Y51560D02*
D03*
X26880Y41560D02*
D03*
X21880Y11560D02*
D03*
X11880Y491560D02*
D03*
Y471560D02*
D03*
X16880Y461560D02*
D03*
X11880Y451560D02*
D03*
X16880Y441560D02*
D03*
X11880Y431560D02*
D03*
X16880Y421560D02*
D03*
X11880Y411560D02*
D03*
X16880Y401560D02*
D03*
X11880Y391560D02*
D03*
X16880Y381560D02*
D03*
X11880Y371560D02*
D03*
X16880Y361560D02*
D03*
X11880Y351560D02*
D03*
X16880Y341560D02*
D03*
X11880Y331560D02*
D03*
X16880Y321560D02*
D03*
X11880Y311560D02*
D03*
Y291560D02*
D03*
X16880Y281560D02*
D03*
X11880Y271560D02*
D03*
X16880Y261560D02*
D03*
X11880Y251560D02*
D03*
X16880Y241560D02*
D03*
X11880Y231560D02*
D03*
X16880Y221560D02*
D03*
X11880Y211560D02*
D03*
X16880Y201560D02*
D03*
X11880Y191560D02*
D03*
X16880Y181560D02*
D03*
X11880Y171560D02*
D03*
X16880Y161560D02*
D03*
X11880Y151560D02*
D03*
X16880Y141560D02*
D03*
X11880Y131560D02*
D03*
X16880Y121560D02*
D03*
X11880Y111560D02*
D03*
X16880Y101560D02*
D03*
X11880Y91560D02*
D03*
X16880Y81560D02*
D03*
X11880Y71560D02*
D03*
X16880Y61560D02*
D03*
X11880Y51560D02*
D03*
X16880Y41560D02*
D03*
X11880Y31560D02*
D03*
Y11560D02*
D03*
X202700Y278000D02*
D03*
Y270000D02*
D03*
Y274000D02*
D03*
X197300Y282400D02*
D03*
X200200Y275900D02*
D03*
Y271900D02*
D03*
X217300Y249100D02*
D03*
X303300Y105700D02*
D03*
X154300Y342100D02*
D03*
X72200Y84100D02*
D03*
X237500Y431900D02*
D03*
X262300Y480100D02*
D03*
X214800Y323800D02*
D03*
X179800Y323500D02*
D03*
X224800Y378600D02*
D03*
X235900Y392900D02*
D03*
Y397200D02*
D03*
X140900Y377300D02*
D03*
X156000Y380300D02*
D03*
X188700Y300800D02*
D03*
X164400Y287800D02*
D03*
X168300Y275700D02*
D03*
X164500D02*
D03*
X152588Y273383D02*
D03*
X132827Y283500D02*
D03*
X173300Y300800D02*
D03*
X152288Y268983D02*
D03*
X255200Y399600D02*
D03*
X255400Y389600D02*
D03*
X274000Y433700D02*
D03*
X247400Y389700D02*
D03*
X222700Y392600D02*
D03*
Y396100D02*
D03*
X275285Y357908D02*
D03*
X268985Y355008D02*
D03*
X286685Y343215D02*
D03*
X287585Y334508D02*
D03*
X287793Y339516D02*
D03*
X278985Y337008D02*
D03*
X278385Y334008D02*
D03*
X279533Y330277D02*
D03*
X244050Y396600D02*
D03*
X286785Y346708D02*
D03*
X228900Y374600D02*
D03*
X255000Y195800D02*
D03*
X235800Y284800D02*
D03*
X143100Y236300D02*
D03*
X186300Y236500D02*
D03*
X235600Y276500D02*
D03*
X293300Y233900D02*
D03*
X135600Y230400D02*
D03*
X234846Y246957D02*
D03*
X63400Y232700D02*
D03*
X94941Y215606D02*
D03*
X272400Y297900D02*
D03*
X277485Y298808D02*
D03*
X272485Y301608D02*
D03*
X230900Y279900D02*
D03*
X193500Y430500D02*
D03*
X254900Y199900D02*
D03*
Y203900D02*
D03*
X272400Y221100D02*
D03*
X268400D02*
D03*
X264400D02*
D03*
X262300Y223800D02*
D03*
X257800Y193900D02*
D03*
Y197900D02*
D03*
Y201900D02*
D03*
Y205900D02*
D03*
X261800D02*
D03*
X265800D02*
D03*
X269800D02*
D03*
X273800Y217900D02*
D03*
Y213900D02*
D03*
Y209900D02*
D03*
Y205900D02*
D03*
X266300Y223800D02*
D03*
X270300D02*
D03*
X274300D02*
D03*
X275300Y228700D02*
D03*
Y232700D02*
D03*
X279300D02*
D03*
X287300Y228600D02*
D03*
X283300D02*
D03*
X279300D02*
D03*
X87400Y299400D02*
D03*
X84400D02*
D03*
X81400D02*
D03*
X78400D02*
D03*
X95300Y312400D02*
D03*
X92300D02*
D03*
X89300D02*
D03*
X86300D02*
D03*
X78400Y302400D02*
D03*
X81400D02*
D03*
Y305400D02*
D03*
X78400D02*
D03*
X259300Y282000D02*
D03*
Y279000D02*
D03*
Y276000D02*
D03*
Y273000D02*
D03*
X253800Y286700D02*
D03*
X248000Y290700D02*
D03*
X245000D02*
D03*
X168400Y448700D02*
D03*
X44500Y406800D02*
D03*
Y361100D02*
D03*
X45200Y339300D02*
D03*
X44500Y324400D02*
D03*
X44400Y297400D02*
D03*
Y270500D02*
D03*
X45300Y385200D02*
D03*
X19100Y327100D02*
D03*
Y300400D02*
D03*
Y273600D02*
D03*
Y247000D02*
D03*
X209600Y141900D02*
D03*
X270900Y275800D02*
D03*
X290000Y245200D02*
D03*
X265600Y243400D02*
D03*
X257100D02*
D03*
X230900Y270800D02*
D03*
X180398Y278118D02*
D03*
X197400Y269700D02*
D03*
Y274000D02*
D03*
X197300Y278400D02*
D03*
X194300Y267800D02*
D03*
X194400Y272000D02*
D03*
X194300Y276200D02*
D03*
Y280000D02*
D03*
X192000Y284500D02*
D03*
X92200Y228700D02*
D03*
X172800Y414400D02*
D03*
Y420500D02*
D03*
Y417500D02*
D03*
X176700Y413100D02*
D03*
X112300Y437200D02*
D03*
X114800Y421400D02*
D03*
X122400Y437000D02*
D03*
X124700Y421500D02*
D03*
X64700Y303000D02*
D03*
X68000D02*
D03*
X71100Y303100D02*
D03*
X72800Y305500D02*
D03*
X69500D02*
D03*
X66300Y305400D02*
D03*
X63300Y305300D02*
D03*
X297400Y191300D02*
D03*
X296500Y203400D02*
D03*
X271900Y166900D02*
D03*
X268100Y202700D02*
D03*
X290200Y183400D02*
D03*
X283300Y190100D02*
D03*
X288700Y198400D02*
D03*
X152200Y98725D02*
D03*
X297782Y179842D02*
D03*
X288600Y175500D02*
D03*
X288800Y168400D02*
D03*
X262300Y162100D02*
D03*
X41200Y180000D02*
D03*
X175000Y374600D02*
D03*
X174900Y391000D02*
D03*
X247400Y374600D02*
D03*
X153197Y251414D02*
D03*
X188300Y336100D02*
D03*
X177000Y328200D02*
D03*
X157200Y406100D02*
D03*
X164200Y398700D02*
D03*
X209700Y399800D02*
D03*
X198700Y415200D02*
D03*
X179800Y392900D02*
D03*
X214700Y400600D02*
D03*
X104724Y413315D02*
D03*
X219400Y400200D02*
D03*
X149100Y417800D02*
D03*
X162000Y414700D02*
D03*
X152900D02*
D03*
X93800Y402900D02*
D03*
X61100Y317900D02*
D03*
X100800Y324008D02*
D03*
X52900Y290400D02*
D03*
Y279800D02*
D03*
X115401Y318300D02*
D03*
X78489Y341700D02*
D03*
X113809Y402600D02*
D03*
X90100Y394100D02*
D03*
X100700Y396600D02*
D03*
X44300Y453100D02*
D03*
X125401Y318300D02*
D03*
X184800Y381300D02*
D03*
X235600Y308800D02*
D03*
X204800Y398700D02*
D03*
X145500Y339900D02*
D03*
X160500Y373700D02*
D03*
X169800Y312200D02*
D03*
X224100Y308800D02*
D03*
X207700Y430800D02*
D03*
X48528Y420800D02*
D03*
X119700Y421300D02*
D03*
Y429889D02*
D03*
X120400Y350400D02*
D03*
Y359211D02*
D03*
X250000Y487000D02*
D03*
X247300Y311300D02*
D03*
X262000Y320900D02*
D03*
X234900Y312700D02*
D03*
X85200Y321900D02*
D03*
X248708Y397374D02*
D03*
X251787Y469539D02*
D03*
X188854Y422102D02*
D03*
X178200Y424200D02*
D03*
Y428600D02*
D03*
X140035Y473377D02*
D03*
X154995Y461172D02*
D03*
X153420Y458023D02*
D03*
X154602Y473771D02*
D03*
X167898Y477509D02*
D03*
X165498Y471509D02*
D03*
X236310Y462909D02*
D03*
X145234Y458572D02*
D03*
X108328Y296442D02*
D03*
X75628Y297042D02*
D03*
X86685Y303608D02*
D03*
X282585Y283008D02*
D03*
X281885Y339108D02*
D03*
X136885Y211708D02*
D03*
X151300Y486900D02*
D03*
X120385Y326308D02*
D03*
X254085Y362608D02*
D03*
X252970Y455670D02*
D03*
X217898Y278318D02*
D03*
X178898Y269218D02*
D03*
X303985Y291008D02*
D03*
X133227Y275300D02*
D03*
X125485Y308808D02*
D03*
X63200Y315000D02*
D03*
X92985Y303408D02*
D03*
X183110Y490409D02*
D03*
X255331Y433900D02*
D03*
X281037Y320609D02*
D03*
X285837Y321191D02*
D03*
X239485Y265486D02*
D03*
X239685Y269886D02*
D03*
X276615Y245140D02*
D03*
X250585Y249186D02*
D03*
X245885D02*
D03*
X205053Y236465D02*
D03*
X215053D02*
D03*
X70435Y191806D02*
D03*
Y199806D02*
D03*
X70335Y207706D02*
D03*
X70235Y215506D02*
D03*
Y223406D02*
D03*
X276985Y260386D02*
D03*
X270185Y266786D02*
D03*
X262885Y263886D02*
D03*
X49400Y473400D02*
D03*
X104435Y192006D02*
D03*
X281585Y357908D02*
D03*
X263685Y354908D02*
D03*
X196089Y490230D02*
D03*
X266469Y413400D02*
D03*
Y423500D02*
D03*
X132927Y291800D02*
D03*
X133100Y265300D02*
D03*
X114785Y380108D02*
D03*
X289585Y331908D02*
D03*
X254785Y305508D02*
D03*
X264585Y304408D02*
D03*
X230853Y241765D02*
D03*
X65485Y323808D02*
D03*
X82785Y312808D02*
D03*
X132900Y256800D02*
D03*
X159720Y476815D02*
D03*
X119785Y397308D02*
D03*
X264531Y441300D02*
D03*
X270632Y443800D02*
D03*
X58100Y437800D02*
D03*
Y427700D02*
D03*
X203000Y430700D02*
D03*
X179053Y239465D02*
D03*
X130330Y358787D02*
D03*
X125265Y358819D02*
D03*
X115384Y358765D02*
D03*
X110384D02*
D03*
X130485Y312108D02*
D03*
X115485Y308908D02*
D03*
X44500Y244200D02*
D03*
X93900Y378300D02*
D03*
X93800Y424700D02*
D03*
X109685Y382708D02*
D03*
X109561Y429292D02*
D03*
X114761D02*
D03*
X129691Y429260D02*
D03*
X124778Y429343D02*
D03*
X129685Y383008D02*
D03*
X124685Y379908D02*
D03*
X166580Y444487D02*
D03*
X260197Y455599D02*
D03*
X110385Y311708D02*
D03*
X97798Y474492D02*
D03*
X105885Y377908D02*
D03*
X266918Y458163D02*
D03*
X179310Y453409D02*
D03*
X179210Y458109D02*
D03*
Y463009D02*
D03*
X179010Y472409D02*
D03*
X150665Y456054D02*
D03*
X147121D02*
D03*
X143184D02*
D03*
X139641D02*
D03*
X137279Y458810D02*
D03*
Y461960D02*
D03*
Y465109D02*
D03*
Y468259D02*
D03*
Y471802D02*
D03*
Y474952D02*
D03*
X139247Y478102D02*
D03*
X142791D02*
D03*
X146334D02*
D03*
X149877D02*
D03*
X153027Y476921D02*
D03*
D172*
X25500Y210600D02*
D03*
Y200600D02*
D03*
X288400Y433500D02*
D03*
Y423500D02*
D03*
Y413500D02*
D03*
X288300Y379800D02*
D03*
Y389800D02*
D03*
X74900Y429300D02*
D03*
Y419300D02*
D03*
Y409300D02*
D03*
X25500Y411500D02*
D03*
Y401500D02*
D03*
Y391500D02*
D03*
Y365600D02*
D03*
Y355600D02*
D03*
Y345600D02*
D03*
X74800Y382900D02*
D03*
Y372900D02*
D03*
Y362900D02*
D03*
X25106Y292098D02*
D03*
Y319145D02*
D03*
Y265292D02*
D03*
X25500Y447757D02*
D03*
Y437757D02*
D03*
X25106Y238800D02*
D03*
D173*
X25500Y190600D02*
D03*
X288400Y443500D02*
D03*
X288300Y399800D02*
D03*
X74900Y399300D02*
D03*
X25500Y381500D02*
D03*
Y335600D02*
D03*
X74800Y352900D02*
D03*
X25106Y282098D02*
D03*
Y309145D02*
D03*
Y255292D02*
D03*
X25500Y427757D02*
D03*
X25106Y228800D02*
D03*
D174*
X302000Y265300D02*
D03*
D175*
Y275300D02*
D03*
D176*
X255019Y265147D02*
D03*
Y268100D02*
D03*
Y262194D02*
D03*
X260683Y338560D02*
D03*
X265014D02*
D03*
X269345D02*
D03*
X260683Y334229D02*
D03*
X265014D02*
D03*
X269345D02*
D03*
X260683Y329898D02*
D03*
X265014D02*
D03*
X269345D02*
D03*
D177*
X71831Y469183D02*
D03*
X123839D02*
D03*
D178*
X234800Y378800D02*
D03*
X229800Y400500D02*
D03*
Y378800D02*
D03*
X36000Y117600D02*
D03*
X188800Y442400D02*
D03*
X204800Y265800D02*
D03*
X216000D02*
D03*
X210600Y278500D02*
D03*
Y271200D02*
D03*
X186900Y266200D02*
D03*
X186800Y284400D02*
D03*
X260200Y185700D02*
D03*
X290500Y206200D02*
D03*
X290700Y214500D02*
D03*
X290900Y223100D02*
D03*
X241800Y130000D02*
D03*
X198200D02*
D03*
X192000Y120600D02*
D03*
X235600Y120700D02*
D03*
X282300D02*
D03*
X289700Y130000D02*
D03*
X277800Y157100D02*
D03*
X230500D02*
D03*
X187000Y157200D02*
D03*
X109100Y173000D02*
D03*
X115500Y183300D02*
D03*
X167400Y435200D02*
D03*
M02*
