G04*
G04 #@! TF.GenerationSoftware,Altium Limited,Altium Designer,19.1.5 (86)*
G04*
G04 Layer_Color=16711935*
%FSLAX25Y25*%
%MOIN*%
G70*
G01*
G75*
%ADD10C,0.01000*%
%ADD179C,0.00118*%
D10*
X298490Y481200D02*
G03*
X298490Y481200I-6890J0D01*
G01*
X29390D02*
G03*
X29390Y481200I-6890J0D01*
G01*
Y24600D02*
G03*
X29390Y24600I-6890J0D01*
G01*
X-248Y15748D02*
G03*
X15500Y0I15748J0D01*
G01*
X312100Y486800D02*
G03*
X296352Y502548I-15748J0D01*
G01*
Y52D02*
G03*
X312100Y15800I0J15748D01*
G01*
X15548Y502548D02*
G03*
X-200Y486800I0J-15748D01*
G01*
Y15796D02*
Y486800D01*
X15548Y502548D02*
X296352D01*
X312100Y15800D02*
Y486800D01*
X15500Y0D02*
X296300D01*
D179*
X284901Y333421D02*
Y334077D01*
X284770Y334208D01*
X284507D01*
X284376Y334077D01*
Y333421D01*
X283589Y334208D02*
X284114D01*
X283589Y333683D01*
Y333552D01*
X283720Y333421D01*
X283982D01*
X284114Y333552D01*
X283327D02*
X283195Y333421D01*
X282933D01*
X282802Y333552D01*
Y334077D01*
X282933Y334208D01*
X283195D01*
X283327Y334077D01*
Y333552D01*
X282015Y334208D02*
X282539D01*
X282015Y333683D01*
Y333552D01*
X282146Y333421D01*
X282408D01*
X282539Y333552D01*
M02*
