M48
;Layer_Color=9474304
;FILE_FORMAT=2:5
INCH,LZ
;TYPE=PLATED
T1F00S00C0.00787
T2F00S00C0.01181
T3F00S00C0.01200
T4F00S00C0.01800
T7F00S00C0.03937
T8F00S00C0.04213
T9F00S00C0.05906
T10F00S00C0.07480
%
T01
X0199442Y0349336
X020141Y0351305
X0203379Y0349336
X0205347Y0351305
X0209284
X0207316Y0349336
Y0353273
X0205347Y0355242
X0209284
X0207316Y035721
X0205347Y0359179
X0209284
X0207316Y0361147
X0203379
X020141Y0359179
Y0355242
X0203379Y0353273
Y035721
X0199442
Y0353273
Y0361147
X0211253
Y035721
Y0353273
Y0349336
X0260683Y033856
X0265014
X0269345
Y0334229
X0265014
X0260683
Y0329898
X0265014
X0269345
T02
X0255019Y0262194
Y0265147
Y02681
T03
X001188Y001156
X002188
X003188
X004188
X005188
X006188
X007188
X008188
X007688Y002156
X006688
X005688
X004688
X003688
X004188Y003156
X005188
X006188
X007188
X008188
X007688Y004156
X006688
X005688
X004688
X003688
X002688
X001688
X002188Y005156
X003188
X004188
X005188
X006188
X007188
X008188
X003188Y003156
X001188
Y005156
X009188
X010188
X011188
X012188
X013188
X014188
X015188
X016188
X017188
X018188
X019188
X020188
X021188
X021688Y004156
X022688
X023688
X023188Y005156
Y003156
X023688Y002156
X022688
X021688
X020688
X021188Y003156
X020188
X019188
X018188
X017188
X016188
X015188
X014188
X013188
X012188
X011188
X010188
X009188
X009688Y004156
X010688
X011688
X012688
X013688
X014688
X015688
X016688
X018688
X020688
X021188Y001156
X022188
X023188
X020188
X019188
X018188
X017188
X016188
X015188
X014188
X013188
X012188
X011188
X010188
X009188
X009688Y002156
X010688
X011688
X012688
X013688
X014688
X015688
X016688
X018688
X008688
Y004156
X024688
X025688
X025188Y005156
X027188
X027688Y004156
X027188Y003156
X027688Y002156
X028188Y001156
X029188
X030188
X030688Y002156
X029688
X030188Y003156
X029188
X029688Y004156
X030688
X030188Y005156
X029188
X027188Y001156
X026188
X025188
X024188
X024688Y002156
X025688
X025188Y003156
X025688Y006156
X024688
X025188Y007156
X026188
X026688Y008156
X027688
X028688
X029688
X030688
X030188Y009156
X029188
X029688Y010156
X030688
X03033Y01057
X030188Y011156
X029188
X028188
X027188
X026188
X025188
X024188
X024688Y012156
X025688
X026188Y013156
X025188
X025688Y014156
X024688
X025188Y015156
X026188
X027188
X028188
X029188
X030188
X030688Y016156
X029688
X028688
X02888Y01684
X029188Y017156
X02886Y01755
X02902Y01834
X0297782Y0179842
X030688Y018156
X030188Y019156
X02974Y01913
X02965Y02034
X030688Y020156
X030188Y021156
X02887Y01984
X02833Y01901
X02738Y02059
X02698
X02658
X02618
X02578
Y02019
Y01979
Y01939
X0255Y01958
X02549Y01999
Y02039
X024688Y020156
X0240854Y0195805
Y0190805
Y0185805
Y0180805
Y0175805
X024688Y018156
X025188Y019156
Y017156
X025688Y016156
X02623Y01621
X02719Y01669
X027688Y016156
X024688
X024188Y015156
X024688Y010156
X025688
X026188Y009156
X025188
X024188
X024688Y008156
X025688
X027688Y006156
X029688
X030688
X030188Y007156
X029188
X029688Y012156
X030688
X030188Y013156
X030688Y014156
X029688
X030188Y017156
X02681Y02027
X02738Y02099
Y02139
X024188Y021156
X023188
X0230854Y0195805
X0235854
Y0190805
X0230854
X0225854
Y0195805
X0220854
X0215854
Y0190805
Y0185805
Y0180805
Y0175805
X0220854
X0225854
X0230854
X0235854
Y0180805
X0230854
X0225854
X0220854
Y0185805
Y0190805
X0225854Y0185805
X0230854
X0235854
X020688Y018156
X019688
X018688
X017688
X016688
X015688
X014688
X015188Y017156
X016188
X018188
X020188
Y019156
X020688Y020156
X019688
X018688
X017688
X016688
X015688
X014688
X013688
X012688
X013188Y019156
X012188
X011188
X0104435Y0192006
X010688Y018156
X009688
X008688
X009188Y017156
X010188
X012188
X012688Y018156
X014188Y017156
Y015156
X015188
X016188
X017188
X018188
X019188
X020188
X021188
X022188
X023188
X021688Y014156
X02096Y01419
X020688Y014156
X021188Y013156
X020188
X020688Y012156
X021688
X022188Y011156
X023188
X021188
X020188
X019188
X018188
X017188
X016188
X015188
X01522Y0098725
X015188Y009156
X014188
X013188
X012188
X011188
X010188
X009188
X009688Y010156
X010688
X011688
X012688
X013688
X014688
X016688
X017188Y009156
X016688Y008156
X015688
X014688
X013688
X012688
X011688
X010688
X009688
X008688
X009188Y007156
X010188
X011188
X012188
X013188
X014188
X015188
X016188
X017188
X016688Y006156
X015688
X014688
X013688
X012688
X011688
X010688
X009688
X008688
Y010156
X009188Y011156
X009688Y012156
X009188Y013156
X009688Y014156
X008688
X009188Y015156
X010188
X011188
X012188
X013188
X015688Y014156
X016688
X017188Y013156
X016188
X015188
X015688Y012156
X016688
X018688Y014156
X018188Y019156
Y021156
X020188
X016188
X015188
X0136885Y0211708
X012188Y021156
X011188
X010188
X009188
X016188Y019156
X020688Y010156
X021688
X021188Y009156
X020188
X020688Y008156
X021688
X021188Y007156
X020188
X019188
X019688Y008156
X018688
Y006156
X020688
X021688
X022688
X023688
X023188Y007156
X008188
X007188
X006188
X005188
X004188
X003188
X002188
X001188
X001688Y008156
X002688
X003688
X004688
X005688
X006188Y009156
X007188
X00722Y00841
X007688Y008156
X008188Y009156
X007688Y010156
X006688
X005688
X004688
X003688
X002688
X001688
X002188Y009156
X003188
X004188
X005188
Y011156
X006188
X007188
X008188
X007688Y014156
X006688
X006188Y015156
X005188
X004188
X004688Y016156
X005688
X006188Y017156
X005188
X004188
X00412Y018
X004188Y019156
X005188
X006188
X0070435Y0191806
Y0199806
X006688Y020156
X0070335Y0207706
X007188Y021156
X008188
X006188
X005188
X005688Y020156
Y018156
X006688
X007688
X008188Y015156
X006188Y013156
X005688Y012156
X004688
X004188Y011156
X001188
X001688Y012156
X001188Y013156
X001688Y014156
X002688
X002188Y015156
X001188
X001688Y016156
X002188Y017156
X001188
X001688Y018156
X001188Y019156
X001688Y020156
X001188Y021156
X003188
Y019156
X004688Y014156
Y006156
X005688
X006688
X007688
X003688
X002688
X001688
X001188Y009156
X001688Y022156
X002688
X003688
X004688
X005688
X006688
X0070235Y0223406
Y0215506
X00634Y02327
X00585Y0233
X006688Y024156
X007188Y025156
X00601Y02514
X005188Y025156
X004188
X00445Y02442
X003688Y024156
X003188Y025156
X003688Y026156
X004688
X00444Y02705
X004188Y027156
X003188
X00191Y02736
X001188Y027156
X001688Y028156
X001188Y029156
X00191Y03004
X001188Y031156
X001688Y032156
X00191Y03271
X001188Y033156
X001688Y034156
X002188Y035156
X003188
X004188
X005188
X006188
X006688Y036156
X005688
X00445Y03611
X003688Y036156
Y034156
X004688
X00452Y03393
X004188Y033156
X00445Y03244
X003688Y032156
X003188Y033156
X005188
X005688Y034156
X006688
X0078489Y03417
X008188Y035156
X0082785Y0312808
X00814Y03054
Y03024
Y02994
X00784
Y03024
Y03054
X00728Y03055
X00695
X00663Y03054
X00633Y03053
X00647Y0303
X0068
X00711Y03031
X0075628Y0297042
X008188Y029156
X007688Y028156
X006688
X006Y02803
X00529Y02798
Y02904
X00444Y02974
X004688Y030156
X003688
X003188Y031156
Y029156
X001688Y026156
X001188Y025156
X00191Y0247
X001688Y024156
X001188Y023156
X003188
X00601Y02657
X006688Y026156
X007688
X007188Y027156
X00632Y0315
X00611Y03179
X0065485Y0323808
X001188Y035156
X001688Y036156
X009188Y035156
X008688Y034156
X00852Y03219
X00863Y03124
X00893
X00923
X00953
X0092985Y0303408
X0086685Y0303608
X00874Y02994
X00844
X009188Y029156
X010188
X0108328Y0296442
X010688Y030156
X011688
X0115485Y0308908
X0110385Y0311708
X0115401Y03183
X0125401
X0125485Y0308808
X0130485Y0312108
X012688Y030156
X013688
X014688
X014188Y029156
X0132927Y02918
X0132827Y02835
X013688Y028156
X0133227Y02753
X01331Y02653
X01329Y02568
X014188Y025156
X0153197Y0251414
X015688Y026156
X0152288Y0268983
X0152588Y0273383
X014188Y027156
X01239Y02729
X01129Y02682
X00974
X009688Y028156
X010688
X012188Y029156
X0120385Y0326308
X012188Y033156
X013188
X014188
X01455Y03399
X013688Y034156
X014188Y035156
X015188
X01543Y03421
X015688Y034156
Y036156
X014688
X013033Y0358787
X0125265Y0358819
X012688Y036156
X01204Y0359211
X0115384Y0358765
X011688Y036156
X0110384Y0358765
X01204Y03504
X011188Y033156
X010188
X01008Y0324008
X014688Y032156
X015688
X01698Y03122
X01733Y03008
X01887
X019188Y029156
X0192Y02845
X01943Y028
Y02762
X01944Y0272
X01943Y02678
X01974Y02697
Y0274
X01973Y02784
Y02824
X02002Y02759
Y02719
X02027Y027
Y0274
Y0278
X020188Y029156
X021188
X021688Y030156
X022688
X023688
X02356Y03088
X02349Y03127
X023188Y031156
X02241Y03088
X02148Y03238
X021188Y033156
X020188
X019188
X01883Y03361
X018188Y033156
X0177Y03282
X01798Y03235
X017188Y033156
Y035156
X018188
X019188
X019688Y034156
X020688
X023688
X023188Y035156
Y033156
Y029156
X02358Y02848
X02356Y02765
X02309Y02799
Y02708
X0239685Y0269886
X0239485Y0265486
X023688Y026156
X0234846Y0246957
X023688Y024156
X0230853Y0241765
X023188Y023156
X023688Y022156
X020688
X019688
X018688
X01863Y02365
X0179053Y0239465
X016688Y024156
X017188Y025156
X017688Y026156
X0178898Y0269218
X017188Y027156
X01683Y02757
X01645
X01644Y02878
X018188Y029156
X0180398Y0278118
X019688Y026156
X020688
X021688
X02173Y02491
X021688Y024156
X0215053Y0236465
X0205053
X020688Y024156
X019688
X016688Y022156
X015688
X014688
X01431Y02363
X014688Y024156
X013688
X012688
X011688
X012188Y023156
X013188
X01356Y02304
X011188Y023156
X010188
X00922Y02287
X0094941Y0215606
X010688Y022156
X011688
X011188Y025156
X010188
X009188
X009688Y024156
X008688
X022188Y027156
X0217898Y0278318
X020688Y030156
X021688Y036156
X024688
X0254085Y0362608
X025688Y036156
X026688
X0268985Y0355008
X0263685Y0354908
X027188Y035156
X0275285Y0357908
X027688Y036156
X0281585Y0357908
X028688Y036156
X029688
X029188Y035156
X0286785Y0346708
X0286685Y0343215
X0287793Y0339516
X0287585Y0334508
X0289585Y0331908
X0279533Y0330277
X0278385Y0334008
X0278985Y0337008
X0281885Y0339108
X0281037Y0320609
X027688Y032156
X0285837Y0321191
X029188Y031156
Y029156
X028188
X0282585Y0283008
X028688Y028156
X029688
X030688
X0303985Y0291008
X030688Y030156
X0277485Y0298808
X02724Y02979
X0272485Y0301608
X027188Y031156
X0264585Y0304408
X0254785Y0305508
X024688Y030156
X02473Y03113
X024188Y031156
Y033156
X025188
X025688Y032156
X0262Y03209
X024688Y034156
X025188Y035156
X024188
Y029156
X0245Y02907
X0248
X025188Y029156
X02538Y02867
X02593Y0282
Y0279
Y0276
Y0273
X0262885Y0263886
X0270185Y0266786
X02709Y02758
X026688Y028156
X028188Y027156
X029188
X029688Y026156
X030688
Y024156
X030188Y023156
X02933Y02339
X02873Y02286
X02833
X02793
X02753Y02287
Y02327
X02793
X02743Y02238
X02703
X02663
X02623
X02644Y02211
X02684
X02724
X02738Y02179
X0276615Y024514
X02656Y02434
X02571
X024688Y024156
X0245885Y0249186
X0250585
X024188Y023156
X029Y02452
X028688Y026156
X0276985Y0260386
X030688Y022156
X030188Y037156
X029188
X028188
X027188
X026188
X025188
X02474Y03746
Y03897
X025188Y039156
X02554Y03896
X025688Y038156
X02552Y03996
X0248708Y0397374
X024405Y03966
X024188Y041156
X025188
X024688Y042156
X025188Y043156
X0255331Y04339
X025688Y044156
X0264531Y04413
X0270632Y04438
X027688Y044156
X0274Y04337
X028188Y043156
X030188
X030688Y044156
X029688
X030188Y045156
X029188
X028188
X027188
X0266918Y0458163
X026688Y046156
X027688
X028688
X029688
X030688
X030188Y047156
X030688Y048156
X030188Y049156
X029188
X028188
X027188
X026188
X025188
X025Y0487
X025688Y048156
X02623Y04801
X026188Y047156
X027188
X028188
X027688Y048156
X0251787Y0469539
X024188Y047156
X024688Y046156
X025297Y045567
X025188Y045156
X024188
X024688Y044156
X024188Y043156
X0266469Y04235
Y04134
X026688Y040156
X029688
X030688
X030188Y041156
X030688Y042156
X029688
X030188Y039156
X029688Y038156
X027688
X0260197Y0455599
X024188Y049156
X023188
X023688Y048156
X022688
X021688
Y046156
X020688
X021188Y045156
X020188
X020688Y044156
X021688
X022688
X023688
X02375Y04319
X023188Y043156
X022188
X02077Y04308
X0203Y04307
X01935Y04305
X019688Y042156
X01987Y04152
X020688Y042156
X021688
X022688
X023688
X023188Y041156
X023688Y040156
X02359Y03972
Y03929
X02227Y03926
Y03961
X02194Y04002
X02147Y04006
X02097Y03998
X02048Y03987
X018688Y040156
X017688
X01798Y03929
X01749Y0391
X0175Y03746
X018188Y037156
X01848Y03813
X020188Y037156
X021188
X022188
X02248Y03786
X02289Y03746
X023188Y037156
X01605Y03737
X015188Y037156
X014188
X01409Y03773
X013188Y037156
X012188
X0124685Y0379908
X0129685Y0383008
X0114785Y0380108
X0109685Y0382708
X0105885Y0377908
X010188Y037156
X009188
X00939Y03783
X009688Y038156
X008688
X00901Y03941
X008688Y040156
X00938Y04029
X009688Y040156
X01007Y03966
X010188Y041156
X0104724Y0413315
X01148Y04214
X01197Y04213
X01247Y04215
X0124778Y0429343
X0129691Y042926
X013188Y043156
X014188
X014688Y044156
X015688
X016688
X016658Y0444487
X01684Y04487
X016188Y045156
X015188
X0150665Y0456054
X0147121
X0143184
X0139641
X0137279Y045881
Y046196
Y0465109
Y0468259
Y0471802
Y0474952
X0140035Y0473377
X0139247Y0478102
X0142791
X0146334
X0149877
X0153027Y0476921
X0154602Y0473771
X015188Y047156
X015972Y0476815
X015688Y048156
X016688
X0167898Y0477509
X0165498Y0471509
X016688Y046156
X0154995Y0461172
X015342Y0458023
X0145234Y0458572
X014188Y045156
X013688Y044156
X012688
X01224Y0437
X01197Y0429889
X0114761Y0429292
X0109561
X010188Y043156
X009188
X00938Y04247
X008688Y042156
Y044156
X009688
X010688
X01123Y04372
X011688Y044156
X012188Y045156
X011188
X010188
X009188
X009688Y046156
X010688
X011688
X012688
X013188Y047156
X013688Y048156
X014688
X01513Y04869
X015188Y049156
X016188
X017188
X018311Y0490409
X0196089Y049023
X019688Y048156
X020188Y047156
X019188
X018188
X017901Y0472409
X017921Y0463009
Y0458109
X017931Y0453409
X018188Y045156
X018688Y046156
X019688Y044156
X0188854Y0422102
X01782Y04242
Y04286
X01728Y04205
Y04175
Y04144
X01767Y04131
X0162Y04147
X01529
X01491Y04178
X014688Y042156
X015688
X01572Y04061
X01642Y03987
X014688Y040156
X013688
X012688
X011688
X0113809Y04026
X0119785Y0397308
X0156Y03803
X017688Y048156
X014188Y049156
X013188
X012188
X011188
X010188
X009188
X009688Y048156
X0097798Y0474492
X010688Y048156
X011688
X012688
X008688
Y046156
X023631Y0462909
X023188Y047156
X007688Y048156
X006688
X005688
X004688
X003688
X004188Y049156
X005188
X006188
X007188
X008188
X007688Y046156
X006688
X005688
X004688
X003688
X002688
X001688
X002188Y045156
X003188
X00443Y04531
X005188Y045156
X006188
X007188
X008188
X007688Y044156
X006688
X005688
X00581Y04378
X006188Y043156
X00581Y04277
X005688Y042156
X0048528Y04208
X003688Y042156
X002688
X001688
X001188Y043156
X001688Y044156
X001188Y045156
Y047156
X003188
X004188
X00494Y04734
X005188Y047156
X006188
X004688Y044156
X003688
X003188Y043156
X005188
Y041156
X006188
X006688Y042156
Y040156
Y038156
X005688
X004688
X00453Y03852
X004188Y037156
X005188
X003188
X002188
X001188
X001688Y038156
X001188Y039156
X001688Y040156
X001188Y041156
X003188
X004188
X00445Y04068
X003688Y040156
X008188Y041156
Y043156
Y037156
X003188Y049156
X002188
X001188
T04
X02418Y013
X02897
X02823Y01207
X02778Y01571
X02602Y01857
X02905Y02062
X02305Y01571
X02356Y01207
X0192Y01206
X01982Y013
X0187Y01572
X01091Y0173
X01155Y01833
X0036Y01176
X01869Y02662
X02048Y02658
X0216
X02106Y02712
Y02785
X01868Y02844
X02909Y02231
X02907Y02145
X02348Y03788
X02298
Y04005
X01888Y04424
X01674Y04352
T07
X0302Y02653
Y02753
T08
X00255Y01906
Y02006
Y02106
X0025106Y02288
Y02388
Y0255292
Y0265292
Y0282098
Y0292098
Y0309145
Y0319145
X00255Y03356
Y03456
Y03556
Y03656
X00748Y03629
Y03529
X02883Y03798
Y03898
Y03998
X02884Y04135
Y04235
Y04335
Y04435
X00749Y04293
Y04193
Y04093
Y03993
X00748Y03829
Y03729
X00255Y03815
Y03915
Y04015
Y04115
Y0427757
Y0437757
Y0447757
T09
X0176812Y0025926
X0196812
X0221662
X0241662
X0266512
X0286512
Y0065926
X0266512
X0241662
X0221662
X0196812
X0176812
X0172193Y0176356
X0192193
Y0216356
X0172193
T10
X0123839Y0469183
X0071831
M30
