G04*
G04 #@! TF.GenerationSoftware,Altium Limited,Altium Designer,19.1.5 (86)*
G04*
G04 Layer_Color=255*
%FSLAX25Y25*%
%MOIN*%
G70*
G01*
G75*
%ADD18R,0.02520X0.02520*%
%ADD19R,0.03937X0.03937*%
%ADD20R,0.03937X0.03150*%
%ADD21R,0.03150X0.03150*%
%ADD22R,0.05906X0.03543*%
%ADD23R,0.01968X0.02362*%
%ADD24R,0.02520X0.02520*%
%ADD25R,0.02165X0.02165*%
%ADD26O,0.07284X0.02362*%
%ADD27R,0.07480X0.12598*%
%ADD28R,0.07480X0.03543*%
%ADD29R,0.03150X0.01575*%
%ADD30O,0.09252X0.01772*%
%ADD31R,0.02362X0.01378*%
%ADD32R,0.07874X0.02362*%
%ADD33R,0.02362X0.07874*%
%ADD34R,0.04331X0.04724*%
%ADD35R,0.07480X0.04331*%
%ADD36R,0.01575X0.01968*%
%ADD37R,0.02165X0.03150*%
%ADD38R,0.05118X0.05512*%
%ADD39R,0.03150X0.03150*%
G04:AMPARAMS|DCode=40|XSize=49.21mil|YSize=29.53mil|CornerRadius=0mil|HoleSize=0mil|Usage=FLASHONLY|Rotation=270.000|XOffset=0mil|YOffset=0mil|HoleType=Round|Shape=Octagon|*
%AMOCTAGOND40*
4,1,8,-0.00738,-0.02461,0.00738,-0.02461,0.01476,-0.01722,0.01476,0.01722,0.00738,0.02461,-0.00738,0.02461,-0.01476,0.01722,-0.01476,-0.01722,-0.00738,-0.02461,0.0*
%
%ADD40OCTAGOND40*%

%ADD41O,0.02953X0.04921*%
%ADD42O,0.03347X0.00787*%
%ADD43O,0.00787X0.03347*%
%ADD44R,0.16929X0.16929*%
%ADD45R,0.02165X0.02165*%
%ADD46R,0.01968X0.01181*%
%ADD47R,0.01181X0.01968*%
%ADD48R,0.05512X0.05118*%
%ADD49R,0.05059X0.05787*%
%ADD50R,0.05906X0.03150*%
%ADD51R,0.07874X0.05709*%
%ADD52R,0.05906X0.09843*%
%ADD53R,0.04134X0.03937*%
%ADD54R,0.08661X0.04134*%
%ADD55R,0.03150X0.03543*%
%ADD56R,0.07874X0.16142*%
%ADD57R,0.10630X0.04331*%
%ADD58R,0.02362X0.01968*%
%ADD59R,0.03543X0.03150*%
%ADD60R,0.07874X0.11811*%
%ADD61R,0.03543X0.03740*%
%ADD62R,0.03937X0.04331*%
%ADD63R,0.07835X0.07835*%
%ADD64R,0.03937X0.02756*%
%ADD65R,0.04331X0.03937*%
%ADD66R,0.02362X0.04724*%
%ADD67R,0.04724X0.01575*%
%ADD68R,0.03543X0.11811*%
%ADD124C,0.07480*%
%ADD133C,0.03900*%
%ADD134C,0.04500*%
%ADD143C,0.16929*%
%ADD144P,0.08118X8X112.5*%
%ADD145C,0.07500*%
%ADD146C,0.01968*%
%ADD147C,0.06299*%
%ADD148C,0.06693*%
%ADD149C,0.04016*%
%ADD150C,0.09843*%
%ADD151C,0.07874*%
%ADD152O,0.07874X0.04724*%
%ADD153O,0.04724X0.04134*%
%ADD154C,0.04685*%
D18*
X123000Y331889D02*
D03*
Y335511D02*
D03*
X336442Y253894D02*
D03*
Y257516D02*
D03*
X127400Y297578D02*
D03*
Y301200D02*
D03*
X269116Y68824D02*
D03*
Y72447D02*
D03*
X256716Y76513D02*
D03*
Y80135D02*
D03*
X262600Y125189D02*
D03*
Y128811D02*
D03*
X257939Y125189D02*
D03*
Y128811D02*
D03*
X218200Y67389D02*
D03*
Y71011D02*
D03*
X346500Y231478D02*
D03*
Y235100D02*
D03*
X346400Y242922D02*
D03*
Y239300D02*
D03*
X171600Y161189D02*
D03*
Y164811D02*
D03*
X268616Y34824D02*
D03*
Y38447D02*
D03*
X256016Y42213D02*
D03*
Y45835D02*
D03*
X349472Y20260D02*
D03*
Y23882D02*
D03*
X345127Y20261D02*
D03*
Y23884D02*
D03*
X217816Y33213D02*
D03*
Y36835D02*
D03*
X133069Y179289D02*
D03*
Y182911D02*
D03*
X151317Y193805D02*
D03*
Y190183D02*
D03*
X147000Y193811D02*
D03*
Y190189D02*
D03*
X138700Y49389D02*
D03*
Y53011D02*
D03*
X332161Y253894D02*
D03*
Y257516D02*
D03*
D19*
X142347Y276400D02*
D03*
X135653D02*
D03*
D20*
X117300Y325650D02*
D03*
Y331950D02*
D03*
D21*
X371260Y177953D02*
D03*
Y171653D02*
D03*
Y114862D02*
D03*
Y108563D02*
D03*
Y157972D02*
D03*
Y151673D02*
D03*
Y135335D02*
D03*
Y129035D02*
D03*
X348425Y119685D02*
D03*
Y113386D02*
D03*
Y155807D02*
D03*
Y162106D02*
D03*
Y135039D02*
D03*
Y141339D02*
D03*
Y182382D02*
D03*
Y176083D02*
D03*
D22*
X262416Y45976D02*
D03*
Y38495D02*
D03*
X263016Y79976D02*
D03*
Y72495D02*
D03*
X339016Y16295D02*
D03*
Y23776D02*
D03*
D23*
X243607Y302900D02*
D03*
X246993D02*
D03*
X243707Y296410D02*
D03*
X247093D02*
D03*
X143807Y219200D02*
D03*
X147193D02*
D03*
X148707Y160100D02*
D03*
X152093D02*
D03*
X172993Y212900D02*
D03*
X169607D02*
D03*
X143800Y207700D02*
D03*
X147186D02*
D03*
X143807Y213400D02*
D03*
X147193D02*
D03*
X151393Y201100D02*
D03*
X148007D02*
D03*
D24*
X138789Y282300D02*
D03*
X142411D02*
D03*
X322311Y242500D02*
D03*
X318689D02*
D03*
X289611Y343400D02*
D03*
X285989D02*
D03*
X219778Y308500D02*
D03*
X223400D02*
D03*
X138789Y286600D02*
D03*
X142411D02*
D03*
X101189Y145100D02*
D03*
X104811D02*
D03*
X72955Y145141D02*
D03*
X69333D02*
D03*
X72840Y107917D02*
D03*
X69218D02*
D03*
X99439Y200108D02*
D03*
X103061D02*
D03*
X96189Y240200D02*
D03*
X99811D02*
D03*
X67379Y235555D02*
D03*
X63757D02*
D03*
X70816Y199824D02*
D03*
X67194D02*
D03*
X138711Y189500D02*
D03*
X135089D02*
D03*
X173211Y206800D02*
D03*
X169589D02*
D03*
X195622Y174700D02*
D03*
X192000D02*
D03*
X190022Y197600D02*
D03*
X186400D02*
D03*
X82211Y31400D02*
D03*
X78589D02*
D03*
X101433Y108460D02*
D03*
X105055D02*
D03*
X322311Y247000D02*
D03*
X318689D02*
D03*
X219869Y312826D02*
D03*
X223491D02*
D03*
X79038Y344435D02*
D03*
X75416D02*
D03*
X16589Y351800D02*
D03*
X20211D02*
D03*
X318689Y251500D02*
D03*
X322311D02*
D03*
X199111Y367200D02*
D03*
X195489D02*
D03*
D25*
X67900Y341700D02*
D03*
Y345243D02*
D03*
X58900Y341228D02*
D03*
Y344772D02*
D03*
X174200Y350528D02*
D03*
Y354072D02*
D03*
X253100Y128772D02*
D03*
Y125228D02*
D03*
X150800Y354072D02*
D03*
Y350528D02*
D03*
X169700Y350528D02*
D03*
Y354072D02*
D03*
X80139Y197379D02*
D03*
Y193836D02*
D03*
X189400Y49457D02*
D03*
Y53000D02*
D03*
X138200Y19457D02*
D03*
Y23000D02*
D03*
X69000Y68672D02*
D03*
Y65128D02*
D03*
X189300Y19528D02*
D03*
Y23072D02*
D03*
X138100Y61643D02*
D03*
Y58100D02*
D03*
X304000Y52257D02*
D03*
Y55800D02*
D03*
X91921Y145361D02*
D03*
Y148904D02*
D03*
X77000Y145028D02*
D03*
Y148572D02*
D03*
X82016Y145064D02*
D03*
Y148607D02*
D03*
X77063Y108134D02*
D03*
Y104590D02*
D03*
X82116Y105535D02*
D03*
Y101992D02*
D03*
X95139Y200279D02*
D03*
Y196736D02*
D03*
X90139Y197179D02*
D03*
Y193636D02*
D03*
X92100Y235728D02*
D03*
Y239272D02*
D03*
X87139Y235685D02*
D03*
Y239229D02*
D03*
X72039Y235536D02*
D03*
Y239079D02*
D03*
X77139Y235536D02*
D03*
Y239079D02*
D03*
X75139Y199979D02*
D03*
Y196436D02*
D03*
X97116Y108507D02*
D03*
Y104964D02*
D03*
X92116Y105235D02*
D03*
Y101692D02*
D03*
X97000Y145328D02*
D03*
Y148872D02*
D03*
D26*
X182382Y23051D02*
D03*
Y28051D02*
D03*
Y33051D02*
D03*
Y38051D02*
D03*
Y43051D02*
D03*
Y48051D02*
D03*
Y53051D02*
D03*
Y58051D02*
D03*
X145571Y23051D02*
D03*
Y28051D02*
D03*
Y33051D02*
D03*
Y38051D02*
D03*
Y43051D02*
D03*
Y48051D02*
D03*
Y53051D02*
D03*
Y58051D02*
D03*
D27*
X225303Y36835D02*
D03*
X225803Y71035D02*
D03*
D28*
X248728Y45891D02*
D03*
Y36835D02*
D03*
Y27780D02*
D03*
X249228Y61980D02*
D03*
Y71035D02*
D03*
Y80090D02*
D03*
D29*
X224437Y256594D02*
D03*
Y254035D02*
D03*
Y251476D02*
D03*
X232902D02*
D03*
Y254035D02*
D03*
Y256594D02*
D03*
D30*
X309984Y236485D02*
D03*
Y238985D02*
D03*
Y241485D02*
D03*
Y243985D02*
D03*
Y246485D02*
D03*
Y248985D02*
D03*
Y251485D02*
D03*
Y253985D02*
D03*
Y256485D02*
D03*
Y258985D02*
D03*
X274354Y236485D02*
D03*
Y238985D02*
D03*
Y241485D02*
D03*
Y243985D02*
D03*
Y246485D02*
D03*
Y248985D02*
D03*
Y251485D02*
D03*
Y253985D02*
D03*
Y256485D02*
D03*
Y258985D02*
D03*
D31*
X232007Y296618D02*
D03*
Y299177D02*
D03*
Y301736D02*
D03*
Y304295D02*
D03*
X223542Y296618D02*
D03*
Y299177D02*
D03*
Y301736D02*
D03*
Y304295D02*
D03*
D32*
X131909Y330346D02*
D03*
Y325622D02*
D03*
Y320898D02*
D03*
Y316173D02*
D03*
Y311449D02*
D03*
Y306724D02*
D03*
X181122D02*
D03*
Y311449D02*
D03*
Y316173D02*
D03*
Y320898D02*
D03*
Y325622D02*
D03*
Y330346D02*
D03*
D33*
X170689Y293929D02*
D03*
X165965D02*
D03*
X161240D02*
D03*
X151791D02*
D03*
X147067D02*
D03*
X142342D02*
D03*
X141358Y343142D02*
D03*
X146083D02*
D03*
X150807D02*
D03*
X160256D02*
D03*
X164980D02*
D03*
X169705D02*
D03*
D34*
X157933Y212943D02*
D03*
X163445D02*
D03*
X157933Y219636D02*
D03*
X163445D02*
D03*
D35*
X294563Y48535D02*
D03*
D36*
X290724Y44402D02*
D03*
X293284D02*
D03*
X295843D02*
D03*
X298402D02*
D03*
X290724Y52669D02*
D03*
X293284D02*
D03*
X295843D02*
D03*
X298402D02*
D03*
D37*
X374378Y207854D02*
D03*
X371228D02*
D03*
X374378Y196831D02*
D03*
X371228D02*
D03*
X368079D02*
D03*
Y207854D02*
D03*
D38*
X67909Y351700D02*
D03*
X56491D02*
D03*
D39*
X211516Y206890D02*
D03*
X205217D02*
D03*
X211417Y199902D02*
D03*
X205118D02*
D03*
X340450Y202300D02*
D03*
X334150D02*
D03*
X367265Y32735D02*
D03*
X360966D02*
D03*
D40*
X102016Y137532D02*
D03*
X100139Y229408D02*
D03*
D41*
X87016Y113532D02*
D03*
X92016D02*
D03*
X97016D02*
D03*
X102016D02*
D03*
X87016Y137532D02*
D03*
X92016D02*
D03*
X97016D02*
D03*
X72016D02*
D03*
X77016D02*
D03*
X82016D02*
D03*
X72016Y113532D02*
D03*
X77016D02*
D03*
X82016D02*
D03*
X85139Y205408D02*
D03*
X90139D02*
D03*
X95139D02*
D03*
X100139D02*
D03*
X85139Y229408D02*
D03*
X90139D02*
D03*
X95139D02*
D03*
X70139D02*
D03*
X75139D02*
D03*
X80139D02*
D03*
X70139Y205408D02*
D03*
X75139D02*
D03*
X80139D02*
D03*
D42*
X158764Y193862D02*
D03*
Y192287D02*
D03*
Y190713D02*
D03*
Y189138D02*
D03*
Y187563D02*
D03*
Y185988D02*
D03*
Y184413D02*
D03*
Y182839D02*
D03*
Y181264D02*
D03*
Y179689D02*
D03*
Y178114D02*
D03*
Y176539D02*
D03*
X181598D02*
D03*
Y178114D02*
D03*
Y179689D02*
D03*
Y181264D02*
D03*
Y182839D02*
D03*
Y184413D02*
D03*
Y185988D02*
D03*
Y187563D02*
D03*
Y189138D02*
D03*
Y190713D02*
D03*
Y192287D02*
D03*
Y193862D02*
D03*
D43*
X161520Y173784D02*
D03*
X163094D02*
D03*
X164669D02*
D03*
X166244D02*
D03*
X167819D02*
D03*
X169394D02*
D03*
X170968D02*
D03*
X172543D02*
D03*
X174118D02*
D03*
X175693D02*
D03*
X177268D02*
D03*
X178842D02*
D03*
Y196618D02*
D03*
X177268D02*
D03*
X175693D02*
D03*
X174118D02*
D03*
X172543D02*
D03*
X170968D02*
D03*
X169394D02*
D03*
X167819D02*
D03*
X166244D02*
D03*
X164669D02*
D03*
X163094D02*
D03*
X161520D02*
D03*
D44*
X170181Y185201D02*
D03*
D45*
X285738Y67535D02*
D03*
X282195D02*
D03*
X219372Y253900D02*
D03*
X215828D02*
D03*
X224500Y262000D02*
D03*
X228043D02*
D03*
X341972Y235200D02*
D03*
X338428D02*
D03*
X341972Y239200D02*
D03*
X338428D02*
D03*
X221257Y244500D02*
D03*
X224800D02*
D03*
X215728Y248300D02*
D03*
X219272D02*
D03*
X306400Y268700D02*
D03*
X309943D02*
D03*
X232928Y246500D02*
D03*
X236472D02*
D03*
X240328Y250500D02*
D03*
X243872D02*
D03*
X188728Y320900D02*
D03*
X192272D02*
D03*
X103022Y195715D02*
D03*
X99479D02*
D03*
X99772Y235800D02*
D03*
X96228D02*
D03*
X63796Y239608D02*
D03*
X67339D02*
D03*
X67268Y195707D02*
D03*
X70811D02*
D03*
X203372Y214600D02*
D03*
X199828D02*
D03*
X158028Y207600D02*
D03*
X161572D02*
D03*
X185943Y64400D02*
D03*
X182400D02*
D03*
X105087Y104135D02*
D03*
X101544D02*
D03*
X104772Y149200D02*
D03*
X101228D02*
D03*
X69344Y149235D02*
D03*
X72887D02*
D03*
X69257Y103542D02*
D03*
X72801D02*
D03*
D46*
X71169Y45900D02*
D03*
X67232D02*
D03*
X71169Y50100D02*
D03*
X67232D02*
D03*
X71237Y54500D02*
D03*
X67300D02*
D03*
X70868Y24200D02*
D03*
X66931D02*
D03*
X70969Y28600D02*
D03*
X67032D02*
D03*
X70969Y32700D02*
D03*
X67032D02*
D03*
D47*
X350800Y235400D02*
D03*
Y231463D02*
D03*
Y238800D02*
D03*
Y242737D02*
D03*
D48*
X70716Y296444D02*
D03*
Y285027D02*
D03*
D49*
X326358Y257400D02*
D03*
X318700D02*
D03*
D50*
X41616Y41535D02*
D03*
Y45866D02*
D03*
Y37205D02*
D03*
Y32874D02*
D03*
Y50197D02*
D03*
Y54528D02*
D03*
Y28543D02*
D03*
Y24213D02*
D03*
D51*
X19175Y68976D02*
D03*
Y14842D02*
D03*
X51852Y68976D02*
D03*
Y14842D02*
D03*
D52*
X285890Y361535D02*
D03*
X278016D02*
D03*
X270142D02*
D03*
X262268D02*
D03*
D53*
X104704Y325600D02*
D03*
D54*
X97716Y319793D02*
D03*
Y331407D02*
D03*
D55*
X124544Y205300D02*
D03*
X130056D02*
D03*
D56*
X301098Y124457D02*
D03*
X300902Y90205D02*
D03*
D57*
X272500Y128433D02*
D03*
Y116228D02*
D03*
D58*
X158000Y228993D02*
D03*
Y225607D02*
D03*
X148500Y173493D02*
D03*
Y170107D02*
D03*
D59*
X125200Y215656D02*
D03*
Y210144D02*
D03*
X130200Y215656D02*
D03*
Y210144D02*
D03*
D60*
X319516Y31378D02*
D03*
Y10905D02*
D03*
D61*
X280866Y60035D02*
D03*
X287165D02*
D03*
D62*
X33298Y162000D02*
D03*
X45502D02*
D03*
X33598Y192000D02*
D03*
X45802D02*
D03*
X33298Y152000D02*
D03*
X45502D02*
D03*
X67598Y39200D02*
D03*
X79802D02*
D03*
X367323Y41058D02*
D03*
X355118D02*
D03*
X25398Y351700D02*
D03*
X37602D02*
D03*
X75416Y351535D02*
D03*
X87621D02*
D03*
X285998Y351200D02*
D03*
X298202D02*
D03*
X354700Y224900D02*
D03*
X342495D02*
D03*
X33698Y222100D02*
D03*
X45902D02*
D03*
X33498Y181900D02*
D03*
X45702D02*
D03*
X33798Y211800D02*
D03*
X46002D02*
D03*
X33398Y172300D02*
D03*
X45602D02*
D03*
X33598Y201900D02*
D03*
X45802D02*
D03*
D63*
X31791Y311063D02*
D03*
D64*
X206462Y236803D02*
D03*
X188746D02*
D03*
X206462Y245268D02*
D03*
X188746D02*
D03*
X206458Y252168D02*
D03*
X188742D02*
D03*
X206458Y260632D02*
D03*
X188742D02*
D03*
D65*
X38516Y255133D02*
D03*
Y267338D02*
D03*
X198800Y342202D02*
D03*
Y329998D02*
D03*
X199100Y362002D02*
D03*
Y349798D02*
D03*
X261000Y351702D02*
D03*
Y339498D02*
D03*
X270200Y351700D02*
D03*
Y339495D02*
D03*
X61516Y285033D02*
D03*
Y297238D02*
D03*
D66*
X139760Y178600D02*
D03*
X143500D02*
D03*
X139957Y153797D02*
D03*
X143500D02*
D03*
D67*
X362898Y242018D02*
D03*
Y239459D02*
D03*
Y236900D02*
D03*
Y234341D02*
D03*
Y231782D02*
D03*
D68*
X369000Y236900D02*
D03*
D124*
X125600Y239600D02*
D03*
D133*
X195500Y312000D02*
D03*
X189800Y306500D02*
D03*
X145500Y351100D02*
D03*
X212900Y36600D02*
D03*
X308299Y136122D02*
D03*
X213500Y71000D02*
D03*
X214317Y236811D02*
D03*
X232900Y241900D02*
D03*
X221400Y269400D02*
D03*
X306300Y273400D02*
D03*
X223228Y222342D02*
D03*
X261800Y309300D02*
D03*
X243700D02*
D03*
X63800Y336400D02*
D03*
X179100Y354100D02*
D03*
X78600Y296400D02*
D03*
X86716Y143235D02*
D03*
X87000Y153000D02*
D03*
X86816Y107635D02*
D03*
X84900Y186200D02*
D03*
X82000Y241700D02*
D03*
X81700Y235900D02*
D03*
X85100Y199800D02*
D03*
X133900Y28400D02*
D03*
X195000Y53000D02*
D03*
X120300Y22900D02*
D03*
X182400Y69700D02*
D03*
X75200Y65100D02*
D03*
X194400Y23100D02*
D03*
X106600Y58000D02*
D03*
X338976Y37697D02*
D03*
X86700Y100200D02*
D03*
X216000Y263100D02*
D03*
D134*
X160200Y351500D02*
D03*
D143*
X357200Y350300D02*
D03*
X365100Y14500D02*
D03*
X22400Y102200D02*
D03*
D144*
X20079Y255059D02*
D03*
X14100Y232000D02*
D03*
D145*
X20079Y265059D02*
D03*
X14100Y152000D02*
D03*
Y162000D02*
D03*
Y172000D02*
D03*
Y192000D02*
D03*
Y212000D02*
D03*
Y222000D02*
D03*
Y202000D02*
D03*
Y182000D02*
D03*
Y142000D02*
D03*
D146*
X294563Y48535D02*
D03*
X291610D02*
D03*
X297516D02*
D03*
D147*
X244079Y351600D02*
D03*
X216521D02*
D03*
X230300Y331915D02*
D03*
D148*
X327441Y51417D02*
D03*
Y71417D02*
D03*
X367441D02*
D03*
Y51417D02*
D03*
D149*
X55413Y362992D02*
D03*
X45413D02*
D03*
X35413D02*
D03*
X65413D02*
D03*
X75413D02*
D03*
X85413D02*
D03*
X25413D02*
D03*
X95413D02*
D03*
X15413D02*
D03*
D150*
X31791Y337067D02*
D03*
Y285059D02*
D03*
D151*
X115600Y229600D02*
D03*
Y249600D02*
D03*
X135600Y229600D02*
D03*
Y249600D02*
D03*
D152*
X369000Y250679D02*
D03*
Y223120D02*
D03*
D153*
X361323Y228140D02*
D03*
Y245660D02*
D03*
D154*
X358957Y107087D02*
D03*
Y116929D02*
D03*
Y138189D02*
D03*
Y128347D02*
D03*
X359154Y160138D02*
D03*
Y150295D02*
D03*
Y169783D02*
D03*
Y179626D02*
D03*
X358228Y207185D02*
D03*
Y197343D02*
D03*
M02*
