G04*
G04 #@! TF.GenerationSoftware,Altium Limited,Altium Designer,19.1.5 (86)*
G04*
G04 Layer_Physical_Order=4*
G04 Layer_Color=16711680*
%FSLAX25Y25*%
%MOIN*%
G70*
G01*
G75*
%ADD12C,0.00600*%
%ADD13C,0.01000*%
%ADD14C,0.00800*%
%ADD124C,0.07480*%
%ADD135C,0.01500*%
%ADD138C,0.01177*%
%ADD143C,0.16929*%
%ADD144P,0.08118X8X112.5*%
%ADD145C,0.07500*%
%ADD146C,0.01968*%
%ADD147C,0.06299*%
%ADD148C,0.06693*%
%ADD149C,0.04016*%
%ADD150C,0.09843*%
%ADD151C,0.07874*%
%ADD152O,0.07874X0.04724*%
%ADD153O,0.04724X0.04134*%
%ADD154C,0.04685*%
%ADD155C,0.02000*%
G36*
X381299Y374040D02*
X381299Y256693D01*
X381594D01*
Y0D01*
X0D01*
X-0Y374040D01*
X381299Y374040D01*
D02*
G37*
%LPC*%
G36*
X95413Y365613D02*
X94735Y365524D01*
X94103Y365262D01*
X93560Y364845D01*
X93144Y364302D01*
X92882Y363670D01*
X92793Y362992D01*
X92882Y362314D01*
X93144Y361682D01*
X93560Y361139D01*
X94103Y360722D01*
X94735Y360461D01*
X95413Y360371D01*
X96092Y360461D01*
X96724Y360722D01*
X97267Y361139D01*
X97683Y361682D01*
X97945Y362314D01*
X98034Y362992D01*
X97945Y363670D01*
X97683Y364302D01*
X97267Y364845D01*
X96724Y365262D01*
X96092Y365524D01*
X95413Y365613D01*
D02*
G37*
G36*
X85413D02*
X84735Y365524D01*
X84103Y365262D01*
X83560Y364845D01*
X83144Y364302D01*
X82882Y363670D01*
X82793Y362992D01*
X82882Y362314D01*
X83144Y361682D01*
X83560Y361139D01*
X84103Y360722D01*
X84735Y360461D01*
X85413Y360371D01*
X86092Y360461D01*
X86724Y360722D01*
X87267Y361139D01*
X87683Y361682D01*
X87945Y362314D01*
X88034Y362992D01*
X87945Y363670D01*
X87683Y364302D01*
X87267Y364845D01*
X86724Y365262D01*
X86092Y365524D01*
X85413Y365613D01*
D02*
G37*
G36*
X75413D02*
X74735Y365524D01*
X74103Y365262D01*
X73560Y364845D01*
X73144Y364302D01*
X72882Y363670D01*
X72793Y362992D01*
X72882Y362314D01*
X73144Y361682D01*
X73560Y361139D01*
X74103Y360722D01*
X74735Y360461D01*
X75413Y360371D01*
X76092Y360461D01*
X76724Y360722D01*
X77267Y361139D01*
X77683Y361682D01*
X77945Y362314D01*
X78034Y362992D01*
X77945Y363670D01*
X77683Y364302D01*
X77267Y364845D01*
X76724Y365262D01*
X76092Y365524D01*
X75413Y365613D01*
D02*
G37*
G36*
X65413D02*
X64735Y365524D01*
X64103Y365262D01*
X63560Y364845D01*
X63144Y364302D01*
X62882Y363670D01*
X62793Y362992D01*
X62882Y362314D01*
X63144Y361682D01*
X63560Y361139D01*
X64103Y360722D01*
X64735Y360461D01*
X65413Y360371D01*
X66092Y360461D01*
X66724Y360722D01*
X67267Y361139D01*
X67683Y361682D01*
X67945Y362314D01*
X68034Y362992D01*
X67945Y363670D01*
X67683Y364302D01*
X67267Y364845D01*
X66724Y365262D01*
X66092Y365524D01*
X65413Y365613D01*
D02*
G37*
G36*
X45413D02*
X44735Y365524D01*
X44103Y365262D01*
X43560Y364845D01*
X43144Y364302D01*
X42882Y363670D01*
X42792Y362992D01*
X42882Y362314D01*
X43144Y361682D01*
X43560Y361139D01*
X44103Y360722D01*
X44735Y360461D01*
X45413Y360371D01*
X46092Y360461D01*
X46724Y360722D01*
X47267Y361139D01*
X47683Y361682D01*
X47945Y362314D01*
X48034Y362992D01*
X47945Y363670D01*
X47683Y364302D01*
X47267Y364845D01*
X46724Y365262D01*
X46092Y365524D01*
X45413Y365613D01*
D02*
G37*
G36*
X25413D02*
X24735Y365524D01*
X24103Y365262D01*
X23560Y364845D01*
X23144Y364302D01*
X22882Y363670D01*
X22793Y362992D01*
X22882Y362314D01*
X23144Y361682D01*
X23560Y361139D01*
X24103Y360722D01*
X24735Y360461D01*
X25413Y360371D01*
X26092Y360461D01*
X26724Y360722D01*
X27267Y361139D01*
X27683Y361682D01*
X27945Y362314D01*
X28034Y362992D01*
X27945Y363670D01*
X27683Y364302D01*
X27267Y364845D01*
X26724Y365262D01*
X26092Y365524D01*
X25413Y365613D01*
D02*
G37*
G36*
X15413D02*
X14735Y365524D01*
X14103Y365262D01*
X13560Y364845D01*
X13144Y364302D01*
X12882Y363670D01*
X12792Y362992D01*
X12882Y362314D01*
X13144Y361682D01*
X13560Y361139D01*
X14103Y360722D01*
X14735Y360461D01*
X15413Y360371D01*
X16092Y360461D01*
X16724Y360722D01*
X17267Y361139D01*
X17683Y361682D01*
X17945Y362314D01*
X18034Y362992D01*
X17945Y363670D01*
X17683Y364302D01*
X17267Y364845D01*
X16724Y365262D01*
X16092Y365524D01*
X15413Y365613D01*
D02*
G37*
G36*
X55413D02*
X54735Y365524D01*
X54103Y365262D01*
X53560Y364845D01*
X53144Y364302D01*
X52882Y363670D01*
X52793Y362992D01*
X52882Y362314D01*
X53144Y361682D01*
X53560Y361139D01*
X54103Y360722D01*
X54735Y360461D01*
X55413Y360371D01*
X56092Y360461D01*
X56494Y360627D01*
X59663Y357458D01*
X59958Y357261D01*
X60306Y357192D01*
X168527D01*
X168553Y357153D01*
X169079Y356802D01*
X169700Y356678D01*
X170321Y356802D01*
X170847Y357153D01*
X171198Y357679D01*
X171322Y358300D01*
X171198Y358921D01*
X170847Y359447D01*
X170321Y359798D01*
X169700Y359922D01*
X169079Y359798D01*
X168553Y359447D01*
X168260Y359008D01*
X60682D01*
X57778Y361911D01*
X57945Y362314D01*
X58034Y362992D01*
X57945Y363670D01*
X57683Y364302D01*
X57267Y364845D01*
X56724Y365262D01*
X56092Y365524D01*
X55413Y365613D01*
D02*
G37*
G36*
X154000Y355722D02*
X153379Y355598D01*
X152853Y355247D01*
X152502Y354721D01*
X152378Y354100D01*
X152502Y353479D01*
X152853Y352953D01*
X153379Y352602D01*
X153677Y352542D01*
X153851Y352508D01*
X153801Y352008D01*
X113000D01*
X112653Y351939D01*
X112358Y351742D01*
X104824Y344208D01*
X89038D01*
X88691Y344139D01*
X88396Y343942D01*
X83362Y338908D01*
X69306D01*
X69147Y339147D01*
X68621Y339498D01*
X68000Y339622D01*
X67379Y339498D01*
X66853Y339147D01*
X66502Y338621D01*
X66378Y338000D01*
X66502Y337379D01*
X66853Y336853D01*
X67379Y336502D01*
X68000Y336378D01*
X68621Y336502D01*
X69147Y336853D01*
X69306Y337092D01*
X83738D01*
X84086Y337161D01*
X84381Y337358D01*
X89415Y342392D01*
X105200D01*
X105547Y342461D01*
X105842Y342658D01*
X113376Y350192D01*
X163794D01*
X163953Y349953D01*
X164479Y349602D01*
X165100Y349478D01*
X165721Y349602D01*
X166247Y349953D01*
X166598Y350479D01*
X166722Y351100D01*
X166598Y351721D01*
X166247Y352247D01*
X165721Y352598D01*
X165100Y352722D01*
X164479Y352598D01*
X163953Y352247D01*
X163794Y352008D01*
X154199D01*
X154149Y352508D01*
X154323Y352542D01*
X154621Y352602D01*
X155147Y352953D01*
X155498Y353479D01*
X155622Y354100D01*
X155498Y354721D01*
X155147Y355247D01*
X154621Y355598D01*
X154000Y355722D01*
D02*
G37*
G36*
X244079Y355372D02*
X243103Y355244D01*
X242193Y354867D01*
X241412Y354268D01*
X240812Y353486D01*
X240436Y352576D01*
X240307Y351600D01*
X240436Y350624D01*
X240812Y349714D01*
X241412Y348933D01*
X242193Y348333D01*
X243103Y347956D01*
X244079Y347828D01*
X245056Y347956D01*
X245966Y348333D01*
X246747Y348933D01*
X247346Y349714D01*
X247723Y350624D01*
X247852Y351600D01*
X247723Y352576D01*
X247346Y353486D01*
X246747Y354268D01*
X245966Y354867D01*
X245056Y355244D01*
X244079Y355372D01*
D02*
G37*
G36*
X20200Y350622D02*
X19579Y350498D01*
X19053Y350147D01*
X18702Y349621D01*
X18578Y349000D01*
X18702Y348379D01*
X19053Y347853D01*
X19579Y347502D01*
X20200Y347378D01*
X20821Y347502D01*
X21347Y347853D01*
X21698Y348379D01*
X21822Y349000D01*
X21698Y349621D01*
X21347Y350147D01*
X20821Y350498D01*
X20200Y350622D01*
D02*
G37*
G36*
X174200Y349622D02*
X173579Y349498D01*
X173053Y349147D01*
X172702Y348621D01*
X172578Y348000D01*
X172702Y347379D01*
X173053Y346853D01*
X173579Y346502D01*
X174200Y346378D01*
X174821Y346502D01*
X175347Y346853D01*
X175698Y347379D01*
X175822Y348000D01*
X175698Y348621D01*
X175347Y349147D01*
X174821Y349498D01*
X174200Y349622D01*
D02*
G37*
G36*
X357200Y359399D02*
X355425Y359224D01*
X353718Y358706D01*
X352145Y357866D01*
X350766Y356734D01*
X349635Y355355D01*
X348794Y353782D01*
X348276Y352075D01*
X348101Y350300D01*
X348276Y348525D01*
X348794Y346818D01*
X349635Y345245D01*
X350766Y343866D01*
X352145Y342735D01*
X353718Y341894D01*
X355425Y341376D01*
X357200Y341201D01*
X358975Y341376D01*
X360682Y341894D01*
X362255Y342735D01*
X363634Y343866D01*
X364766Y345245D01*
X365606Y346818D01*
X366124Y348525D01*
X366299Y350300D01*
X366124Y352075D01*
X365606Y353782D01*
X364766Y355355D01*
X363634Y356734D01*
X362255Y357866D01*
X360682Y358706D01*
X358975Y359224D01*
X357200Y359399D01*
D02*
G37*
G36*
X286000Y342522D02*
X285379Y342398D01*
X284853Y342047D01*
X284502Y341521D01*
X284378Y340900D01*
X284502Y340279D01*
X284853Y339753D01*
X285379Y339402D01*
X286000Y339278D01*
X286621Y339402D01*
X287147Y339753D01*
X287498Y340279D01*
X287622Y340900D01*
X287498Y341521D01*
X287147Y342047D01*
X286621Y342398D01*
X286000Y342522D01*
D02*
G37*
G36*
X59000Y340022D02*
X58379Y339898D01*
X57853Y339547D01*
X57502Y339021D01*
X57378Y338400D01*
X57502Y337779D01*
X57853Y337253D01*
X58379Y336902D01*
X59000Y336778D01*
X59621Y336902D01*
X60147Y337253D01*
X60498Y337779D01*
X60622Y338400D01*
X60498Y339021D01*
X60147Y339547D01*
X59621Y339898D01*
X59000Y340022D01*
D02*
G37*
G36*
X117300Y336222D02*
X116679Y336098D01*
X116153Y335747D01*
X115802Y335221D01*
X115678Y334600D01*
X115802Y333979D01*
X116153Y333453D01*
X116679Y333102D01*
X117300Y332978D01*
X117921Y333102D01*
X118447Y333453D01*
X118798Y333979D01*
X118922Y334600D01*
X118798Y335221D01*
X118447Y335747D01*
X117921Y336098D01*
X117300Y336222D01*
D02*
G37*
G36*
X31791Y342626D02*
X30353Y342437D01*
X29012Y341881D01*
X27860Y340998D01*
X26977Y339847D01*
X26421Y338506D01*
X26232Y337067D01*
X26421Y335628D01*
X26977Y334287D01*
X27860Y333136D01*
X29012Y332252D01*
X30353Y331697D01*
X31791Y331508D01*
X33230Y331697D01*
X34571Y332252D01*
X35722Y333136D01*
X36606Y334287D01*
X37161Y335628D01*
X37351Y337067D01*
X37161Y338506D01*
X36606Y339847D01*
X35722Y340998D01*
X34571Y341881D01*
X33230Y342437D01*
X31791Y342626D01*
D02*
G37*
G36*
X230161Y352722D02*
X229540Y352598D01*
X229014Y352247D01*
X228662Y351721D01*
X228539Y351100D01*
X228662Y350479D01*
X229014Y349953D01*
X229392Y349701D01*
Y335568D01*
X229324Y335559D01*
X228414Y335182D01*
X227632Y334582D01*
X227033Y333801D01*
X226656Y332891D01*
X226528Y331915D01*
X226656Y330939D01*
X227033Y330029D01*
X227632Y329247D01*
X228414Y328648D01*
X229324Y328271D01*
X230300Y328142D01*
X231276Y328271D01*
X232186Y328648D01*
X232967Y329247D01*
X233567Y330029D01*
X233944Y330939D01*
X234072Y331915D01*
X233944Y332891D01*
X233567Y333801D01*
X232967Y334582D01*
X232186Y335182D01*
X231276Y335559D01*
X231208Y335568D01*
Y349887D01*
X231307Y349953D01*
X231659Y350479D01*
X231782Y351100D01*
X231659Y351721D01*
X231307Y352247D01*
X230781Y352598D01*
X230161Y352722D01*
D02*
G37*
G36*
X123000Y331122D02*
X122379Y330998D01*
X121853Y330647D01*
X121502Y330121D01*
X121378Y329500D01*
X121502Y328879D01*
X121853Y328353D01*
X122379Y328002D01*
X123000Y327878D01*
X123621Y328002D01*
X124147Y328353D01*
X124498Y328879D01*
X124622Y329500D01*
X124498Y330121D01*
X124147Y330647D01*
X123621Y330998D01*
X123000Y331122D01*
D02*
G37*
G36*
X228278Y303358D02*
X227658Y303235D01*
X227132Y302883D01*
X226780Y302357D01*
X226657Y301736D01*
X226780Y301116D01*
X227132Y300589D01*
X227658Y300238D01*
X228278Y300114D01*
X228899Y300238D01*
X229425Y300589D01*
X229777Y301116D01*
X229900Y301736D01*
X229777Y302357D01*
X229425Y302883D01*
X228899Y303235D01*
X228278Y303358D01*
D02*
G37*
G36*
X251300Y298022D02*
X250679Y297898D01*
X250153Y297547D01*
X249802Y297021D01*
X249678Y296400D01*
X249802Y295779D01*
X250153Y295253D01*
X250679Y294902D01*
X251300Y294778D01*
X251921Y294902D01*
X252447Y295253D01*
X252798Y295779D01*
X252922Y296400D01*
X252798Y297021D01*
X252447Y297547D01*
X251921Y297898D01*
X251300Y298022D01*
D02*
G37*
G36*
X31791Y290618D02*
X30353Y290429D01*
X29012Y289874D01*
X27860Y288990D01*
X26977Y287839D01*
X26421Y286498D01*
X26232Y285059D01*
X26421Y283620D01*
X26977Y282279D01*
X27860Y281128D01*
X29012Y280244D01*
X30353Y279689D01*
X31791Y279500D01*
X33230Y279689D01*
X34571Y280244D01*
X35722Y281128D01*
X36606Y282279D01*
X37161Y283620D01*
X37351Y285059D01*
X37161Y286498D01*
X36606Y287839D01*
X35722Y288990D01*
X34571Y289874D01*
X33230Y290429D01*
X31791Y290618D01*
D02*
G37*
G36*
X135600Y274722D02*
X134979Y274598D01*
X134453Y274247D01*
X134102Y273721D01*
X133978Y273100D01*
X134102Y272479D01*
X134453Y271953D01*
X134979Y271602D01*
X135600Y271478D01*
X136221Y271602D01*
X136747Y271953D01*
X137098Y272479D01*
X137222Y273100D01*
X137098Y273721D01*
X136747Y274247D01*
X136221Y274598D01*
X135600Y274722D01*
D02*
G37*
G36*
X239499Y289169D02*
X238878Y289046D01*
X238352Y288694D01*
X238000Y288168D01*
X237877Y287547D01*
X238000Y286927D01*
X238352Y286401D01*
X238588Y286243D01*
X238531Y255815D01*
X238031Y255552D01*
X237500Y255657D01*
X236879Y255534D01*
X236353Y255182D01*
X236002Y254656D01*
X235878Y254035D01*
X236002Y253415D01*
X236353Y252889D01*
X236798Y252591D01*
X236800Y252259D01*
X236746Y252071D01*
X236379Y251998D01*
X235853Y251647D01*
X235694Y251408D01*
X233276D01*
X222966Y261718D01*
X223022Y262000D01*
X222898Y262621D01*
X222547Y263147D01*
X222021Y263498D01*
X221400Y263622D01*
X220779Y263498D01*
X220253Y263147D01*
X219902Y262621D01*
X219778Y262000D01*
X219902Y261379D01*
X220253Y260853D01*
X220779Y260502D01*
X221400Y260378D01*
X221682Y260434D01*
X232258Y249858D01*
X232553Y249661D01*
X232900Y249592D01*
X235694D01*
X235853Y249353D01*
X236379Y249002D01*
X237000Y248878D01*
X237621Y249002D01*
X238019Y249268D01*
X238446Y249105D01*
X238518Y249046D01*
X238450Y212427D01*
X208480Y182458D01*
X207938Y182622D01*
X207898Y182821D01*
X207547Y183347D01*
X207021Y183698D01*
X206400Y183822D01*
X205779Y183698D01*
X205253Y183347D01*
X205094Y183108D01*
X197376D01*
X193742Y186742D01*
X193625Y186820D01*
X193777Y187320D01*
X202842D01*
X202953Y187153D01*
X203479Y186802D01*
X204100Y186678D01*
X204721Y186802D01*
X205247Y187153D01*
X205598Y187679D01*
X205722Y188300D01*
X205598Y188921D01*
X205551Y188992D01*
X205818Y189492D01*
X209594D01*
X209753Y189253D01*
X210279Y188902D01*
X210900Y188778D01*
X211521Y188902D01*
X212047Y189253D01*
X212398Y189779D01*
X212522Y190400D01*
X212398Y191021D01*
X212047Y191547D01*
X211521Y191898D01*
X210900Y192022D01*
X210279Y191898D01*
X209753Y191547D01*
X209594Y191308D01*
X191106D01*
X190947Y191547D01*
X190421Y191898D01*
X189800Y192022D01*
X189179Y191898D01*
X188801Y191646D01*
X188346Y191918D01*
X188422Y192300D01*
X188298Y192921D01*
X187947Y193447D01*
X187421Y193798D01*
X186800Y193922D01*
X186179Y193798D01*
X185653Y193447D01*
X185302Y192921D01*
X185178Y192300D01*
X185234Y192018D01*
X183658Y190442D01*
X183461Y190147D01*
X183392Y189800D01*
Y170806D01*
X183153Y170647D01*
X182802Y170121D01*
X182678Y169500D01*
X182802Y168879D01*
X183117Y168408D01*
X183054Y168164D01*
X182920Y167908D01*
X180106D01*
X179947Y168147D01*
X179421Y168498D01*
X178800Y168622D01*
X178179Y168498D01*
X177653Y168147D01*
X177302Y167621D01*
X177178Y167000D01*
X177302Y166379D01*
X177653Y165853D01*
X178179Y165502D01*
X178379Y165462D01*
X178781Y165232D01*
X178742Y164919D01*
X178678Y164600D01*
X178802Y163979D01*
X179153Y163453D01*
X179679Y163102D01*
X180300Y162978D01*
X180614Y163041D01*
X180756Y162924D01*
X180978Y162603D01*
X180878Y162100D01*
X181002Y161479D01*
X181353Y160953D01*
X181879Y160602D01*
X182500Y160478D01*
X183121Y160602D01*
X183647Y160953D01*
X183806Y161192D01*
X185381D01*
X185533Y160692D01*
X185458Y160642D01*
X172024Y147208D01*
X151806D01*
X151647Y147447D01*
X151121Y147798D01*
X150500Y147922D01*
X149879Y147798D01*
X149353Y147447D01*
X149002Y146921D01*
X148878Y146300D01*
X149002Y145679D01*
X149353Y145153D01*
X149879Y144802D01*
X150500Y144678D01*
X151121Y144802D01*
X151647Y145153D01*
X151806Y145392D01*
X172400D01*
X172748Y145461D01*
X173042Y145658D01*
X186476Y159092D01*
X200894D01*
X201053Y158853D01*
X201579Y158502D01*
X202200Y158378D01*
X202821Y158502D01*
X203347Y158853D01*
X203698Y159379D01*
X203822Y160000D01*
X203698Y160621D01*
X203651Y160692D01*
X203725Y160941D01*
X203904Y161213D01*
X204148Y161261D01*
X204442Y161458D01*
X244376Y201392D01*
X327894D01*
X328053Y201153D01*
X328579Y200802D01*
X329200Y200678D01*
X329821Y200802D01*
X330347Y201153D01*
X330698Y201679D01*
X330822Y202300D01*
X330698Y202921D01*
X330347Y203447D01*
X329821Y203798D01*
X329200Y203922D01*
X328579Y203798D01*
X328053Y203447D01*
X327894Y203208D01*
X244000D01*
X243653Y203139D01*
X243358Y202942D01*
X203424Y163008D01*
X183806D01*
X183647Y163247D01*
X183443Y163382D01*
X183595Y163883D01*
X195791D01*
X196138Y163952D01*
X196433Y164148D01*
X242571Y210287D01*
X242768Y210582D01*
X242837Y210929D01*
Y283143D01*
X243076Y283302D01*
X243427Y283828D01*
X243551Y284449D01*
X243427Y285069D01*
X243076Y285595D01*
X242550Y285947D01*
X241929Y286070D01*
X241308Y285947D01*
X241030Y285761D01*
X240537Y285960D01*
X240519Y286065D01*
X240550Y286337D01*
X240646Y286401D01*
X240997Y286927D01*
X241121Y287547D01*
X240997Y288168D01*
X240646Y288694D01*
X240119Y289046D01*
X239499Y289169D01*
D02*
G37*
G36*
X22249Y259400D02*
X17909D01*
X15738Y257229D01*
Y252889D01*
X17909Y250718D01*
X22249D01*
X24419Y252889D01*
Y257229D01*
X22249Y259400D01*
D02*
G37*
G36*
X370575Y253658D02*
X367425D01*
X366654Y253556D01*
X365936Y253259D01*
X365319Y252785D01*
X364846Y252169D01*
X364548Y251450D01*
X364447Y250679D01*
X364548Y249909D01*
X364846Y249190D01*
X365319Y248574D01*
X365936Y248100D01*
X366654Y247803D01*
X367425Y247701D01*
X370575D01*
X371346Y247803D01*
X372064Y248100D01*
X372681Y248574D01*
X373154Y249190D01*
X373452Y249909D01*
X373553Y250679D01*
X373452Y251450D01*
X373154Y252169D01*
X372681Y252785D01*
X372064Y253259D01*
X371346Y253556D01*
X370575Y253658D01*
D02*
G37*
G36*
X63700Y333322D02*
X63079Y333198D01*
X62553Y332847D01*
X62202Y332321D01*
X62078Y331700D01*
X62202Y331079D01*
X62553Y330553D01*
X63079Y330202D01*
X63700Y330078D01*
X63982Y330134D01*
X126858Y267258D01*
X127153Y267061D01*
X127500Y266992D01*
X133524D01*
X151534Y248982D01*
X151478Y248700D01*
X151602Y248079D01*
X151953Y247553D01*
X152479Y247202D01*
X153100Y247078D01*
X153721Y247202D01*
X154247Y247553D01*
X154598Y248079D01*
X154722Y248700D01*
X154598Y249321D01*
X154247Y249847D01*
X153721Y250198D01*
X153100Y250322D01*
X152818Y250266D01*
X134542Y268542D01*
X134248Y268739D01*
X133900Y268808D01*
X127876D01*
X65266Y331418D01*
X65322Y331700D01*
X65198Y332321D01*
X64847Y332847D01*
X64321Y333198D01*
X63700Y333322D01*
D02*
G37*
G36*
X215700Y259022D02*
X215079Y258898D01*
X214553Y258547D01*
X214202Y258021D01*
X214078Y257400D01*
X214202Y256779D01*
X214553Y256253D01*
X215079Y255902D01*
X215700Y255778D01*
X215857Y255809D01*
X222859Y248807D01*
X222778Y248400D01*
X222902Y247779D01*
X223253Y247253D01*
X223779Y246902D01*
X224400Y246778D01*
X225021Y246902D01*
X225547Y247253D01*
X225898Y247779D01*
X226022Y248400D01*
X225898Y249021D01*
X225547Y249547D01*
X225021Y249898D01*
X224400Y250022D01*
X224243Y249991D01*
X217241Y256993D01*
X217322Y257400D01*
X217198Y258021D01*
X216847Y258547D01*
X216321Y258898D01*
X215700Y259022D01*
D02*
G37*
G36*
X213500Y249822D02*
X212879Y249698D01*
X212353Y249347D01*
X212002Y248821D01*
X211878Y248200D01*
X212002Y247579D01*
X212353Y247053D01*
X212879Y246702D01*
X213500Y246578D01*
X214121Y246702D01*
X214647Y247053D01*
X214998Y247579D01*
X215122Y248200D01*
X214998Y248821D01*
X214647Y249347D01*
X214121Y249698D01*
X213500Y249822D01*
D02*
G37*
G36*
X135600Y254167D02*
X134418Y254011D01*
X133317Y253555D01*
X132371Y252829D01*
X131645Y251883D01*
X131189Y250782D01*
X131033Y249600D01*
X131189Y248418D01*
X131645Y247317D01*
X132371Y246371D01*
X133317Y245645D01*
X134418Y245189D01*
X135600Y245033D01*
X136782Y245189D01*
X137883Y245645D01*
X138829Y246371D01*
X139555Y247317D01*
X140011Y248418D01*
X140167Y249600D01*
X140011Y250782D01*
X139555Y251883D01*
X138829Y252829D01*
X137883Y253555D01*
X136782Y254011D01*
X135600Y254167D01*
D02*
G37*
G36*
X115600D02*
X114418Y254011D01*
X113317Y253555D01*
X112371Y252829D01*
X111645Y251883D01*
X111189Y250782D01*
X111033Y249600D01*
X111189Y248418D01*
X111645Y247317D01*
X112371Y246371D01*
X113317Y245645D01*
X114418Y245189D01*
X115600Y245033D01*
X116782Y245189D01*
X117883Y245645D01*
X118829Y246371D01*
X119555Y247317D01*
X120011Y248418D01*
X120167Y249600D01*
X120011Y250782D01*
X119555Y251883D01*
X118829Y252829D01*
X117883Y253555D01*
X116782Y254011D01*
X115600Y254167D01*
D02*
G37*
G36*
X361618Y248340D02*
X361028D01*
X360334Y248249D01*
X359687Y247981D01*
X359132Y247555D01*
X358706Y247000D01*
X358438Y246354D01*
X358347Y245660D01*
X358438Y244966D01*
X358706Y244320D01*
X359132Y243764D01*
X359687Y243338D01*
X360334Y243071D01*
X361028Y242979D01*
X361618D01*
X362312Y243071D01*
X362958Y243338D01*
X363513Y243764D01*
X363939Y244320D01*
X364207Y244966D01*
X364299Y245660D01*
X364207Y246354D01*
X363939Y247000D01*
X363513Y247555D01*
X362958Y247981D01*
X362312Y248249D01*
X361618Y248340D01*
D02*
G37*
G36*
X219100Y246122D02*
X218479Y245998D01*
X217953Y245647D01*
X217602Y245121D01*
X217478Y244500D01*
X217602Y243879D01*
X217953Y243353D01*
X218479Y243002D01*
X219100Y242878D01*
X219721Y243002D01*
X220247Y243353D01*
X220598Y243879D01*
X220722Y244500D01*
X220598Y245121D01*
X220247Y245647D01*
X219721Y245998D01*
X219100Y246122D01*
D02*
G37*
G36*
X291406Y251302D02*
X290785Y251179D01*
X290259Y250827D01*
X289907Y250301D01*
X289784Y249680D01*
X289907Y249060D01*
X290259Y248534D01*
X290785Y248182D01*
X291406Y248059D01*
X291687Y248115D01*
X296275Y243526D01*
X296570Y243330D01*
X296917Y243261D01*
X299942D01*
X300101Y243022D01*
X300627Y242670D01*
X301248Y242547D01*
X301869Y242670D01*
X302395Y243022D01*
X302746Y243548D01*
X302870Y244168D01*
X302746Y244789D01*
X302395Y245315D01*
X301869Y245667D01*
X301248Y245790D01*
X300627Y245667D01*
X300101Y245315D01*
X299942Y245076D01*
X297293D01*
X292971Y249399D01*
X293027Y249680D01*
X292904Y250301D01*
X292552Y250827D01*
X292026Y251179D01*
X291406Y251302D01*
D02*
G37*
G36*
X336100Y240822D02*
X335479Y240698D01*
X335036Y240402D01*
X334000D01*
X333540Y240311D01*
X333150Y240050D01*
X331402Y238302D01*
X330879Y238198D01*
X330353Y237847D01*
X330002Y237321D01*
X329878Y236700D01*
X330002Y236079D01*
X330353Y235553D01*
X330879Y235202D01*
X331500Y235078D01*
X332121Y235202D01*
X332647Y235553D01*
X332998Y236079D01*
X333102Y236602D01*
X334498Y237998D01*
X335036D01*
X335479Y237702D01*
X336100Y237578D01*
X336721Y237702D01*
X337247Y238053D01*
X337598Y238579D01*
X337722Y239200D01*
X337598Y239821D01*
X337247Y240347D01*
X336721Y240698D01*
X336100Y240822D01*
D02*
G37*
G36*
X125600Y243968D02*
X124469Y243819D01*
X123416Y243383D01*
X122511Y242689D01*
X121817Y241784D01*
X121381Y240731D01*
X121232Y239600D01*
X121381Y238470D01*
X121817Y237416D01*
X122511Y236511D01*
X123416Y235817D01*
X124469Y235381D01*
X125600Y235232D01*
X126731Y235381D01*
X127784Y235817D01*
X128689Y236511D01*
X129383Y237416D01*
X129819Y238470D01*
X129968Y239600D01*
X129819Y240731D01*
X129383Y241784D01*
X128689Y242689D01*
X127784Y243383D01*
X126731Y243819D01*
X125600Y243968D01*
D02*
G37*
G36*
X215200Y343822D02*
X214579Y343698D01*
X214053Y343347D01*
X213702Y342821D01*
X213578Y342200D01*
X213702Y341579D01*
X214053Y341053D01*
X214348Y340856D01*
Y304904D01*
X178122Y268678D01*
X177925Y268383D01*
X177856Y268036D01*
Y246240D01*
X157958Y226342D01*
X157761Y226047D01*
X157692Y225700D01*
Y207395D01*
X154363Y204066D01*
X154083Y204011D01*
X153789Y203814D01*
X145949Y195974D01*
X145752Y195679D01*
X145683Y195332D01*
Y192012D01*
X145183Y191726D01*
X144700Y191822D01*
X144079Y191698D01*
X143553Y191347D01*
X143202Y190821D01*
X143078Y190200D01*
X143202Y189579D01*
X143553Y189053D01*
X144079Y188702D01*
X144700Y188578D01*
X144941Y188626D01*
X145429Y188284D01*
X145466Y187950D01*
X144158Y186642D01*
X143961Y186347D01*
X143892Y186000D01*
Y178500D01*
X143961Y178153D01*
X144158Y177858D01*
X146058Y175958D01*
X146353Y175761D01*
X146700Y175692D01*
X149400D01*
X149748Y175761D01*
X150042Y175958D01*
X152218Y178134D01*
X152500Y178078D01*
X153121Y178202D01*
X153647Y178553D01*
X153998Y179079D01*
X154122Y179700D01*
X153998Y180321D01*
X153647Y180847D01*
X153121Y181198D01*
X152500Y181322D01*
X151879Y181198D01*
X151780Y181132D01*
X151318Y181323D01*
X151298Y181421D01*
X150947Y181947D01*
X150708Y182106D01*
Y194798D01*
X154224Y198313D01*
X154780Y198162D01*
X155053Y197753D01*
X155579Y197402D01*
X156200Y197278D01*
X156821Y197402D01*
X157347Y197753D01*
X157698Y198279D01*
X157822Y198900D01*
X157698Y199521D01*
X157357Y200031D01*
X157533Y200149D01*
X164542Y207158D01*
X164739Y207453D01*
X164808Y207800D01*
Y222124D01*
X169064Y226380D01*
X169525Y226133D01*
X169478Y225900D01*
X169602Y225279D01*
X169953Y224753D01*
X170479Y224402D01*
X171100Y224278D01*
X171490Y223908D01*
Y205230D01*
X171007Y205070D01*
X170933Y205118D01*
X170647Y205547D01*
X170121Y205898D01*
X169500Y206022D01*
X168879Y205898D01*
X168353Y205547D01*
X168002Y205021D01*
X167878Y204400D01*
X168002Y203779D01*
X168353Y203253D01*
X168879Y202902D01*
X169500Y202778D01*
X170121Y202902D01*
X170480Y203142D01*
X170897Y203092D01*
X171067Y202982D01*
X171353Y202553D01*
X171879Y202202D01*
X172500Y202078D01*
X173121Y202202D01*
X173151Y202222D01*
X173790Y202048D01*
X173952Y201806D01*
X174478Y201454D01*
X175098Y201331D01*
X175719Y201454D01*
X176245Y201806D01*
X176549Y202261D01*
X176821Y202300D01*
X177092Y202261D01*
X177397Y201806D01*
X177923Y201454D01*
X178543Y201331D01*
X179164Y201454D01*
X179690Y201806D01*
X180042Y202332D01*
X180165Y202953D01*
X180146Y203048D01*
X180293Y203168D01*
X180598Y203028D01*
X180769Y202910D01*
X180884Y202332D01*
X181235Y201806D01*
X181761Y201454D01*
X182382Y201331D01*
X183002Y201454D01*
X183529Y201806D01*
X183880Y202332D01*
X184004Y202953D01*
X183948Y203234D01*
X186695Y205982D01*
X197611D01*
X197771Y205743D01*
X198297Y205392D01*
X198917Y205268D01*
X199538Y205392D01*
X200064Y205743D01*
X200416Y206269D01*
X200539Y206890D01*
X200416Y207510D01*
X200064Y208036D01*
X199538Y208388D01*
X198917Y208511D01*
X198297Y208388D01*
X197771Y208036D01*
X197611Y207798D01*
X186319D01*
X185971Y207729D01*
X185677Y207532D01*
X182664Y204519D01*
X182382Y204574D01*
X182080Y204514D01*
X181834Y204975D01*
X188155Y211297D01*
X224016D01*
X224363Y211366D01*
X224658Y211563D01*
X235808Y222713D01*
X235925Y222689D01*
X236546Y222813D01*
X237072Y223164D01*
X237423Y223690D01*
X237547Y224311D01*
X237423Y224932D01*
X237072Y225458D01*
X236546Y225809D01*
X235925Y225933D01*
X235305Y225809D01*
X234778Y225458D01*
X234427Y224932D01*
X234303Y224311D01*
X234392Y223865D01*
X223640Y213113D01*
X198565D01*
X198323Y213613D01*
X198546Y213946D01*
X198669Y214567D01*
X198546Y215188D01*
X198194Y215714D01*
X197668Y216065D01*
X197047Y216189D01*
X196427Y216065D01*
X195900Y215714D01*
X195675Y215376D01*
X186713D01*
X186365Y215307D01*
X186071Y215111D01*
X175462Y204502D01*
X175098Y204574D01*
X174478Y204451D01*
X174447Y204431D01*
X173808Y204605D01*
X173647Y204847D01*
X173510Y204938D01*
Y224500D01*
X173433Y224886D01*
X173214Y225214D01*
X172690Y225739D01*
X172722Y225900D01*
X172626Y226382D01*
X172912Y226883D01*
X189845D01*
X190093Y226511D01*
X190620Y226159D01*
X191240Y226036D01*
X191861Y226159D01*
X192387Y226511D01*
X192738Y227037D01*
X192862Y227658D01*
X192738Y228278D01*
X192713Y228316D01*
X192980Y228816D01*
X207230D01*
X207577Y228886D01*
X207872Y229082D01*
X214035Y235245D01*
X214317Y235189D01*
X214937Y235313D01*
X215463Y235664D01*
X215623Y235903D01*
X224911D01*
X225258Y235972D01*
X225553Y236169D01*
X229442Y240058D01*
X229639Y240353D01*
X229708Y240700D01*
Y244927D01*
X229747Y244953D01*
X230098Y245479D01*
X230222Y246100D01*
X230098Y246721D01*
X229747Y247247D01*
X229221Y247598D01*
X228600Y247722D01*
X227979Y247598D01*
X227453Y247247D01*
X227102Y246721D01*
X226978Y246100D01*
X227102Y245479D01*
X227453Y244953D01*
X227892Y244660D01*
Y241076D01*
X224535Y237719D01*
X215623D01*
X215463Y237958D01*
X214937Y238309D01*
X214317Y238433D01*
X213696Y238309D01*
X213170Y237958D01*
X212818Y237432D01*
X212695Y236811D01*
X212751Y236529D01*
X206854Y230632D01*
X166800D01*
X166453Y230563D01*
X166158Y230366D01*
X160758Y224967D01*
X160561Y224672D01*
X160492Y224324D01*
Y207976D01*
X160008Y207492D01*
X159508Y207699D01*
Y225324D01*
X179406Y245222D01*
X179603Y245517D01*
X179672Y245864D01*
Y267660D01*
X215898Y303886D01*
X216095Y304180D01*
X216164Y304528D01*
Y340931D01*
X216347Y341053D01*
X216698Y341579D01*
X216822Y342200D01*
X216698Y342821D01*
X216347Y343347D01*
X215821Y343698D01*
X215200Y343822D01*
D02*
G37*
G36*
X340300Y259222D02*
X339679Y259098D01*
X339153Y258747D01*
X338802Y258221D01*
X338678Y257600D01*
X338802Y256979D01*
X339153Y256453D01*
X339188Y256430D01*
Y248700D01*
X339188Y248700D01*
X339273Y248274D01*
X339514Y247914D01*
X355587Y231841D01*
X355578Y231800D01*
X355702Y231179D01*
X356053Y230653D01*
X356579Y230302D01*
X357200Y230178D01*
X357821Y230302D01*
X358347Y230653D01*
X358698Y231179D01*
X358822Y231800D01*
X358698Y232421D01*
X358347Y232947D01*
X357821Y233298D01*
X357200Y233422D01*
X357159Y233414D01*
X341412Y249161D01*
Y256430D01*
X341447Y256453D01*
X341798Y256979D01*
X341922Y257600D01*
X341798Y258221D01*
X341447Y258747D01*
X340921Y259098D01*
X340300Y259222D01*
D02*
G37*
G36*
X361618Y230821D02*
X361028D01*
X360334Y230729D01*
X359687Y230462D01*
X359132Y230035D01*
X358706Y229480D01*
X358438Y228834D01*
X358347Y228140D01*
X358438Y227446D01*
X358706Y226800D01*
X359132Y226245D01*
X359687Y225819D01*
X360334Y225551D01*
X361028Y225460D01*
X361618D01*
X362312Y225551D01*
X362958Y225819D01*
X363513Y226245D01*
X363939Y226800D01*
X364207Y227446D01*
X364299Y228140D01*
X364207Y228834D01*
X363939Y229480D01*
X363513Y230035D01*
X362958Y230462D01*
X362312Y230729D01*
X361618Y230821D01*
D02*
G37*
G36*
X135600Y234167D02*
X134418Y234011D01*
X133317Y233555D01*
X132371Y232829D01*
X131645Y231883D01*
X131189Y230782D01*
X131033Y229600D01*
X131189Y228418D01*
X131645Y227317D01*
X132371Y226371D01*
X133317Y225645D01*
X134418Y225189D01*
X135600Y225033D01*
X136782Y225189D01*
X137883Y225645D01*
X138829Y226371D01*
X139555Y227317D01*
X140011Y228418D01*
X140167Y229600D01*
X140011Y230782D01*
X139555Y231883D01*
X138829Y232829D01*
X137883Y233555D01*
X136782Y234011D01*
X135600Y234167D01*
D02*
G37*
G36*
X115600D02*
X114418Y234011D01*
X113317Y233555D01*
X112371Y232829D01*
X111645Y231883D01*
X111189Y230782D01*
X111033Y229600D01*
X111189Y228418D01*
X111645Y227317D01*
X112371Y226371D01*
X113317Y225645D01*
X114418Y225189D01*
X115600Y225033D01*
X116782Y225189D01*
X117883Y225645D01*
X118829Y226371D01*
X119555Y227317D01*
X120011Y228418D01*
X120167Y229600D01*
X120011Y230782D01*
X119555Y231883D01*
X118829Y232829D01*
X117883Y233555D01*
X116782Y234011D01*
X115600Y234167D01*
D02*
G37*
G36*
X85139Y226129D02*
X84519Y226006D01*
X83992Y225654D01*
X83641Y225128D01*
X83517Y224507D01*
X83641Y223887D01*
X83992Y223361D01*
X84519Y223009D01*
X85139Y222886D01*
X85760Y223009D01*
X86286Y223361D01*
X86638Y223887D01*
X86761Y224507D01*
X86638Y225128D01*
X86286Y225654D01*
X85760Y226006D01*
X85139Y226129D01*
D02*
G37*
G36*
X370575Y226099D02*
X367425D01*
X366654Y225997D01*
X365936Y225700D01*
X365319Y225226D01*
X364846Y224610D01*
X364548Y223891D01*
X364447Y223120D01*
X364548Y222350D01*
X364846Y221631D01*
X365319Y221014D01*
X365936Y220541D01*
X366654Y220244D01*
X367425Y220142D01*
X370575D01*
X371346Y220244D01*
X372064Y220541D01*
X372681Y221014D01*
X373154Y221631D01*
X373452Y222350D01*
X373553Y223120D01*
X373452Y223891D01*
X373154Y224610D01*
X372681Y225226D01*
X372064Y225700D01*
X371346Y225997D01*
X370575Y226099D01*
D02*
G37*
G36*
X14100Y226378D02*
X12967Y226229D01*
X11911Y225792D01*
X11004Y225096D01*
X10308Y224189D01*
X9871Y223133D01*
X9722Y222000D01*
X9871Y220867D01*
X10308Y219811D01*
X11004Y218904D01*
X11911Y218209D01*
X12967Y217771D01*
X14100Y217622D01*
X15233Y217771D01*
X16289Y218209D01*
X17196Y218904D01*
X17891Y219811D01*
X18329Y220867D01*
X18478Y222000D01*
X18329Y223133D01*
X17891Y224189D01*
X17196Y225096D01*
X16289Y225792D01*
X15233Y226229D01*
X14100Y226378D01*
D02*
G37*
G36*
X105100Y262433D02*
X104255Y262265D01*
X103539Y261786D01*
X103060Y261070D01*
X102892Y260225D01*
Y218375D01*
X103060Y217530D01*
X103539Y216814D01*
X104255Y216335D01*
X105100Y216167D01*
X105945Y216335D01*
X106661Y216814D01*
X107140Y217530D01*
X107308Y218375D01*
Y260225D01*
X107140Y261070D01*
X106661Y261786D01*
X105945Y262265D01*
X105100Y262433D01*
D02*
G37*
G36*
X89970Y216112D02*
X89349Y215988D01*
X88823Y215637D01*
X88664Y215398D01*
X79522D01*
X79174Y215329D01*
X78880Y215132D01*
X74308Y210561D01*
X64293D01*
X64133Y210799D01*
X63607Y211151D01*
X62987Y211274D01*
X62366Y211151D01*
X61840Y210799D01*
X61488Y210273D01*
X61365Y209653D01*
X61488Y209032D01*
X61840Y208506D01*
X62366Y208154D01*
X62987Y208031D01*
X63607Y208154D01*
X64133Y208506D01*
X64293Y208745D01*
X74684D01*
X75032Y208814D01*
X75326Y209011D01*
X79898Y213582D01*
X88664D01*
X88823Y213344D01*
X89349Y212992D01*
X89970Y212868D01*
X90591Y212992D01*
X91117Y213344D01*
X91468Y213870D01*
X91592Y214490D01*
X91468Y215111D01*
X91117Y215637D01*
X90591Y215988D01*
X89970Y216112D01*
D02*
G37*
G36*
X14100Y216378D02*
X12967Y216229D01*
X11911Y215792D01*
X11004Y215096D01*
X10308Y214189D01*
X9871Y213133D01*
X9722Y212000D01*
X9871Y210867D01*
X10308Y209811D01*
X11004Y208904D01*
X11911Y208208D01*
X12967Y207771D01*
X14100Y207622D01*
X15233Y207771D01*
X16289Y208208D01*
X17196Y208904D01*
X17891Y209811D01*
X18329Y210867D01*
X18478Y212000D01*
X18329Y213133D01*
X17891Y214189D01*
X17196Y215096D01*
X16289Y215792D01*
X15233Y216229D01*
X14100Y216378D01*
D02*
G37*
G36*
X358228Y210143D02*
X357463Y210043D01*
X356749Y209747D01*
X356136Y209277D01*
X355666Y208664D01*
X355371Y207951D01*
X355270Y207185D01*
X355371Y206419D01*
X355666Y205706D01*
X356136Y205093D01*
X356749Y204623D01*
X357463Y204328D01*
X358228Y204227D01*
X358994Y204328D01*
X359707Y204623D01*
X360320Y205093D01*
X360790Y205706D01*
X361086Y206419D01*
X361187Y207185D01*
X361086Y207951D01*
X360790Y208664D01*
X360320Y209277D01*
X359707Y209747D01*
X358994Y210043D01*
X358228Y210143D01*
D02*
G37*
G36*
X163000Y204122D02*
X162379Y203998D01*
X161853Y203647D01*
X161502Y203121D01*
X161378Y202500D01*
X161502Y201879D01*
X161853Y201353D01*
X162379Y201002D01*
X163000Y200878D01*
X163621Y201002D01*
X164147Y201353D01*
X164498Y201879D01*
X164622Y202500D01*
X164498Y203121D01*
X164147Y203647D01*
X163621Y203998D01*
X163000Y204122D01*
D02*
G37*
G36*
X186811Y204673D02*
X186190Y204549D01*
X185664Y204198D01*
X185313Y203672D01*
X185189Y203051D01*
X185313Y202431D01*
X185664Y201905D01*
X185687Y201890D01*
X185714Y201743D01*
X185651Y201312D01*
X185253Y201047D01*
X184902Y200521D01*
X184778Y199900D01*
X184902Y199279D01*
X185253Y198753D01*
X185779Y198402D01*
X186400Y198278D01*
X187021Y198402D01*
X187547Y198753D01*
X187898Y199279D01*
X188022Y199900D01*
X187898Y200521D01*
X187547Y201047D01*
X187524Y201062D01*
X187497Y201208D01*
X187560Y201639D01*
X187958Y201905D01*
X188117Y202143D01*
X190527D01*
X193411Y199259D01*
X193705Y199063D01*
X194053Y198994D01*
X197217D01*
X197377Y198755D01*
X197903Y198403D01*
X198524Y198280D01*
X199144Y198403D01*
X199670Y198755D01*
X200022Y199281D01*
X200145Y199902D01*
X200022Y200522D01*
X199670Y201048D01*
X199144Y201400D01*
X198524Y201523D01*
X197903Y201400D01*
X197377Y201048D01*
X197217Y200810D01*
X194429D01*
X191545Y203693D01*
X191251Y203890D01*
X190903Y203959D01*
X188117D01*
X187958Y204198D01*
X187432Y204549D01*
X186811Y204673D01*
D02*
G37*
G36*
X14100Y206378D02*
X12967Y206229D01*
X11911Y205791D01*
X11004Y205096D01*
X10308Y204189D01*
X9871Y203133D01*
X9722Y202000D01*
X9871Y200867D01*
X10308Y199811D01*
X11004Y198904D01*
X11911Y198208D01*
X12967Y197771D01*
X14100Y197622D01*
X15233Y197771D01*
X16289Y198208D01*
X17196Y198904D01*
X17891Y199811D01*
X18329Y200867D01*
X18478Y202000D01*
X18329Y203133D01*
X17891Y204189D01*
X17196Y205096D01*
X16289Y205791D01*
X15233Y206229D01*
X14100Y206378D01*
D02*
G37*
G36*
X198300Y196122D02*
X197679Y195998D01*
X197153Y195647D01*
X196994Y195408D01*
X193406D01*
X193247Y195647D01*
X192721Y195998D01*
X192100Y196122D01*
X191479Y195998D01*
X190953Y195647D01*
X190602Y195121D01*
X190478Y194500D01*
X190602Y193879D01*
X190953Y193353D01*
X191479Y193002D01*
X192100Y192878D01*
X192721Y193002D01*
X193247Y193353D01*
X193406Y193592D01*
X196994D01*
X197153Y193353D01*
X197679Y193002D01*
X198300Y192878D01*
X198921Y193002D01*
X199447Y193353D01*
X199798Y193879D01*
X199922Y194500D01*
X199798Y195121D01*
X199447Y195647D01*
X198921Y195998D01*
X198300Y196122D01*
D02*
G37*
G36*
X358228Y200301D02*
X357463Y200200D01*
X356749Y199905D01*
X356136Y199434D01*
X355666Y198822D01*
X355371Y198108D01*
X355270Y197343D01*
X355371Y196577D01*
X355666Y195863D01*
X356136Y195251D01*
X356749Y194781D01*
X357463Y194485D01*
X358228Y194384D01*
X358994Y194485D01*
X359707Y194781D01*
X360320Y195251D01*
X360790Y195863D01*
X361086Y196577D01*
X361187Y197343D01*
X361086Y198108D01*
X360790Y198822D01*
X360320Y199434D01*
X359707Y199905D01*
X358994Y200200D01*
X358228Y200301D01*
D02*
G37*
G36*
X14100Y196378D02*
X12967Y196229D01*
X11911Y195791D01*
X11004Y195096D01*
X10308Y194189D01*
X9871Y193133D01*
X9722Y192000D01*
X9871Y190867D01*
X10308Y189811D01*
X11004Y188904D01*
X11911Y188208D01*
X12967Y187771D01*
X14100Y187622D01*
X15233Y187771D01*
X16289Y188208D01*
X17196Y188904D01*
X17891Y189811D01*
X18329Y190867D01*
X18478Y192000D01*
X18329Y193133D01*
X17891Y194189D01*
X17196Y195096D01*
X16289Y195791D01*
X15233Y196229D01*
X14100Y196378D01*
D02*
G37*
G36*
Y186378D02*
X12967Y186229D01*
X11911Y185792D01*
X11004Y185096D01*
X10308Y184189D01*
X9871Y183133D01*
X9722Y182000D01*
X9871Y180867D01*
X10308Y179811D01*
X11004Y178904D01*
X11911Y178208D01*
X12967Y177771D01*
X14100Y177622D01*
X15233Y177771D01*
X16289Y178208D01*
X17196Y178904D01*
X17891Y179811D01*
X18329Y180867D01*
X18478Y182000D01*
X18329Y183133D01*
X17891Y184189D01*
X17196Y185096D01*
X16289Y185792D01*
X15233Y186229D01*
X14100Y186378D01*
D02*
G37*
G36*
X359154Y182584D02*
X358388Y182484D01*
X357674Y182188D01*
X357062Y181718D01*
X356592Y181105D01*
X356296Y180392D01*
X356195Y179626D01*
X356296Y178860D01*
X356592Y178147D01*
X357062Y177534D01*
X357674Y177064D01*
X358388Y176768D01*
X359154Y176668D01*
X359919Y176768D01*
X360633Y177064D01*
X361245Y177534D01*
X361716Y178147D01*
X362011Y178860D01*
X362112Y179626D01*
X362011Y180392D01*
X361716Y181105D01*
X361245Y181718D01*
X360633Y182188D01*
X359919Y182484D01*
X359154Y182584D01*
D02*
G37*
G36*
X70239Y226029D02*
X69619Y225906D01*
X69093Y225554D01*
X68741Y225028D01*
X68617Y224408D01*
X68741Y223787D01*
X69093Y223261D01*
X69619Y222909D01*
X70239Y222786D01*
X70860Y222909D01*
X70916Y222947D01*
X73108Y220754D01*
X72944Y220212D01*
X72795Y220182D01*
X72269Y219831D01*
X71918Y219305D01*
X71794Y218684D01*
X71850Y218403D01*
X70856Y217408D01*
X66606D01*
X66447Y217647D01*
X65921Y217998D01*
X65300Y218122D01*
X64679Y217998D01*
X64153Y217647D01*
X63802Y217121D01*
X63678Y216500D01*
X63802Y215879D01*
X64153Y215353D01*
X64679Y215002D01*
X65300Y214878D01*
X65921Y215002D01*
X66447Y215353D01*
X66606Y215592D01*
X71232D01*
X71579Y215661D01*
X71874Y215858D01*
X73134Y217118D01*
X73416Y217062D01*
X74037Y217186D01*
X74563Y217537D01*
X74914Y218063D01*
X74944Y218212D01*
X75486Y218376D01*
X76078Y217785D01*
X76372Y217588D01*
X76719Y217519D01*
X94712D01*
X101892Y210339D01*
Y194300D01*
X101961Y193953D01*
X102158Y193658D01*
X122308Y173508D01*
X122101Y173008D01*
X119931D01*
X110128Y182811D01*
X110184Y183093D01*
X110060Y183713D01*
X109709Y184239D01*
X109183Y184591D01*
X108562Y184714D01*
X107941Y184591D01*
X107415Y184239D01*
X107064Y183713D01*
X106940Y183093D01*
X107064Y182472D01*
X107415Y181946D01*
X107941Y181594D01*
X108562Y181471D01*
X108844Y181527D01*
X118913Y171458D01*
X119207Y171261D01*
X119555Y171192D01*
X119539Y170698D01*
X91386D01*
X72866Y189218D01*
X72922Y189500D01*
X72798Y190121D01*
X72447Y190647D01*
X71921Y190998D01*
X71300Y191122D01*
X70679Y190998D01*
X70153Y190647D01*
X69802Y190121D01*
X69678Y189500D01*
X69802Y188879D01*
X70153Y188353D01*
X70679Y188002D01*
X71300Y187878D01*
X71582Y187934D01*
X90339Y169177D01*
X90358Y169149D01*
X90653Y168952D01*
X91000Y168883D01*
X112659D01*
X112866Y168383D01*
X105055Y160571D01*
X104800Y160622D01*
X104179Y160498D01*
X103653Y160147D01*
X103302Y159621D01*
X103178Y159000D01*
X103302Y158379D01*
X103653Y157853D01*
X104179Y157502D01*
X104800Y157378D01*
X105421Y157502D01*
X105947Y157853D01*
X106298Y158379D01*
X106422Y159000D01*
X106360Y159309D01*
X114044Y166992D01*
X114739D01*
X114950Y166492D01*
X114702Y166121D01*
X114578Y165500D01*
X114702Y164879D01*
X115053Y164353D01*
X115579Y164002D01*
X116200Y163878D01*
X116821Y164002D01*
X117347Y164353D01*
X117506Y164592D01*
X159416D01*
X159683Y164092D01*
X159502Y163821D01*
X159378Y163200D01*
X159434Y162918D01*
X132955Y136440D01*
X100197D01*
X99849Y136370D01*
X99555Y136173D01*
X92947Y129566D01*
X77408D01*
X77248Y129804D01*
X76722Y130156D01*
X76102Y130279D01*
X75481Y130156D01*
X74955Y129804D01*
X74603Y129278D01*
X74480Y128657D01*
X74603Y128037D01*
X74955Y127511D01*
X75481Y127159D01*
X76102Y127036D01*
X76722Y127159D01*
X77248Y127511D01*
X77408Y127750D01*
X93323D01*
X93670Y127819D01*
X93965Y128015D01*
X100573Y134624D01*
X133332D01*
X133679Y134693D01*
X133974Y134889D01*
X160718Y161634D01*
X161000Y161578D01*
X161621Y161702D01*
X162147Y162053D01*
X162498Y162579D01*
X162622Y163200D01*
X162498Y163821D01*
X162317Y164092D01*
X162584Y164592D01*
X163224D01*
X165458Y162358D01*
X165752Y162161D01*
X166100Y162092D01*
X168800D01*
X169148Y162161D01*
X169442Y162358D01*
X172214Y165130D01*
X172678Y164900D01*
X172802Y164279D01*
X173153Y163753D01*
X173679Y163402D01*
X174300Y163278D01*
X174921Y163402D01*
X175447Y163753D01*
X175798Y164279D01*
X175922Y164900D01*
X175798Y165521D01*
X175447Y166047D01*
X175018Y166333D01*
X174949Y166714D01*
X174966Y166899D01*
X175047Y166953D01*
X175398Y167479D01*
X175522Y168100D01*
X175398Y168721D01*
X175047Y169247D01*
X174521Y169598D01*
X173900Y169722D01*
X173279Y169598D01*
X172753Y169247D01*
X172402Y168721D01*
X172278Y168100D01*
X172334Y167818D01*
X169810Y165295D01*
X169581Y165344D01*
X169303Y165494D01*
X169198Y166021D01*
X168847Y166547D01*
X168321Y166898D01*
X167700Y167022D01*
X167480Y166978D01*
X162066Y172392D01*
X162273Y172892D01*
X179694D01*
X179853Y172653D01*
X180379Y172302D01*
X181000Y172178D01*
X181621Y172302D01*
X182147Y172653D01*
X182498Y173179D01*
X182622Y173800D01*
X182498Y174421D01*
X182147Y174947D01*
X181621Y175298D01*
X181000Y175422D01*
X180379Y175298D01*
X179853Y174947D01*
X179694Y174708D01*
X123676D01*
X103708Y194676D01*
Y210715D01*
X103639Y211063D01*
X103442Y211357D01*
X95730Y219069D01*
X95436Y219266D01*
X95088Y219335D01*
X77096D01*
X71821Y224610D01*
X71737Y225028D01*
X71386Y225554D01*
X70860Y225906D01*
X70239Y226029D01*
D02*
G37*
G36*
X14100Y176378D02*
X12967Y176229D01*
X11911Y175792D01*
X11004Y175096D01*
X10308Y174189D01*
X9871Y173133D01*
X9722Y172000D01*
X9871Y170867D01*
X10308Y169811D01*
X11004Y168904D01*
X11911Y168209D01*
X12967Y167771D01*
X14100Y167622D01*
X15233Y167771D01*
X16289Y168209D01*
X17196Y168904D01*
X17891Y169811D01*
X18329Y170867D01*
X18478Y172000D01*
X18329Y173133D01*
X17891Y174189D01*
X17196Y175096D01*
X16289Y175792D01*
X15233Y176229D01*
X14100Y176378D01*
D02*
G37*
G36*
X359154Y172742D02*
X358388Y172641D01*
X357674Y172345D01*
X357062Y171875D01*
X356592Y171263D01*
X356296Y170549D01*
X356195Y169783D01*
X356296Y169018D01*
X356592Y168304D01*
X357062Y167692D01*
X357674Y167221D01*
X358388Y166926D01*
X359154Y166825D01*
X359919Y166926D01*
X360633Y167221D01*
X361245Y167692D01*
X361716Y168304D01*
X362011Y169018D01*
X362112Y169783D01*
X362011Y170549D01*
X361716Y171263D01*
X361245Y171875D01*
X360633Y172345D01*
X359919Y172641D01*
X359154Y172742D01*
D02*
G37*
G36*
X342224Y163728D02*
X341604Y163605D01*
X341078Y163253D01*
X340726Y162727D01*
X340603Y162106D01*
X340726Y161486D01*
X341078Y160960D01*
X341604Y160608D01*
X342224Y160485D01*
X342845Y160608D01*
X343371Y160960D01*
X343723Y161486D01*
X343846Y162106D01*
X343723Y162727D01*
X343371Y163253D01*
X342845Y163605D01*
X342224Y163728D01*
D02*
G37*
G36*
X14100Y166378D02*
X12967Y166229D01*
X11911Y165791D01*
X11004Y165096D01*
X10308Y164189D01*
X9871Y163133D01*
X9722Y162000D01*
X9871Y160867D01*
X10308Y159811D01*
X11004Y158904D01*
X11911Y158209D01*
X12967Y157771D01*
X14100Y157622D01*
X15233Y157771D01*
X16289Y158209D01*
X17196Y158904D01*
X17891Y159811D01*
X18329Y160867D01*
X18478Y162000D01*
X18329Y163133D01*
X17891Y164189D01*
X17196Y165096D01*
X16289Y165791D01*
X15233Y166229D01*
X14100Y166378D01*
D02*
G37*
G36*
X359154Y163096D02*
X358388Y162995D01*
X357674Y162700D01*
X357062Y162230D01*
X356592Y161617D01*
X356296Y160904D01*
X356195Y160138D01*
X356296Y159372D01*
X356592Y158659D01*
X357062Y158046D01*
X357674Y157576D01*
X358388Y157280D01*
X359154Y157179D01*
X359919Y157280D01*
X360633Y157576D01*
X361245Y158046D01*
X361716Y158659D01*
X362011Y159372D01*
X362112Y160138D01*
X362011Y160904D01*
X361716Y161617D01*
X361245Y162230D01*
X360633Y162700D01*
X359919Y162995D01*
X359154Y163096D01*
D02*
G37*
G36*
X189800Y158422D02*
X189179Y158298D01*
X188653Y157947D01*
X188302Y157421D01*
X188178Y156800D01*
X188302Y156179D01*
X188344Y156116D01*
X187983Y155756D01*
X187621Y155998D01*
X187000Y156122D01*
X186379Y155998D01*
X185853Y155647D01*
X185502Y155121D01*
X185378Y154500D01*
X185441Y154186D01*
X185324Y154044D01*
X185003Y153822D01*
X184500Y153922D01*
X183879Y153798D01*
X183353Y153447D01*
X183002Y152921D01*
X182878Y152300D01*
X182934Y152018D01*
X164624Y133708D01*
X119100D01*
X118753Y133639D01*
X118458Y133442D01*
X112058Y127042D01*
X111861Y126748D01*
X111792Y126400D01*
Y47300D01*
X111861Y46953D01*
X112058Y46658D01*
X125534Y33182D01*
X125478Y32900D01*
X125602Y32279D01*
X125953Y31753D01*
X126479Y31402D01*
X127100Y31278D01*
X127721Y31402D01*
X128247Y31753D01*
X128598Y32279D01*
X128722Y32900D01*
X128598Y33521D01*
X128247Y34047D01*
X127721Y34398D01*
X127100Y34522D01*
X126818Y34466D01*
X123154Y38130D01*
X123417Y38574D01*
X123900Y38478D01*
X124521Y38602D01*
X125047Y38953D01*
X125398Y39479D01*
X125522Y40100D01*
X125398Y40721D01*
X125047Y41247D01*
X124808Y41406D01*
Y63994D01*
X125047Y64153D01*
X125398Y64679D01*
X125522Y65300D01*
X125398Y65921D01*
X125047Y66447D01*
X124521Y66798D01*
X123900Y66922D01*
X123279Y66798D01*
X122753Y66447D01*
X122402Y65921D01*
X122278Y65300D01*
X122402Y64679D01*
X122753Y64153D01*
X122992Y63994D01*
Y41406D01*
X122753Y41247D01*
X122402Y40721D01*
X122278Y40100D01*
X122374Y39617D01*
X121930Y39355D01*
X113608Y47676D01*
Y126024D01*
X119476Y131892D01*
X165000D01*
X165348Y131961D01*
X165642Y132158D01*
X184218Y150734D01*
X184500Y150678D01*
X185121Y150802D01*
X185592Y151117D01*
X185836Y151054D01*
X186092Y150920D01*
Y87071D01*
X158357Y59336D01*
X158076Y59392D01*
X157455Y59269D01*
X156929Y58917D01*
X156578Y58391D01*
X156454Y57771D01*
X156578Y57150D01*
X156929Y56624D01*
X157455Y56272D01*
X158076Y56149D01*
X158696Y56272D01*
X159222Y56624D01*
X159574Y57150D01*
X159697Y57771D01*
X159642Y58052D01*
X187642Y86053D01*
X187839Y86347D01*
X187908Y86695D01*
Y153194D01*
X188147Y153353D01*
X188392Y153720D01*
X188892Y153569D01*
X188892Y66106D01*
X188392Y65824D01*
X187900Y65922D01*
X187279Y65798D01*
X186753Y65447D01*
X186402Y64921D01*
X186278Y64300D01*
X186402Y63679D01*
X186753Y63153D01*
X187279Y62802D01*
X187900Y62678D01*
X188392Y62776D01*
X188892Y62494D01*
Y49006D01*
X188392Y48724D01*
X187900Y48822D01*
X187279Y48698D01*
X186753Y48347D01*
X186402Y47821D01*
X186278Y47200D01*
X186402Y46579D01*
X186753Y46053D01*
X187279Y45702D01*
X187900Y45578D01*
X188392Y45676D01*
X188892Y45394D01*
Y32700D01*
X188961Y32353D01*
X189158Y32058D01*
X192734Y28482D01*
X192678Y28200D01*
X192802Y27579D01*
X193153Y27053D01*
X193679Y26702D01*
X194300Y26578D01*
X194921Y26702D01*
X195447Y27053D01*
X195798Y27579D01*
X195922Y28200D01*
X195798Y28821D01*
X195447Y29347D01*
X194921Y29698D01*
X194300Y29822D01*
X194018Y29766D01*
X190708Y33076D01*
X190708Y155494D01*
X190947Y155653D01*
X191298Y156179D01*
X191422Y156800D01*
X191298Y157421D01*
X190947Y157947D01*
X190421Y158298D01*
X189800Y158422D01*
D02*
G37*
G36*
X14100Y156378D02*
X12967Y156229D01*
X11911Y155791D01*
X11004Y155096D01*
X10308Y154189D01*
X9871Y153133D01*
X9722Y152000D01*
X9871Y150867D01*
X10308Y149811D01*
X11004Y148904D01*
X11911Y148208D01*
X12967Y147771D01*
X14100Y147622D01*
X15233Y147771D01*
X16289Y148208D01*
X17196Y148904D01*
X17891Y149811D01*
X18329Y150867D01*
X18478Y152000D01*
X18329Y153133D01*
X17891Y154189D01*
X17196Y155096D01*
X16289Y155791D01*
X15233Y156229D01*
X14100Y156378D01*
D02*
G37*
G36*
X359154Y153254D02*
X358388Y153153D01*
X357674Y152857D01*
X357062Y152387D01*
X356592Y151775D01*
X356296Y151061D01*
X356195Y150295D01*
X356296Y149530D01*
X356592Y148816D01*
X357062Y148203D01*
X357674Y147733D01*
X358388Y147438D01*
X359154Y147337D01*
X359919Y147438D01*
X360633Y147733D01*
X361245Y148203D01*
X361716Y148816D01*
X362011Y149530D01*
X362112Y150295D01*
X362011Y151061D01*
X361716Y151775D01*
X361245Y152387D01*
X360633Y152857D01*
X359919Y153153D01*
X359154Y153254D01*
D02*
G37*
G36*
X82020Y143473D02*
X81399Y143349D01*
X80873Y142998D01*
X80713Y142759D01*
X64972D01*
X64847Y142947D01*
X64321Y143298D01*
X63700Y143422D01*
X63079Y143298D01*
X62553Y142947D01*
X62202Y142421D01*
X62078Y141800D01*
X62202Y141179D01*
X62553Y140653D01*
X63079Y140302D01*
X63700Y140178D01*
X64321Y140302D01*
X64847Y140653D01*
X65040Y140943D01*
X80713D01*
X80873Y140705D01*
X81399Y140353D01*
X82020Y140229D01*
X82640Y140353D01*
X83166Y140705D01*
X83518Y141231D01*
X83641Y141851D01*
X83518Y142472D01*
X83166Y142998D01*
X82640Y143349D01*
X82020Y143473D01*
D02*
G37*
G36*
X345700Y142922D02*
X345079Y142798D01*
X344553Y142447D01*
X344202Y141921D01*
X344078Y141300D01*
X344202Y140679D01*
X344553Y140153D01*
X345079Y139802D01*
X345700Y139678D01*
X346321Y139802D01*
X346847Y140153D01*
X347198Y140679D01*
X347322Y141300D01*
X347198Y141921D01*
X346847Y142447D01*
X346321Y142798D01*
X345700Y142922D01*
D02*
G37*
G36*
X358957Y141147D02*
X358191Y141047D01*
X357477Y140751D01*
X356865Y140281D01*
X356395Y139668D01*
X356099Y138955D01*
X355998Y138189D01*
X356099Y137423D01*
X356395Y136710D01*
X356865Y136097D01*
X357477Y135627D01*
X358191Y135331D01*
X358957Y135231D01*
X359722Y135331D01*
X360436Y135627D01*
X361049Y136097D01*
X361519Y136710D01*
X361814Y137423D01*
X361915Y138189D01*
X361814Y138955D01*
X361519Y139668D01*
X361049Y140281D01*
X360436Y140751D01*
X359722Y141047D01*
X358957Y141147D01*
D02*
G37*
G36*
X86916Y134057D02*
X86295Y133934D01*
X85769Y133582D01*
X85417Y133056D01*
X85294Y132435D01*
X85417Y131815D01*
X85769Y131289D01*
X86295Y130937D01*
X86916Y130814D01*
X87536Y130937D01*
X88063Y131289D01*
X88414Y131815D01*
X88538Y132435D01*
X88414Y133056D01*
X88063Y133582D01*
X87536Y133934D01*
X86916Y134057D01*
D02*
G37*
G36*
X358957Y131305D02*
X358191Y131204D01*
X357477Y130909D01*
X356865Y130438D01*
X356395Y129826D01*
X356099Y129112D01*
X355998Y128347D01*
X356099Y127581D01*
X356395Y126867D01*
X356865Y126255D01*
X357477Y125784D01*
X358191Y125489D01*
X358957Y125388D01*
X359722Y125489D01*
X360436Y125784D01*
X361049Y126255D01*
X361519Y126867D01*
X361814Y127581D01*
X361915Y128347D01*
X361814Y129112D01*
X361519Y129826D01*
X361049Y130438D01*
X360436Y130909D01*
X359722Y131204D01*
X358957Y131305D01*
D02*
G37*
G36*
X39300Y183422D02*
X38679Y183298D01*
X38153Y182947D01*
X37802Y182421D01*
X37678Y181800D01*
X37802Y181179D01*
X38153Y180653D01*
X38392Y180494D01*
Y145200D01*
X38461Y144852D01*
X38658Y144558D01*
X63463Y119752D01*
X63758Y119556D01*
X64105Y119486D01*
X80762D01*
X80922Y119248D01*
X81448Y118896D01*
X82068Y118773D01*
X82689Y118896D01*
X83215Y119248D01*
X83566Y119774D01*
X83690Y120395D01*
X83566Y121015D01*
X83215Y121541D01*
X82689Y121893D01*
X82068Y122016D01*
X81448Y121893D01*
X80922Y121541D01*
X80762Y121302D01*
X64482D01*
X40208Y145576D01*
Y180494D01*
X40447Y180653D01*
X40798Y181179D01*
X40922Y181800D01*
X40798Y182421D01*
X40447Y182947D01*
X39921Y183298D01*
X39300Y183422D01*
D02*
G37*
G36*
X341831Y121208D02*
X341210Y121085D01*
X340684Y120733D01*
X340333Y120207D01*
X340209Y119587D01*
X340333Y118966D01*
X340684Y118440D01*
X341210Y118088D01*
X341831Y117965D01*
X342451Y118088D01*
X342977Y118440D01*
X343329Y118966D01*
X343452Y119587D01*
X343329Y120207D01*
X342977Y120733D01*
X342451Y121085D01*
X341831Y121208D01*
D02*
G37*
G36*
X358957Y119887D02*
X358191Y119787D01*
X357477Y119491D01*
X356865Y119021D01*
X356395Y118408D01*
X356099Y117695D01*
X355998Y116929D01*
X356099Y116163D01*
X356395Y115450D01*
X356865Y114837D01*
X357477Y114367D01*
X358191Y114072D01*
X358957Y113971D01*
X359722Y114072D01*
X360436Y114367D01*
X361049Y114837D01*
X361519Y115450D01*
X361814Y116163D01*
X361915Y116929D01*
X361814Y117695D01*
X361519Y118408D01*
X361049Y119021D01*
X360436Y119491D01*
X359722Y119787D01*
X358957Y119887D01*
D02*
G37*
G36*
Y110045D02*
X358191Y109944D01*
X357477Y109649D01*
X356865Y109178D01*
X356395Y108566D01*
X356099Y107852D01*
X355998Y107087D01*
X356099Y106321D01*
X356395Y105607D01*
X356865Y104995D01*
X357477Y104525D01*
X358191Y104229D01*
X358957Y104128D01*
X359722Y104229D01*
X360436Y104525D01*
X361049Y104995D01*
X361519Y105607D01*
X361814Y106321D01*
X361915Y107087D01*
X361814Y107852D01*
X361519Y108566D01*
X361049Y109178D01*
X360436Y109649D01*
X359722Y109944D01*
X358957Y110045D01*
D02*
G37*
G36*
X22400Y111299D02*
X20625Y111124D01*
X18918Y110606D01*
X17345Y109766D01*
X15966Y108634D01*
X14834Y107255D01*
X13994Y105682D01*
X13476Y103975D01*
X13301Y102200D01*
X13476Y100425D01*
X13994Y98718D01*
X14834Y97145D01*
X15966Y95766D01*
X17345Y94634D01*
X18918Y93794D01*
X20625Y93276D01*
X22400Y93101D01*
X24175Y93276D01*
X25882Y93794D01*
X27455Y94634D01*
X28834Y95766D01*
X29965Y97145D01*
X30806Y98718D01*
X31324Y100425D01*
X31499Y102200D01*
X31324Y103975D01*
X30806Y105682D01*
X29965Y107255D01*
X28834Y108634D01*
X27455Y109766D01*
X25882Y110606D01*
X24175Y111124D01*
X22400Y111299D01*
D02*
G37*
G36*
X269000Y78622D02*
X268379Y78498D01*
X267853Y78147D01*
X267502Y77621D01*
X267378Y77000D01*
X267502Y76379D01*
X267853Y75853D01*
X268379Y75502D01*
X269000Y75378D01*
X269621Y75502D01*
X270147Y75853D01*
X270498Y76379D01*
X270622Y77000D01*
X270498Y77621D01*
X270147Y78147D01*
X269621Y78498D01*
X269000Y78622D01*
D02*
G37*
G36*
X249400Y76022D02*
X248779Y75898D01*
X248253Y75547D01*
X247902Y75021D01*
X247778Y74400D01*
X247902Y73779D01*
X248253Y73253D01*
X248779Y72902D01*
X249400Y72778D01*
X250021Y72902D01*
X250547Y73253D01*
X250898Y73779D01*
X251022Y74400D01*
X250898Y75021D01*
X250547Y75547D01*
X250021Y75898D01*
X249400Y76022D01*
D02*
G37*
G36*
X218200Y75322D02*
X217579Y75198D01*
X217053Y74847D01*
X216702Y74321D01*
X216578Y73700D01*
X216702Y73079D01*
X217053Y72553D01*
X217579Y72202D01*
X218200Y72078D01*
X218821Y72202D01*
X219347Y72553D01*
X219698Y73079D01*
X219822Y73700D01*
X219698Y74321D01*
X219347Y74847D01*
X218821Y75198D01*
X218200Y75322D01*
D02*
G37*
G36*
X69000Y72522D02*
X68379Y72398D01*
X67853Y72047D01*
X67502Y71521D01*
X67378Y70900D01*
X67502Y70279D01*
X67853Y69753D01*
X68379Y69402D01*
X69000Y69278D01*
X69621Y69402D01*
X70147Y69753D01*
X70498Y70279D01*
X70622Y70900D01*
X70498Y71521D01*
X70147Y72047D01*
X69621Y72398D01*
X69000Y72522D01*
D02*
G37*
G36*
X249400Y69422D02*
X248779Y69298D01*
X248253Y68947D01*
X247902Y68421D01*
X247778Y67800D01*
X247902Y67179D01*
X248253Y66653D01*
X248779Y66302D01*
X249400Y66178D01*
X250021Y66302D01*
X250547Y66653D01*
X250898Y67179D01*
X251022Y67800D01*
X250898Y68421D01*
X250547Y68947D01*
X250021Y69298D01*
X249400Y69422D01*
D02*
G37*
G36*
X135800Y63222D02*
X135179Y63098D01*
X134653Y62747D01*
X134302Y62221D01*
X134178Y61600D01*
X134302Y60979D01*
X134653Y60453D01*
X135179Y60102D01*
X135800Y59978D01*
X136421Y60102D01*
X136947Y60453D01*
X137298Y60979D01*
X137422Y61600D01*
X137298Y62221D01*
X136947Y62747D01*
X136421Y63098D01*
X135800Y63222D01*
D02*
G37*
G36*
X298800Y57522D02*
X298179Y57398D01*
X297653Y57047D01*
X297630Y57012D01*
X294470D01*
X294447Y57047D01*
X293921Y57398D01*
X293300Y57522D01*
X292679Y57398D01*
X292153Y57047D01*
X291802Y56521D01*
X291678Y55900D01*
X291802Y55279D01*
X292153Y54753D01*
X292679Y54402D01*
X293300Y54278D01*
X293921Y54402D01*
X294447Y54753D01*
X294470Y54788D01*
X297630D01*
X297653Y54753D01*
X298179Y54402D01*
X298800Y54278D01*
X299421Y54402D01*
X299947Y54753D01*
X300298Y55279D01*
X300422Y55900D01*
X300298Y56521D01*
X299947Y57047D01*
X299421Y57398D01*
X298800Y57522D01*
D02*
G37*
G36*
X136000Y54622D02*
X135379Y54498D01*
X134853Y54147D01*
X134502Y53621D01*
X134378Y53000D01*
X134502Y52379D01*
X134853Y51853D01*
X135379Y51502D01*
X136000Y51378D01*
X136621Y51502D01*
X137147Y51853D01*
X137498Y52379D01*
X137622Y53000D01*
X137498Y53621D01*
X137147Y54147D01*
X136621Y54498D01*
X136000Y54622D01*
D02*
G37*
G36*
X367441Y55388D02*
X366413Y55253D01*
X365456Y54856D01*
X364633Y54225D01*
X364002Y53403D01*
X363605Y52445D01*
X363470Y51417D01*
X363605Y50390D01*
X364002Y49432D01*
X364633Y48609D01*
X365456Y47978D01*
X366413Y47582D01*
X367441Y47446D01*
X368469Y47582D01*
X369426Y47978D01*
X370249Y48609D01*
X370880Y49432D01*
X371277Y50390D01*
X371412Y51417D01*
X371277Y52445D01*
X370880Y53403D01*
X370249Y54225D01*
X369426Y54856D01*
X368469Y55253D01*
X367441Y55388D01*
D02*
G37*
G36*
X327441D02*
X326413Y55253D01*
X325455Y54856D01*
X324633Y54225D01*
X324002Y53403D01*
X323605Y52445D01*
X323470Y51417D01*
X323605Y50390D01*
X324002Y49432D01*
X324633Y48609D01*
X325455Y47978D01*
X326413Y47582D01*
X327441Y47446D01*
X328469Y47582D01*
X329426Y47978D01*
X330249Y48609D01*
X330880Y49432D01*
X331277Y50390D01*
X331412Y51417D01*
X331277Y52445D01*
X330880Y53403D01*
X330249Y54225D01*
X329426Y54856D01*
X328469Y55253D01*
X327441Y55388D01*
D02*
G37*
G36*
X63900Y66722D02*
X63279Y66598D01*
X62753Y66247D01*
X62402Y65721D01*
X62278Y65100D01*
X62402Y64479D01*
X62753Y63953D01*
X62992Y63794D01*
Y47172D01*
X62753Y47013D01*
X62402Y46487D01*
X62278Y45866D01*
X62402Y45246D01*
X62753Y44719D01*
X63279Y44368D01*
X63900Y44244D01*
X64521Y44368D01*
X65047Y44719D01*
X65398Y45246D01*
X65522Y45866D01*
X65398Y46487D01*
X65047Y47013D01*
X64808Y47172D01*
Y63794D01*
X65047Y63953D01*
X65398Y64479D01*
X65522Y65100D01*
X65398Y65721D01*
X65047Y66247D01*
X64521Y66598D01*
X63900Y66722D01*
D02*
G37*
G36*
X217800Y41522D02*
X217179Y41398D01*
X216653Y41047D01*
X216302Y40521D01*
X216178Y39900D01*
X216302Y39279D01*
X216653Y38753D01*
X217179Y38402D01*
X217800Y38278D01*
X218421Y38402D01*
X218947Y38753D01*
X219298Y39279D01*
X219422Y39900D01*
X219298Y40521D01*
X218947Y41047D01*
X218421Y41398D01*
X217800Y41522D01*
D02*
G37*
G36*
X71000Y40822D02*
X70379Y40698D01*
X69853Y40347D01*
X69502Y39821D01*
X69378Y39200D01*
X69502Y38579D01*
X69853Y38053D01*
X70379Y37702D01*
X71000Y37578D01*
X71621Y37702D01*
X72147Y38053D01*
X72498Y38579D01*
X72622Y39200D01*
X72498Y39821D01*
X72147Y40347D01*
X71621Y40698D01*
X71000Y40822D01*
D02*
G37*
G36*
X302756Y46011D02*
X302135Y45888D01*
X301609Y45537D01*
X301258Y45010D01*
X301212Y44778D01*
X293824Y37390D01*
X286644D01*
X286447Y37522D01*
X285827Y37645D01*
X285206Y37522D01*
X284680Y37170D01*
X284329Y36644D01*
X284205Y36024D01*
X284329Y35403D01*
X284680Y34877D01*
X285206Y34525D01*
X285827Y34402D01*
X286447Y34525D01*
X286644Y34657D01*
X294390D01*
X294913Y34761D01*
X295356Y35057D01*
X303145Y42845D01*
X303377Y42891D01*
X303903Y43243D01*
X304254Y43769D01*
X304378Y44390D01*
X304254Y45010D01*
X303903Y45537D01*
X303377Y45888D01*
X302756Y46011D01*
D02*
G37*
G36*
X170700Y52722D02*
X170079Y52598D01*
X169553Y52247D01*
X169202Y51721D01*
X169078Y51100D01*
X169202Y50479D01*
X169553Y49953D01*
X169692Y49861D01*
Y34376D01*
X150024Y14708D01*
X72776D01*
X67247Y20237D01*
X67411Y20780D01*
X67521Y20802D01*
X68047Y21153D01*
X68398Y21679D01*
X68522Y22300D01*
X68466Y22582D01*
X71504Y25620D01*
X150938D01*
X151285Y25690D01*
X151580Y25886D01*
X161415Y35721D01*
X161614Y35681D01*
X162235Y35805D01*
X162761Y36156D01*
X163112Y36683D01*
X163236Y37303D01*
X163112Y37924D01*
X162761Y38450D01*
X162235Y38801D01*
X161614Y38925D01*
X160994Y38801D01*
X160468Y38450D01*
X160116Y37924D01*
X159993Y37303D01*
X160065Y36939D01*
X150562Y27436D01*
X71128D01*
X70781Y27367D01*
X70486Y27170D01*
X67182Y23866D01*
X66900Y23922D01*
X66279Y23798D01*
X65753Y23447D01*
X65528Y23110D01*
X64994Y22970D01*
X64904Y22981D01*
X64708Y23130D01*
Y31394D01*
X64947Y31553D01*
X65298Y32079D01*
X65422Y32700D01*
X65298Y33321D01*
X64947Y33847D01*
X64421Y34198D01*
X63800Y34322D01*
X63179Y34198D01*
X62653Y33847D01*
X62302Y33321D01*
X62178Y32700D01*
X62302Y32079D01*
X62653Y31553D01*
X62892Y31394D01*
Y22400D01*
X62961Y22052D01*
X63158Y21758D01*
X71758Y13158D01*
X72053Y12961D01*
X72400Y12892D01*
X150400D01*
X150748Y12961D01*
X151042Y13158D01*
X171242Y33358D01*
X171439Y33652D01*
X171508Y34000D01*
Y49727D01*
X171847Y49953D01*
X172198Y50479D01*
X172322Y51100D01*
X172198Y51721D01*
X171847Y52247D01*
X171321Y52598D01*
X170700Y52722D01*
D02*
G37*
G36*
X138200Y18922D02*
X137579Y18798D01*
X137053Y18447D01*
X136702Y17921D01*
X136578Y17300D01*
X136702Y16679D01*
X137053Y16153D01*
X137579Y15802D01*
X138200Y15678D01*
X138821Y15802D01*
X139347Y16153D01*
X139698Y16679D01*
X139822Y17300D01*
X139698Y17921D01*
X139347Y18447D01*
X138821Y18798D01*
X138200Y18922D01*
D02*
G37*
G36*
X189300Y18822D02*
X188679Y18698D01*
X188153Y18347D01*
X187802Y17821D01*
X187678Y17200D01*
X187802Y16579D01*
X188153Y16053D01*
X188679Y15702D01*
X189300Y15578D01*
X189921Y15702D01*
X190447Y16053D01*
X190798Y16579D01*
X190922Y17200D01*
X190798Y17821D01*
X190447Y18347D01*
X189921Y18698D01*
X189300Y18822D01*
D02*
G37*
G36*
X365100Y23599D02*
X363325Y23424D01*
X361618Y22906D01*
X360045Y22065D01*
X358666Y20934D01*
X357535Y19555D01*
X356694Y17982D01*
X356176Y16275D01*
X356001Y14500D01*
X356176Y12725D01*
X356694Y11018D01*
X357535Y9445D01*
X358666Y8066D01*
X360045Y6934D01*
X361618Y6094D01*
X363325Y5576D01*
X365100Y5401D01*
X366875Y5576D01*
X368582Y6094D01*
X370155Y6934D01*
X371534Y8066D01*
X372666Y9445D01*
X373506Y11018D01*
X374024Y12725D01*
X374199Y14500D01*
X374024Y16275D01*
X373506Y17982D01*
X372666Y19555D01*
X371534Y20934D01*
X370155Y22065D01*
X368582Y22906D01*
X366875Y23424D01*
X365100Y23599D01*
D02*
G37*
%LPD*%
G36*
X196358Y181558D02*
X196652Y181361D01*
X197000Y181292D01*
X205094D01*
X205253Y181053D01*
X205779Y180702D01*
X205978Y180662D01*
X206142Y180120D01*
X194594Y168571D01*
X194198Y168879D01*
X194322Y169500D01*
X194198Y170121D01*
X193847Y170647D01*
X193608Y170806D01*
Y172426D01*
X195042Y173860D01*
X195239Y174155D01*
X195308Y174502D01*
Y180911D01*
X195239Y181259D01*
X195042Y181553D01*
X191903Y184692D01*
X192075Y185181D01*
X192084Y185192D01*
X192724D01*
X196358Y181558D01*
D02*
G37*
G36*
X241021Y282737D02*
Y211305D01*
X195527Y165811D01*
X195000Y165833D01*
X194949Y166358D01*
X239999Y211408D01*
X240096Y211554D01*
X240195Y211701D01*
X240195Y211702D01*
X240196Y211703D01*
X240230Y211876D01*
X240265Y212049D01*
X240397Y282565D01*
X240898Y282824D01*
X241021Y282737D01*
D02*
G37*
G36*
X162013Y169876D02*
X161862Y169320D01*
X161453Y169047D01*
X161294Y168808D01*
X128812Y168808D01*
X128526Y169308D01*
X128622Y169790D01*
X128498Y170411D01*
X128311Y170692D01*
X128578Y171192D01*
X160697D01*
X162013Y169876D01*
D02*
G37*
D12*
X146591Y187791D02*
Y195332D01*
X147909Y178748D02*
Y194967D01*
X149800Y180800D02*
Y195174D01*
X155417Y200791D01*
X147909Y194967D02*
X154924Y201981D01*
X146591Y195332D02*
X154431Y203172D01*
X154753D02*
X158600Y207019D01*
X154431Y203172D02*
X154753D01*
X155781Y201981D02*
X161400Y207600D01*
X154924Y201981D02*
X155781D01*
X156891Y200791D02*
X163900Y207800D01*
X155417Y200791D02*
X156891D01*
X230161Y351100D02*
X230321D01*
X230300Y331915D02*
Y350121D01*
X144800Y186000D02*
X146591Y187791D01*
X63700Y141851D02*
X82020D01*
X71300Y189500D02*
X91000Y169800D01*
Y169790D02*
X127000D01*
X163600Y165500D02*
X166100Y163000D01*
X116200Y165500D02*
X163600D01*
X104784Y159016D02*
X113668Y167900D01*
X162600Y167900D01*
X123900Y40100D02*
Y65300D01*
X189800Y156800D02*
X189800Y32700D01*
X194300Y28200D01*
X187000Y86695D02*
Y154500D01*
X158076Y57771D02*
X187000Y86695D01*
X186100Y160000D02*
X202200D01*
X189800Y190400D02*
X210900D01*
X204028Y188228D02*
X204100Y188300D01*
X187228Y188228D02*
X204028D01*
X193100Y186100D02*
X197000Y182200D01*
X190100Y186100D02*
X193100D01*
X187717Y184170D02*
X187721Y184174D01*
X191137D01*
X190500Y179000D02*
Y182138D01*
X189800Y178300D02*
X190500Y179000D01*
X189800Y169500D02*
Y178300D01*
X192100Y194500D02*
X198300D01*
X108562Y183093D02*
X108759Y182896D01*
X119555Y172100D01*
X178800Y167000D02*
X194307D01*
X192700Y169500D02*
Y172802D01*
X187000Y169500D02*
Y178634D01*
X184300Y169500D02*
Y189800D01*
X187000Y178634D02*
X188287Y179921D01*
X194307Y167000D02*
X239357Y212050D01*
X239499Y287547D01*
X133332Y135531D02*
X161000Y163200D01*
X100197Y135531D02*
X133332D01*
X161074Y172100D02*
X167700Y165474D01*
X168800Y163000D02*
X173900Y168100D01*
X163900Y222500D02*
X169191Y227790D01*
X163900Y207800D02*
Y222500D01*
X178764Y268036D02*
X215256Y304528D01*
X178764Y245864D02*
Y268036D01*
X158600Y225700D02*
X178764Y245864D01*
X158600Y207019D02*
Y225700D01*
X161400Y207600D02*
Y224324D01*
X169191Y227790D02*
X191107D01*
X166800Y229724D02*
X207230D01*
X161400Y224324D02*
X166800Y229724D01*
X144800Y178500D02*
Y186000D01*
Y178500D02*
X146700Y176600D01*
X149400D01*
X147909Y178748D02*
X148036Y178621D01*
X149400Y176600D02*
X152500Y179700D01*
X186713Y214469D02*
X197047D01*
X197000Y182200D02*
X206400D01*
X191137Y184174D02*
X194400Y180911D01*
Y174502D02*
Y180911D01*
X192700Y172802D02*
X194400Y174502D01*
X190354Y182283D02*
X190500Y182138D01*
X182500Y162100D02*
X203800D01*
X244000Y202300D01*
X172400Y146300D02*
X186100Y160000D01*
X150500Y146300D02*
X172400D01*
X184300Y189800D02*
X186800Y192300D01*
X180491Y164791D02*
X195791D01*
X180300Y164600D02*
X180491Y164791D01*
X165000Y132800D02*
X184500Y152300D01*
X119100Y132800D02*
X165000D01*
X244000Y202300D02*
X329200D01*
X195791Y164791D02*
X241929Y210929D01*
Y284449D01*
X166100Y163000D02*
X168800D01*
X167700Y165400D02*
Y165474D01*
X119555Y172100D02*
X161074D01*
X123300Y173800D02*
X181000D01*
X102800Y194300D02*
X123300Y173800D01*
X191107Y227790D02*
X191240Y227658D01*
X186319Y206890D02*
X198917D01*
X182382Y202953D02*
X186319Y206890D01*
X224016Y212205D02*
X236122Y224311D01*
X72400Y13800D02*
X150400D01*
X63800Y22400D02*
X72400Y13800D01*
X63800Y22400D02*
Y32700D01*
X71128Y26528D02*
X150938D01*
X66900Y22300D02*
X71128Y26528D01*
X150938D02*
X161614Y37205D01*
X133900Y267900D02*
X153100Y248700D01*
X127500Y267900D02*
X133900D01*
X63700Y331700D02*
X127500Y267900D01*
X83738Y338000D02*
X89038Y343300D01*
X68000Y338000D02*
X83738D01*
X113000Y351100D02*
X165100D01*
X105200Y343300D02*
X113000Y351100D01*
X89038Y343300D02*
X105200D01*
X228800Y240700D02*
Y245900D01*
X228600Y246100D02*
X228800Y245900D01*
X224911Y236811D02*
X228800Y240700D01*
X214317Y236811D02*
X224911D01*
X207230Y229724D02*
X214317Y236811D01*
X112700Y126400D02*
X119100Y132800D01*
X112700Y47300D02*
Y126400D01*
Y47300D02*
X127100Y32900D01*
X170600Y34000D02*
Y51000D01*
X150400Y13800D02*
X170600Y34000D01*
X93323Y128657D02*
X100197Y135531D01*
X76102Y128657D02*
X93323D01*
X63900Y45866D02*
Y65100D01*
X60306Y358100D02*
X169500D01*
X169700Y358300D01*
X55413Y362992D02*
X60306Y358100D01*
X71232Y216500D02*
X73416Y218684D01*
X65300Y216500D02*
X71232D01*
X102800Y194300D02*
Y210715D01*
X95088Y218427D02*
X102800Y210715D01*
X79522Y214490D02*
X89970D01*
X76719Y218427D02*
X95088D01*
X64105Y120395D02*
X82068D01*
X39300Y145200D02*
X64105Y120395D01*
X39300Y145200D02*
Y181800D01*
X215700Y257250D02*
Y257400D01*
Y257250D02*
X224400Y248550D01*
Y248400D02*
Y248550D01*
X232900Y250500D02*
X237000D01*
X221400Y262000D02*
X232900Y250500D01*
X74684Y209653D02*
X79522Y214490D01*
X62987Y209653D02*
X74684D01*
X70239Y224408D02*
X70739D01*
X76719Y218427D01*
X14100Y212000D02*
X15852D01*
X187779Y212205D02*
X224016D01*
X178543Y202969D02*
X187779Y212205D01*
X178543Y202953D02*
Y202969D01*
X215256Y304528D02*
Y342224D01*
X175197Y202953D02*
X186713Y214469D01*
X175098Y202953D02*
X175197D01*
X194053Y199902D02*
X198524D01*
X186811Y203051D02*
X190903D01*
X194053Y199902D01*
X296917Y244168D02*
X301248D01*
X291406Y249680D02*
X296917Y244168D01*
D13*
X340300Y248700D02*
X357200Y231800D01*
X340300Y248700D02*
Y257600D01*
X293300Y55900D02*
X298800D01*
D14*
X172500Y203700D02*
Y224500D01*
X171100Y225900D02*
X172500Y224500D01*
D124*
X125600Y239600D02*
D03*
D135*
X294390Y36024D02*
X302756Y44390D01*
X285827Y36024D02*
X294390D01*
D138*
X334000Y239200D02*
X336100D01*
X331500Y236700D02*
X334000Y239200D01*
D143*
X357200Y350300D02*
D03*
X365100Y14500D02*
D03*
X22400Y102200D02*
D03*
D144*
X20079Y255059D02*
D03*
X14100Y232000D02*
D03*
D145*
X20079Y265059D02*
D03*
X14100Y152000D02*
D03*
Y162000D02*
D03*
Y172000D02*
D03*
Y192000D02*
D03*
Y212000D02*
D03*
Y222000D02*
D03*
Y202000D02*
D03*
Y182000D02*
D03*
Y142000D02*
D03*
D146*
X294563Y48535D02*
D03*
X291610D02*
D03*
X297516D02*
D03*
D147*
X244079Y351600D02*
D03*
X216521D02*
D03*
X230300Y331915D02*
D03*
D148*
X327441Y51417D02*
D03*
Y71417D02*
D03*
X367441D02*
D03*
Y51417D02*
D03*
D149*
X55413Y362992D02*
D03*
X45413D02*
D03*
X35413D02*
D03*
X65413D02*
D03*
X75413D02*
D03*
X85413D02*
D03*
X25413D02*
D03*
X95413D02*
D03*
X15413D02*
D03*
D150*
X31791Y337067D02*
D03*
Y285059D02*
D03*
D151*
X115600Y229600D02*
D03*
Y249600D02*
D03*
X135600Y229600D02*
D03*
Y249600D02*
D03*
D152*
X369000Y250679D02*
D03*
Y223120D02*
D03*
D153*
X361323Y228140D02*
D03*
Y245660D02*
D03*
D154*
X358957Y107087D02*
D03*
Y116929D02*
D03*
Y138189D02*
D03*
Y128347D02*
D03*
X359154Y160138D02*
D03*
Y150295D02*
D03*
Y169783D02*
D03*
Y179626D02*
D03*
X358228Y207185D02*
D03*
Y197343D02*
D03*
D155*
X374016Y364035D02*
D03*
X379016Y354035D02*
D03*
X374016Y344035D02*
D03*
X379016Y334035D02*
D03*
X374016Y324035D02*
D03*
X379016Y314035D02*
D03*
X374016Y304035D02*
D03*
X379016Y294035D02*
D03*
X374016Y284035D02*
D03*
X379016Y274035D02*
D03*
X374016Y264035D02*
D03*
X379016Y254035D02*
D03*
X374016Y244035D02*
D03*
X379016Y234035D02*
D03*
Y214035D02*
D03*
X374016Y204035D02*
D03*
X379016Y194035D02*
D03*
X374016Y184035D02*
D03*
X379016Y174035D02*
D03*
X374016Y164035D02*
D03*
X379016Y154035D02*
D03*
X374016Y144035D02*
D03*
X379016Y134035D02*
D03*
X374016Y124035D02*
D03*
X379016Y114035D02*
D03*
X374016Y104035D02*
D03*
X379016Y94035D02*
D03*
X374016Y84035D02*
D03*
X379016Y74035D02*
D03*
X374016Y64035D02*
D03*
X379016Y54035D02*
D03*
Y34035D02*
D03*
Y14035D02*
D03*
X374016Y4035D02*
D03*
X364016Y364035D02*
D03*
X369016Y354035D02*
D03*
Y334035D02*
D03*
X364016Y324035D02*
D03*
X369016Y314035D02*
D03*
X364016Y304035D02*
D03*
X369016Y294035D02*
D03*
X364016Y284035D02*
D03*
X369016Y274035D02*
D03*
X364016Y264035D02*
D03*
Y184035D02*
D03*
Y164035D02*
D03*
Y144035D02*
D03*
Y124035D02*
D03*
Y104035D02*
D03*
X369016Y94035D02*
D03*
X364016Y84035D02*
D03*
Y64035D02*
D03*
Y4035D02*
D03*
X354016Y364035D02*
D03*
X359016Y334035D02*
D03*
X354016Y324035D02*
D03*
X359016Y314035D02*
D03*
X354016Y304035D02*
D03*
X359016Y294035D02*
D03*
X354016Y284035D02*
D03*
X359016Y274035D02*
D03*
X354016Y264035D02*
D03*
X359016Y254035D02*
D03*
X354016Y244035D02*
D03*
Y184035D02*
D03*
X359016Y174035D02*
D03*
X354016Y164035D02*
D03*
Y144035D02*
D03*
Y124035D02*
D03*
Y104035D02*
D03*
X359016Y94035D02*
D03*
X354016Y84035D02*
D03*
X359016Y74035D02*
D03*
X354016Y64035D02*
D03*
Y4035D02*
D03*
X344016Y364035D02*
D03*
Y344035D02*
D03*
X349016Y334035D02*
D03*
X344016Y324035D02*
D03*
X349016Y314035D02*
D03*
X344016Y304035D02*
D03*
X349016Y294035D02*
D03*
X344016Y284035D02*
D03*
X349016Y274035D02*
D03*
X344016Y264035D02*
D03*
X349016Y254035D02*
D03*
Y194035D02*
D03*
X344016Y144035D02*
D03*
Y124035D02*
D03*
X349016Y94035D02*
D03*
Y74035D02*
D03*
Y14035D02*
D03*
X344016Y4035D02*
D03*
X334016Y364035D02*
D03*
X339016Y354035D02*
D03*
X334016Y344035D02*
D03*
X339016Y334035D02*
D03*
X334016Y324035D02*
D03*
X339016Y314035D02*
D03*
X334016Y304035D02*
D03*
X339016Y294035D02*
D03*
X334016Y284035D02*
D03*
X339016Y274035D02*
D03*
X334016Y264035D02*
D03*
Y244035D02*
D03*
Y224035D02*
D03*
X339016Y194035D02*
D03*
X334016Y184035D02*
D03*
X339016Y174035D02*
D03*
X334016Y144035D02*
D03*
X339016Y134035D02*
D03*
X334016Y124035D02*
D03*
Y104035D02*
D03*
Y84035D02*
D03*
Y64035D02*
D03*
Y4035D02*
D03*
X324016Y364035D02*
D03*
X329016Y354035D02*
D03*
X324016Y344035D02*
D03*
X329016Y334035D02*
D03*
X324016Y324035D02*
D03*
X329016Y314035D02*
D03*
X324016Y304035D02*
D03*
X329016Y294035D02*
D03*
X324016Y284035D02*
D03*
X329016Y274035D02*
D03*
X324016Y264035D02*
D03*
X329016Y234035D02*
D03*
X324016Y224035D02*
D03*
X329016Y194035D02*
D03*
X324016Y184035D02*
D03*
X329016Y174035D02*
D03*
Y154035D02*
D03*
X324016Y144035D02*
D03*
Y124035D02*
D03*
X329016Y114035D02*
D03*
X324016Y104035D02*
D03*
X329016Y94035D02*
D03*
X324016Y84035D02*
D03*
Y64035D02*
D03*
X329016Y14035D02*
D03*
X314016Y364035D02*
D03*
X319016Y354035D02*
D03*
X314016Y344035D02*
D03*
X319016Y334035D02*
D03*
X314016Y324035D02*
D03*
X319016Y314035D02*
D03*
X314016Y304035D02*
D03*
X319016Y294035D02*
D03*
X314016Y284035D02*
D03*
X319016Y274035D02*
D03*
X314016Y264035D02*
D03*
X319016Y234035D02*
D03*
X314016Y224035D02*
D03*
X319016Y194035D02*
D03*
X314016Y184035D02*
D03*
X319016Y174035D02*
D03*
Y154035D02*
D03*
X314016Y144035D02*
D03*
Y124035D02*
D03*
X319016Y114035D02*
D03*
X314016Y104035D02*
D03*
X319016Y94035D02*
D03*
X314016Y84035D02*
D03*
X319016Y74035D02*
D03*
X314016Y64035D02*
D03*
X319016Y54035D02*
D03*
X314016Y4035D02*
D03*
X304016Y364035D02*
D03*
X309016Y354035D02*
D03*
X304016Y344035D02*
D03*
X309016Y334035D02*
D03*
X304016Y324035D02*
D03*
X309016Y314035D02*
D03*
X304016Y304035D02*
D03*
X309016Y294035D02*
D03*
X304016Y284035D02*
D03*
Y224035D02*
D03*
X309016Y194035D02*
D03*
X304016Y184035D02*
D03*
X309016Y174035D02*
D03*
Y154035D02*
D03*
X304016Y144035D02*
D03*
X309016Y114035D02*
D03*
X304016Y64035D02*
D03*
X309016Y14035D02*
D03*
X304016Y4035D02*
D03*
X294016Y364035D02*
D03*
X299016Y334035D02*
D03*
X294016Y324035D02*
D03*
X299016Y314035D02*
D03*
X294016Y304035D02*
D03*
X299016Y294035D02*
D03*
X294016Y284035D02*
D03*
X299016Y274035D02*
D03*
X294016Y264035D02*
D03*
X299016Y254035D02*
D03*
Y234035D02*
D03*
X294016Y224035D02*
D03*
X299016Y194035D02*
D03*
X294016Y184035D02*
D03*
X299016Y174035D02*
D03*
Y154035D02*
D03*
X294016Y144035D02*
D03*
Y124035D02*
D03*
Y104035D02*
D03*
Y84035D02*
D03*
X299016Y74035D02*
D03*
Y14035D02*
D03*
X294016Y4035D02*
D03*
X289016Y334035D02*
D03*
X284016Y324035D02*
D03*
X289016Y314035D02*
D03*
X284016Y304035D02*
D03*
X289016Y294035D02*
D03*
X284016Y284035D02*
D03*
X289016Y274035D02*
D03*
X284016Y264035D02*
D03*
Y244035D02*
D03*
X289016Y234035D02*
D03*
X284016Y224035D02*
D03*
X289016Y194035D02*
D03*
X284016Y184035D02*
D03*
X289016Y174035D02*
D03*
Y154035D02*
D03*
X284016Y144035D02*
D03*
X289016Y134035D02*
D03*
X284016Y124035D02*
D03*
X289016Y114035D02*
D03*
X284016Y104035D02*
D03*
X289016Y94035D02*
D03*
X284016Y84035D02*
D03*
X289016Y74035D02*
D03*
X284016Y64035D02*
D03*
Y44035D02*
D03*
Y24035D02*
D03*
X289016Y14035D02*
D03*
X284016Y4035D02*
D03*
X274016Y344035D02*
D03*
X279016Y334035D02*
D03*
X274016Y324035D02*
D03*
X279016Y314035D02*
D03*
X274016Y304035D02*
D03*
X279016Y294035D02*
D03*
X274016Y284035D02*
D03*
X279016Y274035D02*
D03*
X274016Y264035D02*
D03*
X279016Y234035D02*
D03*
Y194035D02*
D03*
X274016Y184035D02*
D03*
X279016Y174035D02*
D03*
Y154035D02*
D03*
X274016Y144035D02*
D03*
X279016Y134035D02*
D03*
X274016Y124035D02*
D03*
Y104035D02*
D03*
X279016Y94035D02*
D03*
Y74035D02*
D03*
Y54035D02*
D03*
X274016Y44035D02*
D03*
Y24035D02*
D03*
X279016Y14035D02*
D03*
X274016Y4035D02*
D03*
X264016Y344035D02*
D03*
X269016Y334035D02*
D03*
Y314035D02*
D03*
X264016Y304035D02*
D03*
X269016Y294035D02*
D03*
X264016Y284035D02*
D03*
X269016Y274035D02*
D03*
X264016Y264035D02*
D03*
Y244035D02*
D03*
X269016Y234035D02*
D03*
Y194035D02*
D03*
X264016Y184035D02*
D03*
X269016Y174035D02*
D03*
Y154035D02*
D03*
X264016Y144035D02*
D03*
X269016Y134035D02*
D03*
X264016Y104035D02*
D03*
Y24035D02*
D03*
X269016Y14035D02*
D03*
X264016Y4035D02*
D03*
X254016Y364035D02*
D03*
Y344035D02*
D03*
X259016Y334035D02*
D03*
Y314035D02*
D03*
X254016Y304035D02*
D03*
X259016Y294035D02*
D03*
X254016Y284035D02*
D03*
X259016Y274035D02*
D03*
X254016Y264035D02*
D03*
Y244035D02*
D03*
X259016Y234035D02*
D03*
Y194035D02*
D03*
X254016Y184035D02*
D03*
X259016Y174035D02*
D03*
Y154035D02*
D03*
X254016Y144035D02*
D03*
X259016Y134035D02*
D03*
Y114035D02*
D03*
Y34035D02*
D03*
Y14035D02*
D03*
X254016Y4035D02*
D03*
X244016Y364035D02*
D03*
X249016Y354035D02*
D03*
X244016Y344035D02*
D03*
X249016Y334035D02*
D03*
X244016Y324035D02*
D03*
X249016Y274035D02*
D03*
X244016Y264035D02*
D03*
X249016Y254035D02*
D03*
X244016Y244035D02*
D03*
X249016Y234035D02*
D03*
Y194035D02*
D03*
X244016Y184035D02*
D03*
X249016Y174035D02*
D03*
Y154035D02*
D03*
X244016Y144035D02*
D03*
X249016Y134035D02*
D03*
X244016Y124035D02*
D03*
Y104035D02*
D03*
X249016Y94035D02*
D03*
X244016Y84035D02*
D03*
X249016Y54035D02*
D03*
X244016Y4035D02*
D03*
X234016Y364035D02*
D03*
X239016Y354035D02*
D03*
Y334035D02*
D03*
X234016Y324035D02*
D03*
X239016Y314035D02*
D03*
Y294035D02*
D03*
X234016Y264035D02*
D03*
X239016Y194035D02*
D03*
X234016Y184035D02*
D03*
X239016Y174035D02*
D03*
Y154035D02*
D03*
X234016Y144035D02*
D03*
X239016Y134035D02*
D03*
X234016Y104035D02*
D03*
X239016Y94035D02*
D03*
X234016Y84035D02*
D03*
X239016Y74035D02*
D03*
X234016Y64035D02*
D03*
X239016Y54035D02*
D03*
X234016Y4035D02*
D03*
X224016Y364035D02*
D03*
Y324035D02*
D03*
X229016Y314035D02*
D03*
X224016Y284035D02*
D03*
X229016Y274035D02*
D03*
Y234035D02*
D03*
X224016Y204035D02*
D03*
X229016Y194035D02*
D03*
Y174035D02*
D03*
X224016Y164035D02*
D03*
X229016Y154035D02*
D03*
X224016Y144035D02*
D03*
X229016Y134035D02*
D03*
X224016Y124035D02*
D03*
X229016Y114035D02*
D03*
X224016Y104035D02*
D03*
X229016Y94035D02*
D03*
X224016Y84035D02*
D03*
X229016Y54035D02*
D03*
X224016Y4035D02*
D03*
X219016Y334035D02*
D03*
Y294035D02*
D03*
X214016Y284035D02*
D03*
X219016Y274035D02*
D03*
Y234035D02*
D03*
X214016Y224035D02*
D03*
X219016Y174035D02*
D03*
X214016Y164035D02*
D03*
X219016Y154035D02*
D03*
X214016Y124035D02*
D03*
X219016Y114035D02*
D03*
X214016Y104035D02*
D03*
X219016Y94035D02*
D03*
X214016Y84035D02*
D03*
Y64035D02*
D03*
X219016Y54035D02*
D03*
X214016Y4035D02*
D03*
X209016Y354035D02*
D03*
Y334035D02*
D03*
X204016Y324035D02*
D03*
X209016Y314035D02*
D03*
X204016Y304035D02*
D03*
X209016Y294035D02*
D03*
X204016Y284035D02*
D03*
X209016Y274035D02*
D03*
X204016Y264035D02*
D03*
Y224035D02*
D03*
X209016Y194035D02*
D03*
X204016Y124035D02*
D03*
X209016Y114035D02*
D03*
X204016Y104035D02*
D03*
X209016Y94035D02*
D03*
X204016Y84035D02*
D03*
X209016Y74035D02*
D03*
X204016Y64035D02*
D03*
X209016Y54035D02*
D03*
X204016Y44035D02*
D03*
Y24035D02*
D03*
Y4035D02*
D03*
X194016Y364035D02*
D03*
X199016Y354035D02*
D03*
X194016Y344035D02*
D03*
X199016Y334035D02*
D03*
X194016Y324035D02*
D03*
X199016Y314035D02*
D03*
X194016Y304035D02*
D03*
X199016Y294035D02*
D03*
Y274035D02*
D03*
X194016Y264035D02*
D03*
X199016Y254035D02*
D03*
X194016Y244035D02*
D03*
Y224035D02*
D03*
X199016Y154035D02*
D03*
X194016Y124035D02*
D03*
X199016Y114035D02*
D03*
Y94035D02*
D03*
Y74035D02*
D03*
Y54035D02*
D03*
X194016Y44035D02*
D03*
X199016Y34035D02*
D03*
Y14035D02*
D03*
X194016Y4035D02*
D03*
X184016Y364035D02*
D03*
X189016Y354035D02*
D03*
X184016Y344035D02*
D03*
X189016Y334035D02*
D03*
Y314035D02*
D03*
Y294035D02*
D03*
X184016Y284035D02*
D03*
X189016Y274035D02*
D03*
X184016Y264035D02*
D03*
Y244035D02*
D03*
X189016Y14035D02*
D03*
X184016Y4035D02*
D03*
X174016Y364035D02*
D03*
Y344035D02*
D03*
X179016Y334035D02*
D03*
X174016Y284035D02*
D03*
Y264035D02*
D03*
Y244035D02*
D03*
X179016Y214035D02*
D03*
Y134035D02*
D03*
X174016Y124035D02*
D03*
X179016Y114035D02*
D03*
X174016Y104035D02*
D03*
X179016Y94035D02*
D03*
X174016Y84035D02*
D03*
X179016Y74035D02*
D03*
X174016Y64035D02*
D03*
Y44035D02*
D03*
X179016Y14035D02*
D03*
X174016Y4035D02*
D03*
X164016Y364035D02*
D03*
X169016Y334035D02*
D03*
X164016Y324035D02*
D03*
X169016Y314035D02*
D03*
X164016Y304035D02*
D03*
Y284035D02*
D03*
X169016Y274035D02*
D03*
X164016Y264035D02*
D03*
X169016Y254035D02*
D03*
X164016Y244035D02*
D03*
X169016Y154035D02*
D03*
X164016Y124035D02*
D03*
X169016Y114035D02*
D03*
Y94035D02*
D03*
X164016Y84035D02*
D03*
X169016Y74035D02*
D03*
Y54035D02*
D03*
X164016Y44035D02*
D03*
X169016Y14035D02*
D03*
X164016Y4035D02*
D03*
X154016Y364035D02*
D03*
Y344035D02*
D03*
X159016Y334035D02*
D03*
X154016Y324035D02*
D03*
X159016Y314035D02*
D03*
X154016Y304035D02*
D03*
Y284035D02*
D03*
X159016Y274035D02*
D03*
X154016Y264035D02*
D03*
X159016Y254035D02*
D03*
Y234035D02*
D03*
X154016Y224035D02*
D03*
Y124035D02*
D03*
X159016Y114035D02*
D03*
X154016Y104035D02*
D03*
X159016Y94035D02*
D03*
X154016Y84035D02*
D03*
X159016Y74035D02*
D03*
X154016Y64035D02*
D03*
X159016Y54035D02*
D03*
X154016Y44035D02*
D03*
Y24035D02*
D03*
X159016Y14035D02*
D03*
X154016Y4035D02*
D03*
X144016Y364035D02*
D03*
X149016Y334035D02*
D03*
X144016Y324035D02*
D03*
X149016Y314035D02*
D03*
X144016Y304035D02*
D03*
X149016Y274035D02*
D03*
X144016Y264035D02*
D03*
X149016Y234035D02*
D03*
X144016Y224035D02*
D03*
X149016Y154035D02*
D03*
X144016Y104035D02*
D03*
X149016Y94035D02*
D03*
Y74035D02*
D03*
X144016Y64035D02*
D03*
Y4035D02*
D03*
X134016Y364035D02*
D03*
X139016Y354035D02*
D03*
X134016Y344035D02*
D03*
X139016Y334035D02*
D03*
Y314035D02*
D03*
Y294035D02*
D03*
Y254035D02*
D03*
X134016Y244035D02*
D03*
X139016Y234035D02*
D03*
Y214035D02*
D03*
Y194035D02*
D03*
Y114035D02*
D03*
X134016Y104035D02*
D03*
X139016Y94035D02*
D03*
X134016Y84035D02*
D03*
X139016Y74035D02*
D03*
X134016Y64035D02*
D03*
Y44035D02*
D03*
X139016Y34035D02*
D03*
X134016Y4035D02*
D03*
X124016Y364035D02*
D03*
X129016Y354035D02*
D03*
X124016Y344035D02*
D03*
X129016Y334035D02*
D03*
X124016Y304035D02*
D03*
Y284035D02*
D03*
X129016Y274035D02*
D03*
Y254035D02*
D03*
Y234035D02*
D03*
Y194035D02*
D03*
X124016Y184035D02*
D03*
X129016Y154035D02*
D03*
Y114035D02*
D03*
X124016Y84035D02*
D03*
X129016Y74035D02*
D03*
Y54035D02*
D03*
X124016Y4035D02*
D03*
X114016Y364035D02*
D03*
X119016Y354035D02*
D03*
X114016Y344035D02*
D03*
X119016Y314035D02*
D03*
X114016Y304035D02*
D03*
X119016Y294035D02*
D03*
Y254035D02*
D03*
X114016Y244035D02*
D03*
X119016Y234035D02*
D03*
Y214035D02*
D03*
Y194035D02*
D03*
X114016Y164035D02*
D03*
X119016Y154035D02*
D03*
Y114035D02*
D03*
Y94035D02*
D03*
Y74035D02*
D03*
Y54035D02*
D03*
Y34035D02*
D03*
X114016Y4035D02*
D03*
X104016Y364035D02*
D03*
X109016Y354035D02*
D03*
Y314035D02*
D03*
X104016Y304035D02*
D03*
Y284035D02*
D03*
X109016Y274035D02*
D03*
Y214035D02*
D03*
Y194035D02*
D03*
X104016Y184035D02*
D03*
X109016Y174035D02*
D03*
X104016Y164035D02*
D03*
X109016Y154035D02*
D03*
X104016Y124035D02*
D03*
X109016Y114035D02*
D03*
Y94035D02*
D03*
X104016Y84035D02*
D03*
Y64035D02*
D03*
X109016Y54035D02*
D03*
Y34035D02*
D03*
X104016Y4035D02*
D03*
X99016Y354035D02*
D03*
X94016Y324035D02*
D03*
Y284035D02*
D03*
X99016Y274035D02*
D03*
Y254035D02*
D03*
X94016Y244035D02*
D03*
Y224035D02*
D03*
Y184035D02*
D03*
X99016Y174035D02*
D03*
X94016Y164035D02*
D03*
X99016Y154035D02*
D03*
X94016Y124035D02*
D03*
X99016Y94035D02*
D03*
X94016Y84035D02*
D03*
X99016Y74035D02*
D03*
Y54035D02*
D03*
Y34035D02*
D03*
X94016Y4035D02*
D03*
X89016Y334035D02*
D03*
X84016Y324035D02*
D03*
Y304035D02*
D03*
Y284035D02*
D03*
X89016Y274035D02*
D03*
Y254035D02*
D03*
X84016Y164035D02*
D03*
X89016Y94035D02*
D03*
X84016Y84035D02*
D03*
X89016Y74035D02*
D03*
Y54035D02*
D03*
Y34035D02*
D03*
X84016Y4035D02*
D03*
X79016Y354035D02*
D03*
Y334035D02*
D03*
X74016Y304035D02*
D03*
X79016Y274035D02*
D03*
Y254035D02*
D03*
X74016Y244035D02*
D03*
Y224035D02*
D03*
Y184035D02*
D03*
X79016Y174035D02*
D03*
X74016Y164035D02*
D03*
X79016Y154035D02*
D03*
Y134035D02*
D03*
Y94035D02*
D03*
X74016Y84035D02*
D03*
X79016Y74035D02*
D03*
Y54035D02*
D03*
X74016Y4035D02*
D03*
X69016Y334035D02*
D03*
X64016Y324035D02*
D03*
Y304035D02*
D03*
X69016Y274035D02*
D03*
Y254035D02*
D03*
X64016Y244035D02*
D03*
X69016Y214035D02*
D03*
X64016Y204035D02*
D03*
Y184035D02*
D03*
X69016Y174035D02*
D03*
X64016Y164035D02*
D03*
X69016Y154035D02*
D03*
Y134035D02*
D03*
X64016Y104035D02*
D03*
X69016Y94035D02*
D03*
X64016Y84035D02*
D03*
X69016Y74035D02*
D03*
Y14035D02*
D03*
X64016Y4035D02*
D03*
X54016Y344035D02*
D03*
X59016Y334035D02*
D03*
X54016Y324035D02*
D03*
X59016Y314035D02*
D03*
X54016Y304035D02*
D03*
X59016Y274035D02*
D03*
Y254035D02*
D03*
X54016Y244035D02*
D03*
X59016Y234035D02*
D03*
X54016Y224035D02*
D03*
X59016Y214035D02*
D03*
X54016Y204035D02*
D03*
Y184035D02*
D03*
X59016Y174035D02*
D03*
X54016Y164035D02*
D03*
X59016Y154035D02*
D03*
X54016Y144035D02*
D03*
X59016Y114035D02*
D03*
X54016Y104035D02*
D03*
X59016Y94035D02*
D03*
X54016Y84035D02*
D03*
X59016Y74035D02*
D03*
X54016Y64035D02*
D03*
X59016Y34035D02*
D03*
Y14035D02*
D03*
X54016Y4035D02*
D03*
X44016Y344035D02*
D03*
X49016Y334035D02*
D03*
X44016Y324035D02*
D03*
X49016Y314035D02*
D03*
X44016Y304035D02*
D03*
X49016Y294035D02*
D03*
Y274035D02*
D03*
X44016Y264035D02*
D03*
X49016Y254035D02*
D03*
X44016Y244035D02*
D03*
X49016Y234035D02*
D03*
X44016Y144035D02*
D03*
X49016Y114035D02*
D03*
X44016Y104035D02*
D03*
X49016Y94035D02*
D03*
X44016Y84035D02*
D03*
X49016Y74035D02*
D03*
X44016Y64035D02*
D03*
X49016Y34035D02*
D03*
X44016Y4035D02*
D03*
X34016Y344035D02*
D03*
X39016Y334035D02*
D03*
X34016Y324035D02*
D03*
X39016Y314035D02*
D03*
X34016Y304035D02*
D03*
X39016Y294035D02*
D03*
Y274035D02*
D03*
X34016Y264035D02*
D03*
Y244035D02*
D03*
X39016Y234035D02*
D03*
Y134035D02*
D03*
X34016Y124035D02*
D03*
X39016Y114035D02*
D03*
X34016Y104035D02*
D03*
X39016Y94035D02*
D03*
X34016Y84035D02*
D03*
X39016Y74035D02*
D03*
X34016Y64035D02*
D03*
Y44035D02*
D03*
Y24035D02*
D03*
X39016Y14035D02*
D03*
X34016Y4035D02*
D03*
X29016Y354035D02*
D03*
X24016Y344035D02*
D03*
X29016Y294035D02*
D03*
X24016Y284035D02*
D03*
X29016Y274035D02*
D03*
X24016Y244035D02*
D03*
X29016Y234035D02*
D03*
X24016Y224035D02*
D03*
X29016Y214035D02*
D03*
X24016Y204035D02*
D03*
X29016Y194035D02*
D03*
X24016Y184035D02*
D03*
X29016Y174035D02*
D03*
X24016Y164035D02*
D03*
X29016Y154035D02*
D03*
X24016Y144035D02*
D03*
X29016Y134035D02*
D03*
X24016Y124035D02*
D03*
X29016Y114035D02*
D03*
Y94035D02*
D03*
X24016Y84035D02*
D03*
X29016Y74035D02*
D03*
X24016Y64035D02*
D03*
X29016Y54035D02*
D03*
X24016Y44035D02*
D03*
X29016Y34035D02*
D03*
X24016Y24035D02*
D03*
X29016Y14035D02*
D03*
X24016Y4035D02*
D03*
X14016Y344035D02*
D03*
X19016Y334035D02*
D03*
X14016Y324035D02*
D03*
X19016Y314035D02*
D03*
X14016Y304035D02*
D03*
X19016Y294035D02*
D03*
X14016Y284035D02*
D03*
X19016Y274035D02*
D03*
X14016Y264035D02*
D03*
Y244035D02*
D03*
X19016Y134035D02*
D03*
X14016Y124035D02*
D03*
X19016Y114035D02*
D03*
X14016Y84035D02*
D03*
Y64035D02*
D03*
X19016Y54035D02*
D03*
X14016Y44035D02*
D03*
X19016Y34035D02*
D03*
X14016Y24035D02*
D03*
Y4035D02*
D03*
X4016Y364035D02*
D03*
X9016Y354035D02*
D03*
X4016Y344035D02*
D03*
X9016Y334035D02*
D03*
X4016Y324035D02*
D03*
X9016Y314035D02*
D03*
X4016Y304035D02*
D03*
X9016Y294035D02*
D03*
X4016Y284035D02*
D03*
X9016Y274035D02*
D03*
X4016Y264035D02*
D03*
X9016Y254035D02*
D03*
X4016Y244035D02*
D03*
Y224035D02*
D03*
X9016Y214035D02*
D03*
X4016Y204035D02*
D03*
X9016Y194035D02*
D03*
X4016Y184035D02*
D03*
X9016Y174035D02*
D03*
X4016Y164035D02*
D03*
X9016Y154035D02*
D03*
X4016Y144035D02*
D03*
X9016Y134035D02*
D03*
X4016Y124035D02*
D03*
X9016Y114035D02*
D03*
X4016Y104035D02*
D03*
X9016Y94035D02*
D03*
X4016Y84035D02*
D03*
X9016Y74035D02*
D03*
X4016Y64035D02*
D03*
X9016Y54035D02*
D03*
X4016Y44035D02*
D03*
X9016Y34035D02*
D03*
X4016Y24035D02*
D03*
X9016Y14035D02*
D03*
X4016Y4035D02*
D03*
X276800Y60200D02*
D03*
X156200Y198900D02*
D03*
X230161Y351100D02*
D03*
X215200Y342200D02*
D03*
X163685Y187366D02*
D03*
Y191697D02*
D03*
X168016D02*
D03*
X172346D02*
D03*
X176677D02*
D03*
X168016Y187366D02*
D03*
X172346D02*
D03*
X176677D02*
D03*
X163685Y183035D02*
D03*
X168016D02*
D03*
X172346D02*
D03*
X176677D02*
D03*
X163685Y178705D02*
D03*
X168016D02*
D03*
X172346D02*
D03*
X176677D02*
D03*
X169500Y204400D02*
D03*
X213500Y248200D02*
D03*
X219100Y244500D02*
D03*
X116200Y165500D02*
D03*
X127000Y169790D02*
D03*
X123900Y65300D02*
D03*
X187900Y64300D02*
D03*
Y47200D02*
D03*
X189800Y156800D02*
D03*
X187000Y154500D02*
D03*
X202200Y160000D02*
D03*
X210900Y190400D02*
D03*
X204100Y188300D02*
D03*
X187717Y184170D02*
D03*
X190100Y186100D02*
D03*
X198300Y194500D02*
D03*
X178800Y167000D02*
D03*
X189800Y169500D02*
D03*
X192700D02*
D03*
X187000D02*
D03*
X184300D02*
D03*
X174300Y164900D02*
D03*
X161000Y163200D02*
D03*
X162600Y167900D02*
D03*
X173900Y168100D02*
D03*
X189800Y190400D02*
D03*
X192100Y194500D02*
D03*
X166900Y219700D02*
D03*
X154700Y212800D02*
D03*
X157900Y231600D02*
D03*
X145593Y201100D02*
D03*
X148036Y178621D02*
D03*
X152500Y179700D02*
D03*
X149800Y180800D02*
D03*
X149400Y207700D02*
D03*
X163000Y202500D02*
D03*
X174200Y348000D02*
D03*
X125400Y335500D02*
D03*
X117300Y334600D02*
D03*
X123000Y329500D02*
D03*
X172500Y203700D02*
D03*
X176000Y206700D02*
D03*
X144700Y190200D02*
D03*
X175107Y212900D02*
D03*
X188287Y179921D02*
D03*
X192000Y177200D02*
D03*
X206400Y182200D02*
D03*
X150500Y146300D02*
D03*
X186800Y192300D02*
D03*
X187200Y188200D02*
D03*
X190000Y199900D02*
D03*
X186400D02*
D03*
X198400Y174800D02*
D03*
X182500Y162100D02*
D03*
X180300Y164600D02*
D03*
X184500Y152300D02*
D03*
X329200Y202300D02*
D03*
X171600Y158500D02*
D03*
X167700Y165400D02*
D03*
X151100Y170100D02*
D03*
X181000Y173800D02*
D03*
X171100Y225900D02*
D03*
X144585Y193709D02*
D03*
X154300Y160100D02*
D03*
X85200Y208900D02*
D03*
X331500Y236700D02*
D03*
X336100Y239200D02*
D03*
X359400Y242000D02*
D03*
X350800Y245100D02*
D03*
X346400Y245700D02*
D03*
X340300Y257600D02*
D03*
X353000Y231500D02*
D03*
X344100D02*
D03*
X339400Y224900D02*
D03*
X325000Y251500D02*
D03*
X304000Y249000D02*
D03*
X324700Y247000D02*
D03*
X324800Y242500D02*
D03*
X301400Y351200D02*
D03*
X292100Y343400D02*
D03*
X286000Y340900D02*
D03*
X278100Y355500D02*
D03*
X270200Y336400D02*
D03*
X260900D02*
D03*
X193100Y367200D02*
D03*
X198700Y326900D02*
D03*
X194600Y320900D02*
D03*
X161200Y299000D02*
D03*
X165900D02*
D03*
X151800Y299100D02*
D03*
X127400Y295200D02*
D03*
X135600Y273100D02*
D03*
X40600Y351600D02*
D03*
X20200Y349000D02*
D03*
X14200Y351800D02*
D03*
X314500Y10900D02*
D03*
X345700Y141300D02*
D03*
X371300Y117600D02*
D03*
Y138100D02*
D03*
Y160700D02*
D03*
X373900Y178000D02*
D03*
X298800Y55900D02*
D03*
X293300D02*
D03*
X217800Y30800D02*
D03*
Y39900D02*
D03*
X243500Y27800D02*
D03*
X253700D02*
D03*
X268600Y32500D02*
D03*
X269100Y66400D02*
D03*
X256700Y74100D02*
D03*
X244100Y61900D02*
D03*
X254000D02*
D03*
X249400Y67800D02*
D03*
Y74400D02*
D03*
X218200Y65000D02*
D03*
Y73700D02*
D03*
X136000Y53000D02*
D03*
X84600Y31400D02*
D03*
X73100Y28600D02*
D03*
X104800Y159000D02*
D03*
X96965Y151068D02*
D03*
X91900Y151100D02*
D03*
X63700Y141800D02*
D03*
X82000Y150800D02*
D03*
X77000D02*
D03*
X97100Y102800D02*
D03*
X92100Y99500D02*
D03*
X82100Y99600D02*
D03*
X71300Y56200D02*
D03*
X73400Y50100D02*
D03*
X72900Y44600D02*
D03*
X51800Y10900D02*
D03*
X19100D02*
D03*
X19200Y72800D02*
D03*
X51900Y72900D02*
D03*
X69000Y70900D02*
D03*
X123900Y40100D02*
D03*
X352000Y41100D02*
D03*
X358200Y32800D02*
D03*
X349500Y17800D02*
D03*
X345100D02*
D03*
X339000Y13300D02*
D03*
X256000Y39900D02*
D03*
X189300Y17200D02*
D03*
X138200Y17300D02*
D03*
X135800Y61600D02*
D03*
X138700Y47000D02*
D03*
X122300Y210200D02*
D03*
X121700Y205300D02*
D03*
X66900Y22300D02*
D03*
X63800Y32700D02*
D03*
X70900Y22400D02*
D03*
X73200Y32700D02*
D03*
X82900Y39200D02*
D03*
X48600Y152000D02*
D03*
Y162000D02*
D03*
X48800Y172300D02*
D03*
Y181900D02*
D03*
X48900Y192000D02*
D03*
Y202000D02*
D03*
X49100Y211800D02*
D03*
X80200Y191700D02*
D03*
X75100Y194300D02*
D03*
X72000Y241200D02*
D03*
X77100D02*
D03*
X92091Y241343D02*
D03*
X87200Y241400D02*
D03*
X95100Y194600D02*
D03*
X90100Y191500D02*
D03*
X49400Y222100D02*
D03*
X61500Y300500D02*
D03*
X38500Y270400D02*
D03*
X199100Y346700D02*
D03*
X136000Y256633D02*
D03*
X130400D02*
D03*
X124800D02*
D03*
X119200D02*
D03*
X113600D02*
D03*
X109000Y256514D02*
D03*
X142400Y229600D02*
D03*
Y233600D02*
D03*
Y237600D02*
D03*
Y241600D02*
D03*
Y245600D02*
D03*
Y249600D02*
D03*
X133200Y222100D02*
D03*
X125100D02*
D03*
X121175D02*
D03*
X117250D02*
D03*
X113325D02*
D03*
X109000Y222081D02*
D03*
Y227000D02*
D03*
Y231919D02*
D03*
Y236838D02*
D03*
Y241757D02*
D03*
Y246676D02*
D03*
Y251595D02*
D03*
X228278Y301736D02*
D03*
X68000Y338000D02*
D03*
X165100Y351100D02*
D03*
X357200Y231800D02*
D03*
X258000Y120900D02*
D03*
X262600D02*
D03*
X371260Y191732D02*
D03*
X170700Y51100D02*
D03*
X77000Y102400D02*
D03*
X218600Y301800D02*
D03*
X219900Y316600D02*
D03*
X127100Y32900D02*
D03*
X277900Y67500D02*
D03*
X269000Y77000D02*
D03*
X63900Y65100D02*
D03*
Y45866D02*
D03*
X71000Y39200D02*
D03*
X194300Y28200D02*
D03*
X177500Y28000D02*
D03*
X135600Y282200D02*
D03*
Y286600D02*
D03*
X153100Y248700D02*
D03*
X63700Y331700D02*
D03*
X59000Y338400D02*
D03*
X169700Y358300D02*
D03*
X154000Y354100D02*
D03*
X37100Y311100D02*
D03*
X91100Y351500D02*
D03*
X97700Y315900D02*
D03*
X91600Y331300D02*
D03*
X300600Y80600D02*
D03*
X82020Y141851D02*
D03*
X71300Y189500D02*
D03*
X73416Y218684D02*
D03*
X65300Y216500D02*
D03*
X89970Y214490D02*
D03*
X46100Y32900D02*
D03*
X215700Y257400D02*
D03*
X237000Y250500D02*
D03*
X224400Y248400D02*
D03*
X228600Y246100D02*
D03*
X221400Y262000D02*
D03*
X281100Y246500D02*
D03*
X336400Y251100D02*
D03*
X235000Y304300D02*
D03*
X126300Y306700D02*
D03*
X137600Y311400D02*
D03*
X137500Y316100D02*
D03*
Y321000D02*
D03*
X141400Y337800D02*
D03*
X137300Y330400D02*
D03*
X39300Y181800D02*
D03*
X82316Y344435D02*
D03*
X86916Y132435D02*
D03*
X70239Y224408D02*
D03*
X85139Y224507D02*
D03*
X241929Y284449D02*
D03*
X239499Y287547D02*
D03*
X237500Y254035D02*
D03*
X108562Y183093D02*
D03*
X188655Y241043D02*
D03*
X188651Y256408D02*
D03*
X302756Y44390D02*
D03*
X285827Y36024D02*
D03*
X341831Y119587D02*
D03*
X342224Y162106D02*
D03*
X251300Y296400D02*
D03*
X263976Y115945D02*
D03*
X87016Y118335D02*
D03*
X198917Y206890D02*
D03*
X198524Y199902D02*
D03*
X186811Y203051D02*
D03*
X301248Y244168D02*
D03*
X291406Y249680D02*
D03*
X182382Y202953D02*
D03*
X235925Y224311D02*
D03*
X178543Y202953D02*
D03*
X197047Y214567D02*
D03*
X175098Y202953D02*
D03*
X158076Y57771D02*
D03*
X191240Y227658D02*
D03*
X214317Y236811D02*
D03*
X82068Y120395D02*
D03*
X62987Y209653D02*
D03*
X109646Y322835D02*
D03*
Y316929D02*
D03*
X106463Y312402D02*
D03*
X101312D02*
D03*
X96161D02*
D03*
X91010D02*
D03*
X86909Y314813D02*
D03*
Y319980D02*
D03*
Y325148D02*
D03*
Y330315D02*
D03*
Y335482D02*
D03*
X91010Y337894D02*
D03*
X95899D02*
D03*
X100743Y338155D02*
D03*
X105676Y337894D02*
D03*
X109646Y334646D02*
D03*
Y328740D02*
D03*
X161614Y37303D02*
D03*
X76102Y128657D02*
D03*
X332200Y251000D02*
D03*
X190354Y182283D02*
D03*
M02*
