M48
;Layer_Color=9474304
;FILE_FORMAT=2:5
INCH,LZ
;TYPE=PLATED
T1F00S00C0.01181
T2F00S00C0.01200
T5F00S00C0.03000
T7F00S00C0.04000
T8F00S00C0.04724
T9F00S00C0.05906
T10F00S00C0.06299
T11F00S00C0.07480
T12F00S00C0.11811
;TYPE=NON_PLATED
T13F00S00C0.04685
%
T01
X029161Y0048535
X0294563
X0297516
T02
X0004016Y0004035
X0014016
X0024016
X0034016
X0044016
X0054016
X0064016
X0074016
X0084016
X0094016
X0104016
X0114016
X0124016
X0134016
X0144016
X0154016
X0164016
X0174016
X0184016
X0194016
X0204016
X0214016
X0224016
X0234016
X0244016
X0254016
X0264016
X0274016
X0284016
X0294016
X0304016
X0314016
X0334016
X0344016
X0354016
X0364016
X0374016
X0379016Y0014035
Y0034035
Y0054035
X0374016Y0064035
X0364016
X0354016
X0359016Y0074035
X0349016
X0354016Y0084035
X0364016
X0374016
X0379016Y0094035
X0369016
X0359016
X0349016
X0354016Y0104035
X0364016
X0374016
X0379016Y0114035
X03713Y01176
X0374016Y0124035
X0364016
X0354016
X0344016
X0341831Y0119587
X0334016Y0124035
X0324016
X0314016
X0319016Y0114035
X0329016
X0334016Y0104035
X0324016
X0314016
X0319016Y0094035
X0329016
X0334016Y0084035
X0324016
X0314016
X0319016Y0074035
X0324016Y0064035
X0334016
X0314016
X0304016
X02988Y00559
X02933
X0279016Y0054035
X02768Y00602
X02779Y00675
X0279016Y0074035
X0289016
X0299016
X03006Y00806
X0294016Y0084035
X0284016
X0289016Y0094035
X0279016
X0284016Y0104035
X0294016
X0289016Y0114035
X0294016Y0124035
X0284016
X0274016
X02626Y01209
X0258
X0259016Y0114035
X0263976Y0115945
X0264016Y0104035
X0274016
X0244016
X0249016Y0094035
X0244016Y0084035
X02494Y00744
Y00678
X0254Y00619
X02441
X0249016Y0054035
X0256Y00399
X0259016Y0034035
X02686Y00325
X0264016Y0024035
X0274016
X0284016
X0285827Y0036024
X0284016Y0044035
X0274016
X02691Y00664
X0269Y0077
X02567Y00741
X0284016Y0064035
X0302756Y004439
X0319016Y0054035
X0352Y00411
X03582Y00328
X03495Y00178
X0349016Y0014035
X03451Y00178
X0339Y00133
X0329016Y0014035
X03145Y00109
X0309016Y0014035
X0299016
X0289016
X0279016
X0269016
X0259016
X02537Y00278
X02435
X0244016Y0124035
X0249016Y0134035
X0259016
X0269016
X0279016
X0289016
X0294016Y0144035
X0304016
X0314016
X0324016
X0334016
X0344016
X03457Y01413
X0354016Y0144035
X0364016
X0374016
X03713Y01381
X0379016Y0134035
Y0154035
X03713Y01607
X0374016Y0164035
X0364016
X0354016
X0342224Y0162106
X0329016Y0154035
X0319016
X0309016
X0299016
X0289016
X0279016
X0269016
X0259016
X0249016
X0254016Y0144035
X0264016
X0274016
X0284016
X0244016
X0309016Y0114035
X0339016Y0134035
X0379016Y0074035
X0239016
X0234016Y0084035
X0224016
X0214016
X0204016
X0209016Y0094035
X0219016
X0229016
X0239016
X0234016Y0104035
X0224016
X0214016
X0204016
X0209016Y0114035
X0219016
X0229016
X0224016Y0124035
X0214016
X0204016
X0194016
X0199016Y0114035
Y0094035
Y0074035
X0209016
X02182Y00737
Y0065
X0214016Y0064035
X0204016
X0209016Y0054035
X0219016
X0229016
X0239016
X0234016Y0064035
X02178Y00399
Y00308
X0204016Y0024035
X01943Y00282
X0199016Y0034035
X0204016Y0044035
X0194016
X01879Y00472
X0174016Y0044035
X0164016
X0161614Y0037303
X0154016Y0044035
X0159016Y0054035
X0158076Y0057771
X0154016Y0064035
X0144016
X0134016
X01358Y00616
X0136Y0053
X0129016Y0054035
X0119016
X0109016
X0099016
X0089016
Y0074035
X0099016
X0104016Y0084035
X0094016
X0099016Y0094035
X0109016
X0119016
X0124016Y0084035
X0134016
X0139016Y0094035
X0149016
X0159016
X0169016
X0179016
X0174016Y0104035
X0179016Y0114035
X0169016
X0159016
X0164016Y0124035
X0174016
X0179016Y0134035
X01845Y01523
X0187Y01545
X01898Y01568
X0199016Y0154035
X02022Y016
X0214016Y0164035
X0224016
X0229016Y0154035
X0239016
X0234016Y0144035
X0224016
X0229016Y0134035
X0239016
X0219016Y0154035
X01825Y01621
X01803Y01646
X01743Y01649
X01677Y01654
X0161Y01632
X01543Y01601
X0149016Y0154035
X01505Y01463
X0154016Y0124035
Y0104035
X0144016
X0134016
X0139016Y0114035
X0129016
X0119016
X0109016
X0104016Y0124035
X0094016
X0087016Y0118335
X0086916Y0132435
X00919Y01511
X0096965Y0151068
X0099016Y0154035
X0109016
X01048Y0159
X0104016Y0164035
X0114016
X01162Y01655
X0119016Y0154035
X0129016
X0169016
X01716Y01585
X0174016Y0084035
X0164016
X0154016
X0159016Y0074035
X0169016
X0179016
X0174016Y0064035
X01879Y00643
X0199016Y0054035
X0169016
X01707Y00511
X01775Y0028
X0179016Y0014035
X0189016
X01893Y00172
X0199016Y0014035
X0169016
X0159016
X0154016Y0024035
X01382Y00173
X0139016Y0034035
X01271Y00329
X0119016Y0034035
X0109016
X0099016
X0089016
X01239Y00401
X0134016Y0044035
X01387Y0047
X0139016Y0074035
X0149016
X0129016
X0119016
X01239Y00653
X0104016Y0064035
X0089016Y0094035
X00921Y00995
X00971Y01028
X0094016Y0164035
X0084016
X0074016
X0064016
X0054016
X00486Y0162
Y0152
X0059016Y0154035
X0069016
X0079016
X0077Y01508
X0082
X008202Y0141851
X0079016Y0134035
X0076102Y0128657
X0069016Y0134035
X00637Y01418
X0054016Y0144035
X0044016
X0039016Y0134035
X0029016
X0019016
X0009016
X0014016Y0124035
X0024016
X0034016
X0039016Y0114035
X0049016
X0059016
X0064016Y0104035
X0054016
X0044016
X0034016
X0039016Y0094035
X0049016
X0059016
X0069016
X0079016
X00821Y00996
X0077Y01024
X0074016Y0084035
X0084016
X0079016Y0074035
X0069016
X0069Y00709
X00639Y00651
X0054016Y0064035
X0044016
X0034016
X0024016
X0014016
X0004016
X0009016Y0074035
X00192Y00728
X0029016Y0074035
X0039016
X0049016
X00519Y00729
X0059016Y0074035
X0064016Y0084035
X0054016
X0044016
X0034016
X0024016
X0014016
X0004016
X0009016Y0094035
X0004016Y0104035
X0009016Y0114035
X0019016
X0029016
Y0094035
Y0054035
X0019016
X0009016
X0014016Y0044035
X0024016
X0034016
X0029016Y0034035
X0019016
X0009016
X0014016Y0024035
X0024016
X0034016
X0039016Y0014035
X0029016
X00191Y00109
X0009016Y0014035
X0004016Y0024035
Y0044035
X00461Y00329
X0049016Y0034035
X0059016
X00638Y00327
X00732
X00731Y00286
X00709Y00224
X00669Y00223
X0069016Y0014035
X0059016
X00518Y00109
X00639Y0045866
X00729Y00446
X00734Y00501
X00713Y00562
X0079016Y0054035
X00829Y00392
X00846Y00314
X0071Y00392
X0082068Y0120395
X0024016Y0144035
X0029016Y0154035
X0024016Y0164035
X0004016
X0009016Y0154035
X0004016Y0144035
Y0124035
X0009016Y0174035
X0004016Y0184035
X0009016Y0194035
X0004016Y0204035
X0009016Y0214035
X0004016Y0224035
X0024016
X0029016Y0234035
X0039016
X0049016
X0059016
X0064016Y0244035
X0074016
X0072Y02412
X00771
X0079016Y0254035
X0069016
X0059016
X0049016
X0054016Y0244035
X0044016
X0034016
X0024016
X0014016
X0004016
X0009016Y0254035
X0014016Y0264035
X0004016
X0009016Y0274035
X0019016
X0029016
X0039016
X00385Y02704
X0034016Y0264035
X0044016
X0049016Y0274035
X0059016
X0069016
X0079016
X0084016Y0284035
Y0304035
X0074016
X0064016
X00615Y03005
X0054016Y0304035
X0044016
X0034016
X00371Y03111
X0039016Y0314035
X0049016
X0059016
X0049016Y0294035
X0039016
X0029016
X0019016
X0009016
X0014016Y0304035
X0004016
X0009016Y0314035
X0019016
X0024016Y0284035
X0014016
X0004016
X0029016Y0214035
X0024016Y0204035
X0029016Y0194035
X0024016Y0184035
X0029016Y0174035
X00393Y01818
X00488Y01819
X0054016Y0184035
X0064016
X0074016
X00713Y01895
X00751Y01943
X00802Y01917
X0079016Y0174035
X0069016
X0059016
X00488Y01723
X00489Y0192
Y0202
X0054016Y0204035
X0064016
X0062987Y0209653
X0059016Y0214035
X00653Y02165
X0069016Y0214035
X0073416Y0218684
X0074016Y0224035
X0070239Y0224408
X0085139Y0224507
X00852Y02089
X00491Y02118
X00494Y02221
X0054016Y0224035
X0094016
X008997Y021449
X0109016Y0214035
X0109Y0222081
X0113325Y02221
X011725
X0121175
X01251
X01332
X0144016Y0224035
X01424Y02296
Y02336
X0139016Y0234035
X01424Y02376
Y02416
Y02456
Y02496
X0139016Y0254035
X0136Y0256633
X01304
X0129016Y0254035
X01248Y0256633
X01192
X0119016Y0254035
X01136Y0256633
X0109Y0256514
Y0251595
Y0246676
Y0241757
Y0236838
Y0231919
Y0227
X0119016Y0234035
X0129016
X0134016Y0244035
X0114016
X0094016
X0092091Y0241343
X00872Y02414
X0089016Y0254035
X0099016
Y0274035
X0109016
X0104016Y0284035
X0094016
X0089016Y0274035
X0129016
X01356Y02731
Y02822
Y02866
X0139016Y0294035
X01274Y02952
X0119016Y0294035
X0124016Y0304035
X01263Y03067
X0119016Y0314035
X0109016
X0109646Y0316929
X0106463Y0312402
X0101312
X0096161
X00977Y03159
X009101Y0312402
X0086909Y0314813
Y031998
X0104016Y0304035
X0114016
X0144016
X0154016
X01518Y02991
X01612Y0299
X01659
X0164016Y0304035
X0169016Y0314035
X0159016
X0149016
X0139016
X01375Y03161
X01376Y03114
X01375Y0321
X0124016Y0284035
X0154016
X0164016
X0174016
X0184016
X0189016Y0294035
X0199016
X0209016
X0219016
X02186Y03018
X0228278Y0301736
X0235Y03043
X0239016Y0314035
X0229016
X02199Y03166
X0209016Y0314035
X0199016
X0189016
X01946Y03209
X0194016Y0304035
X0204016
Y0284035
X0214016
X0224016
X0229016Y0274035
X0219016
X0209016
X0199016
X0189016
X0194016Y0264035
X0204016
X0199016Y0254035
X0188651Y0256408
X0184016Y0264035
X0174016
X0164016
X0154016
X0144016
X0149016Y0274035
X0159016
X0169016
Y0254035
X0159016
X01531Y02487
X0164016Y0244035
X0174016
X0184016
X0188655Y0241043
X0194016Y0244035
X019124Y0227658
X0194016Y0224035
X0204016
X0214016
X0214317Y0236811
X0219016Y0234035
X0229016
X02286Y02461
X02244Y02484
X02191Y02445
X02135Y02482
X02157Y02574
X02214Y0262
X0234016Y0264035
X02375Y0254035
X0237Y02505
X0235925Y0224311
X0224016Y0204035
X0229016Y0194035
X0239016
X0234016Y0184035
X0239016Y0174035
X0229016
X0219016
X02064Y01822
X02041Y01883
X02109Y01904
X0209016Y0194035
X01983Y01945
X0198524Y0199902
X0198917Y020689
X0197047Y0214567
X0179016Y0214035
X0175107Y02129
X0176Y02067
X0175098Y0202953
X01725Y02037
X01695Y02044
X0163Y02025
X01562Y01989
X0145593Y02011
X0144585Y0193709
X01447Y01902
X0139016Y0194035
X0129016
X0119016
X0109016
X0108562Y0183093
X0104016Y0184035
X0094016
X00901Y01915
X00951Y01946
X0099016Y0174035
X0109016
X0127Y016979
X0124016Y0184035
X01217Y02053
X01223Y02102
X0119016Y0214035
X0139016
X01494Y02077
X01547Y02128
X0154016Y0224035
X01579Y02316
X0159016Y0234035
X0149016
X01711Y02259
X01669Y02197
X0178543Y0202953
X0182382
X0186811Y0203051
X01864Y01999
X019
X01921Y01945
X01898Y01904
X01901Y01861
X0190354Y0182283
X0188287Y0179921
X0187717Y018417
X01872Y01882
X01868Y01923
X0176677Y0191697
X0172346
X0168016
X0163685
Y0187366
X0168016
X0172346
X0176677
Y0183035
X0172346
X0168016
X0163685
Y0178705
X0168016
X0172346
X0176677
X0181Y01738
X01843Y01695
X0187
X01898
X01927
X0192Y01772
X01984Y01748
X01788Y0167
X01739Y01681
X01626Y01679
X01511Y01701
X01525Y01797
X01498Y01808
X0148036Y0178621
X0241929Y0284449
X0239499Y0287547
X0239016Y0294035
X02513Y02964
X0259016Y0294035
X0269016
X0279016
X0289016
X0299016
X0309016
X0319016
X0329016
X0339016
X0349016
X0359016
X0369016
X0379016
X0374016Y0304035
X0364016
X0354016
X0344016
X0334016
X0324016
X0314016
X0304016
X0294016
X0284016
X0274016
X0264016
X0254016
X0259016Y0314035
X0269016
X0279016
X0289016
X0299016
X0309016
X0319016
X0329016
X0339016
X0349016
X0359016
X0369016
X0379016
X0374016Y0284035
X0364016
X0354016
X0344016
X0334016
X0324016
X0314016
X0304016
X0294016
X0284016
X0274016
X0264016
X0254016
X0259016Y0274035
X0269016
X0279016
X0289016
X0299016
X0294016Y0264035
X0284016
X0274016
X0264016
X0254016
X0244016
X0249016Y0274035
Y0254035
X0254016Y0244035
X0264016
X0269016Y0234035
X0279016
X0289016
X0299016
X0301248Y0244168
X0304Y0249
X0299016Y0254035
X0291406Y024968
X0284016Y0244035
X02811Y02465
X0284016Y0224035
X0294016
X0304016
X0314016
X0324016
X0334016
X03394Y02249
X03441Y02315
X0353
X03572Y02318
X03594Y0242
X0354016Y0244035
X03508Y02451
X03464Y02457
X0349016Y0254035
X0359016
X0364016Y0264035
X0374016
X0379016Y0274035
X0369016
X0359016
X0349016
X0339016
X0329016
X0319016
X0324016Y0264035
X0334016
X0344016
X0354016
X03403Y02576
X03364Y02511
X03322Y0251
X0325Y02515
X03247Y0247
X03248Y02425
X0334016Y0244035
X03361Y02392
X03315Y02367
X0329016Y0234035
X0319016
X0314016Y0264035
X0379016Y0254035
X0374016Y0244035
X0379016Y0234035
Y0214035
X0374016Y0204035
X0379016Y0194035
X037126Y0191732
X0374016Y0184035
X03739Y0178
X0379016Y0174035
X0359016
X0364016Y0184035
X0354016
X0349016Y0194035
X0339016
X0329016
X03292Y02023
X0319016Y0194035
X0309016
X0299016
X0289016
X0279016
X0269016
X0259016
X0249016
X0254016Y0184035
X0264016
X0274016
X0284016
X0294016
X0304016
X0314016
X0324016
X0334016
X0339016Y0174035
X0329016
X0319016
X0309016
X0299016
X0289016
X0279016
X0269016
X0259016
X0249016
X0244016Y0184035
X0249016Y0234035
X0259016
X0244016Y0244035
Y0324035
X0249016Y0334035
X0259016
X02609Y03364
X02702
X0269016Y0334035
X0279016
X0289016
X0286Y03409
X02921Y03434
X0304016Y0344035
X03014Y03512
X0309016Y0354035
X0319016
X0329016
X0339016
X0344016Y0364035
X0354016
X0364016
X0374016
X0379016Y0354035
X0369016
X0374016Y0344035
X0379016Y0334035
X0369016
X0359016
X0349016
X0339016
X0329016
X0319016
X0309016
X0299016
X0304016Y0324035
X0314016
X0324016
X0334016
X0344016
X0354016
X0364016
X0374016
X0344016Y0344035
X0334016
X0324016
X0314016
Y0364035
X0324016
X0334016
X0304016
X0294016
X02781Y03555
X0274016Y0344035
X0264016
X0254016
X0244016
X0249016Y0354035
X0254016Y0364035
X0244016
X0274016Y0324035
X0284016
X0294016
X0234016
X0224016
X0219016Y0334035
X0209016
X0199016
X01987Y03269
X0194016Y0324035
X0204016
X0189016Y0334035
X0179016
X0169016
X0159016
X0149016
X0139016
X01373Y03304
X01414Y03378
X0134016Y0344035
X0124016
X01254Y03355
X0129016Y0334035
X0123Y03295
X01173Y03346
X0109646Y0334646
Y032874
Y0322835
X0094016Y0324035
X0086909Y0325148
Y0330315
Y0335482
X0089016Y0334035
X00916Y03313
X009101Y0337894
X0095899
X0100743Y0338155
X0105676Y0337894
X0114016Y0344035
X0119016Y0354035
X0129016
X0139016
X0144016Y0364035
X0154016
X0154Y03541
X0154016Y0344035
X01651Y03511
X01697Y03583
X0174016Y0364035
X0184016
X0194016
X01931Y03672
X0189016Y0354035
X0199016
X01991Y03467
X0194016Y0344035
X0184016
X0174016
X01742Y0348
X0164016Y0364035
X0134016
X0124016
X0114016
X0104016
X0109016Y0354035
X0099016
X00911Y03515
X0144016Y0324035
X0154016
X0164016
X02152Y03422
X0209016Y0354035
X0230161Y03511
X0239016Y0354035
X0234016Y0364035
X0224016
X0239016Y0334035
X0079016
X0069016
X0068Y0338
X0059Y03384
X0059016Y0334035
X00637Y03317
X0064016Y0324035
X0054016
X0044016
X0034016
X0039016Y0334035
X0049016
X0054016Y0344035
X0044016
X0034016
X0024016
X00202Y0349
X00142Y03518
X0009016Y0354035
X0014016Y0344035
X0004016
X0009016Y0334035
X0019016
X0014016Y0324035
X0004016
Y0364035
X0029016Y0354035
X00406Y03516
X0079016Y0354035
X0082316Y0344435
X0084016Y0324035
T05
X0095413Y0362992
X0085413
X0075413
X0065413
X0055413
X0045413
X0035413
X0025413
X0015413
T07
X00141Y0142
Y0152
Y0162
Y0172
Y0182
Y0192
Y0202
Y0212
Y0222
Y0232
X0020079Y0255059
Y0265059
T08
X0244079Y03516
X0216521
X02303Y0331915
T09
X0327441Y0051417
Y0071417
X0367441
Y0051417
X01256Y02396
T10
X01156Y02296
Y02496
X01356
Y02296
T11
X0031791Y0285059
Y0337067
T12
X03651Y00145
X00224Y01022
X03572Y03503
T13
X0358957Y0107087
Y0116929
Y0128347
Y0138189
X0359154Y0150295
Y0160138
Y0169783
Y0179626
X0358228Y0197343
Y0207185
M30
