G04*
G04 #@! TF.GenerationSoftware,Altium Limited,Altium Designer,19.1.5 (86)*
G04*
G04 Layer_Color=32768*
%FSLAX25Y25*%
%MOIN*%
G70*
G01*
G75*
%ADD16C,0.00787*%
%ADD17C,0.00500*%
D16*
X197272Y312000D02*
G03*
X197272Y312000I-1772J0D01*
G01*
X191572Y306500D02*
G03*
X191572Y306500I-1772J0D01*
G01*
X147272Y351100D02*
G03*
X147272Y351100I-1772J0D01*
G01*
X214672Y36600D02*
G03*
X214672Y36600I-1772J0D01*
G01*
X310070Y136122D02*
G03*
X310070Y136122I-1772J0D01*
G01*
X215272Y71000D02*
G03*
X215272Y71000I-1772J0D01*
G01*
X216088Y236811D02*
G03*
X216088Y236811I-1772J0D01*
G01*
X234672Y241900D02*
G03*
X234672Y241900I-1772J0D01*
G01*
X223172Y269400D02*
G03*
X223172Y269400I-1772J0D01*
G01*
X308072Y273400D02*
G03*
X308072Y273400I-1772J0D01*
G01*
X225000Y222342D02*
G03*
X225000Y222342I-1772J0D01*
G01*
X263572Y309300D02*
G03*
X263572Y309300I-1772J0D01*
G01*
X245472D02*
G03*
X245472Y309300I-1772J0D01*
G01*
X65572Y336400D02*
G03*
X65572Y336400I-1772J0D01*
G01*
X180872Y354100D02*
G03*
X180872Y354100I-1772J0D01*
G01*
X80372Y296400D02*
G03*
X80372Y296400I-1772J0D01*
G01*
X88487Y143235D02*
G03*
X88487Y143235I-1772J0D01*
G01*
X88772Y153000D02*
G03*
X88772Y153000I-1772J0D01*
G01*
X88587Y107635D02*
G03*
X88587Y107635I-1772J0D01*
G01*
X86672Y186200D02*
G03*
X86672Y186200I-1772J0D01*
G01*
X83772Y241700D02*
G03*
X83772Y241700I-1772J0D01*
G01*
X83472Y235900D02*
G03*
X83472Y235900I-1772J0D01*
G01*
X86872Y199800D02*
G03*
X86872Y199800I-1772J0D01*
G01*
X135672Y28400D02*
G03*
X135672Y28400I-1772J0D01*
G01*
X196772Y53000D02*
G03*
X196772Y53000I-1772J0D01*
G01*
X122072Y22900D02*
G03*
X122072Y22900I-1772J0D01*
G01*
X184172Y69700D02*
G03*
X184172Y69700I-1772J0D01*
G01*
X76972Y65100D02*
G03*
X76972Y65100I-1772J0D01*
G01*
X196172Y23100D02*
G03*
X196172Y23100I-1772J0D01*
G01*
X130753Y21401D02*
G03*
X130753Y21401I-1772J0D01*
G01*
X340748Y37697D02*
G03*
X340748Y37697I-1772J0D01*
G01*
X88472Y100200D02*
G03*
X88472Y100200I-1772J0D01*
G01*
X217772Y263100D02*
G03*
X217772Y263100I-1772J0D01*
G01*
D17*
X128145Y24463D02*
Y26462D01*
Y25463D01*
X131144D01*
Y27462D02*
X128145D01*
Y28962D01*
X128645Y29461D01*
X129645D01*
X130144Y28962D01*
Y27462D01*
X128645Y30461D02*
X128145Y30961D01*
Y31961D01*
X128645Y32460D01*
X129145D01*
X129645Y31961D01*
Y31461D01*
Y31961D01*
X130144Y32460D01*
X130644D01*
X131144Y31961D01*
Y30961D01*
X130644Y30461D01*
X131144Y33460D02*
Y34460D01*
Y33960D01*
X128145D01*
X128645Y33460D01*
X189245Y49063D02*
Y51062D01*
Y50063D01*
X192244D01*
Y52062D02*
X189245D01*
Y53562D01*
X189745Y54061D01*
X190745D01*
X191244Y53562D01*
Y52062D01*
X192244Y57060D02*
Y55061D01*
X190245Y57060D01*
X189745D01*
X189245Y56561D01*
Y55561D01*
X189745Y55061D01*
Y58060D02*
X189245Y58560D01*
Y59560D01*
X189745Y60059D01*
X190245D01*
X190745Y59560D01*
X191244Y60059D01*
X191744D01*
X192244Y59560D01*
Y58560D01*
X191744Y58060D01*
X191244D01*
X190745Y58560D01*
X190245Y58060D01*
X189745D01*
X190745Y58560D02*
Y59560D01*
X114356Y18699D02*
Y20699D01*
Y19699D01*
X117355D01*
Y21698D02*
X114356D01*
Y23198D01*
X114856Y23698D01*
X115856D01*
X116355Y23198D01*
Y21698D01*
X117355Y26697D02*
Y24697D01*
X115356Y26697D01*
X114856D01*
X114356Y26197D01*
Y25197D01*
X114856Y24697D01*
X116855Y27696D02*
X117355Y28196D01*
Y29196D01*
X116855Y29696D01*
X114856D01*
X114356Y29196D01*
Y28196D01*
X114856Y27696D01*
X115356D01*
X115856Y28196D01*
Y29696D01*
X176645Y65763D02*
Y67762D01*
Y66763D01*
X179644D01*
Y68762D02*
X176645D01*
Y70262D01*
X177145Y70761D01*
X178145D01*
X178644Y70262D01*
Y68762D01*
X177145Y71761D02*
X176645Y72261D01*
Y73261D01*
X177145Y73760D01*
X177645D01*
X178145Y73261D01*
Y72761D01*
Y73261D01*
X178644Y73760D01*
X179144D01*
X179644Y73261D01*
Y72261D01*
X179144Y71761D01*
X177145Y74760D02*
X176645Y75260D01*
Y76260D01*
X177145Y76759D01*
X179144D01*
X179644Y76260D01*
Y75260D01*
X179144Y74760D01*
X177145D01*
X69445Y61163D02*
Y63162D01*
Y62163D01*
X72444D01*
Y64162D02*
X69445D01*
Y65662D01*
X69945Y66161D01*
X70945D01*
X71444Y65662D01*
Y64162D01*
X69945Y67161D02*
X69445Y67661D01*
Y68661D01*
X69945Y69160D01*
X70445D01*
X70945Y68661D01*
Y68161D01*
Y68661D01*
X71444Y69160D01*
X71944D01*
X72444Y68661D01*
Y67661D01*
X71944Y67161D01*
X72444Y72159D02*
Y70160D01*
X70445Y72159D01*
X69945D01*
X69445Y71660D01*
Y70660D01*
X69945Y70160D01*
X188645Y19163D02*
Y21162D01*
Y20163D01*
X191644D01*
Y22162D02*
X188645D01*
Y23662D01*
X189145Y24161D01*
X190145D01*
X190644Y23662D01*
Y22162D01*
X189145Y25161D02*
X188645Y25661D01*
Y26661D01*
X189145Y27160D01*
X189645D01*
X190145Y26661D01*
Y26161D01*
Y26661D01*
X190644Y27160D01*
X191144D01*
X191644Y26661D01*
Y25661D01*
X191144Y25161D01*
X189145Y28160D02*
X188645Y28660D01*
Y29660D01*
X189145Y30159D01*
X189645D01*
X190145Y29660D01*
Y29160D01*
Y29660D01*
X190644Y30159D01*
X191144D01*
X191644Y29660D01*
Y28660D01*
X191144Y28160D01*
X119500Y30999D02*
X121499D01*
X120500D01*
Y28000D01*
X122499D02*
Y30999D01*
X123999D01*
X124498Y30499D01*
Y29500D01*
X123999Y29000D01*
X122499D01*
X125498Y30499D02*
X125998Y30999D01*
X126998D01*
X127497Y30499D01*
Y29999D01*
X126998Y29500D01*
X126498D01*
X126998D01*
X127497Y29000D01*
Y28500D01*
X126998Y28000D01*
X125998D01*
X125498Y28500D01*
X129997Y28000D02*
Y30999D01*
X128497Y29500D01*
X130496D01*
M02*
