G04*
G04 #@! TF.GenerationSoftware,Altium Limited,Altium Designer,19.1.5 (86)*
G04*
G04 Layer_Color=32768*
%FSLAX25Y25*%
%MOIN*%
G70*
G01*
G75*
%ADD15C,0.00394*%
%ADD17C,0.00500*%
D15*
X226656Y305575D02*
G03*
X228892Y305575I1118J0D01*
G01*
X232062Y303957D02*
G03*
X232062Y303957I-787J0D01*
G01*
X369346Y198343D02*
G03*
X369346Y198343I-1118J0D01*
G01*
X132701Y279550D02*
X145496D01*
X132701Y273250D02*
X145496D01*
X114544Y323091D02*
Y334509D01*
X120056Y323091D02*
Y334509D01*
X368760Y169303D02*
Y180303D01*
X373760D01*
Y169303D02*
Y180303D01*
X368760Y169303D02*
X373760D01*
X368760Y178803D02*
X373760D01*
X259266Y35936D02*
Y48731D01*
X265565Y35936D02*
Y48731D01*
X259866Y69936D02*
Y82731D01*
X266165Y69936D02*
Y82731D01*
X368760Y106213D02*
Y117213D01*
X373760D01*
Y106213D02*
Y117213D01*
X368760Y106213D02*
X373760D01*
X368760Y115713D02*
X373760D01*
X368760Y149323D02*
Y160323D01*
X373760D01*
Y149323D02*
Y160323D01*
X368760Y149323D02*
X373760D01*
X368760Y158823D02*
X373760D01*
X368760Y126685D02*
Y137685D01*
X373760D01*
Y126685D02*
Y137685D01*
X368760Y126685D02*
X373760D01*
X368760Y136185D02*
X373760D01*
X351181Y110827D02*
Y122244D01*
X345669Y110827D02*
Y122244D01*
Y153248D02*
Y164665D01*
X351181Y153248D02*
Y164665D01*
X345669Y132480D02*
Y143898D01*
X351181Y132480D02*
Y143898D01*
X241658Y300439D02*
X248942D01*
X241658Y305262D02*
X248942D01*
X228892Y305575D02*
X233286D01*
X222263D02*
X226656D01*
X233286Y295339D02*
Y305575D01*
X222263Y295339D02*
Y305575D01*
Y295339D02*
X233286D01*
X365717Y195843D02*
Y198598D01*
Y206279D02*
Y209035D01*
X376740Y195843D02*
Y198598D01*
Y206279D02*
Y209035D01*
X365717D02*
X376740D01*
X365717Y195843D02*
X376740D01*
X202658Y204134D02*
X214075D01*
X202658Y209646D02*
X214075D01*
X202559Y197146D02*
X213976D01*
X202559Y202658D02*
X213976D01*
X331591Y199544D02*
X343009D01*
X331591Y205056D02*
X343009D01*
X241759Y293949D02*
X249042D01*
X241759Y298772D02*
X249042D01*
X141858Y216739D02*
X149142D01*
X141858Y221562D02*
X149142D01*
X266791Y113866D02*
Y130795D01*
X278209Y113866D02*
Y130795D01*
X155638Y223658D02*
Y230942D01*
X160461Y223658D02*
Y230942D01*
X146138Y168158D02*
Y175442D01*
X150961Y168158D02*
Y175442D01*
X146758Y157738D02*
X154042D01*
X146758Y162561D02*
X154042D01*
X167658Y215262D02*
X174942D01*
X167658Y210439D02*
X174942D01*
X335571Y13441D02*
Y26630D01*
X342461Y13441D02*
Y26630D01*
X278110Y57279D02*
X289921D01*
X278110Y62791D02*
X289921D01*
X141851Y205338D02*
X149135D01*
X141851Y210161D02*
X149135D01*
X141858Y211038D02*
X149142D01*
X141858Y215861D02*
X149142D01*
X146058Y203462D02*
X153342D01*
X146058Y198639D02*
X153342D01*
X358210Y35491D02*
X370021D01*
X358210Y29980D02*
X370021D01*
X351181Y173524D02*
Y184941D01*
X345669Y173524D02*
Y184941D01*
D17*
X132898Y277627D02*
Y274628D01*
X134897D01*
X137396D02*
Y277627D01*
X135897Y276128D01*
X137896D01*
X240084Y301030D02*
Y304029D01*
X241583D01*
X242083Y303529D01*
Y302529D01*
X241583Y302030D01*
X240084D01*
X241083D02*
X242083Y301030D01*
X245082Y304029D02*
X243082D01*
Y302529D01*
X244082Y303029D01*
X244582D01*
X245082Y302529D01*
Y301530D01*
X244582Y301030D01*
X243582D01*
X243082Y301530D01*
X246081Y303529D02*
X246581Y304029D01*
X247581D01*
X248081Y303529D01*
Y301530D01*
X247581Y301030D01*
X246581D01*
X246081Y301530D01*
Y303529D01*
X203248Y204528D02*
Y207527D01*
X204748D01*
X205247Y207027D01*
Y206027D01*
X204748Y205527D01*
X203248D01*
X204248D02*
X205247Y204528D01*
X208246D02*
X206247D01*
X208246Y206527D01*
Y207027D01*
X207747Y207527D01*
X206747D01*
X206247Y207027D01*
X209246Y207527D02*
X211245D01*
Y207027D01*
X209246Y205027D01*
Y204528D01*
X203150Y197539D02*
Y200538D01*
X204649D01*
X205149Y200039D01*
Y199039D01*
X204649Y198539D01*
X203150D01*
X204149D02*
X205149Y197539D01*
X208148D02*
X206149D01*
X208148Y199539D01*
Y200039D01*
X207648Y200538D01*
X206648D01*
X206149Y200039D01*
X209148D02*
X209647Y200538D01*
X210647D01*
X211147Y200039D01*
Y199539D01*
X210647Y199039D01*
X211147Y198539D01*
Y198039D01*
X210647Y197539D01*
X209647D01*
X209148Y198039D01*
Y198539D01*
X209647Y199039D01*
X209148Y199539D01*
Y200039D01*
X209647Y199039D02*
X210647D01*
X332182Y199938D02*
Y202937D01*
X333681D01*
X334181Y202437D01*
Y201437D01*
X333681Y200938D01*
X332182D01*
X333182D02*
X334181Y199938D01*
X337180D02*
X335181D01*
X337180Y201937D01*
Y202437D01*
X336680Y202937D01*
X335681D01*
X335181Y202437D01*
X338180Y200438D02*
X338680Y199938D01*
X339680D01*
X340179Y200438D01*
Y202437D01*
X339680Y202937D01*
X338680D01*
X338180Y202437D01*
Y201937D01*
X338680Y201437D01*
X340179D01*
X126177Y15408D02*
Y17407D01*
Y16408D01*
X129176D01*
Y18407D02*
X126177D01*
Y19906D01*
X126676Y20406D01*
X127676D01*
X128176Y19906D01*
Y18407D01*
X126676Y21406D02*
X126177Y21906D01*
Y22905D01*
X126676Y23405D01*
X127176D01*
X127676Y22905D01*
Y22406D01*
Y22905D01*
X128176Y23405D01*
X128676D01*
X129176Y22905D01*
Y21906D01*
X128676Y21406D01*
X129176Y24405D02*
Y25405D01*
Y24905D01*
X126177D01*
X126676Y24405D01*
X187277Y40008D02*
Y42007D01*
Y41008D01*
X190276D01*
Y43007D02*
X187277D01*
Y44506D01*
X187776Y45006D01*
X188776D01*
X189276Y44506D01*
Y43007D01*
X190276Y48005D02*
Y46006D01*
X188276Y48005D01*
X187776D01*
X187277Y47506D01*
Y46506D01*
X187776Y46006D01*
Y49005D02*
X187277Y49505D01*
Y50504D01*
X187776Y51004D01*
X188276D01*
X188776Y50504D01*
X189276Y51004D01*
X189776D01*
X190276Y50504D01*
Y49505D01*
X189776Y49005D01*
X189276D01*
X188776Y49505D01*
X188276Y49005D01*
X187776D01*
X188776Y49505D02*
Y50504D01*
X112577Y9908D02*
Y11907D01*
Y10908D01*
X115576D01*
Y12907D02*
X112577D01*
Y14406D01*
X113076Y14906D01*
X114076D01*
X114576Y14406D01*
Y12907D01*
X115576Y17905D02*
Y15906D01*
X113576Y17905D01*
X113076D01*
X112577Y17405D01*
Y16406D01*
X113076Y15906D01*
X115076Y18905D02*
X115576Y19405D01*
Y20404D01*
X115076Y20904D01*
X113076D01*
X112577Y20404D01*
Y19405D01*
X113076Y18905D01*
X113576D01*
X114076Y19405D01*
Y20904D01*
X174677Y56708D02*
Y58707D01*
Y57708D01*
X177676D01*
Y59707D02*
X174677D01*
Y61206D01*
X175176Y61706D01*
X176176D01*
X176676Y61206D01*
Y59707D01*
X175176Y62706D02*
X174677Y63206D01*
Y64205D01*
X175176Y64705D01*
X175676D01*
X176176Y64205D01*
Y63706D01*
Y64205D01*
X176676Y64705D01*
X177176D01*
X177676Y64205D01*
Y63206D01*
X177176Y62706D01*
X175176Y65705D02*
X174677Y66205D01*
Y67204D01*
X175176Y67704D01*
X177176D01*
X177676Y67204D01*
Y66205D01*
X177176Y65705D01*
X175176D01*
X67477Y52108D02*
Y54107D01*
Y53108D01*
X70476D01*
Y55107D02*
X67477D01*
Y56606D01*
X67976Y57106D01*
X68976D01*
X69476Y56606D01*
Y55107D01*
X67976Y58106D02*
X67477Y58606D01*
Y59605D01*
X67976Y60105D01*
X68476D01*
X68976Y59605D01*
Y59106D01*
Y59605D01*
X69476Y60105D01*
X69976D01*
X70476Y59605D01*
Y58606D01*
X69976Y58106D01*
X70476Y63104D02*
Y61105D01*
X68476Y63104D01*
X67976D01*
X67477Y62604D01*
Y61605D01*
X67976Y61105D01*
X186677Y10108D02*
Y12107D01*
Y11108D01*
X189676D01*
Y13107D02*
X186677D01*
Y14606D01*
X187176Y15106D01*
X188176D01*
X188676Y14606D01*
Y13107D01*
X187176Y16106D02*
X186677Y16606D01*
Y17605D01*
X187176Y18105D01*
X187676D01*
X188176Y17605D01*
Y17106D01*
Y17605D01*
X188676Y18105D01*
X189176D01*
X189676Y17605D01*
Y16606D01*
X189176Y16106D01*
X187176Y19105D02*
X186677Y19605D01*
Y20605D01*
X187176Y21104D01*
X187676D01*
X188176Y20605D01*
Y20105D01*
Y20605D01*
X188676Y21104D01*
X189176D01*
X189676Y20605D01*
Y19605D01*
X189176Y19105D01*
X121258Y8409D02*
Y10408D01*
Y9408D01*
X124257D01*
Y11408D02*
X121258D01*
Y12907D01*
X121757Y13407D01*
X122757D01*
X123257Y12907D01*
Y11408D01*
X121757Y14407D02*
X121258Y14907D01*
Y15906D01*
X121757Y16406D01*
X122257D01*
X122757Y15906D01*
Y15406D01*
Y15906D01*
X123257Y16406D01*
X123757D01*
X124257Y15906D01*
Y14907D01*
X123757Y14407D01*
X124257Y18905D02*
X121258D01*
X122757Y17406D01*
Y19405D01*
X240184Y294539D02*
Y297538D01*
X241683D01*
X242183Y297039D01*
Y296039D01*
X241683Y295539D01*
X240184D01*
X241183D02*
X242183Y294539D01*
X245182Y297538D02*
X243183D01*
Y296039D01*
X244182Y296539D01*
X244682D01*
X245182Y296039D01*
Y295039D01*
X244682Y294539D01*
X243683D01*
X243183Y295039D01*
X246182Y294539D02*
X247182D01*
X246682D01*
Y297538D01*
X246182Y297039D01*
X140284Y217330D02*
Y220329D01*
X141783D01*
X142283Y219829D01*
Y218829D01*
X141783Y218330D01*
X140284D01*
X141283D02*
X142283Y217330D01*
X145282D02*
X143282D01*
X145282Y219329D01*
Y219829D01*
X144782Y220329D01*
X143782D01*
X143282Y219829D01*
X148281Y220329D02*
X146282D01*
Y218829D01*
X147281Y219329D01*
X147781D01*
X148281Y218829D01*
Y217830D01*
X147781Y217330D01*
X146781D01*
X146282Y217830D01*
X157371Y224083D02*
X156871Y223583D01*
Y222583D01*
X157371Y222083D01*
X159370D01*
X159870Y222583D01*
Y223583D01*
X159370Y224083D01*
X159870Y225082D02*
Y226082D01*
Y225582D01*
X156871D01*
X157371Y225082D01*
X159870Y229081D02*
X156871D01*
X158371Y227582D01*
Y229581D01*
X147871Y168583D02*
X147371Y168083D01*
Y167083D01*
X147871Y166584D01*
X149870D01*
X150370Y167083D01*
Y168083D01*
X149870Y168583D01*
X150370Y169582D02*
Y170582D01*
Y170082D01*
X147371D01*
X147871Y169582D01*
Y172082D02*
X147371Y172582D01*
Y173581D01*
X147871Y174081D01*
X148371D01*
X148871Y173581D01*
Y173081D01*
Y173581D01*
X149370Y174081D01*
X149870D01*
X150370Y173581D01*
Y172582D01*
X149870Y172082D01*
X153617Y159471D02*
X154117Y158971D01*
X155117D01*
X155616Y159471D01*
Y161470D01*
X155117Y161970D01*
X154117D01*
X153617Y161470D01*
X152618Y161970D02*
X151618D01*
X152118D01*
Y158971D01*
X152618Y159471D01*
X148119Y158971D02*
X149119Y159471D01*
X150118Y160471D01*
Y161470D01*
X149618Y161970D01*
X148619D01*
X148119Y161470D01*
Y160970D01*
X148619Y160471D01*
X150118D01*
X168083Y213529D02*
X167583Y214029D01*
X166583D01*
X166084Y213529D01*
Y211530D01*
X166583Y211030D01*
X167583D01*
X168083Y211530D01*
X169082Y211030D02*
X170082D01*
X169582D01*
Y214029D01*
X169082Y213529D01*
X173581Y214029D02*
X171582D01*
Y212529D01*
X172581Y213029D01*
X173081D01*
X173581Y212529D01*
Y211530D01*
X173081Y211030D01*
X172081D01*
X171582Y211530D01*
X148710Y207071D02*
X149210Y206571D01*
X150210D01*
X150709Y207071D01*
Y209070D01*
X150210Y209570D01*
X149210D01*
X148710Y209070D01*
X147710Y209570D02*
X146711D01*
X147211D01*
Y206571D01*
X147710Y207071D01*
X145211Y209570D02*
X144212D01*
X144711D01*
Y206571D01*
X145211Y207071D01*
X148717Y212771D02*
X149217Y212271D01*
X150217D01*
X150716Y212771D01*
Y214770D01*
X150217Y215270D01*
X149217D01*
X148717Y214770D01*
X147717Y215270D02*
X146718D01*
X147218D01*
Y212271D01*
X147717Y212771D01*
X143219Y215270D02*
X145218D01*
X143219Y213271D01*
Y212771D01*
X143719Y212271D01*
X144719D01*
X145218Y212771D01*
X146483Y201729D02*
X145983Y202229D01*
X144983D01*
X144483Y201729D01*
Y199730D01*
X144983Y199230D01*
X145983D01*
X146483Y199730D01*
X148982Y199230D02*
Y202229D01*
X147483Y200729D01*
X149482D01*
X150481Y201729D02*
X150981Y202229D01*
X151981D01*
X152481Y201729D01*
Y201229D01*
X151981Y200729D01*
X152481Y200230D01*
Y199730D01*
X151981Y199230D01*
X150981D01*
X150481Y199730D01*
Y200230D01*
X150981Y200729D01*
X150481Y201229D01*
Y201729D01*
X150981Y200729D02*
X151981D01*
X359619Y32971D02*
X359119Y33471D01*
X358120D01*
X357620Y32971D01*
Y30972D01*
X358120Y30472D01*
X359119D01*
X359619Y30972D01*
X362618Y33471D02*
X360619D01*
Y31971D01*
X361618Y32471D01*
X362118D01*
X362618Y31971D01*
Y30972D01*
X362118Y30472D01*
X361119D01*
X360619Y30972D01*
X365617Y33471D02*
X363618D01*
Y31971D01*
X364617Y32471D01*
X365117D01*
X365617Y31971D01*
Y30972D01*
X365117Y30472D01*
X364118D01*
X363618Y30972D01*
M02*
