G04*
G04 #@! TF.GenerationSoftware,Altium Limited,Altium Designer,19.1.5 (86)*
G04*
G04 Layer_Color=65535*
%FSLAX25Y25*%
%MOIN*%
G70*
G01*
G75*
%ADD10C,0.02362*%
%ADD11C,0.00984*%
%ADD12C,0.00600*%
%ADD13C,0.01000*%
%ADD14C,0.00800*%
%ADD15C,0.00394*%
%ADD16C,0.00787*%
%ADD17C,0.00500*%
D10*
X155905Y56890D02*
G03*
X155905Y56890I-1181J0D01*
G01*
X285673Y260924D02*
G03*
X285673Y260924I-1181J0D01*
G01*
D11*
X146063Y61398D02*
G03*
X146063Y61398I-492J0D01*
G01*
X249220Y23843D02*
G03*
X249220Y23843I-492J0D01*
G01*
X249721Y58043D02*
G03*
X249721Y58043I-492J0D01*
G01*
X224929Y259547D02*
G03*
X224929Y259547I-492J0D01*
G01*
X274847Y262037D02*
G03*
X274847Y262037I-492J0D01*
G01*
X155614Y197110D02*
G03*
X155614Y197110I-492J0D01*
G01*
D12*
X287963Y41535D02*
G03*
X287963Y41535I-400J0D01*
G01*
D13*
X365609Y193842D02*
G03*
X365609Y193842I-880J0D01*
G01*
X369260Y180803D02*
X373260D01*
X369260Y117713D02*
X373260D01*
X369260Y160823D02*
X373260D01*
X369260Y138185D02*
X373260D01*
X231318Y306756D02*
X234467D01*
X231318Y307937D02*
X234467D01*
Y306756D02*
Y307937D01*
X231318Y307347D02*
X234467D01*
X231318Y306756D02*
Y307937D01*
X131016Y344035D02*
X182016D01*
Y293035D02*
Y344035D01*
X131016Y293035D02*
X182016D01*
X131016D02*
Y344035D01*
X206678Y370104D02*
X253922D01*
X206678Y322860D02*
Y370104D01*
Y322860D02*
X253922D01*
Y370104D01*
X55551Y278563D02*
Y343563D01*
X8032D02*
X55551D01*
X8032Y278563D02*
Y343563D01*
Y278563D02*
X55551D01*
X188104Y247935D02*
X207104D01*
Y234135D02*
Y247935D01*
X188104Y234135D02*
X207104D01*
X188104D02*
Y247935D01*
X188100Y263300D02*
X207100D01*
Y249500D02*
Y263300D01*
X188100Y249500D02*
X207100D01*
X188100D02*
Y263300D01*
D14*
X104016Y126782D02*
G03*
X104016Y124282I0J-1250D01*
G01*
X102139Y218657D02*
G03*
X102139Y216158I0J-1250D01*
G01*
X32579Y250059D02*
Y270059D01*
X7579D02*
X32579D01*
X7579Y250059D02*
X32579D01*
X7579Y255059D02*
X10079D01*
Y265059D01*
X7579D02*
X10079D01*
X5079Y255059D02*
X7579D01*
X5079D02*
Y265059D01*
X7579D01*
Y250059D02*
Y255059D01*
Y265059D02*
Y270059D01*
X70016Y133032D02*
X104016D01*
X70016Y118032D02*
Y133032D01*
Y118032D02*
X104016D01*
Y124282D01*
Y126782D02*
Y133032D01*
X68139Y224907D02*
X102139D01*
X68139Y209908D02*
Y224907D01*
Y209908D02*
X102139D01*
Y216158D01*
Y218657D02*
Y224907D01*
X26600Y162000D02*
Y212000D01*
X24100Y142000D02*
Y162000D01*
X29100D01*
Y142000D02*
Y162000D01*
X24100Y212000D02*
Y232000D01*
Y212000D02*
X29100D01*
Y232000D01*
X1600Y137000D02*
Y237000D01*
Y137000D02*
X26600D01*
X1600Y237000D02*
X26600D01*
X24100Y232000D02*
X26600D01*
X24100Y142000D02*
X26600D01*
Y232000D02*
X29100D01*
X26600Y142000D02*
X29100D01*
X26600Y232000D02*
Y237000D01*
Y137000D02*
Y142000D01*
D15*
X71956Y44128D02*
G03*
X71956Y44128I-197J0D01*
G01*
Y48328D02*
G03*
X71956Y48328I-197J0D01*
G01*
X72024Y52728D02*
G03*
X72024Y52728I-197J0D01*
G01*
X349225Y230872D02*
G03*
X349225Y230872I-197J0D01*
G01*
X352768Y243328D02*
G03*
X352768Y243328I-197J0D01*
G01*
X71656Y22428D02*
G03*
X71656Y22428I-197J0D01*
G01*
X71756Y26828D02*
G03*
X71756Y26828I-197J0D01*
G01*
Y30928D02*
G03*
X71756Y30928I-197J0D01*
G01*
X31920Y165347D02*
G03*
X31920Y165347I-197J0D01*
G01*
X32220Y195346D02*
G03*
X32220Y195346I-197J0D01*
G01*
X31920Y155347D02*
G03*
X31920Y155347I-197J0D01*
G01*
X66220Y42546D02*
G03*
X66220Y42546I-197J0D01*
G01*
X369094Y37711D02*
G03*
X369094Y37711I-197J0D01*
G01*
X35366Y253558D02*
G03*
X35366Y253558I-197J0D01*
G01*
X24020Y355047D02*
G03*
X24020Y355047I-197J0D01*
G01*
X74038Y354882D02*
G03*
X74038Y354882I-197J0D01*
G01*
X202343Y343777D02*
G03*
X202343Y343777I-197J0D01*
G01*
X202643Y363577D02*
G03*
X202643Y363577I-197J0D01*
G01*
X264543Y353277D02*
G03*
X264543Y353277I-197J0D01*
G01*
X273743Y353275D02*
G03*
X273743Y353275I-197J0D01*
G01*
X284620Y354546D02*
G03*
X284620Y354546I-197J0D01*
G01*
X356472Y221553D02*
G03*
X356472Y221553I-197J0D01*
G01*
X32320Y225447D02*
G03*
X32320Y225447I-197J0D01*
G01*
X32120Y185247D02*
G03*
X32120Y185247I-197J0D01*
G01*
X32420Y215146D02*
G03*
X32420Y215146I-197J0D01*
G01*
X32020Y175646D02*
G03*
X32020Y175646I-197J0D01*
G01*
X32220Y205246D02*
G03*
X32220Y205246I-197J0D01*
G01*
X58366Y283458D02*
G03*
X58366Y283458I-197J0D01*
G01*
X368760Y169303D02*
Y180303D01*
X373760D01*
Y169303D02*
Y180303D01*
X368760Y169303D02*
X373760D01*
X368760Y180303D02*
Y181303D01*
X373760D01*
Y180303D02*
Y181303D01*
X368760Y106213D02*
Y117213D01*
X373760D01*
Y106213D02*
Y117213D01*
X368760Y106213D02*
X373760D01*
X368760Y117213D02*
Y118213D01*
X373760D01*
Y117213D02*
Y118213D01*
X368760Y149323D02*
Y160323D01*
X373760D01*
Y149323D02*
Y160323D01*
X368760Y149323D02*
X373760D01*
X368760Y160323D02*
Y161323D01*
X373760D01*
Y160323D02*
Y161323D01*
X368760Y126685D02*
Y137685D01*
X373760D01*
Y126685D02*
Y137685D01*
X368760Y126685D02*
X373760D01*
X368760Y137685D02*
Y138685D01*
X373760D01*
Y137685D02*
Y138685D01*
X221081Y294945D02*
X234467D01*
X221081Y305968D02*
X234467D01*
X221081Y294945D02*
Y305968D01*
X234467Y294945D02*
Y305968D01*
D16*
X150787Y20276D02*
X177165D01*
X150787Y60827D02*
X177165D01*
Y20276D02*
Y60827D01*
X150787Y20276D02*
Y60827D01*
X230126Y49828D02*
X243905D01*
X230126Y23843D02*
X243905D01*
X230126D02*
Y49828D01*
X243905Y23843D02*
Y49828D01*
X244406Y58043D02*
Y84027D01*
X230626Y58043D02*
Y84027D01*
Y58043D02*
X244406D01*
X230626Y84027D02*
X244406D01*
X227488Y258366D02*
X229850D01*
X227488Y249705D02*
X229850D01*
X227488D02*
Y258366D01*
X229850Y249705D02*
Y258366D01*
X280555Y230609D02*
X303783D01*
X280555Y264861D02*
X303783D01*
Y230609D02*
Y264861D01*
X280555Y230609D02*
Y264861D01*
X64169Y349141D02*
Y354259D01*
X157681Y195831D02*
Y197701D01*
X159551D01*
X180811D02*
X182681D01*
Y195831D02*
Y197701D01*
Y172701D02*
Y174571D01*
X180811Y172701D02*
X182681D01*
X157681D02*
Y174571D01*
Y172701D02*
X159551D01*
X68157Y292704D02*
X73275D01*
X121788Y203922D02*
Y206678D01*
D17*
X368601Y299300D02*
X371600Y300443D01*
X368601Y301585D02*
X371600Y300443D01*
Y304256D02*
X368601Y303114D01*
X371600Y301971D01*
X370600Y302399D02*
Y303828D01*
X368601Y304956D02*
X371600D01*
X368601D02*
X371600Y306099D01*
X368601Y307241D02*
X371600Y306099D01*
X368601Y307241D02*
X371600D01*
X369600Y308812D02*
X369743Y308527D01*
X370029Y308241D01*
X370457Y308098D01*
X370743D01*
X371171Y308241D01*
X371457Y308527D01*
X371600Y308812D01*
Y309241D01*
X371457Y309526D01*
X371171Y309812D01*
X370743Y309955D01*
X370457D01*
X370029Y309812D01*
X369743Y309526D01*
X369600Y309241D01*
Y308812D01*
X369029Y312611D02*
X368743Y312326D01*
X368601Y311897D01*
Y311326D01*
X368743Y310897D01*
X369029Y310612D01*
X369315D01*
X369600Y310755D01*
X369743Y310897D01*
X369886Y311183D01*
X370172Y312040D01*
X370315Y312326D01*
X370457Y312469D01*
X370743Y312611D01*
X371171D01*
X371457Y312326D01*
X371600Y311897D01*
Y311326D01*
X371457Y310897D01*
X371171Y310612D01*
X368601Y315639D02*
X371600D01*
X368601D02*
Y316925D01*
X368743Y317353D01*
X368886Y317496D01*
X369172Y317639D01*
X369458D01*
X369743Y317496D01*
X369886Y317353D01*
X370029Y316925D01*
Y315639D01*
Y316639D02*
X371600Y317639D01*
X370457Y318310D02*
Y320024D01*
X370172D01*
X369886Y319881D01*
X369743Y319739D01*
X369600Y319453D01*
Y319024D01*
X369743Y318739D01*
X370029Y318453D01*
X370457Y318310D01*
X370743D01*
X371171Y318453D01*
X371457Y318739D01*
X371600Y319024D01*
Y319453D01*
X371457Y319739D01*
X371171Y320024D01*
X369600Y320667D02*
X371600Y321524D01*
X369600Y322381D02*
X371600Y321524D01*
X371314Y323009D02*
X371457Y322866D01*
X371600Y323009D01*
X371457Y323152D01*
X371314Y323009D01*
X368601Y326166D02*
X371600D01*
X368601D02*
Y327451D01*
X368743Y327880D01*
X368886Y328022D01*
X369172Y328165D01*
X369458D01*
X369743Y328022D01*
X369886Y327880D01*
X370029Y327451D01*
Y326166D02*
Y327451D01*
X370172Y327880D01*
X370315Y328022D01*
X370600Y328165D01*
X371029D01*
X371314Y328022D01*
X371457Y327880D01*
X371600Y327451D01*
Y326166D01*
X369315Y331336D02*
X369172D01*
X368886Y331479D01*
X368743Y331622D01*
X368601Y331907D01*
Y332479D01*
X368743Y332764D01*
X368886Y332907D01*
X369172Y333050D01*
X369458D01*
X369743Y332907D01*
X370172Y332622D01*
X371600Y331193D01*
Y333193D01*
X368601Y334721D02*
X368743Y334293D01*
X369172Y334007D01*
X369886Y333864D01*
X370315D01*
X371029Y334007D01*
X371457Y334293D01*
X371600Y334721D01*
Y335007D01*
X371457Y335435D01*
X371029Y335721D01*
X370315Y335864D01*
X369886D01*
X369172Y335721D01*
X368743Y335435D01*
X368601Y335007D01*
Y334721D01*
X369172Y336535D02*
X369029Y336821D01*
X368601Y337249D01*
X371600D01*
X369600Y340591D02*
X370029Y340448D01*
X370315Y340163D01*
X370457Y339734D01*
Y339591D01*
X370315Y339163D01*
X370029Y338877D01*
X369600Y338734D01*
X369458D01*
X369029Y338877D01*
X368743Y339163D01*
X368601Y339591D01*
Y339734D01*
X368743Y340163D01*
X369029Y340448D01*
X369600Y340591D01*
X370315D01*
X371029Y340448D01*
X371457Y340163D01*
X371600Y339734D01*
Y339449D01*
X371457Y339020D01*
X371171Y338877D01*
X85601Y158799D02*
X85101Y158300D01*
Y157300D01*
X85601Y156800D01*
X86101D01*
X86601Y157300D01*
Y158300D01*
X87100Y158799D01*
X87600D01*
X88100Y158300D01*
Y157300D01*
X87600Y156800D01*
X85601Y159799D02*
X85101Y160299D01*
Y161299D01*
X85601Y161798D01*
X86101D01*
X86601Y161299D01*
Y160799D01*
Y161299D01*
X87100Y161798D01*
X87600D01*
X88100Y161299D01*
Y160299D01*
X87600Y159799D01*
X373801Y299600D02*
X376800D01*
Y301314D01*
X374800Y302357D02*
X374943Y302071D01*
X375229Y301785D01*
X375657Y301642D01*
X375943D01*
X376372Y301785D01*
X376657Y302071D01*
X376800Y302357D01*
Y302785D01*
X376657Y303071D01*
X376372Y303356D01*
X375943Y303499D01*
X375657D01*
X375229Y303356D01*
X374943Y303071D01*
X374800Y302785D01*
Y302357D01*
Y305870D02*
X377086D01*
X377514Y305727D01*
X377657Y305584D01*
X377800Y305299D01*
Y304870D01*
X377657Y304585D01*
X375229Y305870D02*
X374943Y305584D01*
X374800Y305299D01*
Y304870D01*
X374943Y304585D01*
X375229Y304299D01*
X375657Y304156D01*
X375943D01*
X376372Y304299D01*
X376657Y304585D01*
X376800Y304870D01*
Y305299D01*
X376657Y305584D01*
X376372Y305870D01*
X374800Y307384D02*
X374943Y307098D01*
X375229Y306813D01*
X375657Y306670D01*
X375943D01*
X376372Y306813D01*
X376657Y307098D01*
X376800Y307384D01*
Y307812D01*
X376657Y308098D01*
X376372Y308384D01*
X375943Y308527D01*
X375657D01*
X375229Y308384D01*
X374943Y308098D01*
X374800Y307812D01*
Y307384D01*
X375229Y310898D02*
X374943Y310612D01*
X374800Y310326D01*
Y309898D01*
X374943Y309612D01*
X375229Y309327D01*
X375657Y309184D01*
X375943D01*
X376372Y309327D01*
X376657Y309612D01*
X376800Y309898D01*
Y310326D01*
X376657Y310612D01*
X376372Y310898D01*
X374800Y312254D02*
X374943Y311969D01*
X375229Y311683D01*
X375657Y311540D01*
X375943D01*
X376372Y311683D01*
X376657Y311969D01*
X376800Y312254D01*
Y312683D01*
X376657Y312969D01*
X376372Y313254D01*
X375943Y313397D01*
X375657D01*
X375229Y313254D01*
X374943Y312969D01*
X374800Y312683D01*
Y312254D01*
Y314054D02*
X376800D01*
X375372D02*
X374943Y314482D01*
X374800Y314768D01*
Y315197D01*
X374943Y315482D01*
X375372Y315625D01*
X376800D01*
X375372D02*
X374943Y316054D01*
X374800Y316339D01*
Y316768D01*
X374943Y317053D01*
X375372Y317196D01*
X376800D01*
X373801Y320496D02*
X376800D01*
Y322210D01*
X374800Y324252D02*
X376800D01*
X375229D02*
X374943Y323966D01*
X374800Y323681D01*
Y323252D01*
X374943Y322966D01*
X375229Y322681D01*
X375657Y322538D01*
X375943D01*
X376372Y322681D01*
X376657Y322966D01*
X376800Y323252D01*
Y323681D01*
X376657Y323966D01*
X376372Y324252D01*
X373801Y325052D02*
X376800D01*
X375229D02*
X374943Y325337D01*
X374800Y325623D01*
Y326051D01*
X374943Y326337D01*
X375229Y326623D01*
X375657Y326766D01*
X375943D01*
X376372Y326623D01*
X376657Y326337D01*
X376800Y326051D01*
Y325623D01*
X376657Y325337D01*
X376372Y325052D01*
X375229Y328979D02*
X374943Y328837D01*
X374800Y328408D01*
Y327980D01*
X374943Y327551D01*
X375229Y327408D01*
X375515Y327551D01*
X375657Y327837D01*
X375800Y328551D01*
X375943Y328837D01*
X376229Y328979D01*
X376372D01*
X376657Y328837D01*
X376800Y328408D01*
Y327980D01*
X376657Y327551D01*
X376372Y327408D01*
X180799Y75799D02*
X180299Y76299D01*
X179300D01*
X178800Y75799D01*
Y75299D01*
X179300Y74800D01*
X180299D01*
X180799Y74300D01*
Y73800D01*
X180299Y73300D01*
X179300D01*
X178800Y73800D01*
X183798Y75799D02*
X183299Y76299D01*
X182299D01*
X181799Y75799D01*
Y73800D01*
X182299Y73300D01*
X183299D01*
X183798Y73800D01*
X184798Y76299D02*
Y73300D01*
Y74300D01*
X186797Y76299D01*
X185298Y74800D01*
X186797Y73300D01*
X199101Y51399D02*
X198601Y50899D01*
Y49900D01*
X199101Y49400D01*
X199601D01*
X200100Y49900D01*
Y50899D01*
X200600Y51399D01*
X201100D01*
X201600Y50899D01*
Y49900D01*
X201100Y49400D01*
X198601Y52399D02*
X201600D01*
Y53899D01*
X201100Y54398D01*
X199101D01*
X198601Y53899D01*
Y52399D01*
X201600Y55398D02*
Y56398D01*
Y55898D01*
X198601D01*
X199101Y55398D01*
X198601Y21399D02*
X198101Y20899D01*
Y19900D01*
X198601Y19400D01*
X199101D01*
X199601Y19900D01*
Y20899D01*
X200100Y21399D01*
X200600D01*
X201100Y20899D01*
Y19900D01*
X200600Y19400D01*
X198101Y22399D02*
X201100D01*
Y23899D01*
X200600Y24398D01*
X198601D01*
X198101Y23899D01*
Y22399D01*
X198601Y25398D02*
X198101Y25898D01*
Y26898D01*
X198601Y27397D01*
X199101D01*
X199601Y26898D01*
Y26398D01*
Y26898D01*
X200100Y27397D01*
X200600D01*
X201100Y26898D01*
Y25898D01*
X200600Y25398D01*
X121499Y19699D02*
X121000Y20199D01*
X120000D01*
X119500Y19699D01*
Y19199D01*
X120000Y18699D01*
X121000D01*
X121499Y18200D01*
Y17700D01*
X121000Y17200D01*
X120000D01*
X119500Y17700D01*
X122499Y20199D02*
Y17200D01*
X123999D01*
X124498Y17700D01*
Y19699D01*
X123999Y20199D01*
X122499D01*
X125498Y19699D02*
X125998Y20199D01*
X126998D01*
X127497Y19699D01*
Y17700D01*
X126998Y17200D01*
X125998D01*
X125498Y17700D01*
Y19699D01*
X108199Y55399D02*
X107700Y55899D01*
X106700D01*
X106200Y55399D01*
Y54899D01*
X106700Y54400D01*
X107700D01*
X108199Y53900D01*
Y53400D01*
X107700Y52900D01*
X106700D01*
X106200Y53400D01*
X109199Y55899D02*
Y52900D01*
X110699D01*
X111198Y53400D01*
Y55399D01*
X110699Y55899D01*
X109199D01*
X114197Y52900D02*
X112198D01*
X114197Y54899D01*
Y55399D01*
X113698Y55899D01*
X112698D01*
X112198Y55399D01*
X84199Y67399D02*
X83700Y67899D01*
X82700D01*
X82200Y67399D01*
Y66899D01*
X82700Y66400D01*
X83700D01*
X84199Y65900D01*
Y65400D01*
X83700Y64900D01*
X82700D01*
X82200Y65400D01*
X87198Y67399D02*
X86699Y67899D01*
X85699D01*
X85199Y67399D01*
Y65400D01*
X85699Y64900D01*
X86699D01*
X87198Y65400D01*
X90197Y67399D02*
X89698Y67899D01*
X88698D01*
X88198Y67399D01*
Y66899D01*
X88698Y66400D01*
X89698D01*
X90197Y65900D01*
Y65400D01*
X89698Y64900D01*
X88698D01*
X88198Y65400D01*
X84699Y196699D02*
X84200Y197199D01*
X83200D01*
X82700Y196699D01*
Y196199D01*
X83200Y195700D01*
X84200D01*
X84699Y195200D01*
Y194700D01*
X84200Y194200D01*
X83200D01*
X82700Y194700D01*
X85699Y196699D02*
X86199Y197199D01*
X87199D01*
X87698Y196699D01*
Y196199D01*
X87199Y195700D01*
X87698Y195200D01*
Y194700D01*
X87199Y194200D01*
X86199D01*
X85699Y194700D01*
Y195200D01*
X86199Y195700D01*
X85699Y196199D01*
Y196699D01*
X86199Y195700D02*
X87199D01*
X80300Y293299D02*
Y291300D01*
X81300Y290300D01*
X82299Y291300D01*
Y293299D01*
X83299D02*
Y290300D01*
X84799D01*
X85298Y290800D01*
Y291300D01*
X84799Y291799D01*
X83299D01*
X84799D01*
X85298Y292299D01*
Y292799D01*
X84799Y293299D01*
X83299D01*
X86298Y290300D02*
Y292299D01*
X87298Y293299D01*
X88297Y292299D01*
Y290300D01*
Y291799D01*
X86298D01*
X91296Y292799D02*
X90797Y293299D01*
X89797D01*
X89297Y292799D01*
Y290800D01*
X89797Y290300D01*
X90797D01*
X91296Y290800D01*
X92296Y293299D02*
Y290300D01*
Y291300D01*
X94296Y293299D01*
X92796Y291799D01*
X94296Y290300D01*
X95295Y293299D02*
Y290800D01*
X95795Y290300D01*
X96795D01*
X97294Y290800D01*
Y293299D01*
X98294Y290300D02*
Y293299D01*
X99794D01*
X100294Y292799D01*
Y291799D01*
X99794Y291300D01*
X98294D01*
X266600Y310899D02*
X267600D01*
X267100D01*
Y307900D01*
X266600D01*
X267600D01*
X271098D02*
X269099D01*
X271098Y309899D01*
Y310399D01*
X270599Y310899D01*
X269599D01*
X269099Y310399D01*
X274098D02*
X273598Y310899D01*
X272598D01*
X272098Y310399D01*
Y308400D01*
X272598Y307900D01*
X273598D01*
X274098Y308400D01*
X275097Y307400D02*
X277097D01*
X280096Y310399D02*
X279596Y310899D01*
X278596D01*
X278096Y310399D01*
Y309899D01*
X278596Y309400D01*
X279596D01*
X280096Y308900D01*
Y308400D01*
X279596Y307900D01*
X278596D01*
X278096Y308400D01*
X283095Y310399D02*
X282595Y310899D01*
X281595D01*
X281095Y310399D01*
Y308400D01*
X281595Y307900D01*
X282595D01*
X283095Y308400D01*
X284094Y310899D02*
Y307900D01*
X286094D01*
X241200Y317199D02*
X242200D01*
X241700D01*
Y314200D01*
X241200D01*
X242200D01*
X245698D02*
X243699D01*
X245698Y316199D01*
Y316699D01*
X245199Y317199D01*
X244199D01*
X243699Y316699D01*
X248698D02*
X248198Y317199D01*
X247198D01*
X246698Y316699D01*
Y314700D01*
X247198Y314200D01*
X248198D01*
X248698Y314700D01*
X249697Y313700D02*
X251697D01*
X254696Y316699D02*
X254196Y317199D01*
X253196D01*
X252696Y316699D01*
Y316199D01*
X253196Y315700D01*
X254196D01*
X254696Y315200D01*
Y314700D01*
X254196Y314200D01*
X253196D01*
X252696Y314700D01*
X255695Y317199D02*
Y314200D01*
X257195D01*
X257695Y314700D01*
Y316699D01*
X257195Y317199D01*
X255695D01*
X258694Y314200D02*
Y316199D01*
X259694Y317199D01*
X260694Y316199D01*
Y314200D01*
Y315700D01*
X258694D01*
X23316Y273035D02*
Y276034D01*
X24815D01*
X25315Y275535D01*
Y274535D01*
X24815Y274035D01*
X23316D01*
X26315Y276034D02*
Y273535D01*
X26815Y273035D01*
X27814D01*
X28314Y273535D01*
Y276034D01*
X29314Y273035D02*
Y276034D01*
X30314Y275035D01*
X31313Y276034D01*
Y273035D01*
X32313D02*
Y276034D01*
X33812D01*
X34312Y275535D01*
Y274535D01*
X33812Y274035D01*
X32313D01*
X206651Y224768D02*
Y222269D01*
X207151Y221769D01*
X208151D01*
X208650Y222269D01*
Y224768D01*
X209650Y224269D02*
X210150Y224768D01*
X211150D01*
X211650Y224269D01*
Y222269D01*
X211150Y221769D01*
X210150D01*
X209650Y222269D01*
Y224269D01*
X212649Y224768D02*
X214649D01*
X213649D01*
Y221769D01*
X215648Y224768D02*
X217648Y221769D01*
Y224768D02*
X215648Y221769D01*
X218647Y224768D02*
Y221769D01*
X220147D01*
X220647Y222269D01*
Y224269D01*
X220147Y224768D01*
X218647D01*
X229600Y235100D02*
Y238099D01*
X231100D01*
X231599Y237599D01*
Y236599D01*
X231100Y236100D01*
X229600D01*
X230600D02*
X231599Y235100D01*
X232599Y238099D02*
X234598D01*
X233599D01*
Y235100D01*
X237597Y237599D02*
X237098Y238099D01*
X236098D01*
X235598Y237599D01*
Y237099D01*
X236098Y236599D01*
X237098D01*
X237597Y236100D01*
Y235600D01*
X237098Y235100D01*
X236098D01*
X235598Y235600D01*
X209800Y233099D02*
Y230100D01*
X211299D01*
X211799Y230600D01*
Y231100D01*
X211299Y231599D01*
X209800D01*
X211299D01*
X211799Y232099D01*
Y232599D01*
X211299Y233099D01*
X209800D01*
X214299D02*
X213299D01*
X212799Y232599D01*
Y230600D01*
X213299Y230100D01*
X214299D01*
X214798Y230600D01*
Y232599D01*
X214299Y233099D01*
X217298D02*
X216298D01*
X215798Y232599D01*
Y230600D01*
X216298Y230100D01*
X217298D01*
X217797Y230600D01*
Y232599D01*
X217298Y233099D01*
X218797D02*
X220796D01*
X219797D01*
Y230100D01*
X219900Y277299D02*
Y274300D01*
X221399D01*
X221899Y274800D01*
Y276799D01*
X221399Y277299D01*
X219900D01*
X222899D02*
X224898D01*
X223899D01*
Y274300D01*
X225898D02*
Y277299D01*
X227398D01*
X227897Y276799D01*
Y275799D01*
X227398Y275300D01*
X225898D01*
X226898D02*
X227897Y274300D01*
X194999Y269599D02*
X194500Y270099D01*
X193500D01*
X193000Y269599D01*
Y267600D01*
X193500Y267100D01*
X194500D01*
X194999Y267600D01*
X195999Y270099D02*
Y267100D01*
Y268600D01*
X197998D01*
Y270099D01*
Y267100D01*
X198998Y270099D02*
X199998D01*
X199498D01*
Y267100D01*
X198998D01*
X199998D01*
X201497D02*
Y270099D01*
X202997D01*
X203497Y269599D01*
Y268600D01*
X202997Y268100D01*
X201497D01*
X204496Y266600D02*
X206496D01*
X207495Y267100D02*
Y270099D01*
X208995D01*
X209495Y269599D01*
Y268600D01*
X208995Y268100D01*
X207495D01*
X210494Y270099D02*
Y267600D01*
X210994Y267100D01*
X211994D01*
X212494Y267600D01*
Y270099D01*
X299500Y280199D02*
Y277700D01*
X300000Y277200D01*
X300999D01*
X301499Y277700D01*
Y280199D01*
X302499Y279699D02*
X302999Y280199D01*
X303998D01*
X304498Y279699D01*
Y277700D01*
X303998Y277200D01*
X302999D01*
X302499Y277700D01*
Y279699D01*
X305498Y277200D02*
Y280199D01*
X306998D01*
X307497Y279699D01*
Y278699D01*
X306998Y278200D01*
X305498D01*
X306498D02*
X307497Y277200D01*
X308497Y280199D02*
X310496Y277200D01*
Y280199D02*
X308497Y277200D01*
X311496Y280199D02*
Y277200D01*
X312996D01*
X313495Y277700D01*
Y279699D01*
X312996Y280199D01*
X311496D01*
X309599Y144499D02*
X308600Y143999D01*
X307600Y142999D01*
Y142000D01*
X308100Y141500D01*
X309100D01*
X309599Y142000D01*
Y142500D01*
X309100Y142999D01*
X307600D01*
X310599Y144499D02*
Y142500D01*
X311599Y141500D01*
X312598Y142500D01*
Y144499D01*
X315597D02*
X313598D01*
Y142999D01*
X314598Y143499D01*
X315098D01*
X315597Y142999D01*
Y142000D01*
X315098Y141500D01*
X314098D01*
X313598Y142000D01*
X333900Y42900D02*
X335899D01*
X334900Y43899D02*
Y41900D01*
X336899Y41400D02*
X337899D01*
X337399D01*
Y44399D01*
X336899Y43899D01*
X341398Y41400D02*
X339398D01*
X341398Y43399D01*
Y43899D01*
X340898Y44399D01*
X339898D01*
X339398Y43899D01*
X342397Y44399D02*
Y42400D01*
X343397Y41400D01*
X344397Y42400D01*
Y44399D01*
X208201Y66900D02*
X207701Y67400D01*
Y68400D01*
X208201Y68899D01*
X208701D01*
X209201Y68400D01*
Y67900D01*
Y68400D01*
X209700Y68899D01*
X210200D01*
X210700Y68400D01*
Y67400D01*
X210200Y66900D01*
X207701Y69899D02*
X209700D01*
X210700Y70899D01*
X209700Y71898D01*
X207701D01*
X208201Y72898D02*
X207701Y73398D01*
Y74398D01*
X208201Y74897D01*
X208701D01*
X209201Y74398D01*
Y73898D01*
Y74398D01*
X209700Y74897D01*
X210200D01*
X210700Y74398D01*
Y73398D01*
X210200Y72898D01*
X208300Y32000D02*
Y33999D01*
X207301Y33000D02*
X209300D01*
X206801Y36998D02*
Y34999D01*
X208300D01*
X207801Y35999D01*
Y36499D01*
X208300Y36998D01*
X209300D01*
X209800Y36499D01*
Y35499D01*
X209300Y34999D01*
X206801Y37998D02*
X208800D01*
X209800Y38998D01*
X208800Y39997D01*
X206801D01*
X86999Y96799D02*
X86500Y97299D01*
X85500D01*
X85000Y96799D01*
Y96299D01*
X85500Y95799D01*
X86500D01*
X86999Y95300D01*
Y94800D01*
X86500Y94300D01*
X85500D01*
X85000Y94800D01*
X87999Y94300D02*
X88999D01*
X88499D01*
Y97299D01*
X87999Y96799D01*
X86799Y104899D02*
X86300Y105399D01*
X85300D01*
X84800Y104899D01*
Y104399D01*
X85300Y103900D01*
X86300D01*
X86799Y103400D01*
Y102900D01*
X86300Y102400D01*
X85300D01*
X84800Y102900D01*
X89299Y102400D02*
Y105399D01*
X87799Y103900D01*
X89798D01*
X86599Y148699D02*
X86099Y149199D01*
X85100D01*
X84600Y148699D01*
Y148199D01*
X85100Y147699D01*
X86099D01*
X86599Y147200D01*
Y146700D01*
X86099Y146200D01*
X85100D01*
X84600Y146700D01*
X89598Y146200D02*
X87599D01*
X89598Y148199D01*
Y148699D01*
X89099Y149199D01*
X88099D01*
X87599Y148699D01*
X84199Y182299D02*
X83700Y182799D01*
X82700D01*
X82200Y182299D01*
Y181799D01*
X82700Y181299D01*
X83700D01*
X84199Y180800D01*
Y180300D01*
X83700Y179800D01*
X82700D01*
X82200Y180300D01*
X87198Y182799D02*
X85199D01*
Y181299D01*
X86199Y181799D01*
X86699D01*
X87198Y181299D01*
Y180300D01*
X86699Y179800D01*
X85699D01*
X85199Y180300D01*
X81799Y251999D02*
X81300Y252499D01*
X80300D01*
X79800Y251999D01*
Y251499D01*
X80300Y250999D01*
X81300D01*
X81799Y250500D01*
Y250000D01*
X81300Y249500D01*
X80300D01*
X79800Y250000D01*
X84798Y252499D02*
X83799Y251999D01*
X82799Y250999D01*
Y250000D01*
X83299Y249500D01*
X84299D01*
X84798Y250000D01*
Y250500D01*
X84299Y250999D01*
X82799D01*
X81899Y247699D02*
X81400Y248199D01*
X80400D01*
X79900Y247699D01*
Y247199D01*
X80400Y246700D01*
X81400D01*
X81899Y246200D01*
Y245700D01*
X81400Y245200D01*
X80400D01*
X79900Y245700D01*
X82899Y248199D02*
X84898D01*
Y247699D01*
X82899Y245700D01*
Y245200D01*
X165600Y356600D02*
Y357600D01*
Y357100D01*
X162601D01*
X163101Y356600D01*
X165600Y359099D02*
X162601D01*
Y360599D01*
X163101Y361099D01*
X164101D01*
X164600Y360599D01*
Y359099D01*
X165600Y362098D02*
X162601D01*
Y363598D01*
X163101Y364098D01*
X164101D01*
X164600Y363598D01*
Y362098D01*
X163101Y367097D02*
X162601Y366597D01*
Y365597D01*
X163101Y365097D01*
X163601D01*
X164101Y365597D01*
Y366597D01*
X164600Y367097D01*
X165100D01*
X165600Y366597D01*
Y365597D01*
X165100Y365097D01*
X119799Y352199D02*
X119299Y352699D01*
X118300D01*
X117800Y352199D01*
Y350200D01*
X118300Y349700D01*
X119299D01*
X119799Y350200D01*
Y351200D01*
X118800D01*
X120799Y349700D02*
Y352699D01*
X122299D01*
X122798Y352199D01*
Y351200D01*
X122299Y350700D01*
X120799D01*
X125797Y352199D02*
X125298Y352699D01*
X124298D01*
X123798Y352199D01*
Y351699D01*
X124298Y351200D01*
X125298D01*
X125797Y350700D01*
Y350200D01*
X125298Y349700D01*
X124298D01*
X123798Y350200D01*
X126797Y349200D02*
X128796D01*
X129796Y349700D02*
Y352699D01*
X131796Y349700D01*
Y352699D01*
X132795Y349700D02*
Y352699D01*
X134295D01*
X134794Y352199D01*
Y351200D01*
X134295Y350700D01*
X132795D01*
X133795D02*
X134794Y349700D01*
X137794Y352199D02*
X137294Y352699D01*
X136294D01*
X135794Y352199D01*
Y351699D01*
X136294Y351200D01*
X137294D01*
X137794Y350700D01*
Y350200D01*
X137294Y349700D01*
X136294D01*
X135794Y350200D01*
X138793Y352699D02*
X140793D01*
X139793D01*
Y349700D01*
X191500Y315400D02*
Y318399D01*
X192999D01*
X193499Y317899D01*
Y316899D01*
X192999Y316400D01*
X191500D01*
X192500D02*
X193499Y315400D01*
X194499Y318399D02*
X196498D01*
X195499D01*
Y315400D01*
X199497Y317899D02*
X198998Y318399D01*
X197998D01*
X197498Y317899D01*
Y315900D01*
X197998Y315400D01*
X198998D01*
X199497Y315900D01*
X200497Y315400D02*
Y318399D01*
X201497Y317399D01*
X202496Y318399D01*
Y315400D01*
X204496D02*
X203496Y316400D01*
Y317399D01*
X204496Y318399D01*
X205995Y315400D02*
Y318399D01*
X207495D01*
X207995Y317899D01*
Y316899D01*
X207495Y316400D01*
X205995D01*
X206995D02*
X207995Y315400D01*
X208994Y318399D02*
X210994Y315400D01*
Y318399D02*
X208994Y315400D01*
X211993D02*
X212993Y316400D01*
Y317399D01*
X211993Y318399D01*
X190800Y301200D02*
Y304199D01*
X192299D01*
X192799Y303699D01*
Y302699D01*
X192299Y302200D01*
X190800D01*
X191800D02*
X192799Y301200D01*
X193799Y304199D02*
X195798D01*
X194799D01*
Y301200D01*
X198797Y303699D02*
X198298Y304199D01*
X197298D01*
X196798Y303699D01*
Y301700D01*
X197298Y301200D01*
X198298D01*
X198797Y301700D01*
X199797Y301200D02*
Y304199D01*
X200797Y303199D01*
X201796Y304199D01*
Y301200D01*
X203796D02*
X202796Y302200D01*
Y303199D01*
X203796Y304199D01*
X205295D02*
X207295D01*
X206295D01*
Y301200D01*
X208294Y304199D02*
X210294Y301200D01*
Y304199D02*
X208294Y301200D01*
X211293D02*
X212293Y302200D01*
Y303199D01*
X211293Y304199D01*
X138200Y185652D02*
Y185160D01*
X139184Y184176D01*
X140168Y185160D01*
Y185652D01*
X139184Y184176D02*
Y182700D01*
X141152D02*
X142136D01*
X141644D01*
Y185652D01*
X141152Y185160D01*
X139168Y263452D02*
X138184D01*
X138676D01*
Y260992D01*
X138184Y260500D01*
X137692D01*
X137200Y260992D01*
X140152Y260500D02*
X141136D01*
X140644D01*
Y263452D01*
X140152Y262960D01*
X142612D02*
X143104Y263452D01*
X144088D01*
X144580Y262960D01*
Y260992D01*
X144088Y260500D01*
X143104D01*
X142612Y260992D01*
Y262960D01*
X361500Y257152D02*
Y254692D01*
X361992Y254200D01*
X362976D01*
X363468Y254692D01*
Y257152D01*
X364452D02*
X366420D01*
Y256660D01*
X364452Y254692D01*
Y254200D01*
X327868Y250160D02*
X327376Y250652D01*
X326392D01*
X325900Y250160D01*
Y248192D01*
X326392Y247700D01*
X327376D01*
X327868Y248192D01*
X330820Y250652D02*
X329836Y250160D01*
X328852Y249176D01*
Y248192D01*
X329344Y247700D01*
X330328D01*
X330820Y248192D01*
Y248684D01*
X330328Y249176D01*
X328852D01*
X331804Y250160D02*
X332296Y250652D01*
X333279D01*
X333771Y250160D01*
Y248192D01*
X333279Y247700D01*
X332296D01*
X331804Y248192D01*
Y250160D01*
X327668Y245760D02*
X327176Y246252D01*
X326192D01*
X325700Y245760D01*
Y243792D01*
X326192Y243300D01*
X327176D01*
X327668Y243792D01*
X330620Y246252D02*
X328652D01*
Y244776D01*
X329636Y245268D01*
X330128D01*
X330620Y244776D01*
Y243792D01*
X330128Y243300D01*
X329144D01*
X328652Y243792D01*
X331604D02*
X332096Y243300D01*
X333080D01*
X333572Y243792D01*
Y245760D01*
X333080Y246252D01*
X332096D01*
X331604Y245760D01*
Y245268D01*
X332096Y244776D01*
X333572D01*
X228268Y313760D02*
X227776Y314252D01*
X226792D01*
X226300Y313760D01*
Y311792D01*
X226792Y311300D01*
X227776D01*
X228268Y311792D01*
X230728Y311300D02*
Y314252D01*
X229252Y312776D01*
X231220D01*
X234172Y311300D02*
X232204D01*
X234172Y313268D01*
Y313760D01*
X233680Y314252D01*
X232696D01*
X232204Y313760D01*
X3684Y242887D02*
X2700D01*
X3192D01*
Y240427D01*
X2700Y239935D01*
X2208D01*
X1716Y240427D01*
X4668Y239935D02*
X5652D01*
X5159D01*
Y242887D01*
X4668Y242395D01*
X60148Y302500D02*
X63100D01*
Y303976D01*
X62608Y304468D01*
X60640D01*
X60148Y303976D01*
Y302500D01*
X63100Y307420D02*
Y305452D01*
X61132Y307420D01*
X60640D01*
X60148Y306928D01*
Y305944D01*
X60640Y305452D01*
X84168Y345460D02*
X83676Y345952D01*
X82692D01*
X82200Y345460D01*
Y343492D01*
X82692Y343000D01*
X83676D01*
X84168Y343492D01*
X87120Y345952D02*
X85152D01*
Y344476D01*
X86136Y344968D01*
X86628D01*
X87120Y344476D01*
Y343492D01*
X86628Y343000D01*
X85644D01*
X85152Y343492D01*
X88104Y345460D02*
X88596Y345952D01*
X89579D01*
X90071Y345460D01*
Y344968D01*
X89579Y344476D01*
X90071Y343984D01*
Y343492D01*
X89579Y343000D01*
X88596D01*
X88104Y343492D01*
Y343984D01*
X88596Y344476D01*
X88104Y344968D01*
Y345460D01*
X88596Y344476D02*
X89579D01*
X7468Y352760D02*
X6976Y353252D01*
X5992D01*
X5500Y352760D01*
Y350792D01*
X5992Y350300D01*
X6976D01*
X7468Y350792D01*
X10420Y353252D02*
X8452D01*
Y351776D01*
X9436Y352268D01*
X9928D01*
X10420Y351776D01*
Y350792D01*
X9928Y350300D01*
X8944D01*
X8452Y350792D01*
X11404Y353252D02*
X13372D01*
Y352760D01*
X11404Y350792D01*
Y350300D01*
X186768Y368360D02*
X186276Y368852D01*
X185292D01*
X184800Y368360D01*
Y366392D01*
X185292Y365900D01*
X186276D01*
X186768Y366392D01*
X189720Y368852D02*
X187752D01*
Y367376D01*
X188736Y367868D01*
X189228D01*
X189720Y367376D01*
Y366392D01*
X189228Y365900D01*
X188244D01*
X187752Y366392D01*
X190704Y365900D02*
X191688D01*
X191196D01*
Y368852D01*
X190704Y368360D01*
X83936Y40675D02*
Y37724D01*
X85412D01*
X85904Y38216D01*
Y40183D01*
X85412Y40675D01*
X83936D01*
X86888Y40183D02*
X87380Y40675D01*
X88364D01*
X88856Y40183D01*
Y39691D01*
X88364Y39200D01*
X87872D01*
X88364D01*
X88856Y38708D01*
Y38216D01*
X88364Y37724D01*
X87380D01*
X86888Y38216D01*
X91808Y40675D02*
X89840D01*
Y39200D01*
X90824Y39691D01*
X91316D01*
X91808Y39200D01*
Y38216D01*
X91316Y37724D01*
X90332D01*
X89840Y38216D01*
X370866Y42139D02*
Y39187D01*
X372342D01*
X372834Y39679D01*
Y41647D01*
X372342Y42139D01*
X370866D01*
X373818Y41647D02*
X374310Y42139D01*
X375294D01*
X375786Y41647D01*
Y41155D01*
X375294Y40663D01*
X374802D01*
X375294D01*
X375786Y40171D01*
Y39679D01*
X375294Y39187D01*
X374310D01*
X373818Y39679D01*
X378246Y39187D02*
Y42139D01*
X376770Y40663D01*
X378738D01*
X44164Y257035D02*
X47116D01*
Y258511D01*
X46624Y259003D01*
X44656D01*
X44164Y258511D01*
Y257035D01*
X44656Y259987D02*
X44164Y260479D01*
Y261463D01*
X44656Y261955D01*
X45148D01*
X45640Y261463D01*
Y260971D01*
Y261463D01*
X46132Y261955D01*
X46624D01*
X47116Y261463D01*
Y260479D01*
X46624Y259987D01*
X44656Y262939D02*
X44164Y263431D01*
Y264415D01*
X44656Y264907D01*
X45148D01*
X45640Y264415D01*
Y263923D01*
Y264415D01*
X46132Y264907D01*
X46624D01*
X47116Y264415D01*
Y263431D01*
X46624Y262939D01*
X27500Y348152D02*
Y345200D01*
X28976D01*
X29468Y345692D01*
Y347660D01*
X28976Y348152D01*
X27500D01*
X30452Y347660D02*
X30944Y348152D01*
X31928D01*
X32420Y347660D01*
Y347168D01*
X31928Y346676D01*
X31436D01*
X31928D01*
X32420Y346184D01*
Y345692D01*
X31928Y345200D01*
X30944D01*
X30452Y345692D01*
X35372Y345200D02*
X33404D01*
X35372Y347168D01*
Y347660D01*
X34879Y348152D01*
X33896D01*
X33404Y347660D01*
X91616Y353087D02*
Y350135D01*
X93092D01*
X93584Y350627D01*
Y352595D01*
X93092Y353087D01*
X91616D01*
X94568Y352595D02*
X95060Y353087D01*
X96043D01*
X96535Y352595D01*
Y352103D01*
X96043Y351611D01*
X95552D01*
X96043D01*
X96535Y351119D01*
Y350627D01*
X96043Y350135D01*
X95060D01*
X94568Y350627D01*
X97519Y350135D02*
X98503D01*
X98011D01*
Y353087D01*
X97519Y352595D01*
X190548Y332400D02*
X193500D01*
Y333876D01*
X193008Y334368D01*
X191040D01*
X190548Y333876D01*
Y332400D01*
X191040Y335352D02*
X190548Y335844D01*
Y336828D01*
X191040Y337320D01*
X191532D01*
X192024Y336828D01*
Y336336D01*
Y336828D01*
X192516Y337320D01*
X193008D01*
X193500Y336828D01*
Y335844D01*
X193008Y335352D01*
X191040Y338304D02*
X190548Y338796D01*
Y339779D01*
X191040Y340271D01*
X193008D01*
X193500Y339779D01*
Y338796D01*
X193008Y338304D01*
X191040D01*
X191048Y351598D02*
X194000D01*
Y353074D01*
X193508Y353566D01*
X191540D01*
X191048Y353074D01*
Y351598D01*
X194000Y356517D02*
Y354549D01*
X192032Y356517D01*
X191540D01*
X191048Y356025D01*
Y355041D01*
X191540Y354549D01*
X193508Y357501D02*
X194000Y357993D01*
Y358977D01*
X193508Y359469D01*
X191540D01*
X191048Y358977D01*
Y357993D01*
X191540Y357501D01*
X192032D01*
X192524Y357993D01*
Y359469D01*
X259648Y326600D02*
X262600D01*
Y328076D01*
X262108Y328568D01*
X260140D01*
X259648Y328076D01*
Y326600D01*
X262600Y331520D02*
Y329552D01*
X260632Y331520D01*
X260140D01*
X259648Y331028D01*
Y330044D01*
X260140Y329552D01*
Y332504D02*
X259648Y332996D01*
Y333980D01*
X260140Y334472D01*
X260632D01*
X261124Y333980D01*
X261616Y334472D01*
X262108D01*
X262600Y333980D01*
Y332996D01*
X262108Y332504D01*
X261616D01*
X261124Y332996D01*
X260632Y332504D01*
X260140D01*
X261124Y332996D02*
Y333980D01*
X269248Y326300D02*
X272200D01*
Y327776D01*
X271708Y328268D01*
X269740D01*
X269248Y327776D01*
Y326300D01*
X272200Y331220D02*
Y329252D01*
X270232Y331220D01*
X269740D01*
X269248Y330728D01*
Y329744D01*
X269740Y329252D01*
X269248Y332204D02*
Y334172D01*
X269740D01*
X271708Y332204D01*
X272200D01*
X302200Y352552D02*
Y349600D01*
X303676D01*
X304168Y350092D01*
Y352060D01*
X303676Y352552D01*
X302200D01*
X307120Y349600D02*
X305152D01*
X307120Y351568D01*
Y352060D01*
X306628Y352552D01*
X305644D01*
X305152Y352060D01*
X310071Y352552D02*
X309088Y352060D01*
X308104Y351076D01*
Y350092D01*
X308596Y349600D01*
X309579D01*
X310071Y350092D01*
Y350584D01*
X309579Y351076D01*
X308104D01*
X345300Y219152D02*
Y216200D01*
X346776D01*
X347268Y216692D01*
Y218660D01*
X346776Y219152D01*
X345300D01*
X350220Y216200D02*
X348252D01*
X350220Y218168D01*
Y218660D01*
X349728Y219152D01*
X348744D01*
X348252Y218660D01*
X353171Y219152D02*
X351204D01*
Y217676D01*
X352188Y218168D01*
X352679D01*
X353171Y217676D01*
Y216692D01*
X352679Y216200D01*
X351696D01*
X351204Y216692D01*
X49200Y223852D02*
Y220900D01*
X50676D01*
X51168Y221392D01*
Y223360D01*
X50676Y223852D01*
X49200D01*
X54120Y220900D02*
X52152D01*
X54120Y222868D01*
Y223360D01*
X53628Y223852D01*
X52644D01*
X52152Y223360D01*
X56580Y220900D02*
Y223852D01*
X55104Y222376D01*
X57072D01*
X50000Y183552D02*
Y180600D01*
X51476D01*
X51968Y181092D01*
Y183060D01*
X51476Y183552D01*
X50000D01*
X54920Y180600D02*
X52952D01*
X54920Y182568D01*
Y183060D01*
X54428Y183552D01*
X53444D01*
X52952Y183060D01*
X55904D02*
X56396Y183552D01*
X57380D01*
X57872Y183060D01*
Y182568D01*
X57380Y182076D01*
X56888D01*
X57380D01*
X57872Y181584D01*
Y181092D01*
X57380Y180600D01*
X56396D01*
X55904Y181092D01*
X49998Y212952D02*
Y210000D01*
X51473D01*
X51965Y210492D01*
Y212460D01*
X51473Y212952D01*
X49998D01*
X54917Y210000D02*
X52950D01*
X54917Y211968D01*
Y212460D01*
X54425Y212952D01*
X53441D01*
X52950Y212460D01*
X57869Y210000D02*
X55901D01*
X57869Y211968D01*
Y212460D01*
X57377Y212952D01*
X56393D01*
X55901Y212460D01*
X49600Y174352D02*
Y171400D01*
X51076D01*
X51568Y171892D01*
Y173860D01*
X51076Y174352D01*
X49600D01*
X54520Y171400D02*
X52552D01*
X54520Y173368D01*
Y173860D01*
X54028Y174352D01*
X53044D01*
X52552Y173860D01*
X55504Y171400D02*
X56488D01*
X55996D01*
Y174352D01*
X55504Y173860D01*
X49845Y203658D02*
Y200706D01*
X51321D01*
X51813Y201198D01*
Y203166D01*
X51321Y203658D01*
X49845D01*
X54765Y200706D02*
X52797D01*
X54765Y202674D01*
Y203166D01*
X54273Y203658D01*
X53289D01*
X52797Y203166D01*
X55749D02*
X56241Y203658D01*
X57225D01*
X57717Y203166D01*
Y201198D01*
X57225Y200706D01*
X56241D01*
X55749Y201198D01*
Y203166D01*
X49400Y163752D02*
Y160800D01*
X50876D01*
X51368Y161292D01*
Y163260D01*
X50876Y163752D01*
X49400D01*
X52352Y160800D02*
X53336D01*
X52844D01*
Y163752D01*
X52352Y163260D01*
X54812Y161292D02*
X55304Y160800D01*
X56287D01*
X56779Y161292D01*
Y163260D01*
X56287Y163752D01*
X55304D01*
X54812Y163260D01*
Y162768D01*
X55304Y162276D01*
X56779D01*
X50113Y194158D02*
Y191206D01*
X51589D01*
X52081Y191698D01*
Y193666D01*
X51589Y194158D01*
X50113D01*
X53065Y191206D02*
X54049D01*
X53557D01*
Y194158D01*
X53065Y193666D01*
X55524D02*
X56016Y194158D01*
X57000D01*
X57492Y193666D01*
Y193174D01*
X57000Y192682D01*
X57492Y192190D01*
Y191698D01*
X57000Y191206D01*
X56016D01*
X55524Y191698D01*
Y192190D01*
X56016Y192682D01*
X55524Y193174D01*
Y193666D01*
X56016Y192682D02*
X57000D01*
X49200Y153252D02*
Y150300D01*
X50676D01*
X51168Y150792D01*
Y152760D01*
X50676Y153252D01*
X49200D01*
X52152Y150300D02*
X53136D01*
X52644D01*
Y153252D01*
X52152Y152760D01*
X54612Y153252D02*
X56580D01*
Y152760D01*
X54612Y150792D01*
Y150300D01*
X195268Y198760D02*
X194776Y199252D01*
X193792D01*
X193300Y198760D01*
Y196792D01*
X193792Y196300D01*
X194776D01*
X195268Y196792D01*
X198220Y199252D02*
X196252D01*
Y197776D01*
X197236Y198268D01*
X197728D01*
X198220Y197776D01*
Y196792D01*
X197728Y196300D01*
X196744D01*
X196252Y196792D01*
X201171Y199252D02*
X200188Y198760D01*
X199204Y197776D01*
Y196792D01*
X199696Y196300D01*
X200679D01*
X201171Y196792D01*
Y197284D01*
X200679Y197776D01*
X199204D01*
X362168Y27660D02*
X361676Y28152D01*
X360692D01*
X360200Y27660D01*
Y25692D01*
X360692Y25200D01*
X361676D01*
X362168Y25692D01*
X365120Y28152D02*
X363152D01*
Y26676D01*
X364136Y27168D01*
X364628D01*
X365120Y26676D01*
Y25692D01*
X364628Y25200D01*
X363644D01*
X363152Y25692D01*
X368072Y28152D02*
X366104D01*
Y26676D01*
X367088Y27168D01*
X367580D01*
X368072Y26676D01*
Y25692D01*
X367580Y25200D01*
X366596D01*
X366104Y25692D01*
X132940Y48968D02*
X132448Y48476D01*
Y47492D01*
X132940Y47000D01*
X134908D01*
X135400Y47492D01*
Y48476D01*
X134908Y48968D01*
X132448Y51920D02*
Y49952D01*
X133924D01*
X133432Y50936D01*
Y51428D01*
X133924Y51920D01*
X134908D01*
X135400Y51428D01*
Y50444D01*
X134908Y49952D01*
X135400Y54379D02*
X132448D01*
X133924Y52904D01*
Y54871D01*
X87179Y32560D02*
X86687Y33052D01*
X85703D01*
X85211Y32560D01*
Y30592D01*
X85703Y30100D01*
X86687D01*
X87179Y30592D01*
X90131Y33052D02*
X88163D01*
Y31576D01*
X89147Y32068D01*
X89639D01*
X90131Y31576D01*
Y30592D01*
X89639Y30100D01*
X88655D01*
X88163Y30592D01*
X91115Y32560D02*
X91607Y33052D01*
X92590D01*
X93082Y32560D01*
Y32068D01*
X92590Y31576D01*
X92099D01*
X92590D01*
X93082Y31084D01*
Y30592D01*
X92590Y30100D01*
X91607D01*
X91115Y30592D01*
X316384Y80887D02*
X315400D01*
X315892D01*
Y78427D01*
X315400Y77935D01*
X314908D01*
X314416Y78427D01*
X317368Y80395D02*
X317860Y80887D01*
X318844D01*
X319335Y80395D01*
Y79903D01*
X318844Y79411D01*
X318352D01*
X318844D01*
X319335Y78919D01*
Y78427D01*
X318844Y77935D01*
X317860D01*
X317368Y78427D01*
X3151Y360925D02*
Y359941D01*
Y360433D01*
X5610D01*
X6102Y359941D01*
Y359449D01*
X5610Y358957D01*
X3642Y361909D02*
X3151Y362401D01*
Y363384D01*
X3642Y363876D01*
X4135D01*
X4626Y363384D01*
X5118Y363876D01*
X5610D01*
X6102Y363384D01*
Y362401D01*
X5610Y361909D01*
X5118D01*
X4626Y362401D01*
X4135Y361909D01*
X3642D01*
X4626Y362401D02*
Y363384D01*
X345916Y187735D02*
Y190687D01*
X347392D01*
X347884Y190195D01*
Y189211D01*
X347392Y188719D01*
X345916D01*
X346900D02*
X347884Y187735D01*
X348868Y190195D02*
X349359Y190687D01*
X350343D01*
X350835Y190195D01*
Y189703D01*
X350343Y189211D01*
X349851D01*
X350343D01*
X350835Y188719D01*
Y188227D01*
X350343Y187735D01*
X349359D01*
X348868Y188227D01*
X351819Y190195D02*
X352311Y190687D01*
X353295D01*
X353787Y190195D01*
Y189703D01*
X353295Y189211D01*
X352803D01*
X353295D01*
X353787Y188719D01*
Y188227D01*
X353295Y187735D01*
X352311D01*
X351819Y188227D01*
X330840Y262368D02*
X330348Y261876D01*
Y260892D01*
X330840Y260400D01*
X332808D01*
X333300Y260892D01*
Y261876D01*
X332808Y262368D01*
X330840Y263352D02*
X330348Y263844D01*
Y264828D01*
X330840Y265320D01*
X331332D01*
X331824Y264828D01*
Y264336D01*
Y264828D01*
X332316Y265320D01*
X332808D01*
X333300Y264828D01*
Y263844D01*
X332808Y263352D01*
X330840Y266304D02*
X330348Y266796D01*
Y267779D01*
X330840Y268271D01*
X331332D01*
X331824Y267779D01*
Y267288D01*
Y267779D01*
X332316Y268271D01*
X332808D01*
X333300Y267779D01*
Y266796D01*
X332808Y266304D01*
X51368Y276852D02*
X50384D01*
X50876D01*
Y274392D01*
X50384Y273900D01*
X49892D01*
X49400Y274392D01*
X54320Y276852D02*
X53336Y276360D01*
X52352Y275376D01*
Y274392D01*
X52844Y273900D01*
X53828D01*
X54320Y274392D01*
Y274884D01*
X53828Y275376D01*
X52352D01*
X181300Y242852D02*
Y239900D01*
X182776D01*
X183268Y240392D01*
Y240884D01*
X182776Y241376D01*
X181300D01*
X182776D01*
X183268Y241868D01*
Y242360D01*
X182776Y242852D01*
X181300D01*
X184252Y239900D02*
X185236D01*
X184744D01*
Y242852D01*
X184252Y242360D01*
X181000Y258352D02*
Y255400D01*
X182476D01*
X182968Y255892D01*
Y256384D01*
X182476Y256876D01*
X181000D01*
X182476D01*
X182968Y257368D01*
Y257860D01*
X182476Y258352D01*
X181000D01*
X185920Y255400D02*
X183952D01*
X185920Y257368D01*
Y257860D01*
X185428Y258352D01*
X184444D01*
X183952Y257860D01*
X110084Y109695D02*
X109592Y110187D01*
X108608D01*
X108116Y109695D01*
Y107727D01*
X108608Y107235D01*
X109592D01*
X110084Y107727D01*
X111068Y107235D02*
X112051D01*
X111559D01*
Y110187D01*
X111068Y109695D01*
X109771Y146086D02*
X109279Y146578D01*
X108295D01*
X107803Y146086D01*
Y144118D01*
X108295Y143626D01*
X109279D01*
X109771Y144118D01*
X112723Y143626D02*
X110755D01*
X112723Y145594D01*
Y146086D01*
X112231Y146578D01*
X111247D01*
X110755Y146086D01*
X63084Y145952D02*
X62592Y146443D01*
X61608D01*
X61116Y145952D01*
Y143984D01*
X61608Y143492D01*
X62592D01*
X63084Y143984D01*
X64068Y145952D02*
X64560Y146443D01*
X65544D01*
X66035Y145952D01*
Y145460D01*
X65544Y144968D01*
X65052D01*
X65544D01*
X66035Y144476D01*
Y143984D01*
X65544Y143492D01*
X64560D01*
X64068Y143984D01*
X63078Y109003D02*
X62586Y109495D01*
X61602D01*
X61110Y109003D01*
Y107035D01*
X61602Y106543D01*
X62586D01*
X63078Y107035D01*
X65537Y106543D02*
Y109495D01*
X64061Y108019D01*
X66029D01*
X108007Y201167D02*
X107515Y201659D01*
X106531D01*
X106039Y201167D01*
Y199199D01*
X106531Y198707D01*
X107515D01*
X108007Y199199D01*
X110959Y201659D02*
X108991D01*
Y200183D01*
X109975Y200675D01*
X110467D01*
X110959Y200183D01*
Y199199D01*
X110467Y198707D01*
X109483D01*
X108991Y199199D01*
X97668Y245960D02*
X97176Y246452D01*
X96192D01*
X95700Y245960D01*
Y243992D01*
X96192Y243500D01*
X97176D01*
X97668Y243992D01*
X100620Y246452D02*
X99636Y245960D01*
X98652Y244976D01*
Y243992D01*
X99144Y243500D01*
X100128D01*
X100620Y243992D01*
Y244484D01*
X100128Y244976D01*
X98652D01*
X57507Y236367D02*
X57015Y236859D01*
X56031D01*
X55539Y236367D01*
Y234400D01*
X56031Y233908D01*
X57015D01*
X57507Y234400D01*
X58491Y236859D02*
X60459D01*
Y236367D01*
X58491Y234400D01*
Y233908D01*
X64168Y205360D02*
X63676Y205852D01*
X62692D01*
X62200Y205360D01*
Y203392D01*
X62692Y202900D01*
X63676D01*
X64168Y203392D01*
X65152Y205360D02*
X65644Y205852D01*
X66628D01*
X67120Y205360D01*
Y204868D01*
X66628Y204376D01*
X67120Y203884D01*
Y203392D01*
X66628Y202900D01*
X65644D01*
X65152Y203392D01*
Y203884D01*
X65644Y204376D01*
X65152Y204868D01*
Y205360D01*
X65644Y204376D02*
X66628D01*
X127440Y179268D02*
X126948Y178776D01*
Y177792D01*
X127440Y177300D01*
X129408D01*
X129900Y177792D01*
Y178776D01*
X129408Y179268D01*
X129900Y180252D02*
Y181236D01*
Y180744D01*
X126948D01*
X127440Y180252D01*
Y182712D02*
X126948Y183204D01*
Y184188D01*
X127440Y184679D01*
X129408D01*
X129900Y184188D01*
Y183204D01*
X129408Y182712D01*
X127440D01*
X129368Y190360D02*
X128876Y190852D01*
X127892D01*
X127400Y190360D01*
Y188392D01*
X127892Y187900D01*
X128876D01*
X129368Y188392D01*
X130352D02*
X130844Y187900D01*
X131828D01*
X132320Y188392D01*
Y190360D01*
X131828Y190852D01*
X130844D01*
X130352Y190360D01*
Y189868D01*
X130844Y189376D01*
X132320D01*
X169668Y203160D02*
X169176Y203652D01*
X168192D01*
X167700Y203160D01*
Y201192D01*
X168192Y200700D01*
X169176D01*
X169668Y201192D01*
X172128Y200700D02*
Y203652D01*
X170652Y202176D01*
X172620D01*
X173604Y203160D02*
X174096Y203652D01*
X175080D01*
X175572Y203160D01*
Y202668D01*
X175080Y202176D01*
X174588D01*
X175080D01*
X175572Y201684D01*
Y201192D01*
X175080Y200700D01*
X174096D01*
X173604Y201192D01*
X136168Y208660D02*
X135676Y209152D01*
X134692D01*
X134200Y208660D01*
Y206692D01*
X134692Y206200D01*
X135676D01*
X136168Y206692D01*
X137152Y206200D02*
X138136D01*
X137644D01*
Y209152D01*
X137152Y208660D01*
X139612Y206200D02*
X140596D01*
X140104D01*
Y209152D01*
X139612Y208660D01*
X135368Y214560D02*
X134876Y215052D01*
X133892D01*
X133400Y214560D01*
Y212592D01*
X133892Y212100D01*
X134876D01*
X135368Y212592D01*
X136352Y212100D02*
X137336D01*
X136844D01*
Y215052D01*
X136352Y214560D01*
X140779Y212100D02*
X138812D01*
X140779Y214068D01*
Y214560D01*
X140288Y215052D01*
X139304D01*
X138812Y214560D01*
X151040Y181568D02*
X150548Y181076D01*
Y180092D01*
X151040Y179600D01*
X153008D01*
X153500Y180092D01*
Y181076D01*
X153008Y181568D01*
X153500Y184028D02*
X150548D01*
X152024Y182552D01*
Y184520D01*
X150548Y187471D02*
Y185504D01*
X152024D01*
X151532Y186488D01*
Y186979D01*
X152024Y187471D01*
X153008D01*
X153500Y186979D01*
Y185996D01*
X153008Y185504D01*
X146140Y181268D02*
X145648Y180776D01*
Y179792D01*
X146140Y179300D01*
X148108D01*
X148600Y179792D01*
Y180776D01*
X148108Y181268D01*
X148600Y183728D02*
X145648D01*
X147124Y182252D01*
Y184220D01*
X145648Y185204D02*
Y187171D01*
X146140D01*
X148108Y185204D01*
X148600D01*
X138068Y202360D02*
X137576Y202852D01*
X136592D01*
X136100Y202360D01*
Y200392D01*
X136592Y199900D01*
X137576D01*
X138068Y200392D01*
X140528Y199900D02*
Y202852D01*
X139052Y201376D01*
X141020D01*
X142004Y202360D02*
X142496Y202852D01*
X143480D01*
X143972Y202360D01*
Y201868D01*
X143480Y201376D01*
X143972Y200884D01*
Y200392D01*
X143480Y199900D01*
X142496D01*
X142004Y200392D01*
Y200884D01*
X142496Y201376D01*
X142004Y201868D01*
Y202360D01*
X142496Y201376D02*
X143480D01*
X202368Y175860D02*
X201876Y176352D01*
X200892D01*
X200400Y175860D01*
Y173892D01*
X200892Y173400D01*
X201876D01*
X202368Y173892D01*
X204828Y173400D02*
Y176352D01*
X203352Y174876D01*
X205320D01*
X206304Y173892D02*
X206796Y173400D01*
X207780D01*
X208272Y173892D01*
Y175860D01*
X207780Y176352D01*
X206796D01*
X206304Y175860D01*
Y175368D01*
X206796Y174876D01*
X208272D01*
X170940Y150268D02*
X170448Y149776D01*
Y148792D01*
X170940Y148300D01*
X172908D01*
X173400Y148792D01*
Y149776D01*
X172908Y150268D01*
X170448Y153220D02*
Y151252D01*
X171924D01*
X171432Y152236D01*
Y152728D01*
X171924Y153220D01*
X172908D01*
X173400Y152728D01*
Y151744D01*
X172908Y151252D01*
X170940Y154204D02*
X170448Y154696D01*
Y155680D01*
X170940Y156172D01*
X172908D01*
X173400Y155680D01*
Y154696D01*
X172908Y154204D01*
X170940D01*
X164460Y228832D02*
X164952Y229324D01*
Y230308D01*
X164460Y230800D01*
X162492D01*
X162000Y230308D01*
Y229324D01*
X162492Y228832D01*
X162000Y227848D02*
Y226864D01*
Y227356D01*
X164952D01*
X164460Y227848D01*
X162000Y223912D02*
X164952D01*
X163476Y225388D01*
Y223421D01*
X153891Y169291D02*
X153399Y168799D01*
Y167816D01*
X153891Y167324D01*
X155858D01*
X156350Y167816D01*
Y168799D01*
X155858Y169291D01*
X156350Y170275D02*
Y171259D01*
Y170767D01*
X153399D01*
X153891Y170275D01*
Y172735D02*
X153399Y173227D01*
Y174211D01*
X153891Y174703D01*
X154383D01*
X154875Y174211D01*
Y173719D01*
Y174211D01*
X155367Y174703D01*
X155858D01*
X156350Y174211D01*
Y173227D01*
X155858Y172735D01*
X147313Y154906D02*
X146821Y155398D01*
X145837D01*
X145345Y154906D01*
Y152938D01*
X145837Y152446D01*
X146821D01*
X147313Y152938D01*
X148297Y152446D02*
X149281D01*
X148789D01*
Y155398D01*
X148297Y154906D01*
X152724Y155398D02*
X151741Y154906D01*
X150757Y153922D01*
Y152938D01*
X151249Y152446D01*
X152232D01*
X152724Y152938D01*
Y153430D01*
X152232Y153922D01*
X150757D01*
X170668Y219560D02*
X170176Y220052D01*
X169192D01*
X168700Y219560D01*
Y217592D01*
X169192Y217100D01*
X170176D01*
X170668Y217592D01*
X171652Y217100D02*
X172636D01*
X172144D01*
Y220052D01*
X171652Y219560D01*
X176079Y220052D02*
X174112D01*
Y218576D01*
X175096Y219068D01*
X175588D01*
X176079Y218576D01*
Y217592D01*
X175588Y217100D01*
X174604D01*
X174112Y217592D01*
X118840Y211168D02*
X118348Y210676D01*
Y209692D01*
X118840Y209200D01*
X120808D01*
X121300Y209692D01*
Y210676D01*
X120808Y211168D01*
X121300Y213628D02*
X118348D01*
X119824Y212152D01*
Y214120D01*
X121300Y216580D02*
X118348D01*
X119824Y215104D01*
Y217072D01*
X128940Y220568D02*
X128448Y220076D01*
Y219092D01*
X128940Y218600D01*
X130908D01*
X131400Y219092D01*
Y220076D01*
X130908Y220568D01*
X131400Y223028D02*
X128448D01*
X129924Y221552D01*
Y223520D01*
X128448Y226471D02*
X128940Y225488D01*
X129924Y224504D01*
X130908D01*
X131400Y224996D01*
Y225979D01*
X130908Y226471D01*
X130416D01*
X129924Y225979D01*
Y224504D01*
X272440Y34768D02*
X271948Y34276D01*
Y33292D01*
X272440Y32800D01*
X274408D01*
X274900Y33292D01*
Y34276D01*
X274408Y34768D01*
X274900Y35752D02*
Y36736D01*
Y36244D01*
X271948D01*
X272440Y35752D01*
X271948Y38212D02*
Y40179D01*
X272440D01*
X274408Y38212D01*
X274900D01*
X255140Y32368D02*
X254648Y31876D01*
Y30892D01*
X255140Y30400D01*
X257108D01*
X257600Y30892D01*
Y31876D01*
X257108Y32368D01*
X257600Y33352D02*
Y34336D01*
Y33844D01*
X254648D01*
X255140Y33352D01*
Y35812D02*
X254648Y36304D01*
Y37288D01*
X255140Y37780D01*
X255632D01*
X256124Y37288D01*
X256616Y37780D01*
X257108D01*
X257600Y37288D01*
Y36304D01*
X257108Y35812D01*
X256616D01*
X256124Y36304D01*
X255632Y35812D01*
X255140D01*
X256124Y36304D02*
Y37288D01*
X308268Y38560D02*
X307776Y39052D01*
X306792D01*
X306300Y38560D01*
Y36592D01*
X306792Y36100D01*
X307776D01*
X308268Y36592D01*
X309252Y36100D02*
X310236D01*
X309744D01*
Y39052D01*
X309252Y38560D01*
X311712Y36592D02*
X312204Y36100D01*
X313188D01*
X313680Y36592D01*
Y38560D01*
X313188Y39052D01*
X312204D01*
X311712Y38560D01*
Y38068D01*
X312204Y37576D01*
X313680D01*
X337840Y5168D02*
X337348Y4676D01*
Y3692D01*
X337840Y3200D01*
X339808D01*
X340300Y3692D01*
Y4676D01*
X339808Y5168D01*
X340300Y8120D02*
Y6152D01*
X338332Y8120D01*
X337840D01*
X337348Y7628D01*
Y6644D01*
X337840Y6152D01*
Y9104D02*
X337348Y9596D01*
Y10580D01*
X337840Y11072D01*
X339808D01*
X340300Y10580D01*
Y9596D01*
X339808Y9104D01*
X337840D01*
X349140Y8868D02*
X348648Y8376D01*
Y7392D01*
X349140Y6900D01*
X351108D01*
X351600Y7392D01*
Y8376D01*
X351108Y8868D01*
X351600Y11820D02*
Y9852D01*
X349632Y11820D01*
X349140D01*
X348648Y11328D01*
Y10344D01*
X349140Y9852D01*
X351600Y12804D02*
Y13788D01*
Y13296D01*
X348648D01*
X349140Y12804D01*
X344340Y8768D02*
X343848Y8276D01*
Y7292D01*
X344340Y6800D01*
X346308D01*
X346800Y7292D01*
Y8276D01*
X346308Y8768D01*
X346800Y11720D02*
Y9752D01*
X344832Y11720D01*
X344340D01*
X343848Y11228D01*
Y10244D01*
X344340Y9752D01*
Y12704D02*
X343848Y13196D01*
Y14179D01*
X344340Y14672D01*
X344832D01*
X345324Y14179D01*
Y13688D01*
Y14179D01*
X345816Y14672D01*
X346308D01*
X346800Y14179D01*
Y13196D01*
X346308Y12704D01*
X281168Y55160D02*
X280676Y55652D01*
X279692D01*
X279200Y55160D01*
Y53192D01*
X279692Y52700D01*
X280676D01*
X281168Y53192D01*
X284120Y52700D02*
X282152D01*
X284120Y54668D01*
Y55160D01*
X283628Y55652D01*
X282644D01*
X282152Y55160D01*
X286579Y52700D02*
Y55652D01*
X285104Y54176D01*
X287071D01*
X216740Y23168D02*
X216248Y22676D01*
Y21692D01*
X216740Y21200D01*
X218708D01*
X219200Y21692D01*
Y22676D01*
X218708Y23168D01*
X219200Y26120D02*
Y24152D01*
X217232Y26120D01*
X216740D01*
X216248Y25628D01*
Y24644D01*
X216740Y24152D01*
X219200Y29072D02*
Y27104D01*
X217232Y29072D01*
X216740D01*
X216248Y28580D01*
Y27596D01*
X216740Y27104D01*
X268056Y77792D02*
X267564Y77300D01*
Y76316D01*
X268056Y75824D01*
X270024D01*
X270516Y76316D01*
Y77300D01*
X270024Y77792D01*
X270516Y80744D02*
Y78776D01*
X268548Y80744D01*
X268056D01*
X267564Y80252D01*
Y79268D01*
X268056Y78776D01*
X267564Y83696D02*
Y81728D01*
X269040D01*
X268548Y82712D01*
Y83204D01*
X269040Y83696D01*
X270024D01*
X270516Y83204D01*
Y82220D01*
X270024Y81728D01*
X284153Y135629D02*
X283661Y136121D01*
X282677D01*
X282185Y135629D01*
Y133661D01*
X282677Y133169D01*
X283661D01*
X284153Y133661D01*
X287105Y133169D02*
X285137D01*
X287105Y135137D01*
Y135629D01*
X286613Y136121D01*
X285629D01*
X285137Y135629D01*
X288089Y136121D02*
X290056D01*
Y135629D01*
X288089Y133661D01*
Y133169D01*
X255656Y85103D02*
X255164Y84611D01*
Y83627D01*
X255656Y83135D01*
X257624D01*
X258116Y83627D01*
Y84611D01*
X257624Y85103D01*
X258116Y88055D02*
Y86087D01*
X256148Y88055D01*
X255656D01*
X255164Y87563D01*
Y86579D01*
X255656Y86087D01*
X255164Y91007D02*
X255656Y90023D01*
X256640Y89039D01*
X257624D01*
X258116Y89531D01*
Y90515D01*
X257624Y91007D01*
X257132D01*
X256640Y90515D01*
Y89039D01*
X271068Y110860D02*
X270576Y111352D01*
X269592D01*
X269100Y110860D01*
Y108892D01*
X269592Y108400D01*
X270576D01*
X271068Y108892D01*
X274020Y108400D02*
X272052D01*
X274020Y110368D01*
Y110860D01*
X273528Y111352D01*
X272544D01*
X272052Y110860D01*
X275004D02*
X275496Y111352D01*
X276480D01*
X276972Y110860D01*
Y110368D01*
X276480Y109876D01*
X276972Y109384D01*
Y108892D01*
X276480Y108400D01*
X275496D01*
X275004Y108892D01*
Y109384D01*
X275496Y109876D01*
X275004Y110368D01*
Y110860D01*
X275496Y109876D02*
X276480D01*
X261840Y115937D02*
X261348Y115445D01*
Y114461D01*
X261840Y113969D01*
X263808D01*
X264300Y114461D01*
Y115445D01*
X263808Y115937D01*
X261840Y116921D02*
X261348Y117413D01*
Y118397D01*
X261840Y118889D01*
X262332D01*
X262824Y118397D01*
Y117905D01*
Y118397D01*
X263316Y118889D01*
X263808D01*
X264300Y118397D01*
Y117413D01*
X263808Y116921D01*
X261840Y119873D02*
X261348Y120365D01*
Y121349D01*
X261840Y121841D01*
X263808D01*
X264300Y121349D01*
Y120365D01*
X263808Y119873D01*
X261840D01*
X256679Y116737D02*
X256187Y116245D01*
Y115261D01*
X256679Y114769D01*
X258647D01*
X259139Y115261D01*
Y116245D01*
X258647Y116737D01*
X256679Y117721D02*
X256187Y118213D01*
Y119197D01*
X256679Y119689D01*
X257171D01*
X257663Y119197D01*
Y118705D01*
Y119197D01*
X258155Y119689D01*
X258647D01*
X259139Y119197D01*
Y118213D01*
X258647Y117721D01*
X259139Y120673D02*
Y121657D01*
Y121165D01*
X256187D01*
X256679Y120673D01*
X217240Y76168D02*
X216748Y75676D01*
Y74692D01*
X217240Y74200D01*
X219208D01*
X219700Y74692D01*
Y75676D01*
X219208Y76168D01*
X219700Y79120D02*
Y77152D01*
X217732Y79120D01*
X217240D01*
X216748Y78628D01*
Y77644D01*
X217240Y77152D01*
X219208Y80104D02*
X219700Y80596D01*
Y81580D01*
X219208Y82072D01*
X217240D01*
X216748Y81580D01*
Y80596D01*
X217240Y80104D01*
X217732D01*
X218224Y80596D01*
Y82072D01*
X337868Y232260D02*
X337376Y232752D01*
X336392D01*
X335900Y232260D01*
Y230292D01*
X336392Y229800D01*
X337376D01*
X337868Y230292D01*
X338852Y232260D02*
X339344Y232752D01*
X340328D01*
X340820Y232260D01*
Y231768D01*
X340328Y231276D01*
X339836D01*
X340328D01*
X340820Y230784D01*
Y230292D01*
X340328Y229800D01*
X339344D01*
X338852Y230292D01*
X343280Y229800D02*
Y232752D01*
X341804Y231276D01*
X343772D01*
X345440Y247668D02*
X344948Y247176D01*
Y246192D01*
X345440Y245700D01*
X347408D01*
X347900Y246192D01*
Y247176D01*
X347408Y247668D01*
X345440Y248652D02*
X344948Y249144D01*
Y250128D01*
X345440Y250620D01*
X345932D01*
X346424Y250128D01*
Y249636D01*
Y250128D01*
X346916Y250620D01*
X347408D01*
X347900Y250128D01*
Y249144D01*
X347408Y248652D01*
X344948Y253572D02*
Y251604D01*
X346424D01*
X345932Y252588D01*
Y253080D01*
X346424Y253572D01*
X347408D01*
X347900Y253080D01*
Y252096D01*
X347408Y251604D01*
X327468Y241260D02*
X326976Y241752D01*
X325992D01*
X325500Y241260D01*
Y239292D01*
X325992Y238800D01*
X326976D01*
X327468Y239292D01*
X328452Y241260D02*
X328944Y241752D01*
X329928D01*
X330420Y241260D01*
Y240768D01*
X329928Y240276D01*
X329436D01*
X329928D01*
X330420Y239784D01*
Y239292D01*
X329928Y238800D01*
X328944D01*
X328452Y239292D01*
X333371Y241752D02*
X332388Y241260D01*
X331404Y240276D01*
Y239292D01*
X331896Y238800D01*
X332879D01*
X333371Y239292D01*
Y239784D01*
X332879Y240276D01*
X331404D01*
X286668Y339560D02*
X286176Y340052D01*
X285192D01*
X284700Y339560D01*
Y337592D01*
X285192Y337100D01*
X286176D01*
X286668Y337592D01*
X287652Y339560D02*
X288144Y340052D01*
X289128D01*
X289620Y339560D01*
Y339068D01*
X289128Y338576D01*
X288636D01*
X289128D01*
X289620Y338084D01*
Y337592D01*
X289128Y337100D01*
X288144D01*
X287652Y337592D01*
X290604Y340052D02*
X292571D01*
Y339560D01*
X290604Y337592D01*
Y337100D01*
X210968Y309560D02*
X210476Y310052D01*
X209492D01*
X209000Y309560D01*
Y307592D01*
X209492Y307100D01*
X210476D01*
X210968Y307592D01*
X211952Y309560D02*
X212444Y310052D01*
X213428D01*
X213920Y309560D01*
Y309068D01*
X213428Y308576D01*
X212936D01*
X213428D01*
X213920Y308084D01*
Y307592D01*
X213428Y307100D01*
X212444D01*
X211952Y307592D01*
X214904D02*
X215396Y307100D01*
X216379D01*
X216872Y307592D01*
Y309560D01*
X216379Y310052D01*
X215396D01*
X214904Y309560D01*
Y309068D01*
X215396Y308576D01*
X216872D01*
X129468Y288060D02*
X128976Y288552D01*
X127992D01*
X127500Y288060D01*
Y286092D01*
X127992Y285600D01*
X128976D01*
X129468Y286092D01*
X131928Y285600D02*
Y288552D01*
X130452Y287076D01*
X132420D01*
X133404Y288060D02*
X133896Y288552D01*
X134880D01*
X135371Y288060D01*
Y286092D01*
X134880Y285600D01*
X133896D01*
X133404Y286092D01*
Y288060D01*
X73300Y24452D02*
Y21500D01*
X74776D01*
X75268Y21992D01*
Y23960D01*
X74776Y24452D01*
X73300D01*
X76252Y21500D02*
X77236D01*
X76744D01*
Y24452D01*
X76252Y23960D01*
X78712Y21500D02*
X79696D01*
X79204D01*
Y24452D01*
X78712Y23960D01*
X73400Y28852D02*
Y25900D01*
X74876D01*
X75368Y26392D01*
Y28360D01*
X74876Y28852D01*
X73400D01*
X76352Y25900D02*
X77336D01*
X76844D01*
Y28852D01*
X76352Y28360D01*
X80779Y25900D02*
X78812D01*
X80779Y27868D01*
Y28360D01*
X80287Y28852D01*
X79304D01*
X78812Y28360D01*
X73600Y33852D02*
Y30900D01*
X75076D01*
X75568Y31392D01*
Y33360D01*
X75076Y33852D01*
X73600D01*
X76552Y30900D02*
X77536D01*
X77044D01*
Y33852D01*
X76552Y33360D01*
X79012D02*
X79504Y33852D01*
X80488D01*
X80980Y33360D01*
Y32868D01*
X80488Y32376D01*
X79996D01*
X80488D01*
X80980Y31884D01*
Y31392D01*
X80488Y30900D01*
X79504D01*
X79012Y31392D01*
X74000Y47152D02*
Y44200D01*
X75476D01*
X75968Y44692D01*
Y46660D01*
X75476Y47152D01*
X74000D01*
X76952Y44200D02*
X77936D01*
X77444D01*
Y47152D01*
X76952Y46660D01*
X80888Y44200D02*
Y47152D01*
X79412Y45676D01*
X81379D01*
X73800Y51952D02*
Y49000D01*
X75276D01*
X75768Y49492D01*
Y51460D01*
X75276Y51952D01*
X73800D01*
X76752Y49000D02*
X77736D01*
X77244D01*
Y51952D01*
X76752Y51460D01*
X81179Y51952D02*
X79212D01*
Y50476D01*
X80196Y50968D01*
X80687D01*
X81179Y50476D01*
Y49492D01*
X80687Y49000D01*
X79704D01*
X79212Y49492D01*
X73800Y57352D02*
Y54400D01*
X75276D01*
X75768Y54892D01*
Y56860D01*
X75276Y57352D01*
X73800D01*
X76752Y54400D02*
X77736D01*
X77244D01*
Y57352D01*
X76752Y56860D01*
X81179Y57352D02*
X80196Y56860D01*
X79212Y55876D01*
Y54892D01*
X79704Y54400D01*
X80687D01*
X81179Y54892D01*
Y55384D01*
X80687Y55876D01*
X79212D01*
X354348Y231300D02*
X357300D01*
Y232776D01*
X356808Y233268D01*
X354840D01*
X354348Y232776D01*
Y231300D01*
Y234252D02*
Y236220D01*
X354840D01*
X356808Y234252D01*
X357300D01*
X349348Y245000D02*
X352300D01*
Y246476D01*
X351808Y246968D01*
X349840D01*
X349348Y246476D01*
Y245000D01*
X349840Y247952D02*
X349348Y248444D01*
Y249428D01*
X349840Y249920D01*
X350332D01*
X350824Y249428D01*
X351316Y249920D01*
X351808D01*
X352300Y249428D01*
Y248444D01*
X351808Y247952D01*
X351316D01*
X350824Y248444D01*
X350332Y247952D01*
X349840D01*
X350824Y248444D02*
Y249428D01*
X69142Y301070D02*
X72094D01*
Y302546D01*
X71602Y303038D01*
X69634D01*
X69142Y302546D01*
Y301070D01*
X71602Y304022D02*
X72094Y304514D01*
Y305498D01*
X71602Y305990D01*
X69634D01*
X69142Y305498D01*
Y304514D01*
X69634Y304022D01*
X70126D01*
X70618Y304514D01*
Y305990D01*
X320668Y265152D02*
X318700D01*
Y263676D01*
X319684D01*
X318700D01*
Y262200D01*
X321652Y265152D02*
Y262200D01*
X323128D01*
X323620Y262692D01*
Y263184D01*
X323128Y263676D01*
X321652D01*
X323128D01*
X323620Y264168D01*
Y264660D01*
X323128Y265152D01*
X321652D01*
X324604Y262200D02*
X325588D01*
X325096D01*
Y265152D01*
X324604Y264660D01*
X10658Y6995D02*
X9674D01*
X10166D01*
Y4535D01*
X9674Y4043D01*
X9183D01*
X8691Y4535D01*
X11642D02*
X12134Y4043D01*
X13118D01*
X13610Y4535D01*
Y6503D01*
X13118Y6995D01*
X12134D01*
X11642Y6503D01*
Y6011D01*
X12134Y5519D01*
X13610D01*
X228868Y320452D02*
X227884D01*
X228376D01*
Y317992D01*
X227884Y317500D01*
X227392D01*
X226900Y317992D01*
X231328Y317500D02*
Y320452D01*
X229852Y318976D01*
X231820D01*
X292968Y363252D02*
X291984D01*
X292476D01*
Y360792D01*
X291984Y360300D01*
X291492D01*
X291000Y360792D01*
X295920Y363252D02*
X293952D01*
Y361776D01*
X294936Y362268D01*
X295428D01*
X295920Y361776D01*
Y360792D01*
X295428Y360300D01*
X294444D01*
X293952Y360792D01*
X88448Y325168D02*
Y324184D01*
Y324676D01*
X90908D01*
X91400Y324184D01*
Y323692D01*
X90908Y323200D01*
X88448Y326152D02*
Y328120D01*
X88940D01*
X90908Y326152D01*
X91400D01*
X115600Y206852D02*
Y203900D01*
X117568D01*
X118552Y206360D02*
X119044Y206852D01*
X120028D01*
X120520Y206360D01*
Y205868D01*
X120028Y205376D01*
X119536D01*
X120028D01*
X120520Y204884D01*
Y204392D01*
X120028Y203900D01*
X119044D01*
X118552Y204392D01*
X98616Y98435D02*
X95664D01*
Y99911D01*
X96156Y100403D01*
X97140D01*
X97632Y99911D01*
Y98435D01*
Y99419D02*
X98616Y100403D01*
Y101387D02*
Y102371D01*
Y101879D01*
X95664D01*
X96156Y101387D01*
X93400Y93300D02*
X90448D01*
Y94776D01*
X90940Y95268D01*
X91924D01*
X92416Y94776D01*
Y93300D01*
Y94284D02*
X93400Y95268D01*
Y98220D02*
Y96252D01*
X91432Y98220D01*
X90940D01*
X90448Y97728D01*
Y96744D01*
X90940Y96252D01*
X98581Y151603D02*
X95629D01*
Y153079D01*
X96121Y153571D01*
X97105D01*
X97597Y153079D01*
Y151603D01*
Y152587D02*
X98581Y153571D01*
X96121Y154555D02*
X95629Y155047D01*
Y156031D01*
X96121Y156523D01*
X96613D01*
X97105Y156031D01*
Y155539D01*
Y156031D01*
X97597Y156523D01*
X98089D01*
X98581Y156031D01*
Y155047D01*
X98089Y154555D01*
X93216Y151835D02*
X90264D01*
Y153311D01*
X90756Y153803D01*
X91740D01*
X92232Y153311D01*
Y151835D01*
Y152819D02*
X93216Y153803D01*
Y156263D02*
X90264D01*
X91740Y154787D01*
Y156755D01*
X78023Y151303D02*
X75071D01*
Y152779D01*
X75563Y153271D01*
X76547D01*
X77039Y152779D01*
Y151303D01*
Y152287D02*
X78023Y153271D01*
X75071Y156223D02*
Y154255D01*
X76547D01*
X76055Y155239D01*
Y155731D01*
X76547Y156223D01*
X77531D01*
X78023Y155731D01*
Y154747D01*
X77531Y154255D01*
X83511Y151339D02*
X80559D01*
Y152814D01*
X81051Y153306D01*
X82035D01*
X82527Y152814D01*
Y151339D01*
Y152322D02*
X83511Y153306D01*
X80559Y156258D02*
X81051Y155274D01*
X82035Y154290D01*
X83019D01*
X83511Y154782D01*
Y155766D01*
X83019Y156258D01*
X82527D01*
X82035Y155766D01*
Y154290D01*
X78616Y96835D02*
X75664D01*
Y98311D01*
X76156Y98803D01*
X77140D01*
X77632Y98311D01*
Y96835D01*
Y97819D02*
X78616Y98803D01*
X75664Y99787D02*
Y101755D01*
X76156D01*
X78124Y99787D01*
X78616D01*
X83416Y94335D02*
X80464D01*
Y95811D01*
X80956Y96303D01*
X81940D01*
X82432Y95811D01*
Y94335D01*
Y95319D02*
X83416Y96303D01*
X80956Y97287D02*
X80464Y97779D01*
Y98763D01*
X80956Y99255D01*
X81448D01*
X81940Y98763D01*
X82432Y99255D01*
X82924D01*
X83416Y98763D01*
Y97779D01*
X82924Y97287D01*
X82432D01*
X81940Y97779D01*
X81448Y97287D01*
X80956D01*
X81940Y97779D02*
Y98763D01*
X108316Y102435D02*
Y105387D01*
X109792D01*
X110284Y104895D01*
Y103911D01*
X109792Y103419D01*
X108316D01*
X109300D02*
X110284Y102435D01*
X111268Y102927D02*
X111759Y102435D01*
X112743D01*
X113235Y102927D01*
Y104895D01*
X112743Y105387D01*
X111759D01*
X111268Y104895D01*
Y104403D01*
X111759Y103911D01*
X113235D01*
X107803Y148334D02*
Y151286D01*
X109279D01*
X109771Y150794D01*
Y149810D01*
X109279Y149318D01*
X107803D01*
X108787D02*
X109771Y148334D01*
X110755D02*
X111739D01*
X111247D01*
Y151286D01*
X110755Y150794D01*
X113215D02*
X113707Y151286D01*
X114691D01*
X115183Y150794D01*
Y148826D01*
X114691Y148334D01*
X113707D01*
X113215Y148826D01*
Y150794D01*
X59987Y148235D02*
Y151187D01*
X61463D01*
X61955Y150695D01*
Y149711D01*
X61463Y149219D01*
X59987D01*
X60971D02*
X61955Y148235D01*
X62939D02*
X63923D01*
X63431D01*
Y151187D01*
X62939Y150695D01*
X65399Y148235D02*
X66383D01*
X65891D01*
Y151187D01*
X65399Y150695D01*
X58810Y101943D02*
Y104895D01*
X60286D01*
X60778Y104403D01*
Y103419D01*
X60286Y102927D01*
X58810D01*
X59794D02*
X60778Y101943D01*
X61761D02*
X62745D01*
X62253D01*
Y104895D01*
X61761Y104403D01*
X66189Y101943D02*
X64221D01*
X66189Y103911D01*
Y104403D01*
X65697Y104895D01*
X64713D01*
X64221Y104403D01*
X96439Y186407D02*
X93487D01*
Y187883D01*
X93979Y188375D01*
X94963D01*
X95455Y187883D01*
Y186407D01*
Y187391D02*
X96439Y188375D01*
Y189359D02*
Y190343D01*
Y189851D01*
X93487D01*
X93979Y189359D01*
Y191819D02*
X93487Y192311D01*
Y193295D01*
X93979Y193787D01*
X94471D01*
X94963Y193295D01*
Y192803D01*
Y193295D01*
X95455Y193787D01*
X95947D01*
X96439Y193295D01*
Y192311D01*
X95947Y191819D01*
X91939Y183407D02*
X88987D01*
Y184883D01*
X89479Y185375D01*
X90463D01*
X90955Y184883D01*
Y183407D01*
Y184391D02*
X91939Y185375D01*
Y186359D02*
Y187343D01*
Y186851D01*
X88987D01*
X89479Y186359D01*
X91939Y190295D02*
X88987D01*
X90463Y188819D01*
Y190787D01*
X93600Y243000D02*
X90648D01*
Y244476D01*
X91140Y244968D01*
X92124D01*
X92616Y244476D01*
Y243000D01*
Y243984D02*
X93600Y244968D01*
Y245952D02*
Y246936D01*
Y246444D01*
X90648D01*
X91140Y245952D01*
X90648Y250379D02*
Y248412D01*
X92124D01*
X91632Y249396D01*
Y249888D01*
X92124Y250379D01*
X93108D01*
X93600Y249888D01*
Y248904D01*
X93108Y248412D01*
X88600Y243100D02*
X85648D01*
Y244576D01*
X86140Y245068D01*
X87124D01*
X87616Y244576D01*
Y243100D01*
Y244084D02*
X88600Y245068D01*
Y246052D02*
Y247036D01*
Y246544D01*
X85648D01*
X86140Y246052D01*
X85648Y250480D02*
X86140Y249496D01*
X87124Y248512D01*
X88108D01*
X88600Y249004D01*
Y249988D01*
X88108Y250480D01*
X87616D01*
X87124Y249988D01*
Y248512D01*
X73400Y242900D02*
X70448D01*
Y244376D01*
X70940Y244868D01*
X71924D01*
X72416Y244376D01*
Y242900D01*
Y243884D02*
X73400Y244868D01*
Y245852D02*
Y246836D01*
Y246344D01*
X70448D01*
X70940Y245852D01*
X70448Y248312D02*
Y250279D01*
X70940D01*
X72908Y248312D01*
X73400D01*
X78300Y242800D02*
X75348D01*
Y244276D01*
X75840Y244768D01*
X76824D01*
X77316Y244276D01*
Y242800D01*
Y243784D02*
X78300Y244768D01*
Y245752D02*
Y246736D01*
Y246244D01*
X75348D01*
X75840Y245752D01*
Y248212D02*
X75348Y248704D01*
Y249688D01*
X75840Y250180D01*
X76332D01*
X76824Y249688D01*
X77316Y250180D01*
X77808D01*
X78300Y249688D01*
Y248704D01*
X77808Y248212D01*
X77316D01*
X76824Y248704D01*
X76332Y248212D01*
X75840D01*
X76824Y248704D02*
Y249688D01*
X76500Y185000D02*
X73548D01*
Y186476D01*
X74040Y186968D01*
X75024D01*
X75516Y186476D01*
Y185000D01*
Y185984D02*
X76500Y186968D01*
Y187952D02*
Y188936D01*
Y188444D01*
X73548D01*
X74040Y187952D01*
X76008Y190412D02*
X76500Y190904D01*
Y191888D01*
X76008Y192379D01*
X74040D01*
X73548Y191888D01*
Y190904D01*
X74040Y190412D01*
X74532D01*
X75024Y190904D01*
Y192379D01*
X81000Y182800D02*
X78048D01*
Y184276D01*
X78540Y184768D01*
X79524D01*
X80016Y184276D01*
Y182800D01*
Y183784D02*
X81000Y184768D01*
Y187720D02*
Y185752D01*
X79032Y187720D01*
X78540D01*
X78048Y187228D01*
Y186244D01*
X78540Y185752D01*
Y188704D02*
X78048Y189196D01*
Y190180D01*
X78540Y190672D01*
X80508D01*
X81000Y190180D01*
Y189196D01*
X80508Y188704D01*
X78540D01*
X106039Y194107D02*
Y197059D01*
X107515D01*
X108007Y196567D01*
Y195583D01*
X107515Y195091D01*
X106039D01*
X107023D02*
X108007Y194107D01*
X110959D02*
X108991D01*
X110959Y196075D01*
Y196567D01*
X110467Y197059D01*
X109483D01*
X108991Y196567D01*
X111943Y194107D02*
X112927D01*
X112435D01*
Y197059D01*
X111943Y196567D01*
X104700Y234400D02*
Y237352D01*
X106176D01*
X106668Y236860D01*
Y235876D01*
X106176Y235384D01*
X104700D01*
X105684D02*
X106668Y234400D01*
X109620D02*
X107652D01*
X109620Y236368D01*
Y236860D01*
X109128Y237352D01*
X108144D01*
X107652Y236860D01*
X112572Y234400D02*
X110604D01*
X112572Y236368D01*
Y236860D01*
X112080Y237352D01*
X111096D01*
X110604Y236860D01*
X52639Y238508D02*
Y241459D01*
X54115D01*
X54607Y240967D01*
Y239983D01*
X54115Y239491D01*
X52639D01*
X53623D02*
X54607Y238508D01*
X57559D02*
X55591D01*
X57559Y240475D01*
Y240967D01*
X57067Y241459D01*
X56083D01*
X55591Y240967D01*
X58543D02*
X59035Y241459D01*
X60019D01*
X60511Y240967D01*
Y240475D01*
X60019Y239983D01*
X59527D01*
X60019D01*
X60511Y239491D01*
Y239000D01*
X60019Y238508D01*
X59035D01*
X58543Y239000D01*
X64000Y190200D02*
Y193152D01*
X65476D01*
X65968Y192660D01*
Y191676D01*
X65476Y191184D01*
X64000D01*
X64984D02*
X65968Y190200D01*
X68920D02*
X66952D01*
X68920Y192168D01*
Y192660D01*
X68428Y193152D01*
X67444D01*
X66952Y192660D01*
X71380Y190200D02*
Y193152D01*
X69904Y191676D01*
X71872D01*
X133100Y217500D02*
Y220452D01*
X134576D01*
X135068Y219960D01*
Y218976D01*
X134576Y218484D01*
X133100D01*
X134084D02*
X135068Y217500D01*
X138020D02*
X136052D01*
X138020Y219468D01*
Y219960D01*
X137528Y220452D01*
X136544D01*
X136052Y219960D01*
X140972Y220452D02*
X139004D01*
Y218976D01*
X139988Y219468D01*
X140480D01*
X140972Y218976D01*
Y217992D01*
X140480Y217500D01*
X139496D01*
X139004Y217992D01*
X209061Y212891D02*
Y215843D01*
X210537D01*
X211029Y215351D01*
Y214367D01*
X210537Y213875D01*
X209061D01*
X210045D02*
X211029Y212891D01*
X213980D02*
X212012D01*
X213980Y214859D01*
Y215351D01*
X213488Y215843D01*
X212504D01*
X212012Y215351D01*
X216932Y215843D02*
X215948Y215351D01*
X214964Y214367D01*
Y213383D01*
X215456Y212891D01*
X216440D01*
X216932Y213383D01*
Y213875D01*
X216440Y214367D01*
X214964D01*
X156600Y202000D02*
Y204952D01*
X158076D01*
X158568Y204460D01*
Y203476D01*
X158076Y202984D01*
X156600D01*
X157584D02*
X158568Y202000D01*
X159552Y204460D02*
X160044Y204952D01*
X161028D01*
X161520Y204460D01*
Y203968D01*
X161028Y203476D01*
X160536D01*
X161028D01*
X161520Y202984D01*
Y202492D01*
X161028Y202000D01*
X160044D01*
X159552Y202492D01*
X162504Y202000D02*
X163488D01*
X162996D01*
Y204952D01*
X162504Y204460D01*
X191100Y38400D02*
X188148D01*
Y39876D01*
X188640Y40368D01*
X189624D01*
X190116Y39876D01*
Y38400D01*
Y39384D02*
X191100Y40368D01*
X188148Y43320D02*
Y41352D01*
X189624D01*
X189132Y42336D01*
Y42828D01*
X189624Y43320D01*
X190608D01*
X191100Y42828D01*
Y41844D01*
X190608Y41352D01*
X188148Y46271D02*
X188640Y45288D01*
X189624Y44304D01*
X190608D01*
X191100Y44796D01*
Y45779D01*
X190608Y46271D01*
X190116D01*
X189624Y45779D01*
Y44304D01*
X135000Y17600D02*
X132048D01*
Y19076D01*
X132540Y19568D01*
X133524D01*
X134016Y19076D01*
Y17600D01*
Y18584D02*
X135000Y19568D01*
X132048Y22520D02*
Y20552D01*
X133524D01*
X133032Y21536D01*
Y22028D01*
X133524Y22520D01*
X134508D01*
X135000Y22028D01*
Y21044D01*
X134508Y20552D01*
X132048Y23504D02*
Y25471D01*
X132540D01*
X134508Y23504D01*
X135000D01*
X188872Y63100D02*
Y66052D01*
X190348D01*
X190840Y65560D01*
Y64576D01*
X190348Y64084D01*
X188872D01*
X189856D02*
X190840Y63100D01*
X193791Y66052D02*
X191823D01*
Y64576D01*
X192807Y65068D01*
X193299D01*
X193791Y64576D01*
Y63592D01*
X193299Y63100D01*
X192315D01*
X191823Y63592D01*
X194775Y65560D02*
X195267Y66052D01*
X196251D01*
X196743Y65560D01*
Y65068D01*
X196251Y64576D01*
X196743Y64084D01*
Y63592D01*
X196251Y63100D01*
X195267D01*
X194775Y63592D01*
Y64084D01*
X195267Y64576D01*
X194775Y65068D01*
Y65560D01*
X195267Y64576D02*
X196251D01*
X70700Y72700D02*
X67748D01*
Y74176D01*
X68240Y74668D01*
X69224D01*
X69716Y74176D01*
Y72700D01*
Y73684D02*
X70700Y74668D01*
X67748Y77620D02*
Y75652D01*
X69224D01*
X68732Y76636D01*
Y77128D01*
X69224Y77620D01*
X70208D01*
X70700Y77128D01*
Y76144D01*
X70208Y75652D01*
Y78604D02*
X70700Y79096D01*
Y80080D01*
X70208Y80572D01*
X68240D01*
X67748Y80080D01*
Y79096D01*
X68240Y78604D01*
X68732D01*
X69224Y79096D01*
Y80572D01*
X190900Y7800D02*
X187948D01*
Y9276D01*
X188440Y9768D01*
X189424D01*
X189916Y9276D01*
Y7800D01*
Y8784D02*
X190900Y9768D01*
X187948Y12720D02*
X188440Y11736D01*
X189424Y10752D01*
X190408D01*
X190900Y11244D01*
Y12228D01*
X190408Y12720D01*
X189916D01*
X189424Y12228D01*
Y10752D01*
X188440Y13704D02*
X187948Y14196D01*
Y15179D01*
X188440Y15672D01*
X190408D01*
X190900Y15179D01*
Y14196D01*
X190408Y13704D01*
X188440D01*
X135100Y56700D02*
X132148D01*
Y58176D01*
X132640Y58668D01*
X133624D01*
X134116Y58176D01*
Y56700D01*
Y57684D02*
X135100Y58668D01*
X132148Y61620D02*
X132640Y60636D01*
X133624Y59652D01*
X134608D01*
X135100Y60144D01*
Y61128D01*
X134608Y61620D01*
X134116D01*
X133624Y61128D01*
Y59652D01*
X135100Y62604D02*
Y63588D01*
Y63096D01*
X132148D01*
X132640Y62604D01*
X309900Y50400D02*
X306948D01*
Y51876D01*
X307440Y52368D01*
X308424D01*
X308916Y51876D01*
Y50400D01*
Y51384D02*
X309900Y52368D01*
X307440Y53352D02*
X306948Y53844D01*
Y54828D01*
X307440Y55320D01*
X307932D01*
X308424Y54828D01*
Y54336D01*
Y54828D01*
X308916Y55320D01*
X309408D01*
X309900Y54828D01*
Y53844D01*
X309408Y53352D01*
X306948Y58271D02*
X307440Y57288D01*
X308424Y56304D01*
X309408D01*
X309900Y56796D01*
Y57780D01*
X309408Y58271D01*
X308916D01*
X308424Y57780D01*
Y56304D01*
X254200Y114500D02*
X251248D01*
Y115976D01*
X251740Y116468D01*
X252724D01*
X253216Y115976D01*
Y114500D01*
Y115484D02*
X254200Y116468D01*
X251740Y117452D02*
X251248Y117944D01*
Y118928D01*
X251740Y119420D01*
X252232D01*
X252724Y118928D01*
Y118436D01*
Y118928D01*
X253216Y119420D01*
X253708D01*
X254200Y118928D01*
Y117944D01*
X253708Y117452D01*
X251248Y120404D02*
Y122371D01*
X251740D01*
X253708Y120404D01*
X254200D01*
X279600Y70700D02*
Y73652D01*
X281076D01*
X281568Y73160D01*
Y72176D01*
X281076Y71684D01*
X279600D01*
X280584D02*
X281568Y70700D01*
X282552Y73160D02*
X283044Y73652D01*
X284028D01*
X284520Y73160D01*
Y72668D01*
X284028Y72176D01*
X283536D01*
X284028D01*
X284520Y71684D01*
Y71192D01*
X284028Y70700D01*
X283044D01*
X282552Y71192D01*
X285504Y73160D02*
X285996Y73652D01*
X286980D01*
X287472Y73160D01*
Y72668D01*
X286980Y72176D01*
X287472Y71684D01*
Y71192D01*
X286980Y70700D01*
X285996D01*
X285504Y71192D01*
Y71684D01*
X285996Y72176D01*
X285504Y72668D01*
Y73160D01*
X285996Y72176D02*
X286980D01*
X213300Y256900D02*
Y259852D01*
X214776D01*
X215268Y259360D01*
Y258376D01*
X214776Y257884D01*
X213300D01*
X214284D02*
X215268Y256900D01*
X216252Y259360D02*
X216744Y259852D01*
X217728D01*
X218220Y259360D01*
Y258868D01*
X217728Y258376D01*
X217236D01*
X217728D01*
X218220Y257884D01*
Y257392D01*
X217728Y256900D01*
X216744D01*
X216252Y257392D01*
X219204D02*
X219696Y256900D01*
X220679D01*
X221171Y257392D01*
Y259360D01*
X220679Y259852D01*
X219696D01*
X219204Y259360D01*
Y258868D01*
X219696Y258376D01*
X221171D01*
X224300Y264900D02*
Y267852D01*
X225776D01*
X226268Y267360D01*
Y266376D01*
X225776Y265884D01*
X224300D01*
X225284D02*
X226268Y264900D01*
X228728D02*
Y267852D01*
X227252Y266376D01*
X229220D01*
X230204Y267360D02*
X230696Y267852D01*
X231680D01*
X232172Y267360D01*
Y265392D01*
X231680Y264900D01*
X230696D01*
X230204Y265392D01*
Y267360D01*
X329016Y234035D02*
Y236987D01*
X330492D01*
X330984Y236495D01*
Y235511D01*
X330492Y235019D01*
X329016D01*
X330000D02*
X330984Y234035D01*
X333443D02*
Y236987D01*
X331968Y235511D01*
X333935D01*
X334919Y234035D02*
X335903D01*
X335411D01*
Y236987D01*
X334919Y236495D01*
X342000Y242200D02*
X339048D01*
Y243676D01*
X339540Y244168D01*
X340524D01*
X341016Y243676D01*
Y242200D01*
Y243184D02*
X342000Y244168D01*
Y246628D02*
X339048D01*
X340524Y245152D01*
Y247120D01*
X342000Y250072D02*
Y248104D01*
X340032Y250072D01*
X339540D01*
X339048Y249580D01*
Y248596D01*
X339540Y248104D01*
X219400Y238900D02*
Y241852D01*
X220876D01*
X221368Y241360D01*
Y240376D01*
X220876Y239884D01*
X219400D01*
X220384D02*
X221368Y238900D01*
X223828D02*
Y241852D01*
X222352Y240376D01*
X224320D01*
X225304Y241360D02*
X225796Y241852D01*
X226780D01*
X227272Y241360D01*
Y240868D01*
X226780Y240376D01*
X226288D01*
X226780D01*
X227272Y239884D01*
Y239392D01*
X226780Y238900D01*
X225796D01*
X225304Y239392D01*
X209900Y242900D02*
Y245852D01*
X211376D01*
X211868Y245360D01*
Y244376D01*
X211376Y243884D01*
X209900D01*
X210884D02*
X211868Y242900D01*
X214328D02*
Y245852D01*
X212852Y244376D01*
X214820D01*
X217280Y242900D02*
Y245852D01*
X215804Y244376D01*
X217772D01*
X312800Y267400D02*
Y270352D01*
X314276D01*
X314768Y269860D01*
Y268876D01*
X314276Y268384D01*
X312800D01*
X313784D02*
X314768Y267400D01*
X317228D02*
Y270352D01*
X315752Y268876D01*
X317720D01*
X320672Y270352D02*
X318704D01*
Y268876D01*
X319688Y269368D01*
X320180D01*
X320672Y268876D01*
Y267892D01*
X320180Y267400D01*
X319196D01*
X318704Y267892D01*
X239500Y244400D02*
Y247352D01*
X240976D01*
X241468Y246860D01*
Y245876D01*
X240976Y245384D01*
X239500D01*
X240484D02*
X241468Y244400D01*
X243928D02*
Y247352D01*
X242452Y245876D01*
X244420D01*
X247372Y247352D02*
X246388Y246860D01*
X245404Y245876D01*
Y244892D01*
X245896Y244400D01*
X246880D01*
X247372Y244892D01*
Y245384D01*
X246880Y245876D01*
X245404D01*
X246700Y249100D02*
Y252052D01*
X248176D01*
X248668Y251560D01*
Y250576D01*
X248176Y250084D01*
X246700D01*
X247684D02*
X248668Y249100D01*
X251128D02*
Y252052D01*
X249652Y250576D01*
X251620D01*
X252604Y252052D02*
X254572D01*
Y251560D01*
X252604Y249592D01*
Y249100D01*
X251500Y294900D02*
Y297852D01*
X252976D01*
X253468Y297360D01*
Y296376D01*
X252976Y295884D01*
X251500D01*
X252484D02*
X253468Y294900D01*
X256420Y297852D02*
X254452D01*
Y296376D01*
X255436Y296868D01*
X255928D01*
X256420Y296376D01*
Y295392D01*
X255928Y294900D01*
X254944D01*
X254452Y295392D01*
X257404Y294900D02*
X258388D01*
X257896D01*
Y297852D01*
X257404Y297360D01*
X152600Y356700D02*
X149648D01*
Y358176D01*
X150140Y358668D01*
X151124D01*
X151616Y358176D01*
Y356700D01*
Y357684D02*
X152600Y358668D01*
Y361128D02*
X149648D01*
X151124Y359652D01*
Y361620D01*
X150140Y362604D02*
X149648Y363096D01*
Y364079D01*
X150140Y364571D01*
X150632D01*
X151124Y364079D01*
X151616Y364571D01*
X152108D01*
X152600Y364079D01*
Y363096D01*
X152108Y362604D01*
X151616D01*
X151124Y363096D01*
X150632Y362604D01*
X150140D01*
X151124Y363096D02*
Y364079D01*
X187100Y323800D02*
Y326752D01*
X188576D01*
X189068Y326260D01*
Y325276D01*
X188576Y324784D01*
X187100D01*
X188084D02*
X189068Y323800D01*
X192020Y326752D02*
X190052D01*
Y325276D01*
X191036Y325768D01*
X191528D01*
X192020Y325276D01*
Y324292D01*
X191528Y323800D01*
X190544D01*
X190052Y324292D01*
X193004Y326260D02*
X193496Y326752D01*
X194480D01*
X194972Y326260D01*
Y325768D01*
X194480Y325276D01*
X193988D01*
X194480D01*
X194972Y324784D01*
Y324292D01*
X194480Y323800D01*
X193496D01*
X193004Y324292D01*
X171100Y357300D02*
X168148D01*
Y358776D01*
X168640Y359268D01*
X169624D01*
X170116Y358776D01*
Y357300D01*
Y358284D02*
X171100Y359268D01*
X168148Y362220D02*
Y360252D01*
X169624D01*
X169132Y361236D01*
Y361728D01*
X169624Y362220D01*
X170608D01*
X171100Y361728D01*
Y360744D01*
X170608Y360252D01*
X171100Y365172D02*
Y363204D01*
X169132Y365172D01*
X168640D01*
X168148Y364680D01*
Y363696D01*
X168640Y363204D01*
X106232Y121476D02*
Y119016D01*
X106724Y118524D01*
X107708D01*
X108200Y119016D01*
Y121476D01*
X109184Y118524D02*
X110168D01*
X109676D01*
Y121476D01*
X109184Y120984D01*
X104242Y213111D02*
Y210651D01*
X104734Y210159D01*
X105718D01*
X106210Y210651D01*
Y213111D01*
X109161Y210159D02*
X107193D01*
X109161Y212127D01*
Y212619D01*
X108669Y213111D01*
X107685D01*
X107193Y212619D01*
X180000Y203852D02*
Y201392D01*
X180492Y200900D01*
X181476D01*
X181968Y201392D01*
Y203852D01*
X182952Y203360D02*
X183444Y203852D01*
X184428D01*
X184920Y203360D01*
Y202868D01*
X184428Y202376D01*
X183936D01*
X184428D01*
X184920Y201884D01*
Y201392D01*
X184428Y200900D01*
X183444D01*
X182952Y201392D01*
X151000Y65352D02*
Y62892D01*
X151492Y62400D01*
X152476D01*
X152968Y62892D01*
Y65352D01*
X153952Y62400D02*
X154936D01*
X154444D01*
Y65352D01*
X153952Y64860D01*
X158379Y62400D02*
X156412D01*
X158379Y64368D01*
Y64860D01*
X157888Y65352D01*
X156904D01*
X156412Y64860D01*
X222400Y55952D02*
Y53492D01*
X222892Y53000D01*
X223876D01*
X224368Y53492D01*
Y55952D01*
X226828Y53000D02*
Y55952D01*
X225352Y54476D01*
X227320D01*
X221800Y89352D02*
Y86892D01*
X222292Y86400D01*
X223276D01*
X223768Y86892D01*
Y89352D01*
X226720D02*
X225736Y88860D01*
X224752Y87876D01*
Y86892D01*
X225244Y86400D01*
X226228D01*
X226720Y86892D01*
Y87384D01*
X226228Y87876D01*
X224752D01*
X231200Y263152D02*
Y260692D01*
X231692Y260200D01*
X232676D01*
X233168Y260692D01*
Y263152D01*
X234152Y262660D02*
X234644Y263152D01*
X235628D01*
X236120Y262660D01*
Y262168D01*
X235628Y261676D01*
X236120Y261184D01*
Y260692D01*
X235628Y260200D01*
X234644D01*
X234152Y260692D01*
Y261184D01*
X234644Y261676D01*
X234152Y262168D01*
Y262660D01*
X234644Y261676D02*
X235628D01*
X280600Y269452D02*
Y266992D01*
X281092Y266500D01*
X282076D01*
X282568Y266992D01*
Y269452D01*
X283552Y266992D02*
X284044Y266500D01*
X285028D01*
X285520Y266992D01*
Y268960D01*
X285028Y269452D01*
X284044D01*
X283552Y268960D01*
Y268468D01*
X284044Y267976D01*
X285520D01*
X221500Y293452D02*
Y290992D01*
X221992Y290500D01*
X222976D01*
X223468Y290992D01*
Y293452D01*
X224452Y290500D02*
X225436D01*
X224944D01*
Y293452D01*
X224452Y292960D01*
X226912Y290500D02*
X227896D01*
X227404D01*
Y293452D01*
X226912Y292960D01*
X174700Y291252D02*
Y288792D01*
X175192Y288300D01*
X176176D01*
X176668Y288792D01*
Y291252D01*
X177652Y288300D02*
X178636D01*
X178144D01*
Y291252D01*
X177652Y290760D01*
X180112D02*
X180604Y291252D01*
X181588D01*
X182080Y290760D01*
Y288792D01*
X181588Y288300D01*
X180604D01*
X180112Y288792D01*
Y290760D01*
X151248Y216400D02*
X151740D01*
X152724Y217384D01*
X151740Y218368D01*
X151248D01*
X152724Y217384D02*
X154200D01*
Y221320D02*
Y219352D01*
X152232Y221320D01*
X151740D01*
X151248Y220828D01*
Y219844D01*
X151740Y219352D01*
X9684Y274687D02*
X8700D01*
X9192D01*
Y272227D01*
X8700Y271735D01*
X8208D01*
X7716Y272227D01*
X12635Y271735D02*
X10668D01*
X12635Y273703D01*
Y274195D01*
X12144Y274687D01*
X11159D01*
X10668Y274195D01*
X289300Y40252D02*
Y37792D01*
X289792Y37300D01*
X290776D01*
X291268Y37792D01*
Y40252D01*
X294220D02*
X292252D01*
Y38776D01*
X293236Y39268D01*
X293728D01*
X294220Y38776D01*
Y37792D01*
X293728Y37300D01*
X292744D01*
X292252Y37792D01*
X363816Y215887D02*
Y212935D01*
X365292D01*
X365784Y213427D01*
Y215395D01*
X365292Y215887D01*
X363816D01*
X366768Y212935D02*
X367752D01*
X367260D01*
Y215887D01*
X366768Y215395D01*
X44800Y353352D02*
Y350400D01*
X46276D01*
X46768Y350892D01*
Y352860D01*
X46276Y353352D01*
X44800D01*
X47752Y350400D02*
X48736D01*
X48244D01*
Y353352D01*
X47752Y352860D01*
X50212D02*
X50704Y353352D01*
X51688D01*
X52179Y352860D01*
Y350892D01*
X51688Y350400D01*
X50704D01*
X50212Y350892D01*
Y352860D01*
X215827Y205209D02*
Y208160D01*
X217303D01*
X217795Y207668D01*
Y206685D01*
X217303Y206193D01*
X215827D01*
X216811D02*
X217795Y205209D01*
X220746D02*
X218779D01*
X220746Y207176D01*
Y207668D01*
X220254Y208160D01*
X219271D01*
X218779Y207668D01*
X221730Y208160D02*
X223698D01*
Y207668D01*
X221730Y205701D01*
Y205209D01*
X215531Y197642D02*
Y200593D01*
X217007D01*
X217499Y200102D01*
Y199118D01*
X217007Y198626D01*
X215531D01*
X216515D02*
X217499Y197642D01*
X220451D02*
X218483D01*
X220451Y199610D01*
Y200102D01*
X219959Y200593D01*
X218975D01*
X218483Y200102D01*
X221435D02*
X221927Y200593D01*
X222911D01*
X223403Y200102D01*
Y199610D01*
X222911Y199118D01*
X223403Y198626D01*
Y198134D01*
X222911Y197642D01*
X221927D01*
X221435Y198134D01*
Y198626D01*
X221927Y199118D01*
X221435Y199610D01*
Y200102D01*
X221927Y199118D02*
X222911D01*
X321200Y200500D02*
Y203452D01*
X322676D01*
X323168Y202960D01*
Y201976D01*
X322676Y201484D01*
X321200D01*
X322184D02*
X323168Y200500D01*
X326120D02*
X324152D01*
X326120Y202468D01*
Y202960D01*
X325628Y203452D01*
X324644D01*
X324152Y202960D01*
X327104Y200992D02*
X327596Y200500D01*
X328579D01*
X329071Y200992D01*
Y202960D01*
X328579Y203452D01*
X327596D01*
X327104Y202960D01*
Y202468D01*
X327596Y201976D01*
X329071D01*
X368716Y186987D02*
Y184035D01*
X370192D01*
X370684Y184527D01*
Y186495D01*
X370192Y186987D01*
X368716D01*
X373144Y184035D02*
Y186987D01*
X371668Y185511D01*
X373635D01*
X260816Y52727D02*
Y49776D01*
X262784D01*
X263768D02*
X264752D01*
X264260D01*
Y52727D01*
X263768Y52235D01*
X261164Y84535D02*
X264116D01*
Y86503D01*
Y89455D02*
Y87487D01*
X262148Y89455D01*
X261656D01*
X261164Y88963D01*
Y87979D01*
X261656Y87487D01*
X368716Y123887D02*
Y120935D01*
X370192D01*
X370684Y121427D01*
Y123395D01*
X370192Y123887D01*
X368716D01*
X371668Y123395D02*
X372160Y123887D01*
X373144D01*
X373635Y123395D01*
Y122903D01*
X373144Y122411D01*
X372652D01*
X373144D01*
X373635Y121919D01*
Y121427D01*
X373144Y120935D01*
X372160D01*
X371668Y121427D01*
X368716Y166987D02*
Y164035D01*
X370192D01*
X370684Y164527D01*
Y166495D01*
X370192Y166987D01*
X368716D01*
X373635D02*
X371668D01*
Y165511D01*
X372652Y166003D01*
X373144D01*
X373635Y165511D01*
Y164527D01*
X373144Y164035D01*
X372160D01*
X371668Y164527D01*
X368716Y144287D02*
Y141335D01*
X370192D01*
X370684Y141827D01*
Y143795D01*
X370192Y144287D01*
X368716D01*
X373635D02*
X372652Y143795D01*
X371668Y142811D01*
Y141827D01*
X372160Y141335D01*
X373144D01*
X373635Y141827D01*
Y142319D01*
X373144Y142811D01*
X371668D01*
X344416Y125335D02*
Y128287D01*
X345892D01*
X346384Y127795D01*
Y126811D01*
X345892Y126319D01*
X344416D01*
X345400D02*
X346384Y125335D01*
X347368Y127795D02*
X347860Y128287D01*
X348844D01*
X349335Y127795D01*
Y127303D01*
X348844Y126811D01*
X348352D01*
X348844D01*
X349335Y126319D01*
Y125827D01*
X348844Y125335D01*
X347860D01*
X347368Y125827D01*
X352287Y125335D02*
X350319D01*
X352287Y127303D01*
Y127795D01*
X351795Y128287D01*
X350811D01*
X350319Y127795D01*
X345916Y167435D02*
Y170387D01*
X347392D01*
X347884Y169895D01*
Y168911D01*
X347392Y168419D01*
X345916D01*
X346900D02*
X347884Y167435D01*
X348868Y169895D02*
X349359Y170387D01*
X350343D01*
X350835Y169895D01*
Y169403D01*
X350343Y168911D01*
X349851D01*
X350343D01*
X350835Y168419D01*
Y167927D01*
X350343Y167435D01*
X349359D01*
X348868Y167927D01*
X353295Y167435D02*
Y170387D01*
X351819Y168911D01*
X353787D01*
X345916Y146735D02*
Y149687D01*
X347392D01*
X347884Y149195D01*
Y148211D01*
X347392Y147719D01*
X345916D01*
X346900D02*
X347884Y146735D01*
X348868Y149195D02*
X349359Y149687D01*
X350343D01*
X350835Y149195D01*
Y148703D01*
X350343Y148211D01*
X349851D01*
X350343D01*
X350835Y147719D01*
Y147227D01*
X350343Y146735D01*
X349359D01*
X348868Y147227D01*
X353787Y149687D02*
X351819D01*
Y148211D01*
X352803Y148703D01*
X353295D01*
X353787Y148211D01*
Y147227D01*
X353295Y146735D01*
X352311D01*
X351819Y147227D01*
X335640Y262268D02*
X335148Y261776D01*
Y260792D01*
X335640Y260300D01*
X337608D01*
X338100Y260792D01*
Y261776D01*
X337608Y262268D01*
X335640Y263252D02*
X335148Y263744D01*
Y264728D01*
X335640Y265220D01*
X336132D01*
X336624Y264728D01*
Y264236D01*
Y264728D01*
X337116Y265220D01*
X337608D01*
X338100Y264728D01*
Y263744D01*
X337608Y263252D01*
X338100Y268172D02*
Y266204D01*
X336132Y268172D01*
X335640D01*
X335148Y267680D01*
Y266696D01*
X335640Y266204D01*
X123860Y301332D02*
X124352Y301824D01*
Y302808D01*
X123860Y303300D01*
X121892D01*
X121400Y302808D01*
Y301824D01*
X121892Y301332D01*
X123860Y300348D02*
X124352Y299856D01*
Y298872D01*
X123860Y298380D01*
X123368D01*
X122876Y298872D01*
Y299364D01*
Y298872D01*
X122384Y298380D01*
X121892D01*
X121400Y298872D01*
Y299856D01*
X121892Y300348D01*
X123860Y297396D02*
X124352Y296904D01*
Y295920D01*
X123860Y295428D01*
X123368D01*
X122876Y295920D01*
X122384Y295428D01*
X121892D01*
X121400Y295920D01*
Y296904D01*
X121892Y297396D01*
X122384D01*
X122876Y296904D01*
X123368Y297396D01*
X123860D01*
X122876Y296904D02*
Y295920D01*
X251000Y301300D02*
Y304252D01*
X252476D01*
X252968Y303760D01*
Y302776D01*
X252476Y302284D01*
X251000D01*
X251984D02*
X252968Y301300D01*
X255920Y304252D02*
X253952D01*
Y302776D01*
X254936Y303268D01*
X255428D01*
X255920Y302776D01*
Y301792D01*
X255428Y301300D01*
X254444D01*
X253952Y301792D01*
X256904Y303760D02*
X257396Y304252D01*
X258380D01*
X258872Y303760D01*
Y301792D01*
X258380Y301300D01*
X257396D01*
X256904Y301792D01*
Y303760D01*
X130168Y283160D02*
X129676Y283652D01*
X128692D01*
X128200Y283160D01*
Y281192D01*
X128692Y280700D01*
X129676D01*
X130168Y281192D01*
X132628Y280700D02*
Y283652D01*
X131152Y282176D01*
X133120D01*
X134104Y280700D02*
X135088D01*
X134596D01*
Y283652D01*
X134104Y283160D01*
X69800Y330500D02*
X66848D01*
Y331976D01*
X67340Y332468D01*
X68324D01*
X68816Y331976D01*
Y330500D01*
Y331484D02*
X69800Y332468D01*
Y334928D02*
X66848D01*
X68324Y333452D01*
Y335420D01*
X69308Y336404D02*
X69800Y336896D01*
Y337879D01*
X69308Y338371D01*
X67340D01*
X66848Y337879D01*
Y336896D01*
X67340Y336404D01*
X67832D01*
X68324Y336896D01*
Y338371D01*
X60500Y328200D02*
X57548D01*
Y329676D01*
X58040Y330168D01*
X59024D01*
X59516Y329676D01*
Y328200D01*
Y329184D02*
X60500Y330168D01*
X57548Y333120D02*
Y331152D01*
X59024D01*
X58532Y332136D01*
Y332628D01*
X59024Y333120D01*
X60008D01*
X60500Y332628D01*
Y331644D01*
X60008Y331152D01*
X60500Y335579D02*
X57548D01*
X59024Y334104D01*
Y336071D01*
X176000Y357200D02*
X173048D01*
Y358676D01*
X173540Y359168D01*
X174524D01*
X175016Y358676D01*
Y357200D01*
Y358184D02*
X176000Y359168D01*
X173048Y362120D02*
Y360152D01*
X174524D01*
X174032Y361136D01*
Y361628D01*
X174524Y362120D01*
X175508D01*
X176000Y361628D01*
Y360644D01*
X175508Y360152D01*
X173048Y365072D02*
Y363104D01*
X174524D01*
X174032Y364088D01*
Y364580D01*
X174524Y365072D01*
X175508D01*
X176000Y364580D01*
Y363596D01*
X175508Y363104D01*
X122140Y340268D02*
X121648Y339776D01*
Y338792D01*
X122140Y338300D01*
X124108D01*
X124600Y338792D01*
Y339776D01*
X124108Y340268D01*
X121648Y343220D02*
Y341252D01*
X123124D01*
X122632Y342236D01*
Y342728D01*
X123124Y343220D01*
X124108D01*
X124600Y342728D01*
Y341744D01*
X124108Y341252D01*
X124600Y346171D02*
Y344204D01*
X122632Y346171D01*
X122140D01*
X121648Y345679D01*
Y344696D01*
X122140Y344204D01*
X126547Y277652D02*
Y274700D01*
X128514D01*
X130974D02*
Y277652D01*
X129498Y276176D01*
X131466D01*
X115448Y336500D02*
X118400D01*
Y338468D01*
X115448Y341420D02*
Y339452D01*
X116924D01*
X116432Y340436D01*
Y340928D01*
X116924Y341420D01*
X117908D01*
X118400Y340928D01*
Y339944D01*
X117908Y339452D01*
M02*
