G04*
G04 #@! TF.GenerationSoftware,Altium Limited,Altium Designer,19.1.5 (86)*
G04*
G04 Layer_Color=255*
%FSLAX25Y25*%
%MOIN*%
G70*
G01*
G75*
%ADD124C,0.07480*%
%ADD143C,0.16929*%
%ADD144P,0.08118X8X112.5*%
%ADD145C,0.07500*%
%ADD146C,0.01968*%
%ADD147C,0.06299*%
%ADD148C,0.06693*%
%ADD149C,0.04016*%
%ADD150C,0.09843*%
%ADD151C,0.07874*%
%ADD152O,0.07874X0.04724*%
%ADD153O,0.04724X0.04134*%
%ADD154C,0.04685*%
D124*
X125600Y239600D02*
D03*
D143*
X357200Y350300D02*
D03*
X365100Y14500D02*
D03*
X22400Y102200D02*
D03*
D144*
X20079Y255059D02*
D03*
X14100Y232000D02*
D03*
D145*
X20079Y265059D02*
D03*
X14100Y152000D02*
D03*
Y162000D02*
D03*
Y172000D02*
D03*
Y192000D02*
D03*
Y212000D02*
D03*
Y222000D02*
D03*
Y202000D02*
D03*
Y182000D02*
D03*
Y142000D02*
D03*
D146*
X294563Y48535D02*
D03*
X291610D02*
D03*
X297516D02*
D03*
D147*
X244079Y351600D02*
D03*
X216521D02*
D03*
X230300Y331915D02*
D03*
D148*
X327441Y51417D02*
D03*
Y71417D02*
D03*
X367441D02*
D03*
Y51417D02*
D03*
D149*
X55413Y362992D02*
D03*
X45413D02*
D03*
X35413D02*
D03*
X65413D02*
D03*
X75413D02*
D03*
X85413D02*
D03*
X25413D02*
D03*
X95413D02*
D03*
X15413D02*
D03*
D150*
X31791Y337067D02*
D03*
Y285059D02*
D03*
D151*
X115600Y229600D02*
D03*
Y249600D02*
D03*
X135600Y229600D02*
D03*
Y249600D02*
D03*
D152*
X369000Y250679D02*
D03*
Y223120D02*
D03*
D153*
X361323Y228140D02*
D03*
Y245660D02*
D03*
D154*
X358957Y107087D02*
D03*
Y116929D02*
D03*
Y138189D02*
D03*
Y128347D02*
D03*
X359154Y160138D02*
D03*
Y150295D02*
D03*
Y169783D02*
D03*
Y179626D02*
D03*
X358228Y207185D02*
D03*
Y197343D02*
D03*
M02*
